  0
SECTION
  2
HEADER
  9
$ANGBASE
  50
0.0
  9
$ANGDIR
  70
1
  9
$MEASUREMENT
  70
0
  0
ENDSEC
  0
SECTION
  2
TABLES
  0
TABLE
  2
LTYPE
  70
4
  0
LTYPE
  5
40F
  2
CONTINUOUS
  70
0
  3
Solid line
  72
65
  73
0
  40
0.0
  0
LTYPE
  5
410
  2
DASHDOT
 70
0
  3
Dash Dot ____ _ ____ _
 72
65
 73
4
 40
2.0
 49
1.25
 49
-0.25
 49
0.25
 49
-0.25
  0
LTYPE
  5
411
  2
DASHED
 70
0
  3
Dashed __ __ __ __ __
 72
65
 73
2
 40
0.75
 49
0.5
 49
-0.25
  0
LTYPE
  5
43B
  2
DOTTED
 70
0
  3
Dotted .  .  .  .
 72
65
 73
2
 40
0.2
 49
0.0
 49
-0.2
  0
ENDTAB
  0
TABLE
  2
STYLE
  70
4
  0
STYLE
  2
KICAD
  70
0
  40
0
  41
1
  42
1
  50
0
  71
0
  3
isocp.shx
  0
STYLE
  2
KICADB
  70
0
  40
0
  41
1
  42
1
  50
0
  71
0
  3
isocp.shx
  0
STYLE
  2
KICADI
  70
0
  40
0
  41
1
  42
1
  50
15
  71
0
  3
isocp.shx
  0
STYLE
  2
KICADBI
  70
0
  40
0
  41
1
  42
1
  50
15
  71
0
  3
isocp.shx
  0
ENDTAB
  0
TABLE
  2
LAYER
  70
1
  0
LAYER
  2
BLACK
  70
0
  62
7
  6
CONTINUOUS
  0
ENDTAB
  0
ENDSEC
  0
SECTION
  2
ENTITIES
0
LINE
8
BLACK
6
CONTINUOUS
10
6.10961
20
-1.1011
11
6.1097
21
-1.10108
0
LINE
8
BLACK
6
CONTINUOUS
10
6.1097
20
-1.10108
11
6.10979
21
-1.10106
0
LINE
8
BLACK
6
CONTINUOUS
10
6.10979
20
-1.10106
11
6.1292
21
-1.09902
0
LINE
8
BLACK
6
CONTINUOUS
10
6.1292
20
-1.09902
11
6.12921
21
-1.09902
0
LINE
8
BLACK
6
CONTINUOUS
10
6.12921
20
-1.09902
11
6.12926
21
-1.09902
0
LINE
8
BLACK
6
CONTINUOUS
10
6.12926
20
-1.09902
11
6.1293
21
-1.09902
0
LINE
8
BLACK
6
CONTINUOUS
10
6.1293
20
-1.09902
11
6.12995
21
-1.09902
0
LINE
8
BLACK
6
CONTINUOUS
10
6.12995
20
-1.09902
11
6.12995
21
-1.09902
0
LINE
8
BLACK
6
CONTINUOUS
10
6.12995
20
-1.09902
11
12.94
21
-1.09902
0
LINE
8
BLACK
6
CONTINUOUS
10
12.94
20
-1.09902
11
12.9401
21
-1.09902
0
LINE
8
BLACK
6
CONTINUOUS
10
12.9401
20
-1.09902
11
12.9401
21
-1.09902
0
LINE
8
BLACK
6
CONTINUOUS
10
12.9401
20
-1.09902
11
12.9595
21
-1.10092
0
LINE
8
BLACK
6
CONTINUOUS
10
12.9595
20
-1.10092
11
12.9595
21
-1.10093
0
LINE
8
BLACK
6
CONTINUOUS
10
12.9595
20
-1.10093
11
12.9596
21
-1.10095
0
LINE
8
BLACK
6
CONTINUOUS
10
12.9596
20
-1.10095
11
12.9597
21
-1.10096
0
LINE
8
BLACK
6
CONTINUOUS
10
12.9597
20
-1.10096
11
12.9784
21
-1.1066
0
LINE
8
BLACK
6
CONTINUOUS
10
12.9784
20
-1.1066
11
12.9784
21
-1.10661
0
LINE
8
BLACK
6
CONTINUOUS
10
12.9784
20
-1.10661
11
12.9785
21
-1.10664
0
LINE
8
BLACK
6
CONTINUOUS
10
12.9785
20
-1.10664
11
12.9786
21
-1.10668
0
LINE
8
BLACK
6
CONTINUOUS
10
12.9786
20
-1.10668
11
12.9958
21
-1.11584
0
LINE
8
BLACK
6
CONTINUOUS
10
12.9958
20
-1.11584
11
12.9958
21
-1.11584
0
LINE
8
BLACK
6
CONTINUOUS
10
12.9958
20
-1.11584
11
12.9958
21
-1.11584
0
LINE
8
BLACK
6
CONTINUOUS
10
12.9958
20
-1.11584
11
12.9958
21
-1.11585
0
LINE
8
BLACK
6
CONTINUOUS
10
12.9958
20
-1.11585
11
12.9959
21
-1.1159
0
LINE
8
BLACK
6
CONTINUOUS
10
12.9959
20
-1.1159
11
12.996
21
-1.11595
0
LINE
8
BLACK
6
CONTINUOUS
10
12.996
20
-1.11595
11
13.0111
21
-1.12828
0
LINE
8
BLACK
6
CONTINUOUS
10
13.0111
20
-1.12828
11
13.0111
21
-1.12828
0
LINE
8
BLACK
6
CONTINUOUS
10
13.0111
20
-1.12828
11
13.0111
21
-1.12828
0
LINE
8
BLACK
6
CONTINUOUS
10
13.0111
20
-1.12828
11
13.0111
21
-1.12829
0
LINE
8
BLACK
6
CONTINUOUS
10
13.0111
20
-1.12829
11
13.0112
21
-1.12835
0
LINE
8
BLACK
6
CONTINUOUS
10
13.0112
20
-1.12835
11
13.0112
21
-1.12842
0
LINE
8
BLACK
6
CONTINUOUS
10
13.0112
20
-1.12842
11
13.0237
21
-1.14345
0
LINE
8
BLACK
6
CONTINUOUS
10
13.0237
20
-1.14345
11
13.0237
21
-1.14346
0
LINE
8
BLACK
6
CONTINUOUS
10
13.0237
20
-1.14346
11
13.0237
21
-1.14354
0
LINE
8
BLACK
6
CONTINUOUS
10
13.0237
20
-1.14354
11
13.0238
21
-1.14361
0
LINE
8
BLACK
6
CONTINUOUS
10
13.0238
20
-1.14361
11
13.0331
21
-1.16078
0
LINE
8
BLACK
6
CONTINUOUS
10
13.0331
20
-1.16078
11
13.0331
21
-1.16078
0
LINE
8
BLACK
6
CONTINUOUS
10
13.0331
20
-1.16078
11
13.0331
21
-1.16078
0
LINE
8
BLACK
6
CONTINUOUS
10
13.0331
20
-1.16078
11
13.0331
21
-1.16079
0
LINE
8
BLACK
6
CONTINUOUS
10
13.0331
20
-1.16079
11
13.0331
21
-1.16088
0
LINE
8
BLACK
6
CONTINUOUS
10
13.0331
20
-1.16088
11
13.0331
21
-1.16096
0
LINE
8
BLACK
6
CONTINUOUS
10
13.0331
20
-1.16096
11
13.0389
21
-1.1796
0
LINE
8
BLACK
6
CONTINUOUS
10
13.0389
20
-1.1796
11
13.0389
21
-1.17961
0
LINE
8
BLACK
6
CONTINUOUS
10
13.0389
20
-1.17961
11
13.0389
21
-1.1797
0
LINE
8
BLACK
6
CONTINUOUS
10
13.0389
20
-1.1797
11
13.0389
21
-1.17979
0
LINE
8
BLACK
6
CONTINUOUS
10
13.0389
20
-1.17979
11
13.041
21
-1.19902
0
LINE
8
BLACK
6
CONTINUOUS
10
13.041
20
-1.19902
11
13.1291
21
-1.19902
0
LINE
8
BLACK
6
CONTINUOUS
10
13.1291
20
-1.19902
11
13.1309
21
-1.18048
0
LINE
8
BLACK
6
CONTINUOUS
10
13.1309
20
-1.18048
11
13.1309
21
-1.18047
0
LINE
8
BLACK
6
CONTINUOUS
10
13.1309
20
-1.18047
11
13.1309
21
-1.18038
0
LINE
8
BLACK
6
CONTINUOUS
10
13.1309
20
-1.18038
11
13.131
21
-1.18029
0
LINE
8
BLACK
6
CONTINUOUS
10
13.131
20
-1.18029
11
13.1366
21
-1.16161
0
LINE
8
BLACK
6
CONTINUOUS
10
13.1366
20
-1.16161
11
13.1366
21
-1.1616
0
LINE
8
BLACK
6
CONTINUOUS
10
13.1366
20
-1.1616
11
13.1366
21
-1.16151
0
LINE
8
BLACK
6
CONTINUOUS
10
13.1366
20
-1.16151
11
13.1367
21
-1.16143
0
LINE
8
BLACK
6
CONTINUOUS
10
13.1367
20
-1.16143
11
13.1458
21
-1.1442
0
LINE
8
BLACK
6
CONTINUOUS
10
13.1458
20
-1.1442
11
13.1458
21
-1.1442
0
LINE
8
BLACK
6
CONTINUOUS
10
13.1458
20
-1.1442
11
13.1458
21
-1.1442
0
LINE
8
BLACK
6
CONTINUOUS
10
13.1458
20
-1.1442
11
13.1458
21
-1.14419
0
LINE
8
BLACK
6
CONTINUOUS
10
13.1458
20
-1.14419
11
13.1459
21
-1.14411
0
LINE
8
BLACK
6
CONTINUOUS
10
13.1459
20
-1.14411
11
13.1459
21
-1.14404
0
LINE
8
BLACK
6
CONTINUOUS
10
13.1459
20
-1.14404
11
13.1583
21
-1.12891
0
LINE
8
BLACK
6
CONTINUOUS
10
13.1583
20
-1.12891
11
13.1583
21
-1.12891
0
LINE
8
BLACK
6
CONTINUOUS
10
13.1583
20
-1.12891
11
13.1583
21
-1.12891
0
LINE
8
BLACK
6
CONTINUOUS
10
13.1583
20
-1.12891
11
13.1583
21
-1.1289
0
LINE
8
BLACK
6
CONTINUOUS
10
13.1583
20
-1.1289
11
13.1584
21
-1.12884
0
LINE
8
BLACK
6
CONTINUOUS
10
13.1584
20
-1.12884
11
13.1584
21
-1.12878
0
LINE
8
BLACK
6
CONTINUOUS
10
13.1584
20
-1.12878
11
13.1735
21
-1.11634
0
LINE
8
BLACK
6
CONTINUOUS
10
13.1735
20
-1.11634
11
13.1735
21
-1.11633
0
LINE
8
BLACK
6
CONTINUOUS
10
13.1735
20
-1.11633
11
13.1735
21
-1.11628
0
LINE
8
BLACK
6
CONTINUOUS
10
13.1735
20
-1.11628
11
13.1736
21
-1.11623
0
LINE
8
BLACK
6
CONTINUOUS
10
13.1736
20
-1.11623
11
13.1908
21
-1.10695
0
LINE
8
BLACK
6
CONTINUOUS
10
13.1908
20
-1.10695
11
13.1908
21
-1.10695
0
LINE
8
BLACK
6
CONTINUOUS
10
13.1908
20
-1.10695
11
13.1908
21
-1.10695
0
LINE
8
BLACK
6
CONTINUOUS
10
13.1908
20
-1.10695
11
13.1908
21
-1.10694
0
LINE
8
BLACK
6
CONTINUOUS
10
13.1908
20
-1.10694
11
13.1909
21
-1.10691
0
LINE
8
BLACK
6
CONTINUOUS
10
13.1909
20
-1.10691
11
13.191
21
-1.10687
0
LINE
8
BLACK
6
CONTINUOUS
10
13.191
20
-1.10687
11
13.2096
21
-1.1011
0
LINE
8
BLACK
6
CONTINUOUS
10
13.2096
20
-1.1011
11
13.2096
21
-1.1011
0
LINE
8
BLACK
6
CONTINUOUS
10
13.2096
20
-1.1011
11
13.2096
21
-1.1011
0
LINE
8
BLACK
6
CONTINUOUS
10
13.2096
20
-1.1011
11
13.2097
21
-1.10108
0
LINE
8
BLACK
6
CONTINUOUS
10
13.2097
20
-1.10108
11
13.2098
21
-1.10106
0
LINE
8
BLACK
6
CONTINUOUS
10
13.2098
20
-1.10106
11
13.2292
21
-1.09902
0
LINE
8
BLACK
6
CONTINUOUS
10
13.2292
20
-1.09902
11
13.2292
21
-1.09902
0
LINE
8
BLACK
6
CONTINUOUS
10
13.2292
20
-1.09902
11
13.2293
21
-1.09902
0
LINE
8
BLACK
6
CONTINUOUS
10
13.2293
20
-1.09902
11
13.2293
21
-1.09902
0
LINE
8
BLACK
6
CONTINUOUS
10
13.2293
20
-1.09902
11
13.23
21
-1.09902
0
LINE
8
BLACK
6
CONTINUOUS
10
13.23
20
-1.09902
11
13.23
21
-1.09902
0
LINE
8
BLACK
6
CONTINUOUS
10
13.23
20
-1.09902
11
14.03
21
-1.09902
0
LINE
8
BLACK
6
CONTINUOUS
10
14.03
20
-1.09902
11
14.0301
21
-1.09902
0
LINE
8
BLACK
6
CONTINUOUS
10
14.0301
20
-1.09902
11
14.0301
21
-1.09902
0
LINE
8
BLACK
6
CONTINUOUS
10
14.0301
20
-1.09902
11
14.0495
21
-1.10092
0
LINE
8
BLACK
6
CONTINUOUS
10
14.0495
20
-1.10092
11
14.0495
21
-1.10093
0
LINE
8
BLACK
6
CONTINUOUS
10
14.0495
20
-1.10093
11
14.0496
21
-1.10095
0
LINE
8
BLACK
6
CONTINUOUS
10
14.0496
20
-1.10095
11
14.0497
21
-1.10096
0
LINE
8
BLACK
6
CONTINUOUS
10
14.0497
20
-1.10096
11
14.0684
21
-1.1066
0
LINE
8
BLACK
6
CONTINUOUS
10
14.0684
20
-1.1066
11
14.0684
21
-1.10661
0
LINE
8
BLACK
6
CONTINUOUS
10
14.0684
20
-1.10661
11
14.0685
21
-1.10664
0
LINE
8
BLACK
6
CONTINUOUS
10
14.0685
20
-1.10664
11
14.0686
21
-1.10668
0
LINE
8
BLACK
6
CONTINUOUS
10
14.0686
20
-1.10668
11
14.0858
21
-1.11584
0
LINE
8
BLACK
6
CONTINUOUS
10
14.0858
20
-1.11584
11
14.0858
21
-1.11584
0
LINE
8
BLACK
6
CONTINUOUS
10
14.0858
20
-1.11584
11
14.0858
21
-1.11584
0
LINE
8
BLACK
6
CONTINUOUS
10
14.0858
20
-1.11584
11
14.0858
21
-1.11585
0
LINE
8
BLACK
6
CONTINUOUS
10
14.0858
20
-1.11585
11
14.0859
21
-1.1159
0
LINE
8
BLACK
6
CONTINUOUS
10
14.0859
20
-1.1159
11
14.086
21
-1.11595
0
LINE
8
BLACK
6
CONTINUOUS
10
14.086
20
-1.11595
11
14.1011
21
-1.12828
0
LINE
8
BLACK
6
CONTINUOUS
10
14.1011
20
-1.12828
11
14.1011
21
-1.12828
0
LINE
8
BLACK
6
CONTINUOUS
10
14.1011
20
-1.12828
11
14.1011
21
-1.12828
0
LINE
8
BLACK
6
CONTINUOUS
10
14.1011
20
-1.12828
11
14.1011
21
-1.12829
0
LINE
8
BLACK
6
CONTINUOUS
10
14.1011
20
-1.12829
11
14.1012
21
-1.12835
0
LINE
8
BLACK
6
CONTINUOUS
10
14.1012
20
-1.12835
11
14.1012
21
-1.12842
0
LINE
8
BLACK
6
CONTINUOUS
10
14.1012
20
-1.12842
11
14.1137
21
-1.14345
0
LINE
8
BLACK
6
CONTINUOUS
10
14.1137
20
-1.14345
11
14.1137
21
-1.14346
0
LINE
8
BLACK
6
CONTINUOUS
10
14.1137
20
-1.14346
11
14.1137
21
-1.14354
0
LINE
8
BLACK
6
CONTINUOUS
10
14.1137
20
-1.14354
11
14.1138
21
-1.14361
0
LINE
8
BLACK
6
CONTINUOUS
10
14.1138
20
-1.14361
11
14.1231
21
-1.16078
0
LINE
8
BLACK
6
CONTINUOUS
10
14.1231
20
-1.16078
11
14.1231
21
-1.16078
0
LINE
8
BLACK
6
CONTINUOUS
10
14.1231
20
-1.16078
11
14.1231
21
-1.16078
0
LINE
8
BLACK
6
CONTINUOUS
10
14.1231
20
-1.16078
11
14.1231
21
-1.16079
0
LINE
8
BLACK
6
CONTINUOUS
10
14.1231
20
-1.16079
11
14.1231
21
-1.16088
0
LINE
8
BLACK
6
CONTINUOUS
10
14.1231
20
-1.16088
11
14.1231
21
-1.16096
0
LINE
8
BLACK
6
CONTINUOUS
10
14.1231
20
-1.16096
11
14.1289
21
-1.1796
0
LINE
8
BLACK
6
CONTINUOUS
10
14.1289
20
-1.1796
11
14.1289
21
-1.17961
0
LINE
8
BLACK
6
CONTINUOUS
10
14.1289
20
-1.17961
11
14.1289
21
-1.1797
0
LINE
8
BLACK
6
CONTINUOUS
10
14.1289
20
-1.1797
11
14.1289
21
-1.17979
0
LINE
8
BLACK
6
CONTINUOUS
10
14.1289
20
-1.17979
11
14.131
21
-1.1992
0
LINE
8
BLACK
6
CONTINUOUS
10
14.131
20
-1.1992
11
14.131
21
-1.19921
0
LINE
8
BLACK
6
CONTINUOUS
10
14.131
20
-1.19921
11
14.131
21
-1.19926
0
LINE
8
BLACK
6
CONTINUOUS
10
14.131
20
-1.19926
11
14.131
21
-1.1993
0
LINE
8
BLACK
6
CONTINUOUS
10
14.131
20
-1.1993
11
14.131
21
-1.19995
0
LINE
8
BLACK
6
CONTINUOUS
10
14.131
20
-1.19995
11
14.131
21
-1.19995
0
LINE
8
BLACK
6
CONTINUOUS
10
14.131
20
-1.19995
11
14.131
21
-2.00005
0
LINE
8
BLACK
6
CONTINUOUS
10
14.131
20
-2.00005
11
14.131
21
-2.0001
0
LINE
8
BLACK
6
CONTINUOUS
10
14.131
20
-2.0001
11
14.131
21
-2.0001
0
LINE
8
BLACK
6
CONTINUOUS
10
14.131
20
-2.0001
11
14.1291
21
-2.01952
0
LINE
8
BLACK
6
CONTINUOUS
10
14.1291
20
-2.01952
11
14.1291
21
-2.01953
0
LINE
8
BLACK
6
CONTINUOUS
10
14.1291
20
-2.01953
11
14.1291
21
-2.01962
0
LINE
8
BLACK
6
CONTINUOUS
10
14.1291
20
-2.01962
11
14.129
21
-2.01971
0
LINE
8
BLACK
6
CONTINUOUS
10
14.129
20
-2.01971
11
14.1234
21
-2.03839
0
LINE
8
BLACK
6
CONTINUOUS
10
14.1234
20
-2.03839
11
14.1234
21
-2.0384
0
LINE
8
BLACK
6
CONTINUOUS
10
14.1234
20
-2.0384
11
14.1234
21
-2.03849
0
LINE
8
BLACK
6
CONTINUOUS
10
14.1234
20
-2.03849
11
14.1233
21
-2.03857
0
LINE
8
BLACK
6
CONTINUOUS
10
14.1233
20
-2.03857
11
14.1142
21
-2.0558
0
LINE
8
BLACK
6
CONTINUOUS
10
14.1142
20
-2.0558
11
14.1142
21
-2.05581
0
LINE
8
BLACK
6
CONTINUOUS
10
14.1142
20
-2.05581
11
14.1141
21
-2.05589
0
LINE
8
BLACK
6
CONTINUOUS
10
14.1141
20
-2.05589
11
14.1141
21
-2.05596
0
LINE
8
BLACK
6
CONTINUOUS
10
14.1141
20
-2.05596
11
14.1017
21
-2.07109
0
LINE
8
BLACK
6
CONTINUOUS
10
14.1017
20
-2.07109
11
14.1017
21
-2.0711
0
LINE
8
BLACK
6
CONTINUOUS
10
14.1017
20
-2.0711
11
14.1016
21
-2.07116
0
LINE
8
BLACK
6
CONTINUOUS
10
14.1016
20
-2.07116
11
14.1016
21
-2.07122
0
LINE
8
BLACK
6
CONTINUOUS
10
14.1016
20
-2.07122
11
14.0865
21
-2.08366
0
LINE
8
BLACK
6
CONTINUOUS
10
14.0865
20
-2.08366
11
14.0865
21
-2.08367
0
LINE
8
BLACK
6
CONTINUOUS
10
14.0865
20
-2.08367
11
14.0865
21
-2.08372
0
LINE
8
BLACK
6
CONTINUOUS
10
14.0865
20
-2.08372
11
14.0864
21
-2.08377
0
LINE
8
BLACK
6
CONTINUOUS
10
14.0864
20
-2.08377
11
14.0692
21
-2.09305
0
LINE
8
BLACK
6
CONTINUOUS
10
14.0692
20
-2.09305
11
14.0692
21
-2.09306
0
LINE
8
BLACK
6
CONTINUOUS
10
14.0692
20
-2.09306
11
14.0691
21
-2.09309
0
LINE
8
BLACK
6
CONTINUOUS
10
14.0691
20
-2.09309
11
14.069
21
-2.09313
0
LINE
8
BLACK
6
CONTINUOUS
10
14.069
20
-2.09313
11
14.0504
21
-2.0989
0
LINE
8
BLACK
6
CONTINUOUS
10
14.0504
20
-2.0989
11
14.0504
21
-2.0989
0
LINE
8
BLACK
6
CONTINUOUS
10
14.0504
20
-2.0989
11
14.0503
21
-2.09892
0
LINE
8
BLACK
6
CONTINUOUS
10
14.0503
20
-2.09892
11
14.0502
21
-2.09894
0
LINE
8
BLACK
6
CONTINUOUS
10
14.0502
20
-2.09894
11
14.0308
21
-2.10098
0
LINE
8
BLACK
6
CONTINUOUS
10
14.0308
20
-2.10098
11
14.0308
21
-2.10098
0
LINE
8
BLACK
6
CONTINUOUS
10
14.0308
20
-2.10098
11
14.0307
21
-2.10098
0
LINE
8
BLACK
6
CONTINUOUS
10
14.0307
20
-2.10098
11
14.0307
21
-2.10098
0
LINE
8
BLACK
6
CONTINUOUS
10
14.0307
20
-2.10098
11
14.03
21
-2.10098
0
LINE
8
BLACK
6
CONTINUOUS
10
14.03
20
-2.10098
11
14.03
21
-2.10098
0
LINE
8
BLACK
6
CONTINUOUS
10
14.03
20
-2.10098
11
13.711
21
-2.10098
0
LINE
8
BLACK
6
CONTINUOUS
10
13.711
20
-2.10098
11
13.711
21
-2.19902
0
LINE
8
BLACK
6
CONTINUOUS
10
13.711
20
-2.19902
11
14.03
21
-2.19902
0
LINE
8
BLACK
6
CONTINUOUS
10
14.03
20
-2.19902
11
14.0301
21
-2.19902
0
LINE
8
BLACK
6
CONTINUOUS
10
14.0301
20
-2.19902
11
14.0301
21
-2.19902
0
LINE
8
BLACK
6
CONTINUOUS
10
14.0301
20
-2.19902
11
14.0495
21
-2.20092
0
LINE
8
BLACK
6
CONTINUOUS
10
14.0495
20
-2.20092
11
14.0495
21
-2.20093
0
LINE
8
BLACK
6
CONTINUOUS
10
14.0495
20
-2.20093
11
14.0496
21
-2.20095
0
LINE
8
BLACK
6
CONTINUOUS
10
14.0496
20
-2.20095
11
14.0497
21
-2.20096
0
LINE
8
BLACK
6
CONTINUOUS
10
14.0497
20
-2.20096
11
14.0684
21
-2.2066
0
LINE
8
BLACK
6
CONTINUOUS
10
14.0684
20
-2.2066
11
14.0684
21
-2.20661
0
LINE
8
BLACK
6
CONTINUOUS
10
14.0684
20
-2.20661
11
14.0685
21
-2.20664
0
LINE
8
BLACK
6
CONTINUOUS
10
14.0685
20
-2.20664
11
14.0686
21
-2.20668
0
LINE
8
BLACK
6
CONTINUOUS
10
14.0686
20
-2.20668
11
14.0858
21
-2.21584
0
LINE
8
BLACK
6
CONTINUOUS
10
14.0858
20
-2.21584
11
14.0858
21
-2.21584
0
LINE
8
BLACK
6
CONTINUOUS
10
14.0858
20
-2.21584
11
14.0858
21
-2.21584
0
LINE
8
BLACK
6
CONTINUOUS
10
14.0858
20
-2.21584
11
14.0858
21
-2.21585
0
LINE
8
BLACK
6
CONTINUOUS
10
14.0858
20
-2.21585
11
14.0859
21
-2.2159
0
LINE
8
BLACK
6
CONTINUOUS
10
14.0859
20
-2.2159
11
14.086
21
-2.21595
0
LINE
8
BLACK
6
CONTINUOUS
10
14.086
20
-2.21595
11
14.1011
21
-2.22828
0
LINE
8
BLACK
6
CONTINUOUS
10
14.1011
20
-2.22828
11
14.1011
21
-2.22828
0
LINE
8
BLACK
6
CONTINUOUS
10
14.1011
20
-2.22828
11
14.1011
21
-2.22828
0
LINE
8
BLACK
6
CONTINUOUS
10
14.1011
20
-2.22828
11
14.1011
21
-2.22829
0
LINE
8
BLACK
6
CONTINUOUS
10
14.1011
20
-2.22829
11
14.1012
21
-2.22835
0
LINE
8
BLACK
6
CONTINUOUS
10
14.1012
20
-2.22835
11
14.1012
21
-2.22842
0
LINE
8
BLACK
6
CONTINUOUS
10
14.1012
20
-2.22842
11
14.1137
21
-2.24345
0
LINE
8
BLACK
6
CONTINUOUS
10
14.1137
20
-2.24345
11
14.1137
21
-2.24346
0
LINE
8
BLACK
6
CONTINUOUS
10
14.1137
20
-2.24346
11
14.1137
21
-2.24354
0
LINE
8
BLACK
6
CONTINUOUS
10
14.1137
20
-2.24354
11
14.1138
21
-2.24361
0
LINE
8
BLACK
6
CONTINUOUS
10
14.1138
20
-2.24361
11
14.1231
21
-2.26078
0
LINE
8
BLACK
6
CONTINUOUS
10
14.1231
20
-2.26078
11
14.1231
21
-2.26078
0
LINE
8
BLACK
6
CONTINUOUS
10
14.1231
20
-2.26078
11
14.1231
21
-2.26078
0
LINE
8
BLACK
6
CONTINUOUS
10
14.1231
20
-2.26078
11
14.1231
21
-2.26079
0
LINE
8
BLACK
6
CONTINUOUS
10
14.1231
20
-2.26079
11
14.1231
21
-2.26088
0
LINE
8
BLACK
6
CONTINUOUS
10
14.1231
20
-2.26088
11
14.1231
21
-2.26096
0
LINE
8
BLACK
6
CONTINUOUS
10
14.1231
20
-2.26096
11
14.1289
21
-2.2796
0
LINE
8
BLACK
6
CONTINUOUS
10
14.1289
20
-2.2796
11
14.1289
21
-2.27961
0
LINE
8
BLACK
6
CONTINUOUS
10
14.1289
20
-2.27961
11
14.1289
21
-2.2797
0
LINE
8
BLACK
6
CONTINUOUS
10
14.1289
20
-2.2797
11
14.1289
21
-2.27979
0
LINE
8
BLACK
6
CONTINUOUS
10
14.1289
20
-2.27979
11
14.131
21
-2.2992
0
LINE
8
BLACK
6
CONTINUOUS
10
14.131
20
-2.2992
11
14.131
21
-2.29921
0
LINE
8
BLACK
6
CONTINUOUS
10
14.131
20
-2.29921
11
14.131
21
-2.29926
0
LINE
8
BLACK
6
CONTINUOUS
10
14.131
20
-2.29926
11
14.131
21
-2.2993
0
LINE
8
BLACK
6
CONTINUOUS
10
14.131
20
-2.2993
11
14.131
21
-2.29995
0
LINE
8
BLACK
6
CONTINUOUS
10
14.131
20
-2.29995
11
14.131
21
-2.29995
0
LINE
8
BLACK
6
CONTINUOUS
10
14.131
20
-2.29995
11
14.131
21
-3.10005
0
LINE
8
BLACK
6
CONTINUOUS
10
14.131
20
-3.10005
11
14.131
21
-3.1001
0
LINE
8
BLACK
6
CONTINUOUS
10
14.131
20
-3.1001
11
14.131
21
-3.1001
0
LINE
8
BLACK
6
CONTINUOUS
10
14.131
20
-3.1001
11
14.1291
21
-3.11952
0
LINE
8
BLACK
6
CONTINUOUS
10
14.1291
20
-3.11952
11
14.1291
21
-3.11953
0
LINE
8
BLACK
6
CONTINUOUS
10
14.1291
20
-3.11953
11
14.1291
21
-3.11962
0
LINE
8
BLACK
6
CONTINUOUS
10
14.1291
20
-3.11962
11
14.129
21
-3.11971
0
LINE
8
BLACK
6
CONTINUOUS
10
14.129
20
-3.11971
11
14.1234
21
-3.13839
0
LINE
8
BLACK
6
CONTINUOUS
10
14.1234
20
-3.13839
11
14.1234
21
-3.1384
0
LINE
8
BLACK
6
CONTINUOUS
10
14.1234
20
-3.1384
11
14.1234
21
-3.13849
0
LINE
8
BLACK
6
CONTINUOUS
10
14.1234
20
-3.13849
11
14.1233
21
-3.13857
0
LINE
8
BLACK
6
CONTINUOUS
10
14.1233
20
-3.13857
11
14.1142
21
-3.1558
0
LINE
8
BLACK
6
CONTINUOUS
10
14.1142
20
-3.1558
11
14.1142
21
-3.15581
0
LINE
8
BLACK
6
CONTINUOUS
10
14.1142
20
-3.15581
11
14.1141
21
-3.15589
0
LINE
8
BLACK
6
CONTINUOUS
10
14.1141
20
-3.15589
11
14.1141
21
-3.15596
0
LINE
8
BLACK
6
CONTINUOUS
10
14.1141
20
-3.15596
11
14.1017
21
-3.17109
0
LINE
8
BLACK
6
CONTINUOUS
10
14.1017
20
-3.17109
11
14.1017
21
-3.1711
0
LINE
8
BLACK
6
CONTINUOUS
10
14.1017
20
-3.1711
11
14.1016
21
-3.17116
0
LINE
8
BLACK
6
CONTINUOUS
10
14.1016
20
-3.17116
11
14.1016
21
-3.17122
0
LINE
8
BLACK
6
CONTINUOUS
10
14.1016
20
-3.17122
11
14.0865
21
-3.18366
0
LINE
8
BLACK
6
CONTINUOUS
10
14.0865
20
-3.18366
11
14.0865
21
-3.18367
0
LINE
8
BLACK
6
CONTINUOUS
10
14.0865
20
-3.18367
11
14.0865
21
-3.18372
0
LINE
8
BLACK
6
CONTINUOUS
10
14.0865
20
-3.18372
11
14.0864
21
-3.18377
0
LINE
8
BLACK
6
CONTINUOUS
10
14.0864
20
-3.18377
11
14.0692
21
-3.19305
0
LINE
8
BLACK
6
CONTINUOUS
10
14.0692
20
-3.19305
11
14.0692
21
-3.19306
0
LINE
8
BLACK
6
CONTINUOUS
10
14.0692
20
-3.19306
11
14.0691
21
-3.19309
0
LINE
8
BLACK
6
CONTINUOUS
10
14.0691
20
-3.19309
11
14.069
21
-3.19313
0
LINE
8
BLACK
6
CONTINUOUS
10
14.069
20
-3.19313
11
14.0504
21
-3.1989
0
LINE
8
BLACK
6
CONTINUOUS
10
14.0504
20
-3.1989
11
14.0504
21
-3.1989
0
LINE
8
BLACK
6
CONTINUOUS
10
14.0504
20
-3.1989
11
14.0503
21
-3.19892
0
LINE
8
BLACK
6
CONTINUOUS
10
14.0503
20
-3.19892
11
14.0502
21
-3.19894
0
LINE
8
BLACK
6
CONTINUOUS
10
14.0502
20
-3.19894
11
14.0308
21
-3.20098
0
LINE
8
BLACK
6
CONTINUOUS
10
14.0308
20
-3.20098
11
14.0308
21
-3.20098
0
LINE
8
BLACK
6
CONTINUOUS
10
14.0308
20
-3.20098
11
14.0307
21
-3.20098
0
LINE
8
BLACK
6
CONTINUOUS
10
14.0307
20
-3.20098
11
14.0307
21
-3.20098
0
LINE
8
BLACK
6
CONTINUOUS
10
14.0307
20
-3.20098
11
14.03
21
-3.20098
0
LINE
8
BLACK
6
CONTINUOUS
10
14.03
20
-3.20098
11
14.03
21
-3.20098
0
LINE
8
BLACK
6
CONTINUOUS
10
14.03
20
-3.20098
11
13.711
21
-3.20098
0
LINE
8
BLACK
6
CONTINUOUS
10
13.711
20
-3.20098
11
13.711
21
-3.29902
0
LINE
8
BLACK
6
CONTINUOUS
10
13.711
20
-3.29902
11
14.03
21
-3.29902
0
LINE
8
BLACK
6
CONTINUOUS
10
14.03
20
-3.29902
11
14.0301
21
-3.29902
0
LINE
8
BLACK
6
CONTINUOUS
10
14.0301
20
-3.29902
11
14.0301
21
-3.29902
0
LINE
8
BLACK
6
CONTINUOUS
10
14.0301
20
-3.29902
11
14.0495
21
-3.30092
0
LINE
8
BLACK
6
CONTINUOUS
10
14.0495
20
-3.30092
11
14.0495
21
-3.30093
0
LINE
8
BLACK
6
CONTINUOUS
10
14.0495
20
-3.30093
11
14.0496
21
-3.30095
0
LINE
8
BLACK
6
CONTINUOUS
10
14.0496
20
-3.30095
11
14.0497
21
-3.30096
0
LINE
8
BLACK
6
CONTINUOUS
10
14.0497
20
-3.30096
11
14.0684
21
-3.3066
0
LINE
8
BLACK
6
CONTINUOUS
10
14.0684
20
-3.3066
11
14.0684
21
-3.30661
0
LINE
8
BLACK
6
CONTINUOUS
10
14.0684
20
-3.30661
11
14.0685
21
-3.30664
0
LINE
8
BLACK
6
CONTINUOUS
10
14.0685
20
-3.30664
11
14.0686
21
-3.30668
0
LINE
8
BLACK
6
CONTINUOUS
10
14.0686
20
-3.30668
11
14.0858
21
-3.31584
0
LINE
8
BLACK
6
CONTINUOUS
10
14.0858
20
-3.31584
11
14.0858
21
-3.31584
0
LINE
8
BLACK
6
CONTINUOUS
10
14.0858
20
-3.31584
11
14.0858
21
-3.31584
0
LINE
8
BLACK
6
CONTINUOUS
10
14.0858
20
-3.31584
11
14.0858
21
-3.31585
0
LINE
8
BLACK
6
CONTINUOUS
10
14.0858
20
-3.31585
11
14.0859
21
-3.3159
0
LINE
8
BLACK
6
CONTINUOUS
10
14.0859
20
-3.3159
11
14.086
21
-3.31595
0
LINE
8
BLACK
6
CONTINUOUS
10
14.086
20
-3.31595
11
14.1011
21
-3.32828
0
LINE
8
BLACK
6
CONTINUOUS
10
14.1011
20
-3.32828
11
14.1011
21
-3.32828
0
LINE
8
BLACK
6
CONTINUOUS
10
14.1011
20
-3.32828
11
14.1011
21
-3.32828
0
LINE
8
BLACK
6
CONTINUOUS
10
14.1011
20
-3.32828
11
14.1011
21
-3.32829
0
LINE
8
BLACK
6
CONTINUOUS
10
14.1011
20
-3.32829
11
14.1012
21
-3.32835
0
LINE
8
BLACK
6
CONTINUOUS
10
14.1012
20
-3.32835
11
14.1012
21
-3.32842
0
LINE
8
BLACK
6
CONTINUOUS
10
14.1012
20
-3.32842
11
14.1137
21
-3.34345
0
LINE
8
BLACK
6
CONTINUOUS
10
14.1137
20
-3.34345
11
14.1137
21
-3.34346
0
LINE
8
BLACK
6
CONTINUOUS
10
14.1137
20
-3.34346
11
14.1137
21
-3.34354
0
LINE
8
BLACK
6
CONTINUOUS
10
14.1137
20
-3.34354
11
14.1138
21
-3.34361
0
LINE
8
BLACK
6
CONTINUOUS
10
14.1138
20
-3.34361
11
14.1231
21
-3.36078
0
LINE
8
BLACK
6
CONTINUOUS
10
14.1231
20
-3.36078
11
14.1231
21
-3.36078
0
LINE
8
BLACK
6
CONTINUOUS
10
14.1231
20
-3.36078
11
14.1231
21
-3.36078
0
LINE
8
BLACK
6
CONTINUOUS
10
14.1231
20
-3.36078
11
14.1231
21
-3.36079
0
LINE
8
BLACK
6
CONTINUOUS
10
14.1231
20
-3.36079
11
14.1231
21
-3.36088
0
LINE
8
BLACK
6
CONTINUOUS
10
14.1231
20
-3.36088
11
14.1231
21
-3.36096
0
LINE
8
BLACK
6
CONTINUOUS
10
14.1231
20
-3.36096
11
14.1289
21
-3.3796
0
LINE
8
BLACK
6
CONTINUOUS
10
14.1289
20
-3.3796
11
14.1289
21
-3.37961
0
LINE
8
BLACK
6
CONTINUOUS
10
14.1289
20
-3.37961
11
14.1289
21
-3.3797
0
LINE
8
BLACK
6
CONTINUOUS
10
14.1289
20
-3.3797
11
14.1289
21
-3.37979
0
LINE
8
BLACK
6
CONTINUOUS
10
14.1289
20
-3.37979
11
14.131
21
-3.3992
0
LINE
8
BLACK
6
CONTINUOUS
10
14.131
20
-3.3992
11
14.131
21
-3.39921
0
LINE
8
BLACK
6
CONTINUOUS
10
14.131
20
-3.39921
11
14.131
21
-3.39926
0
LINE
8
BLACK
6
CONTINUOUS
10
14.131
20
-3.39926
11
14.131
21
-3.3993
0
LINE
8
BLACK
6
CONTINUOUS
10
14.131
20
-3.3993
11
14.131
21
-3.39995
0
LINE
8
BLACK
6
CONTINUOUS
10
14.131
20
-3.39995
11
14.131
21
-3.39995
0
LINE
8
BLACK
6
CONTINUOUS
10
14.131
20
-3.39995
11
14.131
21
-4.20005
0
LINE
8
BLACK
6
CONTINUOUS
10
14.131
20
-4.20005
11
14.131
21
-4.2001
0
LINE
8
BLACK
6
CONTINUOUS
10
14.131
20
-4.2001
11
14.131
21
-4.2001
0
LINE
8
BLACK
6
CONTINUOUS
10
14.131
20
-4.2001
11
14.1291
21
-4.21952
0
LINE
8
BLACK
6
CONTINUOUS
10
14.1291
20
-4.21952
11
14.1291
21
-4.21953
0
LINE
8
BLACK
6
CONTINUOUS
10
14.1291
20
-4.21953
11
14.1291
21
-4.21962
0
LINE
8
BLACK
6
CONTINUOUS
10
14.1291
20
-4.21962
11
14.129
21
-4.21971
0
LINE
8
BLACK
6
CONTINUOUS
10
14.129
20
-4.21971
11
14.1234
21
-4.23839
0
LINE
8
BLACK
6
CONTINUOUS
10
14.1234
20
-4.23839
11
14.1234
21
-4.2384
0
LINE
8
BLACK
6
CONTINUOUS
10
14.1234
20
-4.2384
11
14.1234
21
-4.23849
0
LINE
8
BLACK
6
CONTINUOUS
10
14.1234
20
-4.23849
11
14.1233
21
-4.23857
0
LINE
8
BLACK
6
CONTINUOUS
10
14.1233
20
-4.23857
11
14.1142
21
-4.2558
0
LINE
8
BLACK
6
CONTINUOUS
10
14.1142
20
-4.2558
11
14.1142
21
-4.25581
0
LINE
8
BLACK
6
CONTINUOUS
10
14.1142
20
-4.25581
11
14.1141
21
-4.25589
0
LINE
8
BLACK
6
CONTINUOUS
10
14.1141
20
-4.25589
11
14.1141
21
-4.25596
0
LINE
8
BLACK
6
CONTINUOUS
10
14.1141
20
-4.25596
11
14.1017
21
-4.27109
0
LINE
8
BLACK
6
CONTINUOUS
10
14.1017
20
-4.27109
11
14.1017
21
-4.2711
0
LINE
8
BLACK
6
CONTINUOUS
10
14.1017
20
-4.2711
11
14.1016
21
-4.27116
0
LINE
8
BLACK
6
CONTINUOUS
10
14.1016
20
-4.27116
11
14.1016
21
-4.27122
0
LINE
8
BLACK
6
CONTINUOUS
10
14.1016
20
-4.27122
11
14.0865
21
-4.28366
0
LINE
8
BLACK
6
CONTINUOUS
10
14.0865
20
-4.28366
11
14.0865
21
-4.28367
0
LINE
8
BLACK
6
CONTINUOUS
10
14.0865
20
-4.28367
11
14.0865
21
-4.28372
0
LINE
8
BLACK
6
CONTINUOUS
10
14.0865
20
-4.28372
11
14.0864
21
-4.28377
0
LINE
8
BLACK
6
CONTINUOUS
10
14.0864
20
-4.28377
11
14.0692
21
-4.29305
0
LINE
8
BLACK
6
CONTINUOUS
10
14.0692
20
-4.29305
11
14.0692
21
-4.29306
0
LINE
8
BLACK
6
CONTINUOUS
10
14.0692
20
-4.29306
11
14.0691
21
-4.29309
0
LINE
8
BLACK
6
CONTINUOUS
10
14.0691
20
-4.29309
11
14.069
21
-4.29313
0
LINE
8
BLACK
6
CONTINUOUS
10
14.069
20
-4.29313
11
14.0504
21
-4.2989
0
LINE
8
BLACK
6
CONTINUOUS
10
14.0504
20
-4.2989
11
14.0504
21
-4.2989
0
LINE
8
BLACK
6
CONTINUOUS
10
14.0504
20
-4.2989
11
14.0503
21
-4.29892
0
LINE
8
BLACK
6
CONTINUOUS
10
14.0503
20
-4.29892
11
14.0502
21
-4.29894
0
LINE
8
BLACK
6
CONTINUOUS
10
14.0502
20
-4.29894
11
14.0308
21
-4.30098
0
LINE
8
BLACK
6
CONTINUOUS
10
14.0308
20
-4.30098
11
14.0308
21
-4.30098
0
LINE
8
BLACK
6
CONTINUOUS
10
14.0308
20
-4.30098
11
14.0307
21
-4.30098
0
LINE
8
BLACK
6
CONTINUOUS
10
14.0307
20
-4.30098
11
14.0307
21
-4.30098
0
LINE
8
BLACK
6
CONTINUOUS
10
14.0307
20
-4.30098
11
14.03
21
-4.30098
0
LINE
8
BLACK
6
CONTINUOUS
10
14.03
20
-4.30098
11
14.03
21
-4.30098
0
LINE
8
BLACK
6
CONTINUOUS
10
14.03
20
-4.30098
11
13.711
21
-4.30098
0
LINE
8
BLACK
6
CONTINUOUS
10
13.711
20
-4.30098
11
13.711
21
-4.39902
0
LINE
8
BLACK
6
CONTINUOUS
10
13.711
20
-4.39902
11
14.03
21
-4.39902
0
LINE
8
BLACK
6
CONTINUOUS
10
14.03
20
-4.39902
11
14.0301
21
-4.39902
0
LINE
8
BLACK
6
CONTINUOUS
10
14.0301
20
-4.39902
11
14.0301
21
-4.39902
0
LINE
8
BLACK
6
CONTINUOUS
10
14.0301
20
-4.39902
11
14.0495
21
-4.40092
0
LINE
8
BLACK
6
CONTINUOUS
10
14.0495
20
-4.40092
11
14.0495
21
-4.40093
0
LINE
8
BLACK
6
CONTINUOUS
10
14.0495
20
-4.40093
11
14.0496
21
-4.40095
0
LINE
8
BLACK
6
CONTINUOUS
10
14.0496
20
-4.40095
11
14.0497
21
-4.40096
0
LINE
8
BLACK
6
CONTINUOUS
10
14.0497
20
-4.40096
11
14.0684
21
-4.4066
0
LINE
8
BLACK
6
CONTINUOUS
10
14.0684
20
-4.4066
11
14.0684
21
-4.40661
0
LINE
8
BLACK
6
CONTINUOUS
10
14.0684
20
-4.40661
11
14.0685
21
-4.40664
0
LINE
8
BLACK
6
CONTINUOUS
10
14.0685
20
-4.40664
11
14.0686
21
-4.40668
0
LINE
8
BLACK
6
CONTINUOUS
10
14.0686
20
-4.40668
11
14.0858
21
-4.41584
0
LINE
8
BLACK
6
CONTINUOUS
10
14.0858
20
-4.41584
11
14.0858
21
-4.41584
0
LINE
8
BLACK
6
CONTINUOUS
10
14.0858
20
-4.41584
11
14.0858
21
-4.41584
0
LINE
8
BLACK
6
CONTINUOUS
10
14.0858
20
-4.41584
11
14.0858
21
-4.41585
0
LINE
8
BLACK
6
CONTINUOUS
10
14.0858
20
-4.41585
11
14.0859
21
-4.4159
0
LINE
8
BLACK
6
CONTINUOUS
10
14.0859
20
-4.4159
11
14.086
21
-4.41595
0
LINE
8
BLACK
6
CONTINUOUS
10
14.086
20
-4.41595
11
14.1011
21
-4.42828
0
LINE
8
BLACK
6
CONTINUOUS
10
14.1011
20
-4.42828
11
14.1011
21
-4.42828
0
LINE
8
BLACK
6
CONTINUOUS
10
14.1011
20
-4.42828
11
14.1011
21
-4.42828
0
LINE
8
BLACK
6
CONTINUOUS
10
14.1011
20
-4.42828
11
14.1011
21
-4.42829
0
LINE
8
BLACK
6
CONTINUOUS
10
14.1011
20
-4.42829
11
14.1012
21
-4.42835
0
LINE
8
BLACK
6
CONTINUOUS
10
14.1012
20
-4.42835
11
14.1012
21
-4.42842
0
LINE
8
BLACK
6
CONTINUOUS
10
14.1012
20
-4.42842
11
14.1137
21
-4.44345
0
LINE
8
BLACK
6
CONTINUOUS
10
14.1137
20
-4.44345
11
14.1137
21
-4.44346
0
LINE
8
BLACK
6
CONTINUOUS
10
14.1137
20
-4.44346
11
14.1137
21
-4.44354
0
LINE
8
BLACK
6
CONTINUOUS
10
14.1137
20
-4.44354
11
14.1138
21
-4.44361
0
LINE
8
BLACK
6
CONTINUOUS
10
14.1138
20
-4.44361
11
14.1231
21
-4.46078
0
LINE
8
BLACK
6
CONTINUOUS
10
14.1231
20
-4.46078
11
14.1231
21
-4.46078
0
LINE
8
BLACK
6
CONTINUOUS
10
14.1231
20
-4.46078
11
14.1231
21
-4.46078
0
LINE
8
BLACK
6
CONTINUOUS
10
14.1231
20
-4.46078
11
14.1231
21
-4.46079
0
LINE
8
BLACK
6
CONTINUOUS
10
14.1231
20
-4.46079
11
14.1231
21
-4.46088
0
LINE
8
BLACK
6
CONTINUOUS
10
14.1231
20
-4.46088
11
14.1231
21
-4.46096
0
LINE
8
BLACK
6
CONTINUOUS
10
14.1231
20
-4.46096
11
14.1289
21
-4.4796
0
LINE
8
BLACK
6
CONTINUOUS
10
14.1289
20
-4.4796
11
14.1289
21
-4.47961
0
LINE
8
BLACK
6
CONTINUOUS
10
14.1289
20
-4.47961
11
14.1289
21
-4.4797
0
LINE
8
BLACK
6
CONTINUOUS
10
14.1289
20
-4.4797
11
14.1289
21
-4.47979
0
LINE
8
BLACK
6
CONTINUOUS
10
14.1289
20
-4.47979
11
14.131
21
-4.4992
0
LINE
8
BLACK
6
CONTINUOUS
10
14.131
20
-4.4992
11
14.131
21
-4.49921
0
LINE
8
BLACK
6
CONTINUOUS
10
14.131
20
-4.49921
11
14.131
21
-4.49926
0
LINE
8
BLACK
6
CONTINUOUS
10
14.131
20
-4.49926
11
14.131
21
-4.4993
0
LINE
8
BLACK
6
CONTINUOUS
10
14.131
20
-4.4993
11
14.131
21
-4.49995
0
LINE
8
BLACK
6
CONTINUOUS
10
14.131
20
-4.49995
11
14.131
21
-4.49995
0
LINE
8
BLACK
6
CONTINUOUS
10
14.131
20
-4.49995
11
14.1315
21
-5.30005
0
LINE
8
BLACK
6
CONTINUOUS
10
14.1315
20
-5.30005
11
14.1315
21
-5.3001
0
LINE
8
BLACK
6
CONTINUOUS
10
14.1315
20
-5.3001
11
14.1315
21
-5.3001
0
LINE
8
BLACK
6
CONTINUOUS
10
14.1315
20
-5.3001
11
14.1296
21
-5.31962
0
LINE
8
BLACK
6
CONTINUOUS
10
14.1296
20
-5.31962
11
14.1296
21
-5.31963
0
LINE
8
BLACK
6
CONTINUOUS
10
14.1296
20
-5.31963
11
14.1295
21
-5.31972
0
LINE
8
BLACK
6
CONTINUOUS
10
14.1295
20
-5.31972
11
14.1295
21
-5.3198
0
LINE
8
BLACK
6
CONTINUOUS
10
14.1295
20
-5.3198
11
14.1239
21
-5.33858
0
LINE
8
BLACK
6
CONTINUOUS
10
14.1239
20
-5.33858
11
14.1239
21
-5.33859
0
LINE
8
BLACK
6
CONTINUOUS
10
14.1239
20
-5.33859
11
14.1238
21
-5.33868
0
LINE
8
BLACK
6
CONTINUOUS
10
14.1238
20
-5.33868
11
14.1238
21
-5.33876
0
LINE
8
BLACK
6
CONTINUOUS
10
14.1238
20
-5.33876
11
14.1146
21
-5.35608
0
LINE
8
BLACK
6
CONTINUOUS
10
14.1146
20
-5.35608
11
14.1146
21
-5.35609
0
LINE
8
BLACK
6
CONTINUOUS
10
14.1146
20
-5.35609
11
14.1145
21
-5.35616
0
LINE
8
BLACK
6
CONTINUOUS
10
14.1145
20
-5.35616
11
14.1145
21
-5.35624
0
LINE
8
BLACK
6
CONTINUOUS
10
14.1145
20
-5.35624
11
14.1021
21
-5.37144
0
LINE
8
BLACK
6
CONTINUOUS
10
14.1021
20
-5.37144
11
14.1021
21
-5.37145
0
LINE
8
BLACK
6
CONTINUOUS
10
14.1021
20
-5.37145
11
14.102
21
-5.37151
0
LINE
8
BLACK
6
CONTINUOUS
10
14.102
20
-5.37151
11
14.1019
21
-5.37157
0
LINE
8
BLACK
6
CONTINUOUS
10
14.1019
20
-5.37157
11
14.0868
21
-5.38408
0
LINE
8
BLACK
6
CONTINUOUS
10
14.0868
20
-5.38408
11
14.0868
21
-5.38408
0
LINE
8
BLACK
6
CONTINUOUS
10
14.0868
20
-5.38408
11
14.0867
21
-5.38413
0
LINE
8
BLACK
6
CONTINUOUS
10
14.0867
20
-5.38413
11
14.0867
21
-5.38418
0
LINE
8
BLACK
6
CONTINUOUS
10
14.0867
20
-5.38418
11
14.0694
21
-5.39351
0
LINE
8
BLACK
6
CONTINUOUS
10
14.0694
20
-5.39351
11
14.0694
21
-5.39352
0
LINE
8
BLACK
6
CONTINUOUS
10
14.0694
20
-5.39352
11
14.0693
21
-5.39355
0
LINE
8
BLACK
6
CONTINUOUS
10
14.0693
20
-5.39355
11
14.0692
21
-5.39359
0
LINE
8
BLACK
6
CONTINUOUS
10
14.0692
20
-5.39359
11
14.0505
21
-5.39939
0
LINE
8
BLACK
6
CONTINUOUS
10
14.0505
20
-5.39939
11
14.0505
21
-5.39939
0
LINE
8
BLACK
6
CONTINUOUS
10
14.0505
20
-5.39939
11
14.0504
21
-5.3994
0
LINE
8
BLACK
6
CONTINUOUS
10
14.0504
20
-5.3994
11
14.0504
21
-5.39942
0
LINE
8
BLACK
6
CONTINUOUS
10
14.0504
20
-5.39942
11
14.0402
21
-5.40096
0
LINE
8
BLACK
6
CONTINUOUS
10
14.0402
20
-5.40096
11
14.0402
21
-5.40097
0
LINE
8
BLACK
6
CONTINUOUS
10
14.0402
20
-5.40097
11
14.04
21
-5.40098
0
LINE
8
BLACK
6
CONTINUOUS
10
14.04
20
-5.40098
11
13.23
21
-5.40098
0
LINE
8
BLACK
6
CONTINUOUS
10
13.23
20
-5.40098
11
13.2299
21
-5.40098
0
LINE
8
BLACK
6
CONTINUOUS
10
13.2299
20
-5.40098
11
13.2299
21
-5.40098
0
LINE
8
BLACK
6
CONTINUOUS
10
13.2299
20
-5.40098
11
13.2105
21
-5.39908
0
LINE
8
BLACK
6
CONTINUOUS
10
13.2105
20
-5.39908
11
13.2105
21
-5.39907
0
LINE
8
BLACK
6
CONTINUOUS
10
13.2105
20
-5.39907
11
13.2104
21
-5.39905
0
LINE
8
BLACK
6
CONTINUOUS
10
13.2104
20
-5.39905
11
13.2103
21
-5.39904
0
LINE
8
BLACK
6
CONTINUOUS
10
13.2103
20
-5.39904
11
13.1916
21
-5.3934
0
LINE
8
BLACK
6
CONTINUOUS
10
13.1916
20
-5.3934
11
13.1916
21
-5.39339
0
LINE
8
BLACK
6
CONTINUOUS
10
13.1916
20
-5.39339
11
13.1915
21
-5.39336
0
LINE
8
BLACK
6
CONTINUOUS
10
13.1915
20
-5.39336
11
13.1914
21
-5.39332
0
LINE
8
BLACK
6
CONTINUOUS
10
13.1914
20
-5.39332
11
13.1742
21
-5.38416
0
LINE
8
BLACK
6
CONTINUOUS
10
13.1742
20
-5.38416
11
13.1742
21
-5.38415
0
LINE
8
BLACK
6
CONTINUOUS
10
13.1742
20
-5.38415
11
13.1741
21
-5.3841
0
LINE
8
BLACK
6
CONTINUOUS
10
13.1741
20
-5.3841
11
13.174
21
-5.38405
0
LINE
8
BLACK
6
CONTINUOUS
10
13.174
20
-5.38405
11
13.1589
21
-5.37172
0
LINE
8
BLACK
6
CONTINUOUS
10
13.1589
20
-5.37172
11
13.1589
21
-5.37171
0
LINE
8
BLACK
6
CONTINUOUS
10
13.1589
20
-5.37171
11
13.1588
21
-5.37165
0
LINE
8
BLACK
6
CONTINUOUS
10
13.1588
20
-5.37165
11
13.1588
21
-5.37158
0
LINE
8
BLACK
6
CONTINUOUS
10
13.1588
20
-5.37158
11
13.1463
21
-5.35655
0
LINE
8
BLACK
6
CONTINUOUS
10
13.1463
20
-5.35655
11
13.1463
21
-5.35654
0
LINE
8
BLACK
6
CONTINUOUS
10
13.1463
20
-5.35654
11
13.1463
21
-5.35646
0
LINE
8
BLACK
6
CONTINUOUS
10
13.1463
20
-5.35646
11
13.1462
21
-5.35639
0
LINE
8
BLACK
6
CONTINUOUS
10
13.1462
20
-5.35639
11
13.1369
21
-5.33922
0
LINE
8
BLACK
6
CONTINUOUS
10
13.1369
20
-5.33922
11
13.1369
21
-5.33921
0
LINE
8
BLACK
6
CONTINUOUS
10
13.1369
20
-5.33921
11
13.1369
21
-5.33912
0
LINE
8
BLACK
6
CONTINUOUS
10
13.1369
20
-5.33912
11
13.1369
21
-5.33904
0
LINE
8
BLACK
6
CONTINUOUS
10
13.1369
20
-5.33904
11
13.1311
21
-5.3204
0
LINE
8
BLACK
6
CONTINUOUS
10
13.1311
20
-5.3204
11
13.1311
21
-5.32039
0
LINE
8
BLACK
6
CONTINUOUS
10
13.1311
20
-5.32039
11
13.1311
21
-5.3203
0
LINE
8
BLACK
6
CONTINUOUS
10
13.1311
20
-5.3203
11
13.1311
21
-5.32021
0
LINE
8
BLACK
6
CONTINUOUS
10
13.1311
20
-5.32021
11
13.129
21
-5.30098
0
LINE
8
BLACK
6
CONTINUOUS
10
13.129
20
-5.30098
11
13.041
21
-5.30098
0
LINE
8
BLACK
6
CONTINUOUS
10
13.041
20
-5.30098
11
13.041
21
-5.55005
0
LINE
8
BLACK
6
CONTINUOUS
10
13.041
20
-5.55005
11
13.041
21
-5.5501
0
LINE
8
BLACK
6
CONTINUOUS
10
13.041
20
-5.5501
11
13.041
21
-5.5501
0
LINE
8
BLACK
6
CONTINUOUS
10
13.041
20
-5.5501
11
13.0391
21
-5.56952
0
LINE
8
BLACK
6
CONTINUOUS
10
13.0391
20
-5.56952
11
13.0391
21
-5.56953
0
LINE
8
BLACK
6
CONTINUOUS
10
13.0391
20
-5.56953
11
13.0391
21
-5.56962
0
LINE
8
BLACK
6
CONTINUOUS
10
13.0391
20
-5.56962
11
13.039
21
-5.56971
0
LINE
8
BLACK
6
CONTINUOUS
10
13.039
20
-5.56971
11
13.0334
21
-5.58839
0
LINE
8
BLACK
6
CONTINUOUS
10
13.0334
20
-5.58839
11
13.0334
21
-5.5884
0
LINE
8
BLACK
6
CONTINUOUS
10
13.0334
20
-5.5884
11
13.0334
21
-5.58849
0
LINE
8
BLACK
6
CONTINUOUS
10
13.0334
20
-5.58849
11
13.0333
21
-5.58857
0
LINE
8
BLACK
6
CONTINUOUS
10
13.0333
20
-5.58857
11
13.0242
21
-5.6058
0
LINE
8
BLACK
6
CONTINUOUS
10
13.0242
20
-5.6058
11
13.0242
21
-5.60581
0
LINE
8
BLACK
6
CONTINUOUS
10
13.0242
20
-5.60581
11
13.0241
21
-5.60589
0
LINE
8
BLACK
6
CONTINUOUS
10
13.0241
20
-5.60589
11
13.0241
21
-5.60596
0
LINE
8
BLACK
6
CONTINUOUS
10
13.0241
20
-5.60596
11
13.0117
21
-5.62109
0
LINE
8
BLACK
6
CONTINUOUS
10
13.0117
20
-5.62109
11
13.0117
21
-5.6211
0
LINE
8
BLACK
6
CONTINUOUS
10
13.0117
20
-5.6211
11
13.0116
21
-5.62116
0
LINE
8
BLACK
6
CONTINUOUS
10
13.0116
20
-5.62116
11
13.0116
21
-5.62122
0
LINE
8
BLACK
6
CONTINUOUS
10
13.0116
20
-5.62122
11
12.9965
21
-5.63366
0
LINE
8
BLACK
6
CONTINUOUS
10
12.9965
20
-5.63366
11
12.9965
21
-5.63367
0
LINE
8
BLACK
6
CONTINUOUS
10
12.9965
20
-5.63367
11
12.9965
21
-5.63372
0
LINE
8
BLACK
6
CONTINUOUS
10
12.9965
20
-5.63372
11
12.9964
21
-5.63377
0
LINE
8
BLACK
6
CONTINUOUS
10
12.9964
20
-5.63377
11
12.9792
21
-5.64305
0
LINE
8
BLACK
6
CONTINUOUS
10
12.9792
20
-5.64305
11
12.9792
21
-5.64306
0
LINE
8
BLACK
6
CONTINUOUS
10
12.9792
20
-5.64306
11
12.9791
21
-5.64309
0
LINE
8
BLACK
6
CONTINUOUS
10
12.9791
20
-5.64309
11
12.979
21
-5.64313
0
LINE
8
BLACK
6
CONTINUOUS
10
12.979
20
-5.64313
11
12.9604
21
-5.6489
0
LINE
8
BLACK
6
CONTINUOUS
10
12.9604
20
-5.6489
11
12.9604
21
-5.6489
0
LINE
8
BLACK
6
CONTINUOUS
10
12.9604
20
-5.6489
11
12.9603
21
-5.64892
0
LINE
8
BLACK
6
CONTINUOUS
10
12.9603
20
-5.64892
11
12.9602
21
-5.64894
0
LINE
8
BLACK
6
CONTINUOUS
10
12.9602
20
-5.64894
11
12.9408
21
-5.65098
0
LINE
8
BLACK
6
CONTINUOUS
10
12.9408
20
-5.65098
11
12.9408
21
-5.65098
0
LINE
8
BLACK
6
CONTINUOUS
10
12.9408
20
-5.65098
11
12.9407
21
-5.65098
0
LINE
8
BLACK
6
CONTINUOUS
10
12.9407
20
-5.65098
11
12.9407
21
-5.65098
0
LINE
8
BLACK
6
CONTINUOUS
10
12.9407
20
-5.65098
11
12.94
21
-5.65098
0
LINE
8
BLACK
6
CONTINUOUS
10
12.94
20
-5.65098
11
12.94
21
-5.65098
0
LINE
8
BLACK
6
CONTINUOUS
10
12.94
20
-5.65098
11
6.96995
21
-5.65098
0
LINE
8
BLACK
6
CONTINUOUS
10
6.96995
20
-5.65098
11
6.9699
21
-5.65098
0
LINE
8
BLACK
6
CONTINUOUS
10
6.9699
20
-5.65098
11
6.9699
21
-5.65098
0
LINE
8
BLACK
6
CONTINUOUS
10
6.9699
20
-5.65098
11
6.95048
21
-5.64908
0
LINE
8
BLACK
6
CONTINUOUS
10
6.95048
20
-5.64908
11
6.95047
21
-5.64907
0
LINE
8
BLACK
6
CONTINUOUS
10
6.95047
20
-5.64907
11
6.95038
21
-5.64905
0
LINE
8
BLACK
6
CONTINUOUS
10
6.95038
20
-5.64905
11
6.95029
21
-5.64904
0
LINE
8
BLACK
6
CONTINUOUS
10
6.95029
20
-5.64904
11
6.93161
21
-5.6434
0
LINE
8
BLACK
6
CONTINUOUS
10
6.93161
20
-5.6434
11
6.9316
21
-5.64339
0
LINE
8
BLACK
6
CONTINUOUS
10
6.9316
20
-5.64339
11
6.93151
21
-5.64336
0
LINE
8
BLACK
6
CONTINUOUS
10
6.93151
20
-5.64336
11
6.93143
21
-5.64332
0
LINE
8
BLACK
6
CONTINUOUS
10
6.93143
20
-5.64332
11
6.9142
21
-5.63416
0
LINE
8
BLACK
6
CONTINUOUS
10
6.9142
20
-5.63416
11
6.91419
21
-5.63415
0
LINE
8
BLACK
6
CONTINUOUS
10
6.91419
20
-5.63415
11
6.91411
21
-5.6341
0
LINE
8
BLACK
6
CONTINUOUS
10
6.91411
20
-5.6341
11
6.91404
21
-5.63405
0
LINE
8
BLACK
6
CONTINUOUS
10
6.91404
20
-5.63405
11
6.89891
21
-5.62172
0
LINE
8
BLACK
6
CONTINUOUS
10
6.89891
20
-5.62172
11
6.8989
21
-5.62171
0
LINE
8
BLACK
6
CONTINUOUS
10
6.8989
20
-5.62171
11
6.89884
21
-5.62165
0
LINE
8
BLACK
6
CONTINUOUS
10
6.89884
20
-5.62165
11
6.89878
21
-5.62158
0
LINE
8
BLACK
6
CONTINUOUS
10
6.89878
20
-5.62158
11
6.88634
21
-5.60655
0
LINE
8
BLACK
6
CONTINUOUS
10
6.88634
20
-5.60655
11
6.88633
21
-5.60654
0
LINE
8
BLACK
6
CONTINUOUS
10
6.88633
20
-5.60654
11
6.88628
21
-5.60646
0
LINE
8
BLACK
6
CONTINUOUS
10
6.88628
20
-5.60646
11
6.88623
21
-5.60639
0
LINE
8
BLACK
6
CONTINUOUS
10
6.88623
20
-5.60639
11
6.87695
21
-5.58922
0
LINE
8
BLACK
6
CONTINUOUS
10
6.87695
20
-5.58922
11
6.87694
21
-5.58921
0
LINE
8
BLACK
6
CONTINUOUS
10
6.87694
20
-5.58921
11
6.87691
21
-5.58912
0
LINE
8
BLACK
6
CONTINUOUS
10
6.87691
20
-5.58912
11
6.87687
21
-5.58904
0
LINE
8
BLACK
6
CONTINUOUS
10
6.87687
20
-5.58904
11
6.8711
21
-5.5704
0
LINE
8
BLACK
6
CONTINUOUS
10
6.8711
20
-5.5704
11
6.8711
21
-5.57039
0
LINE
8
BLACK
6
CONTINUOUS
10
6.8711
20
-5.57039
11
6.87108
21
-5.5703
0
LINE
8
BLACK
6
CONTINUOUS
10
6.87108
20
-5.5703
11
6.87106
21
-5.57021
0
LINE
8
BLACK
6
CONTINUOUS
10
6.87106
20
-5.57021
11
6.86904
21
-5.55098
0
LINE
8
BLACK
6
CONTINUOUS
10
6.86904
20
-5.55098
11
6.77139
21
-5.55098
0
LINE
8
BLACK
6
CONTINUOUS
10
6.77139
20
-5.55098
11
6.76956
21
-5.56962
0
LINE
8
BLACK
6
CONTINUOUS
10
6.76956
20
-5.56962
11
6.76956
21
-5.56963
0
LINE
8
BLACK
6
CONTINUOUS
10
6.76956
20
-5.56963
11
6.76954
21
-5.56972
0
LINE
8
BLACK
6
CONTINUOUS
10
6.76954
20
-5.56972
11
6.76953
21
-5.5698
0
LINE
8
BLACK
6
CONTINUOUS
10
6.76953
20
-5.5698
11
6.76386
21
-5.58858
0
LINE
8
BLACK
6
CONTINUOUS
10
6.76386
20
-5.58858
11
6.76385
21
-5.58859
0
LINE
8
BLACK
6
CONTINUOUS
10
6.76385
20
-5.58859
11
6.76382
21
-5.58868
0
LINE
8
BLACK
6
CONTINUOUS
10
6.76382
20
-5.58868
11
6.76378
21
-5.58876
0
LINE
8
BLACK
6
CONTINUOUS
10
6.76378
20
-5.58876
11
6.75458
21
-5.60608
0
LINE
8
BLACK
6
CONTINUOUS
10
6.75458
20
-5.60608
11
6.75457
21
-5.60609
0
LINE
8
BLACK
6
CONTINUOUS
10
6.75457
20
-5.60609
11
6.75452
21
-5.60616
0
LINE
8
BLACK
6
CONTINUOUS
10
6.75452
20
-5.60616
11
6.75447
21
-5.60624
0
LINE
8
BLACK
6
CONTINUOUS
10
6.75447
20
-5.60624
11
6.74207
21
-5.62144
0
LINE
8
BLACK
6
CONTINUOUS
10
6.74207
20
-5.62144
11
6.74206
21
-5.62145
0
LINE
8
BLACK
6
CONTINUOUS
10
6.74206
20
-5.62145
11
6.742
21
-5.62151
0
LINE
8
BLACK
6
CONTINUOUS
10
6.742
20
-5.62151
11
6.74194
21
-5.62157
0
LINE
8
BLACK
6
CONTINUOUS
10
6.74194
20
-5.62157
11
6.72683
21
-5.63408
0
LINE
8
BLACK
6
CONTINUOUS
10
6.72683
20
-5.63408
11
6.72681
21
-5.63408
0
LINE
8
BLACK
6
CONTINUOUS
10
6.72681
20
-5.63408
11
6.72674
21
-5.63413
0
LINE
8
BLACK
6
CONTINUOUS
10
6.72674
20
-5.63413
11
6.72667
21
-5.63418
0
LINE
8
BLACK
6
CONTINUOUS
10
6.72667
20
-5.63418
11
6.70941
21
-5.64351
0
LINE
8
BLACK
6
CONTINUOUS
10
6.70941
20
-5.64351
11
6.7094
21
-5.64352
0
LINE
8
BLACK
6
CONTINUOUS
10
6.7094
20
-5.64352
11
6.70932
21
-5.64355
0
LINE
8
BLACK
6
CONTINUOUS
10
6.70932
20
-5.64355
11
6.70924
21
-5.64359
0
LINE
8
BLACK
6
CONTINUOUS
10
6.70924
20
-5.64359
11
6.6905
21
-5.64939
0
LINE
8
BLACK
6
CONTINUOUS
10
6.6905
20
-5.64939
11
6.69049
21
-5.64939
0
LINE
8
BLACK
6
CONTINUOUS
10
6.69049
20
-5.64939
11
6.69042
21
-5.6494
0
LINE
8
BLACK
6
CONTINUOUS
10
6.69042
20
-5.6494
11
6.69036
21
-5.64942
0
LINE
8
BLACK
6
CONTINUOUS
10
6.69036
20
-5.64942
11
6.68022
21
-5.65096
0
LINE
8
BLACK
6
CONTINUOUS
10
6.68022
20
-5.65096
11
6.68019
21
-5.65097
0
LINE
8
BLACK
6
CONTINUOUS
10
6.68019
20
-5.65097
11
6.68005
21
-5.65098
0
LINE
8
BLACK
6
CONTINUOUS
10
6.68005
20
-5.65098
11
1.21995
21
-5.65098
0
LINE
8
BLACK
6
CONTINUOUS
10
1.21995
20
-5.65098
11
1.2199
21
-5.65098
0
LINE
8
BLACK
6
CONTINUOUS
10
1.2199
20
-5.65098
11
1.2199
21
-5.65098
0
LINE
8
BLACK
6
CONTINUOUS
10
1.2199
20
-5.65098
11
1.20048
21
-5.64908
0
LINE
8
BLACK
6
CONTINUOUS
10
1.20048
20
-5.64908
11
1.20047
21
-5.64907
0
LINE
8
BLACK
6
CONTINUOUS
10
1.20047
20
-5.64907
11
1.20038
21
-5.64905
0
LINE
8
BLACK
6
CONTINUOUS
10
1.20038
20
-5.64905
11
1.20029
21
-5.64904
0
LINE
8
BLACK
6
CONTINUOUS
10
1.20029
20
-5.64904
11
1.18161
21
-5.6434
0
LINE
8
BLACK
6
CONTINUOUS
10
1.18161
20
-5.6434
11
1.1816
21
-5.64339
0
LINE
8
BLACK
6
CONTINUOUS
10
1.1816
20
-5.64339
11
1.18151
21
-5.64336
0
LINE
8
BLACK
6
CONTINUOUS
10
1.18151
20
-5.64336
11
1.18143
21
-5.64332
0
LINE
8
BLACK
6
CONTINUOUS
10
1.18143
20
-5.64332
11
1.1642
21
-5.63416
0
LINE
8
BLACK
6
CONTINUOUS
10
1.1642
20
-5.63416
11
1.16419
21
-5.63415
0
LINE
8
BLACK
6
CONTINUOUS
10
1.16419
20
-5.63415
11
1.16411
21
-5.6341
0
LINE
8
BLACK
6
CONTINUOUS
10
1.16411
20
-5.6341
11
1.16404
21
-5.63405
0
LINE
8
BLACK
6
CONTINUOUS
10
1.16404
20
-5.63405
11
1.14891
21
-5.62172
0
LINE
8
BLACK
6
CONTINUOUS
10
1.14891
20
-5.62172
11
1.1489
21
-5.62171
0
LINE
8
BLACK
6
CONTINUOUS
10
1.1489
20
-5.62171
11
1.14884
21
-5.62165
0
LINE
8
BLACK
6
CONTINUOUS
10
1.14884
20
-5.62165
11
1.14878
21
-5.62158
0
LINE
8
BLACK
6
CONTINUOUS
10
1.14878
20
-5.62158
11
1.13634
21
-5.60655
0
LINE
8
BLACK
6
CONTINUOUS
10
1.13634
20
-5.60655
11
1.13633
21
-5.60654
0
LINE
8
BLACK
6
CONTINUOUS
10
1.13633
20
-5.60654
11
1.13628
21
-5.60646
0
LINE
8
BLACK
6
CONTINUOUS
10
1.13628
20
-5.60646
11
1.13623
21
-5.60639
0
LINE
8
BLACK
6
CONTINUOUS
10
1.13623
20
-5.60639
11
1.12695
21
-5.58922
0
LINE
8
BLACK
6
CONTINUOUS
10
1.12695
20
-5.58922
11
1.12694
21
-5.58921
0
LINE
8
BLACK
6
CONTINUOUS
10
1.12694
20
-5.58921
11
1.12691
21
-5.58912
0
LINE
8
BLACK
6
CONTINUOUS
10
1.12691
20
-5.58912
11
1.12687
21
-5.58904
0
LINE
8
BLACK
6
CONTINUOUS
10
1.12687
20
-5.58904
11
1.1211
21
-5.5704
0
LINE
8
BLACK
6
CONTINUOUS
10
1.1211
20
-5.5704
11
1.1211
21
-5.57039
0
LINE
8
BLACK
6
CONTINUOUS
10
1.1211
20
-5.57039
11
1.12108
21
-5.5703
0
LINE
8
BLACK
6
CONTINUOUS
10
1.12108
20
-5.5703
11
1.12106
21
-5.57021
0
LINE
8
BLACK
6
CONTINUOUS
10
1.12106
20
-5.57021
11
1.11902
21
-5.5508
0
LINE
8
BLACK
6
CONTINUOUS
10
1.11902
20
-5.5508
11
1.11902
21
-5.55079
0
LINE
8
BLACK
6
CONTINUOUS
10
1.11902
20
-5.55079
11
1.11902
21
-5.55074
0
LINE
8
BLACK
6
CONTINUOUS
10
1.11902
20
-5.55074
11
1.11902
21
-5.5507
0
LINE
8
BLACK
6
CONTINUOUS
10
1.11902
20
-5.5507
11
1.11902
21
-5.55005
0
LINE
8
BLACK
6
CONTINUOUS
10
1.11902
20
-5.55005
11
1.11902
21
-5.55005
0
LINE
8
BLACK
6
CONTINUOUS
10
1.11902
20
-5.55005
11
1.11902
21
-5.55001
0
LINE
8
BLACK
6
CONTINUOUS
10
1.11902
20
-5.55001
11
1.11902
21
-5.55
0
LINE
8
BLACK
6
CONTINUOUS
10
1.11902
20
-5.55
11
1.11902
21
-5.54999
0
LINE
8
BLACK
6
CONTINUOUS
10
1.11902
20
-5.54999
11
1.11902
21
-1.19995
0
LINE
8
BLACK
6
CONTINUOUS
10
1.11902
20
-1.19995
11
1.11902
21
-1.1999
0
LINE
8
BLACK
6
CONTINUOUS
10
1.11902
20
-1.1999
11
1.11902
21
-1.1999
0
LINE
8
BLACK
6
CONTINUOUS
10
1.11902
20
-1.1999
11
1.12092
21
-1.18048
0
LINE
8
BLACK
6
CONTINUOUS
10
1.12092
20
-1.18048
11
1.12093
21
-1.18047
0
LINE
8
BLACK
6
CONTINUOUS
10
1.12093
20
-1.18047
11
1.12095
21
-1.18038
0
LINE
8
BLACK
6
CONTINUOUS
10
1.12095
20
-1.18038
11
1.12096
21
-1.18029
0
LINE
8
BLACK
6
CONTINUOUS
10
1.12096
20
-1.18029
11
1.1266
21
-1.16161
0
LINE
8
BLACK
6
CONTINUOUS
10
1.1266
20
-1.16161
11
1.12661
21
-1.1616
0
LINE
8
BLACK
6
CONTINUOUS
10
1.12661
20
-1.1616
11
1.12664
21
-1.16151
0
LINE
8
BLACK
6
CONTINUOUS
10
1.12664
20
-1.16151
11
1.12668
21
-1.16143
0
LINE
8
BLACK
6
CONTINUOUS
10
1.12668
20
-1.16143
11
1.13584
21
-1.1442
0
LINE
8
BLACK
6
CONTINUOUS
10
1.13584
20
-1.1442
11
1.13584
21
-1.1442
0
LINE
8
BLACK
6
CONTINUOUS
10
1.13584
20
-1.1442
11
1.13584
21
-1.1442
0
LINE
8
BLACK
6
CONTINUOUS
10
1.13584
20
-1.1442
11
1.13585
21
-1.14419
0
LINE
8
BLACK
6
CONTINUOUS
10
1.13585
20
-1.14419
11
1.1359
21
-1.14411
0
LINE
8
BLACK
6
CONTINUOUS
10
1.1359
20
-1.14411
11
1.13595
21
-1.14404
0
LINE
8
BLACK
6
CONTINUOUS
10
1.13595
20
-1.14404
11
1.14828
21
-1.12891
0
LINE
8
BLACK
6
CONTINUOUS
10
1.14828
20
-1.12891
11
1.14828
21
-1.12891
0
LINE
8
BLACK
6
CONTINUOUS
10
1.14828
20
-1.12891
11
1.14828
21
-1.12891
0
LINE
8
BLACK
6
CONTINUOUS
10
1.14828
20
-1.12891
11
1.14829
21
-1.1289
0
LINE
8
BLACK
6
CONTINUOUS
10
1.14829
20
-1.1289
11
1.14835
21
-1.12884
0
LINE
8
BLACK
6
CONTINUOUS
10
1.14835
20
-1.12884
11
1.14842
21
-1.12878
0
LINE
8
BLACK
6
CONTINUOUS
10
1.14842
20
-1.12878
11
1.16345
21
-1.11634
0
LINE
8
BLACK
6
CONTINUOUS
10
1.16345
20
-1.11634
11
1.16346
21
-1.11633
0
LINE
8
BLACK
6
CONTINUOUS
10
1.16346
20
-1.11633
11
1.16354
21
-1.11628
0
LINE
8
BLACK
6
CONTINUOUS
10
1.16354
20
-1.11628
11
1.16361
21
-1.11623
0
LINE
8
BLACK
6
CONTINUOUS
10
1.16361
20
-1.11623
11
1.18078
21
-1.10695
0
LINE
8
BLACK
6
CONTINUOUS
10
1.18078
20
-1.10695
11
1.18078
21
-1.10695
0
LINE
8
BLACK
6
CONTINUOUS
10
1.18078
20
-1.10695
11
1.18078
21
-1.10695
0
LINE
8
BLACK
6
CONTINUOUS
10
1.18078
20
-1.10695
11
1.18079
21
-1.10694
0
LINE
8
BLACK
6
CONTINUOUS
10
1.18079
20
-1.10694
11
1.18088
21
-1.10691
0
LINE
8
BLACK
6
CONTINUOUS
10
1.18088
20
-1.10691
11
1.18096
21
-1.10687
0
LINE
8
BLACK
6
CONTINUOUS
10
1.18096
20
-1.10687
11
1.1996
21
-1.1011
0
LINE
8
BLACK
6
CONTINUOUS
10
1.1996
20
-1.1011
11
1.1996
21
-1.1011
0
LINE
8
BLACK
6
CONTINUOUS
10
1.1996
20
-1.1011
11
1.19961
21
-1.1011
0
LINE
8
BLACK
6
CONTINUOUS
10
1.19961
20
-1.1011
11
1.1997
21
-1.10108
0
LINE
8
BLACK
6
CONTINUOUS
10
1.1997
20
-1.10108
11
1.19979
21
-1.10106
0
LINE
8
BLACK
6
CONTINUOUS
10
1.19979
20
-1.10106
11
1.2192
21
-1.09902
0
LINE
8
BLACK
6
CONTINUOUS
10
1.2192
20
-1.09902
11
1.21921
21
-1.09902
0
LINE
8
BLACK
6
CONTINUOUS
10
1.21921
20
-1.09902
11
1.21926
21
-1.09902
0
LINE
8
BLACK
6
CONTINUOUS
10
1.21926
20
-1.09902
11
1.2193
21
-1.09902
0
LINE
8
BLACK
6
CONTINUOUS
10
1.2193
20
-1.09902
11
1.21995
21
-1.09902
0
LINE
8
BLACK
6
CONTINUOUS
10
1.21995
20
-1.09902
11
1.21995
21
-1.09902
0
LINE
8
BLACK
6
CONTINUOUS
10
1.21995
20
-1.09902
11
5.83005
21
-1.09902
0
LINE
8
BLACK
6
CONTINUOUS
10
5.83005
20
-1.09902
11
5.8301
21
-1.09902
0
LINE
8
BLACK
6
CONTINUOUS
10
5.8301
20
-1.09902
11
5.8301
21
-1.09902
0
LINE
8
BLACK
6
CONTINUOUS
10
5.8301
20
-1.09902
11
5.84952
21
-1.10092
0
LINE
8
BLACK
6
CONTINUOUS
10
5.84952
20
-1.10092
11
5.84953
21
-1.10093
0
LINE
8
BLACK
6
CONTINUOUS
10
5.84953
20
-1.10093
11
5.84962
21
-1.10095
0
LINE
8
BLACK
6
CONTINUOUS
10
5.84962
20
-1.10095
11
5.84971
21
-1.10096
0
LINE
8
BLACK
6
CONTINUOUS
10
5.84971
20
-1.10096
11
5.86839
21
-1.1066
0
LINE
8
BLACK
6
CONTINUOUS
10
5.86839
20
-1.1066
11
5.8684
21
-1.10661
0
LINE
8
BLACK
6
CONTINUOUS
10
5.8684
20
-1.10661
11
5.86849
21
-1.10664
0
LINE
8
BLACK
6
CONTINUOUS
10
5.86849
20
-1.10664
11
5.86857
21
-1.10668
0
LINE
8
BLACK
6
CONTINUOUS
10
5.86857
20
-1.10668
11
5.8858
21
-1.11584
0
LINE
8
BLACK
6
CONTINUOUS
10
5.8858
20
-1.11584
11
5.8858
21
-1.11584
0
LINE
8
BLACK
6
CONTINUOUS
10
5.8858
20
-1.11584
11
5.8858
21
-1.11584
0
LINE
8
BLACK
6
CONTINUOUS
10
5.8858
20
-1.11584
11
5.88581
21
-1.11585
0
LINE
8
BLACK
6
CONTINUOUS
10
5.88581
20
-1.11585
11
5.88589
21
-1.1159
0
LINE
8
BLACK
6
CONTINUOUS
10
5.88589
20
-1.1159
11
5.88596
21
-1.11595
0
LINE
8
BLACK
6
CONTINUOUS
10
5.88596
20
-1.11595
11
5.90109
21
-1.12828
0
LINE
8
BLACK
6
CONTINUOUS
10
5.90109
20
-1.12828
11
5.90109
21
-1.12828
0
LINE
8
BLACK
6
CONTINUOUS
10
5.90109
20
-1.12828
11
5.90109
21
-1.12828
0
LINE
8
BLACK
6
CONTINUOUS
10
5.90109
20
-1.12828
11
5.9011
21
-1.12829
0
LINE
8
BLACK
6
CONTINUOUS
10
5.9011
20
-1.12829
11
5.90116
21
-1.12835
0
LINE
8
BLACK
6
CONTINUOUS
10
5.90116
20
-1.12835
11
5.90122
21
-1.12842
0
LINE
8
BLACK
6
CONTINUOUS
10
5.90122
20
-1.12842
11
5.91366
21
-1.14345
0
LINE
8
BLACK
6
CONTINUOUS
10
5.91366
20
-1.14345
11
5.91367
21
-1.14346
0
LINE
8
BLACK
6
CONTINUOUS
10
5.91367
20
-1.14346
11
5.91372
21
-1.14354
0
LINE
8
BLACK
6
CONTINUOUS
10
5.91372
20
-1.14354
11
5.91377
21
-1.14361
0
LINE
8
BLACK
6
CONTINUOUS
10
5.91377
20
-1.14361
11
5.92305
21
-1.16078
0
LINE
8
BLACK
6
CONTINUOUS
10
5.92305
20
-1.16078
11
5.92305
21
-1.16078
0
LINE
8
BLACK
6
CONTINUOUS
10
5.92305
20
-1.16078
11
5.92305
21
-1.16078
0
LINE
8
BLACK
6
CONTINUOUS
10
5.92305
20
-1.16078
11
5.92306
21
-1.16079
0
LINE
8
BLACK
6
CONTINUOUS
10
5.92306
20
-1.16079
11
5.92309
21
-1.16088
0
LINE
8
BLACK
6
CONTINUOUS
10
5.92309
20
-1.16088
11
5.92313
21
-1.16096
0
LINE
8
BLACK
6
CONTINUOUS
10
5.92313
20
-1.16096
11
5.9289
21
-1.1796
0
LINE
8
BLACK
6
CONTINUOUS
10
5.9289
20
-1.1796
11
5.9289
21
-1.17961
0
LINE
8
BLACK
6
CONTINUOUS
10
5.9289
20
-1.17961
11
5.92892
21
-1.1797
0
LINE
8
BLACK
6
CONTINUOUS
10
5.92892
20
-1.1797
11
5.92894
21
-1.17979
0
LINE
8
BLACK
6
CONTINUOUS
10
5.92894
20
-1.17979
11
5.93096
21
-1.19902
0
LINE
8
BLACK
6
CONTINUOUS
10
5.93096
20
-1.19902
11
6.02911
21
-1.19902
0
LINE
8
BLACK
6
CONTINUOUS
10
6.02911
20
-1.19902
11
6.03092
21
-1.18048
0
LINE
8
BLACK
6
CONTINUOUS
10
6.03092
20
-1.18048
11
6.03093
21
-1.18047
0
LINE
8
BLACK
6
CONTINUOUS
10
6.03093
20
-1.18047
11
6.03095
21
-1.18038
0
LINE
8
BLACK
6
CONTINUOUS
10
6.03095
20
-1.18038
11
6.03096
21
-1.18029
0
LINE
8
BLACK
6
CONTINUOUS
10
6.03096
20
-1.18029
11
6.0366
21
-1.16161
0
LINE
8
BLACK
6
CONTINUOUS
10
6.0366
20
-1.16161
11
6.03661
21
-1.1616
0
LINE
8
BLACK
6
CONTINUOUS
10
6.03661
20
-1.1616
11
6.03664
21
-1.16151
0
LINE
8
BLACK
6
CONTINUOUS
10
6.03664
20
-1.16151
11
6.03668
21
-1.16143
0
LINE
8
BLACK
6
CONTINUOUS
10
6.03668
20
-1.16143
11
6.04584
21
-1.1442
0
LINE
8
BLACK
6
CONTINUOUS
10
6.04584
20
-1.1442
11
6.04584
21
-1.1442
0
LINE
8
BLACK
6
CONTINUOUS
10
6.04584
20
-1.1442
11
6.04584
21
-1.1442
0
LINE
8
BLACK
6
CONTINUOUS
10
6.04584
20
-1.1442
11
6.04585
21
-1.14419
0
LINE
8
BLACK
6
CONTINUOUS
10
6.04585
20
-1.14419
11
6.0459
21
-1.14411
0
LINE
8
BLACK
6
CONTINUOUS
10
6.0459
20
-1.14411
11
6.04595
21
-1.14404
0
LINE
8
BLACK
6
CONTINUOUS
10
6.04595
20
-1.14404
11
6.05828
21
-1.12891
0
LINE
8
BLACK
6
CONTINUOUS
10
6.05828
20
-1.12891
11
6.05828
21
-1.12891
0
LINE
8
BLACK
6
CONTINUOUS
10
6.05828
20
-1.12891
11
6.05828
21
-1.12891
0
LINE
8
BLACK
6
CONTINUOUS
10
6.05828
20
-1.12891
11
6.05829
21
-1.1289
0
LINE
8
BLACK
6
CONTINUOUS
10
6.05829
20
-1.1289
11
6.05835
21
-1.12884
0
LINE
8
BLACK
6
CONTINUOUS
10
6.05835
20
-1.12884
11
6.05842
21
-1.12878
0
LINE
8
BLACK
6
CONTINUOUS
10
6.05842
20
-1.12878
11
6.07345
21
-1.11634
0
LINE
8
BLACK
6
CONTINUOUS
10
6.07345
20
-1.11634
11
6.07346
21
-1.11633
0
LINE
8
BLACK
6
CONTINUOUS
10
6.07346
20
-1.11633
11
6.07354
21
-1.11628
0
LINE
8
BLACK
6
CONTINUOUS
10
6.07354
20
-1.11628
11
6.07361
21
-1.11623
0
LINE
8
BLACK
6
CONTINUOUS
10
6.07361
20
-1.11623
11
6.09078
21
-1.10695
0
LINE
8
BLACK
6
CONTINUOUS
10
6.09078
20
-1.10695
11
6.09078
21
-1.10695
0
LINE
8
BLACK
6
CONTINUOUS
10
6.09078
20
-1.10695
11
6.09078
21
-1.10695
0
LINE
8
BLACK
6
CONTINUOUS
10
6.09078
20
-1.10695
11
6.09079
21
-1.10694
0
LINE
8
BLACK
6
CONTINUOUS
10
6.09079
20
-1.10694
11
6.09088
21
-1.10691
0
LINE
8
BLACK
6
CONTINUOUS
10
6.09088
20
-1.10691
11
6.09096
21
-1.10687
0
LINE
8
BLACK
6
CONTINUOUS
10
6.09096
20
-1.10687
11
6.1096
21
-1.1011
0
LINE
8
BLACK
6
CONTINUOUS
10
6.1096
20
-1.1011
11
6.1096
21
-1.1011
0
LINE
8
BLACK
6
CONTINUOUS
10
6.1096
20
-1.1011
11
6.10961
21
-1.1011
0
LINE
8
BLACK
6
CONTINUOUS
10
1.22
20
-1.10098
11
1.21936
21
-1.10099
0
LINE
8
BLACK
6
CONTINUOUS
10
1.21936
20
-1.10099
11
1.20009
21
-1.10301
0
LINE
8
BLACK
6
CONTINUOUS
10
1.20009
20
-1.10301
11
1.18163
21
-1.10873
0
LINE
8
BLACK
6
CONTINUOUS
10
1.18163
20
-1.10873
11
1.16463
21
-1.11792
0
LINE
8
BLACK
6
CONTINUOUS
10
1.16463
20
-1.11792
11
1.14974
21
-1.13023
0
LINE
8
BLACK
6
CONTINUOUS
10
1.14974
20
-1.13023
11
1.13753
21
-1.14521
0
LINE
8
BLACK
6
CONTINUOUS
10
1.13753
20
-1.14521
11
1.12846
21
-1.16227
0
LINE
8
BLACK
6
CONTINUOUS
10
1.12846
20
-1.16227
11
1.12287
21
-1.18077
0
LINE
8
BLACK
6
CONTINUOUS
10
1.12287
20
-1.18077
11
1.12098
21
-1.20005
0
LINE
8
BLACK
6
CONTINUOUS
10
1.12098
20
-1.20005
11
1.12098
21
-5.55
0
LINE
8
BLACK
6
CONTINUOUS
10
1.12098
20
-5.55
11
1.12099
21
-5.55064
0
LINE
8
BLACK
6
CONTINUOUS
10
1.12099
20
-5.55064
11
1.12301
21
-5.56991
0
LINE
8
BLACK
6
CONTINUOUS
10
1.12301
20
-5.56991
11
1.12873
21
-5.58837
0
LINE
8
BLACK
6
CONTINUOUS
10
1.12873
20
-5.58837
11
1.13792
21
-5.60537
0
LINE
8
BLACK
6
CONTINUOUS
10
1.13792
20
-5.60537
11
1.15023
21
-5.62026
0
LINE
8
BLACK
6
CONTINUOUS
10
1.15023
20
-5.62026
11
1.16521
21
-5.63247
0
LINE
8
BLACK
6
CONTINUOUS
10
1.16521
20
-5.63247
11
1.18227
21
-5.64154
0
LINE
8
BLACK
6
CONTINUOUS
10
1.18227
20
-5.64154
11
1.20077
21
-5.64713
0
LINE
8
BLACK
6
CONTINUOUS
10
1.20077
20
-5.64713
11
1.22005
21
-5.64902
0
LINE
8
BLACK
6
CONTINUOUS
10
1.22005
20
-5.64902
11
6.67993
21
-5.64902
0
LINE
8
BLACK
6
CONTINUOUS
10
6.67993
20
-5.64902
11
6.68999
21
-5.64748
0
LINE
8
BLACK
6
CONTINUOUS
10
6.68999
20
-5.64748
11
6.70856
21
-5.64173
0
LINE
8
BLACK
6
CONTINUOUS
10
6.70856
20
-5.64173
11
6.72565
21
-5.6325
0
LINE
8
BLACK
6
CONTINUOUS
10
6.72565
20
-5.6325
11
6.74061
21
-5.62012
0
LINE
8
BLACK
6
CONTINUOUS
10
6.74061
20
-5.62012
11
6.75288
21
-5.60507
0
LINE
8
BLACK
6
CONTINUOUS
10
6.75288
20
-5.60507
11
6.762
21
-5.58792
0
LINE
8
BLACK
6
CONTINUOUS
10
6.762
20
-5.58792
11
6.76761
21
-5.56933
0
LINE
8
BLACK
6
CONTINUOUS
10
6.76761
20
-5.56933
11
6.76952
21
-5.5499
0
LINE
8
BLACK
6
CONTINUOUS
10
6.76952
20
-5.5499
11
6.76952
21
-5.54989
0
LINE
8
BLACK
6
CONTINUOUS
10
6.76952
20
-5.54989
11
6.76952
21
-5.54989
0
LINE
8
BLACK
6
CONTINUOUS
10
6.76952
20
-5.54989
11
6.76953
21
-5.54981
0
LINE
8
BLACK
6
CONTINUOUS
10
6.76953
20
-5.54981
11
6.76959
21
-5.54962
0
LINE
8
BLACK
6
CONTINUOUS
10
6.76959
20
-5.54962
11
6.76968
21
-5.54945
0
LINE
8
BLACK
6
CONTINUOUS
10
6.76968
20
-5.54945
11
6.7698
21
-5.5493
0
LINE
8
BLACK
6
CONTINUOUS
10
6.7698
20
-5.5493
11
6.76995
21
-5.54918
0
LINE
8
BLACK
6
CONTINUOUS
10
6.76995
20
-5.54918
11
6.77004
21
-5.54913
0
LINE
8
BLACK
6
CONTINUOUS
10
6.77004
20
-5.54913
11
6.77004
21
-5.54913
0
LINE
8
BLACK
6
CONTINUOUS
10
6.77004
20
-5.54913
11
6.77004
21
-5.54913
0
LINE
8
BLACK
6
CONTINUOUS
10
6.77004
20
-5.54913
11
6.77012
21
-5.54909
0
LINE
8
BLACK
6
CONTINUOUS
10
6.77012
20
-5.54909
11
6.77022
21
-5.54906
0
LINE
8
BLACK
6
CONTINUOUS
10
6.77022
20
-5.54906
11
6.77022
21
-5.54906
0
LINE
8
BLACK
6
CONTINUOUS
10
6.77022
20
-5.54906
11
6.77022
21
-5.54906
0
LINE
8
BLACK
6
CONTINUOUS
10
6.77022
20
-5.54906
11
6.77031
21
-5.54903
0
LINE
8
BLACK
6
CONTINUOUS
10
6.77031
20
-5.54903
11
6.77041
21
-5.54902
0
LINE
8
BLACK
6
CONTINUOUS
10
6.77041
20
-5.54902
11
6.77041
21
-5.54902
0
LINE
8
BLACK
6
CONTINUOUS
10
6.77041
20
-5.54902
11
6.77041
21
-5.54902
0
LINE
8
BLACK
6
CONTINUOUS
10
6.77041
20
-5.54902
11
6.77045
21
-5.54902
0
LINE
8
BLACK
6
CONTINUOUS
10
6.77045
20
-5.54902
11
6.87005
21
-5.54902
0
LINE
8
BLACK
6
CONTINUOUS
10
6.87005
20
-5.54902
11
6.87019
21
-5.54903
0
LINE
8
BLACK
6
CONTINUOUS
10
6.87019
20
-5.54903
11
6.87038
21
-5.54909
0
LINE
8
BLACK
6
CONTINUOUS
10
6.87038
20
-5.54909
11
6.87055
21
-5.54918
0
LINE
8
BLACK
6
CONTINUOUS
10
6.87055
20
-5.54918
11
6.8707
21
-5.5493
0
LINE
8
BLACK
6
CONTINUOUS
10
6.8707
20
-5.5493
11
6.87082
21
-5.54945
0
LINE
8
BLACK
6
CONTINUOUS
10
6.87082
20
-5.54945
11
6.87091
21
-5.54962
0
LINE
8
BLACK
6
CONTINUOUS
10
6.87091
20
-5.54962
11
6.87097
21
-5.54981
0
LINE
8
BLACK
6
CONTINUOUS
10
6.87097
20
-5.54981
11
6.87099
21
-5.55
0
LINE
8
BLACK
6
CONTINUOUS
10
6.87099
20
-5.55
11
6.87098
21
-5.55005
0
LINE
8
BLACK
6
CONTINUOUS
10
6.87098
20
-5.55005
11
6.87099
21
-5.55064
0
LINE
8
BLACK
6
CONTINUOUS
10
6.87099
20
-5.55064
11
6.87301
21
-5.56991
0
LINE
8
BLACK
6
CONTINUOUS
10
6.87301
20
-5.56991
11
6.87873
21
-5.58837
0
LINE
8
BLACK
6
CONTINUOUS
10
6.87873
20
-5.58837
11
6.88792
21
-5.60537
0
LINE
8
BLACK
6
CONTINUOUS
10
6.88792
20
-5.60537
11
6.90023
21
-5.62026
0
LINE
8
BLACK
6
CONTINUOUS
10
6.90023
20
-5.62026
11
6.91521
21
-5.63247
0
LINE
8
BLACK
6
CONTINUOUS
10
6.91521
20
-5.63247
11
6.93227
21
-5.64154
0
LINE
8
BLACK
6
CONTINUOUS
10
6.93227
20
-5.64154
11
6.95077
21
-5.64713
0
LINE
8
BLACK
6
CONTINUOUS
10
6.95077
20
-5.64713
11
6.97005
21
-5.64902
0
LINE
8
BLACK
6
CONTINUOUS
10
6.97005
20
-5.64902
11
12.94
21
-5.64902
0
LINE
8
BLACK
6
CONTINUOUS
10
12.94
20
-5.64902
11
12.9406
21
-5.64901
0
LINE
8
BLACK
6
CONTINUOUS
10
12.9406
20
-5.64901
11
12.9599
21
-5.64699
0
LINE
8
BLACK
6
CONTINUOUS
10
12.9599
20
-5.64699
11
12.9784
21
-5.64127
0
LINE
8
BLACK
6
CONTINUOUS
10
12.9784
20
-5.64127
11
12.9954
21
-5.63208
0
LINE
8
BLACK
6
CONTINUOUS
10
12.9954
20
-5.63208
11
13.0103
21
-5.61977
0
LINE
8
BLACK
6
CONTINUOUS
10
13.0103
20
-5.61977
11
13.0225
21
-5.60479
0
LINE
8
BLACK
6
CONTINUOUS
10
13.0225
20
-5.60479
11
13.0315
21
-5.58773
0
LINE
8
BLACK
6
CONTINUOUS
10
13.0315
20
-5.58773
11
13.0371
21
-5.56923
0
LINE
8
BLACK
6
CONTINUOUS
10
13.0371
20
-5.56923
11
13.039
21
-5.54995
0
LINE
8
BLACK
6
CONTINUOUS
10
13.039
20
-5.54995
11
13.039
21
-5.30005
0
LINE
8
BLACK
6
CONTINUOUS
10
13.039
20
-5.30005
11
13.039
21
-5.3
0
LINE
8
BLACK
6
CONTINUOUS
10
13.039
20
-5.3
11
13.039
21
-5.29981
0
LINE
8
BLACK
6
CONTINUOUS
10
13.039
20
-5.29981
11
13.0391
21
-5.29962
0
LINE
8
BLACK
6
CONTINUOUS
10
13.0391
20
-5.29962
11
13.0392
21
-5.29945
0
LINE
8
BLACK
6
CONTINUOUS
10
13.0392
20
-5.29945
11
13.0393
21
-5.2993
0
LINE
8
BLACK
6
CONTINUOUS
10
13.0393
20
-5.2993
11
13.0395
21
-5.29918
0
LINE
8
BLACK
6
CONTINUOUS
10
13.0395
20
-5.29918
11
13.0396
21
-5.29909
0
LINE
8
BLACK
6
CONTINUOUS
10
13.0396
20
-5.29909
11
13.0398
21
-5.29903
0
LINE
8
BLACK
6
CONTINUOUS
10
13.0398
20
-5.29903
11
13.04
21
-5.29902
0
LINE
8
BLACK
6
CONTINUOUS
10
13.04
20
-5.29902
11
13.04
21
-5.29901
0
LINE
8
BLACK
6
CONTINUOUS
10
13.04
20
-5.29901
11
13.04
21
-5.29902
0
LINE
8
BLACK
6
CONTINUOUS
10
13.04
20
-5.29902
11
13.13
21
-5.29902
0
LINE
8
BLACK
6
CONTINUOUS
10
13.13
20
-5.29902
11
13.1302
21
-5.29903
0
LINE
8
BLACK
6
CONTINUOUS
10
13.1302
20
-5.29903
11
13.1304
21
-5.29909
0
LINE
8
BLACK
6
CONTINUOUS
10
13.1304
20
-5.29909
11
13.1305
21
-5.29918
0
LINE
8
BLACK
6
CONTINUOUS
10
13.1305
20
-5.29918
11
13.1307
21
-5.2993
0
LINE
8
BLACK
6
CONTINUOUS
10
13.1307
20
-5.2993
11
13.1308
21
-5.29945
0
LINE
8
BLACK
6
CONTINUOUS
10
13.1308
20
-5.29945
11
13.1309
21
-5.29962
0
LINE
8
BLACK
6
CONTINUOUS
10
13.1309
20
-5.29962
11
13.131
21
-5.29981
0
LINE
8
BLACK
6
CONTINUOUS
10
13.131
20
-5.29981
11
13.131
21
-5.3
0
LINE
8
BLACK
6
CONTINUOUS
10
13.131
20
-5.3
11
13.131
21
-5.30005
0
LINE
8
BLACK
6
CONTINUOUS
10
13.131
20
-5.30005
11
13.131
21
-5.30064
0
LINE
8
BLACK
6
CONTINUOUS
10
13.131
20
-5.30064
11
13.133
21
-5.31991
0
LINE
8
BLACK
6
CONTINUOUS
10
13.133
20
-5.31991
11
13.1387
21
-5.33837
0
LINE
8
BLACK
6
CONTINUOUS
10
13.1387
20
-5.33837
11
13.1479
21
-5.35537
0
LINE
8
BLACK
6
CONTINUOUS
10
13.1479
20
-5.35537
11
13.1602
21
-5.37026
0
LINE
8
BLACK
6
CONTINUOUS
10
13.1602
20
-5.37026
11
13.1752
21
-5.38247
0
LINE
8
BLACK
6
CONTINUOUS
10
13.1752
20
-5.38247
11
13.1923
21
-5.39154
0
LINE
8
BLACK
6
CONTINUOUS
10
13.1923
20
-5.39154
11
13.2108
21
-5.39713
0
LINE
8
BLACK
6
CONTINUOUS
10
13.2108
20
-5.39713
11
13.23
21
-5.39902
0
LINE
8
BLACK
6
CONTINUOUS
10
13.23
20
-5.39902
11
14.0399
21
-5.39902
0
LINE
8
BLACK
6
CONTINUOUS
10
14.0399
20
-5.39902
11
14.05
21
-5.39748
0
LINE
8
BLACK
6
CONTINUOUS
10
14.05
20
-5.39748
11
14.0686
21
-5.39173
0
LINE
8
BLACK
6
CONTINUOUS
10
14.0686
20
-5.39173
11
14.0856
21
-5.3825
0
LINE
8
BLACK
6
CONTINUOUS
10
14.0856
20
-5.3825
11
14.1006
21
-5.37012
0
LINE
8
BLACK
6
CONTINUOUS
10
14.1006
20
-5.37012
11
14.1129
21
-5.35507
0
LINE
8
BLACK
6
CONTINUOUS
10
14.1129
20
-5.35507
11
14.122
21
-5.33792
0
LINE
8
BLACK
6
CONTINUOUS
10
14.122
20
-5.33792
11
14.1276
21
-5.31933
0
LINE
8
BLACK
6
CONTINUOUS
10
14.1276
20
-5.31933
11
14.1295
21
-5.29995
0
LINE
8
BLACK
6
CONTINUOUS
10
14.1295
20
-5.29995
11
14.129
21
-4.5
0
LINE
8
BLACK
6
CONTINUOUS
10
14.129
20
-4.5
11
14.129
21
-4.5
0
LINE
8
BLACK
6
CONTINUOUS
10
14.129
20
-4.5
11
14.129
21
-4.49936
0
LINE
8
BLACK
6
CONTINUOUS
10
14.129
20
-4.49936
11
14.127
21
-4.48009
0
LINE
8
BLACK
6
CONTINUOUS
10
14.127
20
-4.48009
11
14.1213
21
-4.46163
0
LINE
8
BLACK
6
CONTINUOUS
10
14.1213
20
-4.46163
11
14.1121
21
-4.44463
0
LINE
8
BLACK
6
CONTINUOUS
10
14.1121
20
-4.44463
11
14.0998
21
-4.42974
0
LINE
8
BLACK
6
CONTINUOUS
10
14.0998
20
-4.42974
11
14.0848
21
-4.41753
0
LINE
8
BLACK
6
CONTINUOUS
10
14.0848
20
-4.41753
11
14.0677
21
-4.40846
0
LINE
8
BLACK
6
CONTINUOUS
10
14.0677
20
-4.40846
11
14.0492
21
-4.40287
0
LINE
8
BLACK
6
CONTINUOUS
10
14.0492
20
-4.40287
11
14.03
21
-4.40098
0
LINE
8
BLACK
6
CONTINUOUS
10
14.03
20
-4.40098
11
13.71
21
-4.40098
0
LINE
8
BLACK
6
CONTINUOUS
10
13.71
20
-4.40098
11
13.71
21
-4.40099
0
LINE
8
BLACK
6
CONTINUOUS
10
13.71
20
-4.40099
11
13.71
21
-4.40098
0
LINE
8
BLACK
6
CONTINUOUS
10
13.71
20
-4.40098
11
13.71
21
-4.40098
0
LINE
8
BLACK
6
CONTINUOUS
10
13.71
20
-4.40098
11
13.7098
21
-4.40097
0
LINE
8
BLACK
6
CONTINUOUS
10
13.7098
20
-4.40097
11
13.7096
21
-4.40091
0
LINE
8
BLACK
6
CONTINUOUS
10
13.7096
20
-4.40091
11
13.7095
21
-4.40082
0
LINE
8
BLACK
6
CONTINUOUS
10
13.7095
20
-4.40082
11
13.7093
21
-4.4007
0
LINE
8
BLACK
6
CONTINUOUS
10
13.7093
20
-4.4007
11
13.7092
21
-4.40055
0
LINE
8
BLACK
6
CONTINUOUS
10
13.7092
20
-4.40055
11
13.7091
21
-4.40038
0
LINE
8
BLACK
6
CONTINUOUS
10
13.7091
20
-4.40038
11
13.709
21
-4.40019
0
LINE
8
BLACK
6
CONTINUOUS
10
13.709
20
-4.40019
11
13.709
21
-4.4
0
LINE
8
BLACK
6
CONTINUOUS
10
13.709
20
-4.4
11
13.709
21
-4.39995
0
LINE
8
BLACK
6
CONTINUOUS
10
13.709
20
-4.39995
11
13.709
21
-4.30005
0
LINE
8
BLACK
6
CONTINUOUS
10
13.709
20
-4.30005
11
13.709
21
-4.3
0
LINE
8
BLACK
6
CONTINUOUS
10
13.709
20
-4.3
11
13.709
21
-4.29981
0
LINE
8
BLACK
6
CONTINUOUS
10
13.709
20
-4.29981
11
13.7091
21
-4.29962
0
LINE
8
BLACK
6
CONTINUOUS
10
13.7091
20
-4.29962
11
13.7092
21
-4.29945
0
LINE
8
BLACK
6
CONTINUOUS
10
13.7092
20
-4.29945
11
13.7093
21
-4.2993
0
LINE
8
BLACK
6
CONTINUOUS
10
13.7093
20
-4.2993
11
13.7095
21
-4.29918
0
LINE
8
BLACK
6
CONTINUOUS
10
13.7095
20
-4.29918
11
13.7096
21
-4.29909
0
LINE
8
BLACK
6
CONTINUOUS
10
13.7096
20
-4.29909
11
13.7098
21
-4.29903
0
LINE
8
BLACK
6
CONTINUOUS
10
13.7098
20
-4.29903
11
13.71
21
-4.29902
0
LINE
8
BLACK
6
CONTINUOUS
10
13.71
20
-4.29902
11
13.71
21
-4.29901
0
LINE
8
BLACK
6
CONTINUOUS
10
13.71
20
-4.29901
11
13.71
21
-4.29902
0
LINE
8
BLACK
6
CONTINUOUS
10
13.71
20
-4.29902
11
14.03
21
-4.29902
0
LINE
8
BLACK
6
CONTINUOUS
10
14.03
20
-4.29902
11
14.0306
21
-4.29901
0
LINE
8
BLACK
6
CONTINUOUS
10
14.0306
20
-4.29901
11
14.0499
21
-4.29699
0
LINE
8
BLACK
6
CONTINUOUS
10
14.0499
20
-4.29699
11
14.0684
21
-4.29127
0
LINE
8
BLACK
6
CONTINUOUS
10
14.0684
20
-4.29127
11
14.0854
21
-4.28208
0
LINE
8
BLACK
6
CONTINUOUS
10
14.0854
20
-4.28208
11
14.1003
21
-4.26977
0
LINE
8
BLACK
6
CONTINUOUS
10
14.1003
20
-4.26977
11
14.1125
21
-4.25479
0
LINE
8
BLACK
6
CONTINUOUS
10
14.1125
20
-4.25479
11
14.1215
21
-4.23773
0
LINE
8
BLACK
6
CONTINUOUS
10
14.1215
20
-4.23773
11
14.1271
21
-4.21923
0
LINE
8
BLACK
6
CONTINUOUS
10
14.1271
20
-4.21923
11
14.129
21
-4.19995
0
LINE
8
BLACK
6
CONTINUOUS
10
14.129
20
-4.19995
11
14.129
21
-3.4
0
LINE
8
BLACK
6
CONTINUOUS
10
14.129
20
-3.4
11
14.129
21
-3.39936
0
LINE
8
BLACK
6
CONTINUOUS
10
14.129
20
-3.39936
11
14.127
21
-3.38009
0
LINE
8
BLACK
6
CONTINUOUS
10
14.127
20
-3.38009
11
14.1213
21
-3.36163
0
LINE
8
BLACK
6
CONTINUOUS
10
14.1213
20
-3.36163
11
14.1121
21
-3.34463
0
LINE
8
BLACK
6
CONTINUOUS
10
14.1121
20
-3.34463
11
14.0998
21
-3.32974
0
LINE
8
BLACK
6
CONTINUOUS
10
14.0998
20
-3.32974
11
14.0848
21
-3.31753
0
LINE
8
BLACK
6
CONTINUOUS
10
14.0848
20
-3.31753
11
14.0677
21
-3.30846
0
LINE
8
BLACK
6
CONTINUOUS
10
14.0677
20
-3.30846
11
14.0492
21
-3.30287
0
LINE
8
BLACK
6
CONTINUOUS
10
14.0492
20
-3.30287
11
14.03
21
-3.30098
0
LINE
8
BLACK
6
CONTINUOUS
10
14.03
20
-3.30098
11
13.71
21
-3.30098
0
LINE
8
BLACK
6
CONTINUOUS
10
13.71
20
-3.30098
11
13.71
21
-3.30099
0
LINE
8
BLACK
6
CONTINUOUS
10
13.71
20
-3.30099
11
13.71
21
-3.30098
0
LINE
8
BLACK
6
CONTINUOUS
10
13.71
20
-3.30098
11
13.71
21
-3.30098
0
LINE
8
BLACK
6
CONTINUOUS
10
13.71
20
-3.30098
11
13.7098
21
-3.30097
0
LINE
8
BLACK
6
CONTINUOUS
10
13.7098
20
-3.30097
11
13.7096
21
-3.30091
0
LINE
8
BLACK
6
CONTINUOUS
10
13.7096
20
-3.30091
11
13.7095
21
-3.30082
0
LINE
8
BLACK
6
CONTINUOUS
10
13.7095
20
-3.30082
11
13.7093
21
-3.3007
0
LINE
8
BLACK
6
CONTINUOUS
10
13.7093
20
-3.3007
11
13.7092
21
-3.30055
0
LINE
8
BLACK
6
CONTINUOUS
10
13.7092
20
-3.30055
11
13.7091
21
-3.30038
0
LINE
8
BLACK
6
CONTINUOUS
10
13.7091
20
-3.30038
11
13.709
21
-3.30019
0
LINE
8
BLACK
6
CONTINUOUS
10
13.709
20
-3.30019
11
13.709
21
-3.3
0
LINE
8
BLACK
6
CONTINUOUS
10
13.709
20
-3.3
11
13.709
21
-3.29995
0
LINE
8
BLACK
6
CONTINUOUS
10
13.709
20
-3.29995
11
13.709
21
-3.20005
0
LINE
8
BLACK
6
CONTINUOUS
10
13.709
20
-3.20005
11
13.709
21
-3.2
0
LINE
8
BLACK
6
CONTINUOUS
10
13.709
20
-3.2
11
13.709
21
-3.19981
0
LINE
8
BLACK
6
CONTINUOUS
10
13.709
20
-3.19981
11
13.7091
21
-3.19962
0
LINE
8
BLACK
6
CONTINUOUS
10
13.7091
20
-3.19962
11
13.7092
21
-3.19945
0
LINE
8
BLACK
6
CONTINUOUS
10
13.7092
20
-3.19945
11
13.7093
21
-3.1993
0
LINE
8
BLACK
6
CONTINUOUS
10
13.7093
20
-3.1993
11
13.7095
21
-3.19918
0
LINE
8
BLACK
6
CONTINUOUS
10
13.7095
20
-3.19918
11
13.7096
21
-3.19909
0
LINE
8
BLACK
6
CONTINUOUS
10
13.7096
20
-3.19909
11
13.7098
21
-3.19903
0
LINE
8
BLACK
6
CONTINUOUS
10
13.7098
20
-3.19903
11
13.71
21
-3.19902
0
LINE
8
BLACK
6
CONTINUOUS
10
13.71
20
-3.19902
11
13.71
21
-3.19901
0
LINE
8
BLACK
6
CONTINUOUS
10
13.71
20
-3.19901
11
13.71
21
-3.19902
0
LINE
8
BLACK
6
CONTINUOUS
10
13.71
20
-3.19902
11
14.03
21
-3.19902
0
LINE
8
BLACK
6
CONTINUOUS
10
14.03
20
-3.19902
11
14.0306
21
-3.19901
0
LINE
8
BLACK
6
CONTINUOUS
10
14.0306
20
-3.19901
11
14.0499
21
-3.19699
0
LINE
8
BLACK
6
CONTINUOUS
10
14.0499
20
-3.19699
11
14.0684
21
-3.19127
0
LINE
8
BLACK
6
CONTINUOUS
10
14.0684
20
-3.19127
11
14.0854
21
-3.18208
0
LINE
8
BLACK
6
CONTINUOUS
10
14.0854
20
-3.18208
11
14.1003
21
-3.16977
0
LINE
8
BLACK
6
CONTINUOUS
10
14.1003
20
-3.16977
11
14.1125
21
-3.15479
0
LINE
8
BLACK
6
CONTINUOUS
10
14.1125
20
-3.15479
11
14.1215
21
-3.13773
0
LINE
8
BLACK
6
CONTINUOUS
10
14.1215
20
-3.13773
11
14.1271
21
-3.11923
0
LINE
8
BLACK
6
CONTINUOUS
10
14.1271
20
-3.11923
11
14.129
21
-3.09995
0
LINE
8
BLACK
6
CONTINUOUS
10
14.129
20
-3.09995
11
14.129
21
-2.3
0
LINE
8
BLACK
6
CONTINUOUS
10
14.129
20
-2.3
11
14.129
21
-2.29936
0
LINE
8
BLACK
6
CONTINUOUS
10
14.129
20
-2.29936
11
14.127
21
-2.28009
0
LINE
8
BLACK
6
CONTINUOUS
10
14.127
20
-2.28009
11
14.1213
21
-2.26163
0
LINE
8
BLACK
6
CONTINUOUS
10
14.1213
20
-2.26163
11
14.1121
21
-2.24463
0
LINE
8
BLACK
6
CONTINUOUS
10
14.1121
20
-2.24463
11
14.0998
21
-2.22974
0
LINE
8
BLACK
6
CONTINUOUS
10
14.0998
20
-2.22974
11
14.0848
21
-2.21753
0
LINE
8
BLACK
6
CONTINUOUS
10
14.0848
20
-2.21753
11
14.0677
21
-2.20846
0
LINE
8
BLACK
6
CONTINUOUS
10
14.0677
20
-2.20846
11
14.0492
21
-2.20287
0
LINE
8
BLACK
6
CONTINUOUS
10
14.0492
20
-2.20287
11
14.03
21
-2.20098
0
LINE
8
BLACK
6
CONTINUOUS
10
14.03
20
-2.20098
11
13.71
21
-2.20098
0
LINE
8
BLACK
6
CONTINUOUS
10
13.71
20
-2.20098
11
13.71
21
-2.20099
0
LINE
8
BLACK
6
CONTINUOUS
10
13.71
20
-2.20099
11
13.71
21
-2.20098
0
LINE
8
BLACK
6
CONTINUOUS
10
13.71
20
-2.20098
11
13.71
21
-2.20098
0
LINE
8
BLACK
6
CONTINUOUS
10
13.71
20
-2.20098
11
13.7098
21
-2.20097
0
LINE
8
BLACK
6
CONTINUOUS
10
13.7098
20
-2.20097
11
13.7096
21
-2.20091
0
LINE
8
BLACK
6
CONTINUOUS
10
13.7096
20
-2.20091
11
13.7095
21
-2.20082
0
LINE
8
BLACK
6
CONTINUOUS
10
13.7095
20
-2.20082
11
13.7093
21
-2.2007
0
LINE
8
BLACK
6
CONTINUOUS
10
13.7093
20
-2.2007
11
13.7092
21
-2.20055
0
LINE
8
BLACK
6
CONTINUOUS
10
13.7092
20
-2.20055
11
13.7091
21
-2.20038
0
LINE
8
BLACK
6
CONTINUOUS
10
13.7091
20
-2.20038
11
13.709
21
-2.20019
0
LINE
8
BLACK
6
CONTINUOUS
10
13.709
20
-2.20019
11
13.709
21
-2.2
0
LINE
8
BLACK
6
CONTINUOUS
10
13.709
20
-2.2
11
13.709
21
-2.19995
0
LINE
8
BLACK
6
CONTINUOUS
10
13.709
20
-2.19995
11
13.709
21
-2.10005
0
LINE
8
BLACK
6
CONTINUOUS
10
13.709
20
-2.10005
11
13.709
21
-2.1
0
LINE
8
BLACK
6
CONTINUOUS
10
13.709
20
-2.1
11
13.709
21
-2.09981
0
LINE
8
BLACK
6
CONTINUOUS
10
13.709
20
-2.09981
11
13.7091
21
-2.09962
0
LINE
8
BLACK
6
CONTINUOUS
10
13.7091
20
-2.09962
11
13.7092
21
-2.09945
0
LINE
8
BLACK
6
CONTINUOUS
10
13.7092
20
-2.09945
11
13.7093
21
-2.0993
0
LINE
8
BLACK
6
CONTINUOUS
10
13.7093
20
-2.0993
11
13.7095
21
-2.09918
0
LINE
8
BLACK
6
CONTINUOUS
10
13.7095
20
-2.09918
11
13.7096
21
-2.09909
0
LINE
8
BLACK
6
CONTINUOUS
10
13.7096
20
-2.09909
11
13.7098
21
-2.09903
0
LINE
8
BLACK
6
CONTINUOUS
10
13.7098
20
-2.09903
11
13.71
21
-2.09902
0
LINE
8
BLACK
6
CONTINUOUS
10
13.71
20
-2.09902
11
13.71
21
-2.09901
0
LINE
8
BLACK
6
CONTINUOUS
10
13.71
20
-2.09901
11
13.71
21
-2.09902
0
LINE
8
BLACK
6
CONTINUOUS
10
13.71
20
-2.09902
11
14.03
21
-2.09902
0
LINE
8
BLACK
6
CONTINUOUS
10
14.03
20
-2.09902
11
14.0306
21
-2.09901
0
LINE
8
BLACK
6
CONTINUOUS
10
14.0306
20
-2.09901
11
14.0499
21
-2.09699
0
LINE
8
BLACK
6
CONTINUOUS
10
14.0499
20
-2.09699
11
14.0684
21
-2.09127
0
LINE
8
BLACK
6
CONTINUOUS
10
14.0684
20
-2.09127
11
14.0854
21
-2.08208
0
LINE
8
BLACK
6
CONTINUOUS
10
14.0854
20
-2.08208
11
14.1003
21
-2.06977
0
LINE
8
BLACK
6
CONTINUOUS
10
14.1003
20
-2.06977
11
14.1125
21
-2.05479
0
LINE
8
BLACK
6
CONTINUOUS
10
14.1125
20
-2.05479
11
14.1215
21
-2.03773
0
LINE
8
BLACK
6
CONTINUOUS
10
14.1215
20
-2.03773
11
14.1271
21
-2.01923
0
LINE
8
BLACK
6
CONTINUOUS
10
14.1271
20
-2.01923
11
14.129
21
-1.99995
0
LINE
8
BLACK
6
CONTINUOUS
10
14.129
20
-1.99995
11
14.129
21
-1.2
0
LINE
8
BLACK
6
CONTINUOUS
10
14.129
20
-1.2
11
14.129
21
-1.19936
0
LINE
8
BLACK
6
CONTINUOUS
10
14.129
20
-1.19936
11
14.127
21
-1.18009
0
LINE
8
BLACK
6
CONTINUOUS
10
14.127
20
-1.18009
11
14.1213
21
-1.16163
0
LINE
8
BLACK
6
CONTINUOUS
10
14.1213
20
-1.16163
11
14.1121
21
-1.14463
0
LINE
8
BLACK
6
CONTINUOUS
10
14.1121
20
-1.14463
11
14.0998
21
-1.12974
0
LINE
8
BLACK
6
CONTINUOUS
10
14.0998
20
-1.12974
11
14.0848
21
-1.11753
0
LINE
8
BLACK
6
CONTINUOUS
10
14.0848
20
-1.11753
11
14.0677
21
-1.10846
0
LINE
8
BLACK
6
CONTINUOUS
10
14.0677
20
-1.10846
11
14.0492
21
-1.10287
0
LINE
8
BLACK
6
CONTINUOUS
10
14.0492
20
-1.10287
11
14.03
21
-1.10098
0
LINE
8
BLACK
6
CONTINUOUS
10
14.03
20
-1.10098
11
13.23
21
-1.10098
0
LINE
8
BLACK
6
CONTINUOUS
10
13.23
20
-1.10098
11
13.2294
21
-1.10099
0
LINE
8
BLACK
6
CONTINUOUS
10
13.2294
20
-1.10099
11
13.2101
21
-1.10301
0
LINE
8
BLACK
6
CONTINUOUS
10
13.2101
20
-1.10301
11
13.1916
21
-1.10873
0
LINE
8
BLACK
6
CONTINUOUS
10
13.1916
20
-1.10873
11
13.1746
21
-1.11792
0
LINE
8
BLACK
6
CONTINUOUS
10
13.1746
20
-1.11792
11
13.1597
21
-1.13023
0
LINE
8
BLACK
6
CONTINUOUS
10
13.1597
20
-1.13023
11
13.1475
21
-1.14521
0
LINE
8
BLACK
6
CONTINUOUS
10
13.1475
20
-1.14521
11
13.1385
21
-1.16227
0
LINE
8
BLACK
6
CONTINUOUS
10
13.1385
20
-1.16227
11
13.1329
21
-1.18077
0
LINE
8
BLACK
6
CONTINUOUS
10
13.1329
20
-1.18077
11
13.131
21
-1.2001
0
LINE
8
BLACK
6
CONTINUOUS
10
13.131
20
-1.2001
11
13.131
21
-1.20011
0
LINE
8
BLACK
6
CONTINUOUS
10
13.131
20
-1.20011
11
13.131
21
-1.20019
0
LINE
8
BLACK
6
CONTINUOUS
10
13.131
20
-1.20019
11
13.1309
21
-1.20038
0
LINE
8
BLACK
6
CONTINUOUS
10
13.1309
20
-1.20038
11
13.1308
21
-1.20055
0
LINE
8
BLACK
6
CONTINUOUS
10
13.1308
20
-1.20055
11
13.1307
21
-1.2007
0
LINE
8
BLACK
6
CONTINUOUS
10
13.1307
20
-1.2007
11
13.1305
21
-1.20082
0
LINE
8
BLACK
6
CONTINUOUS
10
13.1305
20
-1.20082
11
13.1304
21
-1.20091
0
LINE
8
BLACK
6
CONTINUOUS
10
13.1304
20
-1.20091
11
13.1302
21
-1.20097
0
LINE
8
BLACK
6
CONTINUOUS
10
13.1302
20
-1.20097
11
13.1301
21
-1.20098
0
LINE
8
BLACK
6
CONTINUOUS
10
13.1301
20
-1.20098
11
13.1301
21
-1.20098
0
LINE
8
BLACK
6
CONTINUOUS
10
13.1301
20
-1.20098
11
13.1301
21
-1.20098
0
LINE
8
BLACK
6
CONTINUOUS
10
13.1301
20
-1.20098
11
13.13
21
-1.20098
0
LINE
8
BLACK
6
CONTINUOUS
10
13.13
20
-1.20098
11
13.04
21
-1.20098
0
LINE
8
BLACK
6
CONTINUOUS
10
13.04
20
-1.20098
11
13.0398
21
-1.20097
0
LINE
8
BLACK
6
CONTINUOUS
10
13.0398
20
-1.20097
11
13.0396
21
-1.20091
0
LINE
8
BLACK
6
CONTINUOUS
10
13.0396
20
-1.20091
11
13.0395
21
-1.20082
0
LINE
8
BLACK
6
CONTINUOUS
10
13.0395
20
-1.20082
11
13.0393
21
-1.2007
0
LINE
8
BLACK
6
CONTINUOUS
10
13.0393
20
-1.2007
11
13.0392
21
-1.20055
0
LINE
8
BLACK
6
CONTINUOUS
10
13.0392
20
-1.20055
11
13.0391
21
-1.20038
0
LINE
8
BLACK
6
CONTINUOUS
10
13.0391
20
-1.20038
11
13.039
21
-1.20019
0
LINE
8
BLACK
6
CONTINUOUS
10
13.039
20
-1.20019
11
13.039
21
-1.2
0
LINE
8
BLACK
6
CONTINUOUS
10
13.039
20
-1.2
11
13.039
21
-1.19995
0
LINE
8
BLACK
6
CONTINUOUS
10
13.039
20
-1.19995
11
13.039
21
-1.19936
0
LINE
8
BLACK
6
CONTINUOUS
10
13.039
20
-1.19936
11
13.037
21
-1.18009
0
LINE
8
BLACK
6
CONTINUOUS
10
13.037
20
-1.18009
11
13.0313
21
-1.16163
0
LINE
8
BLACK
6
CONTINUOUS
10
13.0313
20
-1.16163
11
13.0221
21
-1.14463
0
LINE
8
BLACK
6
CONTINUOUS
10
13.0221
20
-1.14463
11
13.0098
21
-1.12974
0
LINE
8
BLACK
6
CONTINUOUS
10
13.0098
20
-1.12974
11
12.9948
21
-1.11753
0
LINE
8
BLACK
6
CONTINUOUS
10
12.9948
20
-1.11753
11
12.9777
21
-1.10846
0
LINE
8
BLACK
6
CONTINUOUS
10
12.9777
20
-1.10846
11
12.9592
21
-1.10287
0
LINE
8
BLACK
6
CONTINUOUS
10
12.9592
20
-1.10287
11
12.94
21
-1.10098
0
LINE
8
BLACK
6
CONTINUOUS
10
12.94
20
-1.10098
11
6.13
21
-1.10098
0
LINE
8
BLACK
6
CONTINUOUS
10
6.13
20
-1.10098
11
6.12936
21
-1.10099
0
LINE
8
BLACK
6
CONTINUOUS
10
6.12936
20
-1.10099
11
6.11009
21
-1.10301
0
LINE
8
BLACK
6
CONTINUOUS
10
6.11009
20
-1.10301
11
6.09163
21
-1.10873
0
LINE
8
BLACK
6
CONTINUOUS
10
6.09163
20
-1.10873
11
6.07463
21
-1.11792
0
LINE
8
BLACK
6
CONTINUOUS
10
6.07463
20
-1.11792
11
6.05974
21
-1.13023
0
LINE
8
BLACK
6
CONTINUOUS
10
6.05974
20
-1.13023
11
6.04753
21
-1.14521
0
LINE
8
BLACK
6
CONTINUOUS
10
6.04753
20
-1.14521
11
6.03846
21
-1.16227
0
LINE
8
BLACK
6
CONTINUOUS
10
6.03846
20
-1.16227
11
6.03287
21
-1.18077
0
LINE
8
BLACK
6
CONTINUOUS
10
6.03287
20
-1.18077
11
6.03098
21
-1.2001
0
LINE
8
BLACK
6
CONTINUOUS
10
6.03098
20
-1.2001
11
6.03098
21
-1.20011
0
LINE
8
BLACK
6
CONTINUOUS
10
6.03098
20
-1.20011
11
6.03097
21
-1.20019
0
LINE
8
BLACK
6
CONTINUOUS
10
6.03097
20
-1.20019
11
6.03091
21
-1.20038
0
LINE
8
BLACK
6
CONTINUOUS
10
6.03091
20
-1.20038
11
6.03082
21
-1.20055
0
LINE
8
BLACK
6
CONTINUOUS
10
6.03082
20
-1.20055
11
6.0307
21
-1.2007
0
LINE
8
BLACK
6
CONTINUOUS
10
6.0307
20
-1.2007
11
6.03055
21
-1.20082
0
LINE
8
BLACK
6
CONTINUOUS
10
6.03055
20
-1.20082
11
6.03038
21
-1.20091
0
LINE
8
BLACK
6
CONTINUOUS
10
6.03038
20
-1.20091
11
6.03019
21
-1.20097
0
LINE
8
BLACK
6
CONTINUOUS
10
6.03019
20
-1.20097
11
6.03009
21
-1.20098
0
LINE
8
BLACK
6
CONTINUOUS
10
6.03009
20
-1.20098
11
6.03009
21
-1.20098
0
LINE
8
BLACK
6
CONTINUOUS
10
6.03009
20
-1.20098
11
6.03009
21
-1.20098
0
LINE
8
BLACK
6
CONTINUOUS
10
6.03009
20
-1.20098
11
6.03005
21
-1.20098
0
LINE
8
BLACK
6
CONTINUOUS
10
6.03005
20
-1.20098
11
5.92995
21
-1.20098
0
LINE
8
BLACK
6
CONTINUOUS
10
5.92995
20
-1.20098
11
5.92981
21
-1.20097
0
LINE
8
BLACK
6
CONTINUOUS
10
5.92981
20
-1.20097
11
5.92962
21
-1.20091
0
LINE
8
BLACK
6
CONTINUOUS
10
5.92962
20
-1.20091
11
5.92945
21
-1.20082
0
LINE
8
BLACK
6
CONTINUOUS
10
5.92945
20
-1.20082
11
5.9293
21
-1.2007
0
LINE
8
BLACK
6
CONTINUOUS
10
5.9293
20
-1.2007
11
5.92918
21
-1.20055
0
LINE
8
BLACK
6
CONTINUOUS
10
5.92918
20
-1.20055
11
5.92909
21
-1.20038
0
LINE
8
BLACK
6
CONTINUOUS
10
5.92909
20
-1.20038
11
5.92903
21
-1.20019
0
LINE
8
BLACK
6
CONTINUOUS
10
5.92903
20
-1.20019
11
5.92901
21
-1.2
0
LINE
8
BLACK
6
CONTINUOUS
10
5.92901
20
-1.2
11
5.92902
21
-1.19995
0
LINE
8
BLACK
6
CONTINUOUS
10
5.92902
20
-1.19995
11
5.92901
21
-1.19936
0
LINE
8
BLACK
6
CONTINUOUS
10
5.92901
20
-1.19936
11
5.92699
21
-1.18009
0
LINE
8
BLACK
6
CONTINUOUS
10
5.92699
20
-1.18009
11
5.92127
21
-1.16163
0
LINE
8
BLACK
6
CONTINUOUS
10
5.92127
20
-1.16163
11
5.91208
21
-1.14463
0
LINE
8
BLACK
6
CONTINUOUS
10
5.91208
20
-1.14463
11
5.89977
21
-1.12974
0
LINE
8
BLACK
6
CONTINUOUS
10
5.89977
20
-1.12974
11
5.88479
21
-1.11753
0
LINE
8
BLACK
6
CONTINUOUS
10
5.88479
20
-1.11753
11
5.86773
21
-1.10846
0
LINE
8
BLACK
6
CONTINUOUS
10
5.86773
20
-1.10846
11
5.84923
21
-1.10287
0
LINE
8
BLACK
6
CONTINUOUS
10
5.84923
20
-1.10287
11
5.82995
21
-1.10098
0
LINE
8
BLACK
6
CONTINUOUS
10
5.82995
20
-1.10098
11
1.22
21
-1.10098
0
LINE
8
BLACK
6
CONTINUOUS
10
6.87005
20
-4.35902
11
6.87005
21
-4.35902
0
LINE
8
BLACK
6
CONTINUOUS
10
6.87005
20
-4.35902
11
6.87019
21
-4.35903
0
LINE
8
BLACK
6
CONTINUOUS
10
6.87019
20
-4.35903
11
6.87038
21
-4.35909
0
LINE
8
BLACK
6
CONTINUOUS
10
6.87038
20
-4.35909
11
6.87055
21
-4.35918
0
LINE
8
BLACK
6
CONTINUOUS
10
6.87055
20
-4.35918
11
6.8707
21
-4.3593
0
LINE
8
BLACK
6
CONTINUOUS
10
6.8707
20
-4.3593
11
6.87082
21
-4.35945
0
LINE
8
BLACK
6
CONTINUOUS
10
6.87082
20
-4.35945
11
6.87091
21
-4.35962
0
LINE
8
BLACK
6
CONTINUOUS
10
6.87091
20
-4.35962
11
6.87097
21
-4.35981
0
LINE
8
BLACK
6
CONTINUOUS
10
6.87097
20
-4.35981
11
6.87099
21
-4.36
0
LINE
8
BLACK
6
CONTINUOUS
10
6.87099
20
-4.36
11
6.87098
21
-4.36005
0
LINE
8
BLACK
6
CONTINUOUS
10
6.87098
20
-4.36005
11
6.87098
21
-5.34995
0
LINE
8
BLACK
6
CONTINUOUS
10
6.87098
20
-5.34995
11
6.87099
21
-5.35
0
LINE
8
BLACK
6
CONTINUOUS
10
6.87099
20
-5.35
11
6.87098
21
-5.35005
0
LINE
8
BLACK
6
CONTINUOUS
10
6.87098
20
-5.35005
11
6.87098
21
-5.35005
0
LINE
8
BLACK
6
CONTINUOUS
10
6.87098
20
-5.35005
11
6.87097
21
-5.35019
0
LINE
8
BLACK
6
CONTINUOUS
10
6.87097
20
-5.35019
11
6.87091
21
-5.35038
0
LINE
8
BLACK
6
CONTINUOUS
10
6.87091
20
-5.35038
11
6.87082
21
-5.35055
0
LINE
8
BLACK
6
CONTINUOUS
10
6.87082
20
-5.35055
11
6.8707
21
-5.3507
0
LINE
8
BLACK
6
CONTINUOUS
10
6.8707
20
-5.3507
11
6.87055
21
-5.35082
0
LINE
8
BLACK
6
CONTINUOUS
10
6.87055
20
-5.35082
11
6.87038
21
-5.35091
0
LINE
8
BLACK
6
CONTINUOUS
10
6.87038
20
-5.35091
11
6.87019
21
-5.35097
0
LINE
8
BLACK
6
CONTINUOUS
10
6.87019
20
-5.35097
11
6.87
21
-5.35099
0
LINE
8
BLACK
6
CONTINUOUS
10
6.87
20
-5.35099
11
6.86995
21
-5.35098
0
LINE
8
BLACK
6
CONTINUOUS
10
6.86995
20
-5.35098
11
6.77005
21
-5.35098
0
LINE
8
BLACK
6
CONTINUOUS
10
6.77005
20
-5.35098
11
6.77
21
-5.35099
0
LINE
8
BLACK
6
CONTINUOUS
10
6.77
20
-5.35099
11
6.76981
21
-5.35097
0
LINE
8
BLACK
6
CONTINUOUS
10
6.76981
20
-5.35097
11
6.76962
21
-5.35091
0
LINE
8
BLACK
6
CONTINUOUS
10
6.76962
20
-5.35091
11
6.76945
21
-5.35082
0
LINE
8
BLACK
6
CONTINUOUS
10
6.76945
20
-5.35082
11
6.7693
21
-5.3507
0
LINE
8
BLACK
6
CONTINUOUS
10
6.7693
20
-5.3507
11
6.76918
21
-5.35055
0
LINE
8
BLACK
6
CONTINUOUS
10
6.76918
20
-5.35055
11
6.76909
21
-5.35038
0
LINE
8
BLACK
6
CONTINUOUS
10
6.76909
20
-5.35038
11
6.76903
21
-5.35019
0
LINE
8
BLACK
6
CONTINUOUS
10
6.76903
20
-5.35019
11
6.76901
21
-5.35
0
LINE
8
BLACK
6
CONTINUOUS
10
6.76901
20
-5.35
11
6.76902
21
-5.34995
0
LINE
8
BLACK
6
CONTINUOUS
10
6.76902
20
-5.34995
11
6.76902
21
-4.36005
0
LINE
8
BLACK
6
CONTINUOUS
10
6.76902
20
-4.36005
11
6.76901
21
-4.36
0
LINE
8
BLACK
6
CONTINUOUS
10
6.76901
20
-4.36
11
6.76903
21
-4.35981
0
LINE
8
BLACK
6
CONTINUOUS
10
6.76903
20
-4.35981
11
6.76909
21
-4.35962
0
LINE
8
BLACK
6
CONTINUOUS
10
6.76909
20
-4.35962
11
6.76918
21
-4.35945
0
LINE
8
BLACK
6
CONTINUOUS
10
6.76918
20
-4.35945
11
6.7693
21
-4.3593
0
LINE
8
BLACK
6
CONTINUOUS
10
6.7693
20
-4.3593
11
6.76945
21
-4.35918
0
LINE
8
BLACK
6
CONTINUOUS
10
6.76945
20
-4.35918
11
6.76962
21
-4.35909
0
LINE
8
BLACK
6
CONTINUOUS
10
6.76962
20
-4.35909
11
6.76981
21
-4.35903
0
LINE
8
BLACK
6
CONTINUOUS
10
6.76981
20
-4.35903
11
6.76995
21
-4.35902
0
LINE
8
BLACK
6
CONTINUOUS
10
6.76995
20
-4.35902
11
6.76995
21
-4.35902
0
LINE
8
BLACK
6
CONTINUOUS
10
6.76995
20
-4.35902
11
6.77
21
-4.35901
0
LINE
8
BLACK
6
CONTINUOUS
10
6.77
20
-4.35901
11
6.77005
21
-4.35902
0
LINE
8
BLACK
6
CONTINUOUS
10
6.77005
20
-4.35902
11
6.86995
21
-4.35902
0
LINE
8
BLACK
6
CONTINUOUS
10
6.86995
20
-4.35902
11
6.87
21
-4.35901
0
LINE
8
BLACK
6
CONTINUOUS
10
6.87
20
-4.35901
11
6.87005
21
-4.35902
0
LINE
8
BLACK
6
CONTINUOUS
10
6.77098
20
-4.36098
11
6.77098
21
-5.34902
0
LINE
8
BLACK
6
CONTINUOUS
10
6.77098
20
-5.34902
11
6.86902
21
-5.34902
0
LINE
8
BLACK
6
CONTINUOUS
10
6.86902
20
-5.34902
11
6.86902
21
-4.36098
0
LINE
8
BLACK
6
CONTINUOUS
10
6.86902
20
-4.36098
11
6.77098
21
-4.36098
0
LINE
8
BLACK
6
CONTINUOUS
10
13.131
20
-5.2
11
13.131
21
-5.20019
0
LINE
8
BLACK
6
CONTINUOUS
10
13.131
20
-5.20019
11
13.1309
21
-5.20038
0
LINE
8
BLACK
6
CONTINUOUS
10
13.1309
20
-5.20038
11
13.1308
21
-5.20055
0
LINE
8
BLACK
6
CONTINUOUS
10
13.1308
20
-5.20055
11
13.1307
21
-5.2007
0
LINE
8
BLACK
6
CONTINUOUS
10
13.1307
20
-5.2007
11
13.1305
21
-5.20082
0
LINE
8
BLACK
6
CONTINUOUS
10
13.1305
20
-5.20082
11
13.1304
21
-5.20091
0
LINE
8
BLACK
6
CONTINUOUS
10
13.1304
20
-5.20091
11
13.1302
21
-5.20097
0
LINE
8
BLACK
6
CONTINUOUS
10
13.1302
20
-5.20097
11
13.13
21
-5.20098
0
LINE
8
BLACK
6
CONTINUOUS
10
13.13
20
-5.20098
11
13.13
21
-5.20098
0
LINE
8
BLACK
6
CONTINUOUS
10
13.13
20
-5.20098
11
13.13
21
-5.20099
0
LINE
8
BLACK
6
CONTINUOUS
10
13.13
20
-5.20099
11
13.13
21
-5.20098
0
LINE
8
BLACK
6
CONTINUOUS
10
13.13
20
-5.20098
11
13.04
21
-5.20098
0
LINE
8
BLACK
6
CONTINUOUS
10
13.04
20
-5.20098
11
13.04
21
-5.20099
0
LINE
8
BLACK
6
CONTINUOUS
10
13.04
20
-5.20099
11
13.04
21
-5.20098
0
LINE
8
BLACK
6
CONTINUOUS
10
13.04
20
-5.20098
11
13.04
21
-5.20098
0
LINE
8
BLACK
6
CONTINUOUS
10
13.04
20
-5.20098
11
13.0398
21
-5.20097
0
LINE
8
BLACK
6
CONTINUOUS
10
13.0398
20
-5.20097
11
13.0396
21
-5.20091
0
LINE
8
BLACK
6
CONTINUOUS
10
13.0396
20
-5.20091
11
13.0395
21
-5.20082
0
LINE
8
BLACK
6
CONTINUOUS
10
13.0395
20
-5.20082
11
13.0393
21
-5.2007
0
LINE
8
BLACK
6
CONTINUOUS
10
13.0393
20
-5.2007
11
13.0392
21
-5.20055
0
LINE
8
BLACK
6
CONTINUOUS
10
13.0392
20
-5.20055
11
13.0391
21
-5.20038
0
LINE
8
BLACK
6
CONTINUOUS
10
13.0391
20
-5.20038
11
13.039
21
-5.20019
0
LINE
8
BLACK
6
CONTINUOUS
10
13.039
20
-5.20019
11
13.039
21
-5.2
0
LINE
8
BLACK
6
CONTINUOUS
10
13.039
20
-5.2
11
13.039
21
-5.19995
0
LINE
8
BLACK
6
CONTINUOUS
10
13.039
20
-5.19995
11
13.039
21
-4.60005
0
LINE
8
BLACK
6
CONTINUOUS
10
13.039
20
-4.60005
11
13.039
21
-4.6
0
LINE
8
BLACK
6
CONTINUOUS
10
13.039
20
-4.6
11
13.039
21
-4.59981
0
LINE
8
BLACK
6
CONTINUOUS
10
13.039
20
-4.59981
11
13.0391
21
-4.59962
0
LINE
8
BLACK
6
CONTINUOUS
10
13.0391
20
-4.59962
11
13.0392
21
-4.59945
0
LINE
8
BLACK
6
CONTINUOUS
10
13.0392
20
-4.59945
11
13.0393
21
-4.5993
0
LINE
8
BLACK
6
CONTINUOUS
10
13.0393
20
-4.5993
11
13.0395
21
-4.59918
0
LINE
8
BLACK
6
CONTINUOUS
10
13.0395
20
-4.59918
11
13.0396
21
-4.59909
0
LINE
8
BLACK
6
CONTINUOUS
10
13.0396
20
-4.59909
11
13.0398
21
-4.59903
0
LINE
8
BLACK
6
CONTINUOUS
10
13.0398
20
-4.59903
11
13.04
21
-4.59902
0
LINE
8
BLACK
6
CONTINUOUS
10
13.04
20
-4.59902
11
13.04
21
-4.59901
0
LINE
8
BLACK
6
CONTINUOUS
10
13.04
20
-4.59901
11
13.04
21
-4.59902
0
LINE
8
BLACK
6
CONTINUOUS
10
13.04
20
-4.59902
11
13.13
21
-4.59902
0
LINE
8
BLACK
6
CONTINUOUS
10
13.13
20
-4.59902
11
13.13
21
-4.59901
0
LINE
8
BLACK
6
CONTINUOUS
10
13.13
20
-4.59901
11
13.13
21
-4.59902
0
LINE
8
BLACK
6
CONTINUOUS
10
13.13
20
-4.59902
11
13.13
21
-4.59902
0
LINE
8
BLACK
6
CONTINUOUS
10
13.13
20
-4.59902
11
13.1302
21
-4.59903
0
LINE
8
BLACK
6
CONTINUOUS
10
13.1302
20
-4.59903
11
13.1304
21
-4.59909
0
LINE
8
BLACK
6
CONTINUOUS
10
13.1304
20
-4.59909
11
13.1305
21
-4.59918
0
LINE
8
BLACK
6
CONTINUOUS
10
13.1305
20
-4.59918
11
13.1307
21
-4.5993
0
LINE
8
BLACK
6
CONTINUOUS
10
13.1307
20
-4.5993
11
13.1308
21
-4.59945
0
LINE
8
BLACK
6
CONTINUOUS
10
13.1308
20
-4.59945
11
13.1309
21
-4.59962
0
LINE
8
BLACK
6
CONTINUOUS
10
13.1309
20
-4.59962
11
13.131
21
-4.59981
0
LINE
8
BLACK
6
CONTINUOUS
10
13.131
20
-4.59981
11
13.131
21
-4.6
0
LINE
8
BLACK
6
CONTINUOUS
10
13.131
20
-4.6
11
13.131
21
-4.60005
0
LINE
8
BLACK
6
CONTINUOUS
10
13.131
20
-4.60005
11
13.131
21
-5.19995
0
LINE
8
BLACK
6
CONTINUOUS
10
13.131
20
-5.19995
11
13.131
21
-5.2
0
LINE
8
BLACK
6
CONTINUOUS
10
13.041
20
-4.60098
11
13.041
21
-5.19902
0
LINE
8
BLACK
6
CONTINUOUS
10
13.041
20
-5.19902
11
13.129
21
-5.19902
0
LINE
8
BLACK
6
CONTINUOUS
10
13.129
20
-5.19902
11
13.129
21
-4.77995
0
LINE
8
BLACK
6
CONTINUOUS
10
13.129
20
-4.77995
11
13.129
21
-4.60098
0
LINE
8
BLACK
6
CONTINUOUS
10
13.129
20
-4.60098
11
13.041
21
-4.60098
0
LINE
8
BLACK
6
CONTINUOUS
10
13.04
20
-4.19902
11
13.13
21
-4.19902
0
LINE
8
BLACK
6
CONTINUOUS
10
13.13
20
-4.19902
11
13.1302
21
-4.19903
0
LINE
8
BLACK
6
CONTINUOUS
10
13.1302
20
-4.19903
11
13.1304
21
-4.19909
0
LINE
8
BLACK
6
CONTINUOUS
10
13.1304
20
-4.19909
11
13.1305
21
-4.19918
0
LINE
8
BLACK
6
CONTINUOUS
10
13.1305
20
-4.19918
11
13.1307
21
-4.1993
0
LINE
8
BLACK
6
CONTINUOUS
10
13.1307
20
-4.1993
11
13.1308
21
-4.19945
0
LINE
8
BLACK
6
CONTINUOUS
10
13.1308
20
-4.19945
11
13.1309
21
-4.19962
0
LINE
8
BLACK
6
CONTINUOUS
10
13.1309
20
-4.19962
11
13.131
21
-4.19981
0
LINE
8
BLACK
6
CONTINUOUS
10
13.131
20
-4.19981
11
13.131
21
-4.2
0
LINE
8
BLACK
6
CONTINUOUS
10
13.131
20
-4.2
11
13.131
21
-4.20005
0
LINE
8
BLACK
6
CONTINUOUS
10
13.131
20
-4.20005
11
13.131
21
-4.20064
0
LINE
8
BLACK
6
CONTINUOUS
10
13.131
20
-4.20064
11
13.133
21
-4.21991
0
LINE
8
BLACK
6
CONTINUOUS
10
13.133
20
-4.21991
11
13.1387
21
-4.23837
0
LINE
8
BLACK
6
CONTINUOUS
10
13.1387
20
-4.23837
11
13.1479
21
-4.25537
0
LINE
8
BLACK
6
CONTINUOUS
10
13.1479
20
-4.25537
11
13.1602
21
-4.27026
0
LINE
8
BLACK
6
CONTINUOUS
10
13.1602
20
-4.27026
11
13.1752
21
-4.28247
0
LINE
8
BLACK
6
CONTINUOUS
10
13.1752
20
-4.28247
11
13.1923
21
-4.29154
0
LINE
8
BLACK
6
CONTINUOUS
10
13.1923
20
-4.29154
11
13.2108
21
-4.29713
0
LINE
8
BLACK
6
CONTINUOUS
10
13.2108
20
-4.29713
11
13.23
21
-4.29902
0
LINE
8
BLACK
6
CONTINUOUS
10
13.23
20
-4.29902
11
13.51
21
-4.29902
0
LINE
8
BLACK
6
CONTINUOUS
10
13.51
20
-4.29902
11
13.51
21
-4.29901
0
LINE
8
BLACK
6
CONTINUOUS
10
13.51
20
-4.29901
11
13.51
21
-4.29902
0
LINE
8
BLACK
6
CONTINUOUS
10
13.51
20
-4.29902
11
13.51
21
-4.29902
0
LINE
8
BLACK
6
CONTINUOUS
10
13.51
20
-4.29902
11
13.5102
21
-4.29903
0
LINE
8
BLACK
6
CONTINUOUS
10
13.5102
20
-4.29903
11
13.5104
21
-4.29909
0
LINE
8
BLACK
6
CONTINUOUS
10
13.5104
20
-4.29909
11
13.5105
21
-4.29918
0
LINE
8
BLACK
6
CONTINUOUS
10
13.5105
20
-4.29918
11
13.5107
21
-4.2993
0
LINE
8
BLACK
6
CONTINUOUS
10
13.5107
20
-4.2993
11
13.5108
21
-4.29945
0
LINE
8
BLACK
6
CONTINUOUS
10
13.5108
20
-4.29945
11
13.5109
21
-4.29962
0
LINE
8
BLACK
6
CONTINUOUS
10
13.5109
20
-4.29962
11
13.511
21
-4.29981
0
LINE
8
BLACK
6
CONTINUOUS
10
13.511
20
-4.29981
11
13.511
21
-4.3
0
LINE
8
BLACK
6
CONTINUOUS
10
13.511
20
-4.3
11
13.511
21
-4.30005
0
LINE
8
BLACK
6
CONTINUOUS
10
13.511
20
-4.30005
11
13.511
21
-4.39995
0
LINE
8
BLACK
6
CONTINUOUS
10
13.511
20
-4.39995
11
13.511
21
-4.4
0
LINE
8
BLACK
6
CONTINUOUS
10
13.511
20
-4.4
11
13.511
21
-4.40019
0
LINE
8
BLACK
6
CONTINUOUS
10
13.511
20
-4.40019
11
13.5109
21
-4.40038
0
LINE
8
BLACK
6
CONTINUOUS
10
13.5109
20
-4.40038
11
13.5108
21
-4.40055
0
LINE
8
BLACK
6
CONTINUOUS
10
13.5108
20
-4.40055
11
13.5107
21
-4.4007
0
LINE
8
BLACK
6
CONTINUOUS
10
13.5107
20
-4.4007
11
13.5105
21
-4.40082
0
LINE
8
BLACK
6
CONTINUOUS
10
13.5105
20
-4.40082
11
13.5104
21
-4.40091
0
LINE
8
BLACK
6
CONTINUOUS
10
13.5104
20
-4.40091
11
13.5102
21
-4.40097
0
LINE
8
BLACK
6
CONTINUOUS
10
13.5102
20
-4.40097
11
13.5101
21
-4.40098
0
LINE
8
BLACK
6
CONTINUOUS
10
13.5101
20
-4.40098
11
13.51
21
-4.40099
0
LINE
8
BLACK
6
CONTINUOUS
10
13.51
20
-4.40099
11
13.51
21
-4.40098
0
LINE
8
BLACK
6
CONTINUOUS
10
13.51
20
-4.40098
11
13.23
21
-4.40098
0
LINE
8
BLACK
6
CONTINUOUS
10
13.23
20
-4.40098
11
13.2294
21
-4.40099
0
LINE
8
BLACK
6
CONTINUOUS
10
13.2294
20
-4.40099
11
13.2101
21
-4.40301
0
LINE
8
BLACK
6
CONTINUOUS
10
13.2101
20
-4.40301
11
13.1916
21
-4.40873
0
LINE
8
BLACK
6
CONTINUOUS
10
13.1916
20
-4.40873
11
13.1746
21
-4.41792
0
LINE
8
BLACK
6
CONTINUOUS
10
13.1746
20
-4.41792
11
13.1597
21
-4.43023
0
LINE
8
BLACK
6
CONTINUOUS
10
13.1597
20
-4.43023
11
13.1475
21
-4.44521
0
LINE
8
BLACK
6
CONTINUOUS
10
13.1475
20
-4.44521
11
13.1385
21
-4.46227
0
LINE
8
BLACK
6
CONTINUOUS
10
13.1385
20
-4.46227
11
13.1329
21
-4.48077
0
LINE
8
BLACK
6
CONTINUOUS
10
13.1329
20
-4.48077
11
13.131
21
-4.5001
0
LINE
8
BLACK
6
CONTINUOUS
10
13.131
20
-4.5001
11
13.131
21
-4.50011
0
LINE
8
BLACK
6
CONTINUOUS
10
13.131
20
-4.50011
11
13.131
21
-4.50019
0
LINE
8
BLACK
6
CONTINUOUS
10
13.131
20
-4.50019
11
13.1309
21
-4.50038
0
LINE
8
BLACK
6
CONTINUOUS
10
13.1309
20
-4.50038
11
13.1308
21
-4.50055
0
LINE
8
BLACK
6
CONTINUOUS
10
13.1308
20
-4.50055
11
13.1307
21
-4.5007
0
LINE
8
BLACK
6
CONTINUOUS
10
13.1307
20
-4.5007
11
13.1305
21
-4.50082
0
LINE
8
BLACK
6
CONTINUOUS
10
13.1305
20
-4.50082
11
13.1304
21
-4.50091
0
LINE
8
BLACK
6
CONTINUOUS
10
13.1304
20
-4.50091
11
13.1302
21
-4.50097
0
LINE
8
BLACK
6
CONTINUOUS
10
13.1302
20
-4.50097
11
13.1301
21
-4.50098
0
LINE
8
BLACK
6
CONTINUOUS
10
13.1301
20
-4.50098
11
13.1301
21
-4.50098
0
LINE
8
BLACK
6
CONTINUOUS
10
13.1301
20
-4.50098
11
13.1301
21
-4.50098
0
LINE
8
BLACK
6
CONTINUOUS
10
13.1301
20
-4.50098
11
13.13
21
-4.50098
0
LINE
8
BLACK
6
CONTINUOUS
10
13.13
20
-4.50098
11
13.04
21
-4.50098
0
LINE
8
BLACK
6
CONTINUOUS
10
13.04
20
-4.50098
11
13.04
21
-4.50099
0
LINE
8
BLACK
6
CONTINUOUS
10
13.04
20
-4.50099
11
13.04
21
-4.50098
0
LINE
8
BLACK
6
CONTINUOUS
10
13.04
20
-4.50098
11
13.04
21
-4.50098
0
LINE
8
BLACK
6
CONTINUOUS
10
13.04
20
-4.50098
11
13.0398
21
-4.50097
0
LINE
8
BLACK
6
CONTINUOUS
10
13.0398
20
-4.50097
11
13.0396
21
-4.50091
0
LINE
8
BLACK
6
CONTINUOUS
10
13.0396
20
-4.50091
11
13.0395
21
-4.50082
0
LINE
8
BLACK
6
CONTINUOUS
10
13.0395
20
-4.50082
11
13.0393
21
-4.5007
0
LINE
8
BLACK
6
CONTINUOUS
10
13.0393
20
-4.5007
11
13.0392
21
-4.50055
0
LINE
8
BLACK
6
CONTINUOUS
10
13.0392
20
-4.50055
11
13.0391
21
-4.50038
0
LINE
8
BLACK
6
CONTINUOUS
10
13.0391
20
-4.50038
11
13.039
21
-4.50019
0
LINE
8
BLACK
6
CONTINUOUS
10
13.039
20
-4.50019
11
13.039
21
-4.5
0
LINE
8
BLACK
6
CONTINUOUS
10
13.039
20
-4.5
11
13.039
21
-4.49995
0
LINE
8
BLACK
6
CONTINUOUS
10
13.039
20
-4.49995
11
13.039
21
-4.20005
0
LINE
8
BLACK
6
CONTINUOUS
10
13.039
20
-4.20005
11
13.039
21
-4.2
0
LINE
8
BLACK
6
CONTINUOUS
10
13.039
20
-4.2
11
13.039
21
-4.19981
0
LINE
8
BLACK
6
CONTINUOUS
10
13.039
20
-4.19981
11
13.0391
21
-4.19962
0
LINE
8
BLACK
6
CONTINUOUS
10
13.0391
20
-4.19962
11
13.0392
21
-4.19945
0
LINE
8
BLACK
6
CONTINUOUS
10
13.0392
20
-4.19945
11
13.0393
21
-4.1993
0
LINE
8
BLACK
6
CONTINUOUS
10
13.0393
20
-4.1993
11
13.0395
21
-4.19918
0
LINE
8
BLACK
6
CONTINUOUS
10
13.0395
20
-4.19918
11
13.0396
21
-4.19909
0
LINE
8
BLACK
6
CONTINUOUS
10
13.0396
20
-4.19909
11
13.0398
21
-4.19903
0
LINE
8
BLACK
6
CONTINUOUS
10
13.0398
20
-4.19903
11
13.04
21
-4.19902
0
LINE
8
BLACK
6
CONTINUOUS
10
13.04
20
-4.19902
11
13.04
21
-4.19901
0
LINE
8
BLACK
6
CONTINUOUS
10
13.04
20
-4.19901
11
13.04
21
-4.19902
0
LINE
8
BLACK
6
CONTINUOUS
10
13.2096
20
-4.4011
11
13.2097
21
-4.40108
0
LINE
8
BLACK
6
CONTINUOUS
10
13.2097
20
-4.40108
11
13.2098
21
-4.40106
0
LINE
8
BLACK
6
CONTINUOUS
10
13.2098
20
-4.40106
11
13.2292
21
-4.39902
0
LINE
8
BLACK
6
CONTINUOUS
10
13.2292
20
-4.39902
11
13.2292
21
-4.39902
0
LINE
8
BLACK
6
CONTINUOUS
10
13.2292
20
-4.39902
11
13.2293
21
-4.39902
0
LINE
8
BLACK
6
CONTINUOUS
10
13.2293
20
-4.39902
11
13.2293
21
-4.39902
0
LINE
8
BLACK
6
CONTINUOUS
10
13.2293
20
-4.39902
11
13.23
21
-4.39902
0
LINE
8
BLACK
6
CONTINUOUS
10
13.23
20
-4.39902
11
13.23
21
-4.39902
0
LINE
8
BLACK
6
CONTINUOUS
10
13.23
20
-4.39902
11
13.509
21
-4.39902
0
LINE
8
BLACK
6
CONTINUOUS
10
13.509
20
-4.39902
11
13.509
21
-4.30098
0
LINE
8
BLACK
6
CONTINUOUS
10
13.509
20
-4.30098
11
13.23
21
-4.30098
0
LINE
8
BLACK
6
CONTINUOUS
10
13.23
20
-4.30098
11
13.2299
21
-4.30098
0
LINE
8
BLACK
6
CONTINUOUS
10
13.2299
20
-4.30098
11
13.2299
21
-4.30098
0
LINE
8
BLACK
6
CONTINUOUS
10
13.2299
20
-4.30098
11
13.2105
21
-4.29908
0
LINE
8
BLACK
6
CONTINUOUS
10
13.2105
20
-4.29908
11
13.2105
21
-4.29907
0
LINE
8
BLACK
6
CONTINUOUS
10
13.2105
20
-4.29907
11
13.2104
21
-4.29905
0
LINE
8
BLACK
6
CONTINUOUS
10
13.2104
20
-4.29905
11
13.2103
21
-4.29904
0
LINE
8
BLACK
6
CONTINUOUS
10
13.2103
20
-4.29904
11
13.1916
21
-4.2934
0
LINE
8
BLACK
6
CONTINUOUS
10
13.1916
20
-4.2934
11
13.1916
21
-4.29339
0
LINE
8
BLACK
6
CONTINUOUS
10
13.1916
20
-4.29339
11
13.1915
21
-4.29336
0
LINE
8
BLACK
6
CONTINUOUS
10
13.1915
20
-4.29336
11
13.1914
21
-4.29332
0
LINE
8
BLACK
6
CONTINUOUS
10
13.1914
20
-4.29332
11
13.1742
21
-4.28416
0
LINE
8
BLACK
6
CONTINUOUS
10
13.1742
20
-4.28416
11
13.1742
21
-4.28415
0
LINE
8
BLACK
6
CONTINUOUS
10
13.1742
20
-4.28415
11
13.1741
21
-4.2841
0
LINE
8
BLACK
6
CONTINUOUS
10
13.1741
20
-4.2841
11
13.174
21
-4.28405
0
LINE
8
BLACK
6
CONTINUOUS
10
13.174
20
-4.28405
11
13.1589
21
-4.27172
0
LINE
8
BLACK
6
CONTINUOUS
10
13.1589
20
-4.27172
11
13.1589
21
-4.27171
0
LINE
8
BLACK
6
CONTINUOUS
10
13.1589
20
-4.27171
11
13.1588
21
-4.27165
0
LINE
8
BLACK
6
CONTINUOUS
10
13.1588
20
-4.27165
11
13.1588
21
-4.27158
0
LINE
8
BLACK
6
CONTINUOUS
10
13.1588
20
-4.27158
11
13.1463
21
-4.25655
0
LINE
8
BLACK
6
CONTINUOUS
10
13.1463
20
-4.25655
11
13.1463
21
-4.25654
0
LINE
8
BLACK
6
CONTINUOUS
10
13.1463
20
-4.25654
11
13.1463
21
-4.25646
0
LINE
8
BLACK
6
CONTINUOUS
10
13.1463
20
-4.25646
11
13.1462
21
-4.25639
0
LINE
8
BLACK
6
CONTINUOUS
10
13.1462
20
-4.25639
11
13.1369
21
-4.23922
0
LINE
8
BLACK
6
CONTINUOUS
10
13.1369
20
-4.23922
11
13.1369
21
-4.23921
0
LINE
8
BLACK
6
CONTINUOUS
10
13.1369
20
-4.23921
11
13.1369
21
-4.23912
0
LINE
8
BLACK
6
CONTINUOUS
10
13.1369
20
-4.23912
11
13.1369
21
-4.23904
0
LINE
8
BLACK
6
CONTINUOUS
10
13.1369
20
-4.23904
11
13.1311
21
-4.2204
0
LINE
8
BLACK
6
CONTINUOUS
10
13.1311
20
-4.2204
11
13.1311
21
-4.22039
0
LINE
8
BLACK
6
CONTINUOUS
10
13.1311
20
-4.22039
11
13.1311
21
-4.2203
0
LINE
8
BLACK
6
CONTINUOUS
10
13.1311
20
-4.2203
11
13.1311
21
-4.22021
0
LINE
8
BLACK
6
CONTINUOUS
10
13.1311
20
-4.22021
11
13.129
21
-4.20098
0
LINE
8
BLACK
6
CONTINUOUS
10
13.129
20
-4.20098
11
13.041
21
-4.20098
0
LINE
8
BLACK
6
CONTINUOUS
10
13.041
20
-4.20098
11
13.041
21
-4.49902
0
LINE
8
BLACK
6
CONTINUOUS
10
13.041
20
-4.49902
11
13.1291
21
-4.49902
0
LINE
8
BLACK
6
CONTINUOUS
10
13.1291
20
-4.49902
11
13.1309
21
-4.48048
0
LINE
8
BLACK
6
CONTINUOUS
10
13.1309
20
-4.48048
11
13.1309
21
-4.48047
0
LINE
8
BLACK
6
CONTINUOUS
10
13.1309
20
-4.48047
11
13.1309
21
-4.48038
0
LINE
8
BLACK
6
CONTINUOUS
10
13.1309
20
-4.48038
11
13.131
21
-4.48029
0
LINE
8
BLACK
6
CONTINUOUS
10
13.131
20
-4.48029
11
13.1366
21
-4.46161
0
LINE
8
BLACK
6
CONTINUOUS
10
13.1366
20
-4.46161
11
13.1366
21
-4.4616
0
LINE
8
BLACK
6
CONTINUOUS
10
13.1366
20
-4.4616
11
13.1366
21
-4.46151
0
LINE
8
BLACK
6
CONTINUOUS
10
13.1366
20
-4.46151
11
13.1367
21
-4.46143
0
LINE
8
BLACK
6
CONTINUOUS
10
13.1367
20
-4.46143
11
13.1458
21
-4.4442
0
LINE
8
BLACK
6
CONTINUOUS
10
13.1458
20
-4.4442
11
13.1458
21
-4.4442
0
LINE
8
BLACK
6
CONTINUOUS
10
13.1458
20
-4.4442
11
13.1458
21
-4.4442
0
LINE
8
BLACK
6
CONTINUOUS
10
13.1458
20
-4.4442
11
13.1458
21
-4.44419
0
LINE
8
BLACK
6
CONTINUOUS
10
13.1458
20
-4.44419
11
13.1459
21
-4.44411
0
LINE
8
BLACK
6
CONTINUOUS
10
13.1459
20
-4.44411
11
13.1459
21
-4.44404
0
LINE
8
BLACK
6
CONTINUOUS
10
13.1459
20
-4.44404
11
13.1583
21
-4.42891
0
LINE
8
BLACK
6
CONTINUOUS
10
13.1583
20
-4.42891
11
13.1583
21
-4.42891
0
LINE
8
BLACK
6
CONTINUOUS
10
13.1583
20
-4.42891
11
13.1583
21
-4.42891
0
LINE
8
BLACK
6
CONTINUOUS
10
13.1583
20
-4.42891
11
13.1583
21
-4.4289
0
LINE
8
BLACK
6
CONTINUOUS
10
13.1583
20
-4.4289
11
13.1584
21
-4.42884
0
LINE
8
BLACK
6
CONTINUOUS
10
13.1584
20
-4.42884
11
13.1584
21
-4.42878
0
LINE
8
BLACK
6
CONTINUOUS
10
13.1584
20
-4.42878
11
13.1735
21
-4.41634
0
LINE
8
BLACK
6
CONTINUOUS
10
13.1735
20
-4.41634
11
13.1735
21
-4.41633
0
LINE
8
BLACK
6
CONTINUOUS
10
13.1735
20
-4.41633
11
13.1735
21
-4.41628
0
LINE
8
BLACK
6
CONTINUOUS
10
13.1735
20
-4.41628
11
13.1736
21
-4.41623
0
LINE
8
BLACK
6
CONTINUOUS
10
13.1736
20
-4.41623
11
13.1908
21
-4.40695
0
LINE
8
BLACK
6
CONTINUOUS
10
13.1908
20
-4.40695
11
13.1908
21
-4.40695
0
LINE
8
BLACK
6
CONTINUOUS
10
13.1908
20
-4.40695
11
13.1908
21
-4.40695
0
LINE
8
BLACK
6
CONTINUOUS
10
13.1908
20
-4.40695
11
13.1908
21
-4.40694
0
LINE
8
BLACK
6
CONTINUOUS
10
13.1908
20
-4.40694
11
13.1909
21
-4.40691
0
LINE
8
BLACK
6
CONTINUOUS
10
13.1909
20
-4.40691
11
13.191
21
-4.40687
0
LINE
8
BLACK
6
CONTINUOUS
10
13.191
20
-4.40687
11
13.2096
21
-4.4011
0
LINE
8
BLACK
6
CONTINUOUS
10
13.2096
20
-4.4011
11
13.2096
21
-4.4011
0
LINE
8
BLACK
6
CONTINUOUS
10
13.2096
20
-4.4011
11
13.2096
21
-4.4011
0
LINE
8
BLACK
6
CONTINUOUS
10
6.54005
20
-3.60902
11
6.54005
21
-3.60902
0
LINE
8
BLACK
6
CONTINUOUS
10
6.54005
20
-3.60902
11
6.54019
21
-3.60903
0
LINE
8
BLACK
6
CONTINUOUS
10
6.54019
20
-3.60903
11
6.54038
21
-3.60909
0
LINE
8
BLACK
6
CONTINUOUS
10
6.54038
20
-3.60909
11
6.54055
21
-3.60918
0
LINE
8
BLACK
6
CONTINUOUS
10
6.54055
20
-3.60918
11
6.5407
21
-3.6093
0
LINE
8
BLACK
6
CONTINUOUS
10
6.5407
20
-3.6093
11
6.54082
21
-3.60945
0
LINE
8
BLACK
6
CONTINUOUS
10
6.54082
20
-3.60945
11
6.54091
21
-3.60962
0
LINE
8
BLACK
6
CONTINUOUS
10
6.54091
20
-3.60962
11
6.54097
21
-3.60981
0
LINE
8
BLACK
6
CONTINUOUS
10
6.54097
20
-3.60981
11
6.54099
21
-3.61
0
LINE
8
BLACK
6
CONTINUOUS
10
6.54099
20
-3.61
11
6.54098
21
-3.61005
0
LINE
8
BLACK
6
CONTINUOUS
10
6.54098
20
-3.61005
11
6.54098
21
-3.86
0
LINE
8
BLACK
6
CONTINUOUS
10
6.54098
20
-3.86
11
6.54099
21
-3.86064
0
LINE
8
BLACK
6
CONTINUOUS
10
6.54099
20
-3.86064
11
6.54301
21
-3.87991
0
LINE
8
BLACK
6
CONTINUOUS
10
6.54301
20
-3.87991
11
6.54873
21
-3.89837
0
LINE
8
BLACK
6
CONTINUOUS
10
6.54873
20
-3.89837
11
6.55792
21
-3.91537
0
LINE
8
BLACK
6
CONTINUOUS
10
6.55792
20
-3.91537
11
6.57023
21
-3.93026
0
LINE
8
BLACK
6
CONTINUOUS
10
6.57023
20
-3.93026
11
6.58521
21
-3.94247
0
LINE
8
BLACK
6
CONTINUOUS
10
6.58521
20
-3.94247
11
6.60227
21
-3.95154
0
LINE
8
BLACK
6
CONTINUOUS
10
6.60227
20
-3.95154
11
6.62077
21
-3.95713
0
LINE
8
BLACK
6
CONTINUOUS
10
6.62077
20
-3.95713
11
6.64005
21
-3.95902
0
LINE
8
BLACK
6
CONTINUOUS
10
6.64005
20
-3.95902
11
6.77005
21
-3.95951
0
LINE
8
BLACK
6
CONTINUOUS
10
6.77005
20
-3.95951
11
6.7701
21
-3.95952
0
LINE
8
BLACK
6
CONTINUOUS
10
6.7701
20
-3.95952
11
6.7701
21
-3.95952
0
LINE
8
BLACK
6
CONTINUOUS
10
6.7701
20
-3.95952
11
6.78952
21
-3.96142
0
LINE
8
BLACK
6
CONTINUOUS
10
6.78952
20
-3.96142
11
6.78953
21
-3.96142
0
LINE
8
BLACK
6
CONTINUOUS
10
6.78953
20
-3.96142
11
6.78962
21
-3.96144
0
LINE
8
BLACK
6
CONTINUOUS
10
6.78962
20
-3.96144
11
6.78971
21
-3.96146
0
LINE
8
BLACK
6
CONTINUOUS
10
6.78971
20
-3.96146
11
6.80839
21
-3.9671
0
LINE
8
BLACK
6
CONTINUOUS
10
6.80839
20
-3.9671
11
6.80841
21
-3.9671
0
LINE
8
BLACK
6
CONTINUOUS
10
6.80841
20
-3.9671
11
6.80849
21
-3.96714
0
LINE
8
BLACK
6
CONTINUOUS
10
6.80849
20
-3.96714
11
6.80857
21
-3.96717
0
LINE
8
BLACK
6
CONTINUOUS
10
6.80857
20
-3.96717
11
6.8258
21
-3.97634
0
LINE
8
BLACK
6
CONTINUOUS
10
6.8258
20
-3.97634
11
6.8258
21
-3.97634
0
LINE
8
BLACK
6
CONTINUOUS
10
6.8258
20
-3.97634
11
6.8258
21
-3.97634
0
LINE
8
BLACK
6
CONTINUOUS
10
6.8258
20
-3.97634
11
6.82581
21
-3.97634
0
LINE
8
BLACK
6
CONTINUOUS
10
6.82581
20
-3.97634
11
6.82589
21
-3.97639
0
LINE
8
BLACK
6
CONTINUOUS
10
6.82589
20
-3.97639
11
6.82596
21
-3.97644
0
LINE
8
BLACK
6
CONTINUOUS
10
6.82596
20
-3.97644
11
6.84109
21
-3.98878
0
LINE
8
BLACK
6
CONTINUOUS
10
6.84109
20
-3.98878
11
6.8411
21
-3.98879
0
LINE
8
BLACK
6
CONTINUOUS
10
6.8411
20
-3.98879
11
6.84116
21
-3.98885
0
LINE
8
BLACK
6
CONTINUOUS
10
6.84116
20
-3.98885
11
6.84122
21
-3.98891
0
LINE
8
BLACK
6
CONTINUOUS
10
6.84122
20
-3.98891
11
6.85366
21
-4.00395
0
LINE
8
BLACK
6
CONTINUOUS
10
6.85366
20
-4.00395
11
6.85367
21
-4.00396
0
LINE
8
BLACK
6
CONTINUOUS
10
6.85367
20
-4.00396
11
6.85372
21
-4.00404
0
LINE
8
BLACK
6
CONTINUOUS
10
6.85372
20
-4.00404
11
6.85377
21
-4.00411
0
LINE
8
BLACK
6
CONTINUOUS
10
6.85377
20
-4.00411
11
6.86305
21
-4.02128
0
LINE
8
BLACK
6
CONTINUOUS
10
6.86305
20
-4.02128
11
6.86305
21
-4.02128
0
LINE
8
BLACK
6
CONTINUOUS
10
6.86305
20
-4.02128
11
6.86305
21
-4.02128
0
LINE
8
BLACK
6
CONTINUOUS
10
6.86305
20
-4.02128
11
6.86306
21
-4.02129
0
LINE
8
BLACK
6
CONTINUOUS
10
6.86306
20
-4.02129
11
6.86309
21
-4.02137
0
LINE
8
BLACK
6
CONTINUOUS
10
6.86309
20
-4.02137
11
6.86313
21
-4.02146
0
LINE
8
BLACK
6
CONTINUOUS
10
6.86313
20
-4.02146
11
6.8689
21
-4.0401
0
LINE
8
BLACK
6
CONTINUOUS
10
6.8689
20
-4.0401
11
6.8689
21
-4.04011
0
LINE
8
BLACK
6
CONTINUOUS
10
6.8689
20
-4.04011
11
6.86892
21
-4.0402
0
LINE
8
BLACK
6
CONTINUOUS
10
6.86892
20
-4.0402
11
6.86894
21
-4.04029
0
LINE
8
BLACK
6
CONTINUOUS
10
6.86894
20
-4.04029
11
6.87098
21
-4.0597
0
LINE
8
BLACK
6
CONTINUOUS
10
6.87098
20
-4.0597
11
6.87098
21
-4.05971
0
LINE
8
BLACK
6
CONTINUOUS
10
6.87098
20
-4.05971
11
6.87098
21
-4.05975
0
LINE
8
BLACK
6
CONTINUOUS
10
6.87098
20
-4.05975
11
6.87098
21
-4.05979
0
LINE
8
BLACK
6
CONTINUOUS
10
6.87098
20
-4.05979
11
6.87098
21
-4.05995
0
LINE
8
BLACK
6
CONTINUOUS
10
6.87098
20
-4.05995
11
6.87098
21
-4.05995
0
LINE
8
BLACK
6
CONTINUOUS
10
6.87098
20
-4.05995
11
6.87098
21
-4.05999
0
LINE
8
BLACK
6
CONTINUOUS
10
6.87098
20
-4.05999
11
6.87098
21
-4.05999
0
LINE
8
BLACK
6
CONTINUOUS
10
6.87098
20
-4.05999
11
6.87098
21
-4.06001
0
LINE
8
BLACK
6
CONTINUOUS
10
6.87098
20
-4.06001
11
6.87098
21
-4.06001
0
LINE
8
BLACK
6
CONTINUOUS
10
6.87098
20
-4.06001
11
6.87098
21
-4.15995
0
LINE
8
BLACK
6
CONTINUOUS
10
6.87098
20
-4.15995
11
6.87099
21
-4.16
0
LINE
8
BLACK
6
CONTINUOUS
10
6.87099
20
-4.16
11
6.87097
21
-4.16019
0
LINE
8
BLACK
6
CONTINUOUS
10
6.87097
20
-4.16019
11
6.87091
21
-4.16038
0
LINE
8
BLACK
6
CONTINUOUS
10
6.87091
20
-4.16038
11
6.87082
21
-4.16055
0
LINE
8
BLACK
6
CONTINUOUS
10
6.87082
20
-4.16055
11
6.8707
21
-4.1607
0
LINE
8
BLACK
6
CONTINUOUS
10
6.8707
20
-4.1607
11
6.87055
21
-4.16082
0
LINE
8
BLACK
6
CONTINUOUS
10
6.87055
20
-4.16082
11
6.87038
21
-4.16091
0
LINE
8
BLACK
6
CONTINUOUS
10
6.87038
20
-4.16091
11
6.87019
21
-4.16097
0
LINE
8
BLACK
6
CONTINUOUS
10
6.87019
20
-4.16097
11
6.87005
21
-4.16098
0
LINE
8
BLACK
6
CONTINUOUS
10
6.87005
20
-4.16098
11
6.87005
21
-4.16098
0
LINE
8
BLACK
6
CONTINUOUS
10
6.87005
20
-4.16098
11
6.87
21
-4.16099
0
LINE
8
BLACK
6
CONTINUOUS
10
6.87
20
-4.16099
11
6.86995
21
-4.16098
0
LINE
8
BLACK
6
CONTINUOUS
10
6.86995
20
-4.16098
11
6.76995
21
-4.16098
0
LINE
8
BLACK
6
CONTINUOUS
10
6.76995
20
-4.16098
11
6.76981
21
-4.16097
0
LINE
8
BLACK
6
CONTINUOUS
10
6.76981
20
-4.16097
11
6.76962
21
-4.16091
0
LINE
8
BLACK
6
CONTINUOUS
10
6.76962
20
-4.16091
11
6.76945
21
-4.16082
0
LINE
8
BLACK
6
CONTINUOUS
10
6.76945
20
-4.16082
11
6.7693
21
-4.1607
0
LINE
8
BLACK
6
CONTINUOUS
10
6.7693
20
-4.1607
11
6.76918
21
-4.16055
0
LINE
8
BLACK
6
CONTINUOUS
10
6.76918
20
-4.16055
11
6.76909
21
-4.16038
0
LINE
8
BLACK
6
CONTINUOUS
10
6.76909
20
-4.16038
11
6.76903
21
-4.16019
0
LINE
8
BLACK
6
CONTINUOUS
10
6.76903
20
-4.16019
11
6.76901
21
-4.16
0
LINE
8
BLACK
6
CONTINUOUS
10
6.76901
20
-4.16
11
6.76902
21
-4.15995
0
LINE
8
BLACK
6
CONTINUOUS
10
6.76902
20
-4.15995
11
6.76901
21
-4.15936
0
LINE
8
BLACK
6
CONTINUOUS
10
6.76901
20
-4.15936
11
6.76699
21
-4.14009
0
LINE
8
BLACK
6
CONTINUOUS
10
6.76699
20
-4.14009
11
6.76127
21
-4.12163
0
LINE
8
BLACK
6
CONTINUOUS
10
6.76127
20
-4.12163
11
6.75208
21
-4.10463
0
LINE
8
BLACK
6
CONTINUOUS
10
6.75208
20
-4.10463
11
6.73977
21
-4.08974
0
LINE
8
BLACK
6
CONTINUOUS
10
6.73977
20
-4.08974
11
6.72479
21
-4.07753
0
LINE
8
BLACK
6
CONTINUOUS
10
6.72479
20
-4.07753
11
6.70773
21
-4.06846
0
LINE
8
BLACK
6
CONTINUOUS
10
6.70773
20
-4.06846
11
6.68923
21
-4.06287
0
LINE
8
BLACK
6
CONTINUOUS
10
6.68923
20
-4.06287
11
6.66995
21
-4.06098
0
LINE
8
BLACK
6
CONTINUOUS
10
6.66995
20
-4.06098
11
6.53995
21
-4.06098
0
LINE
8
BLACK
6
CONTINUOUS
10
6.53995
20
-4.06098
11
6.5399
21
-4.06098
0
LINE
8
BLACK
6
CONTINUOUS
10
6.5399
20
-4.06098
11
6.5399
21
-4.06098
0
LINE
8
BLACK
6
CONTINUOUS
10
6.5399
20
-4.06098
11
6.52048
21
-4.05908
0
LINE
8
BLACK
6
CONTINUOUS
10
6.52048
20
-4.05908
11
6.52047
21
-4.05907
0
LINE
8
BLACK
6
CONTINUOUS
10
6.52047
20
-4.05907
11
6.52038
21
-4.05905
0
LINE
8
BLACK
6
CONTINUOUS
10
6.52038
20
-4.05905
11
6.52029
21
-4.05904
0
LINE
8
BLACK
6
CONTINUOUS
10
6.52029
20
-4.05904
11
6.50161
21
-4.0534
0
LINE
8
BLACK
6
CONTINUOUS
10
6.50161
20
-4.0534
11
6.5016
21
-4.05339
0
LINE
8
BLACK
6
CONTINUOUS
10
6.5016
20
-4.05339
11
6.50151
21
-4.05336
0
LINE
8
BLACK
6
CONTINUOUS
10
6.50151
20
-4.05336
11
6.50143
21
-4.05332
0
LINE
8
BLACK
6
CONTINUOUS
10
6.50143
20
-4.05332
11
6.4842
21
-4.04416
0
LINE
8
BLACK
6
CONTINUOUS
10
6.4842
20
-4.04416
11
6.48419
21
-4.04415
0
LINE
8
BLACK
6
CONTINUOUS
10
6.48419
20
-4.04415
11
6.48411
21
-4.0441
0
LINE
8
BLACK
6
CONTINUOUS
10
6.48411
20
-4.0441
11
6.48404
21
-4.04405
0
LINE
8
BLACK
6
CONTINUOUS
10
6.48404
20
-4.04405
11
6.46891
21
-4.03172
0
LINE
8
BLACK
6
CONTINUOUS
10
6.46891
20
-4.03172
11
6.4689
21
-4.03171
0
LINE
8
BLACK
6
CONTINUOUS
10
6.4689
20
-4.03171
11
6.46884
21
-4.03165
0
LINE
8
BLACK
6
CONTINUOUS
10
6.46884
20
-4.03165
11
6.46878
21
-4.03158
0
LINE
8
BLACK
6
CONTINUOUS
10
6.46878
20
-4.03158
11
6.45634
21
-4.01655
0
LINE
8
BLACK
6
CONTINUOUS
10
6.45634
20
-4.01655
11
6.45633
21
-4.01654
0
LINE
8
BLACK
6
CONTINUOUS
10
6.45633
20
-4.01654
11
6.45628
21
-4.01646
0
LINE
8
BLACK
6
CONTINUOUS
10
6.45628
20
-4.01646
11
6.45623
21
-4.01639
0
LINE
8
BLACK
6
CONTINUOUS
10
6.45623
20
-4.01639
11
6.44695
21
-3.99922
0
LINE
8
BLACK
6
CONTINUOUS
10
6.44695
20
-3.99922
11
6.44694
21
-3.99921
0
LINE
8
BLACK
6
CONTINUOUS
10
6.44694
20
-3.99921
11
6.44691
21
-3.99912
0
LINE
8
BLACK
6
CONTINUOUS
10
6.44691
20
-3.99912
11
6.44687
21
-3.99904
0
LINE
8
BLACK
6
CONTINUOUS
10
6.44687
20
-3.99904
11
6.4411
21
-3.9804
0
LINE
8
BLACK
6
CONTINUOUS
10
6.4411
20
-3.9804
11
6.4411
21
-3.98039
0
LINE
8
BLACK
6
CONTINUOUS
10
6.4411
20
-3.98039
11
6.44108
21
-3.9803
0
LINE
8
BLACK
6
CONTINUOUS
10
6.44108
20
-3.9803
11
6.44106
21
-3.98021
0
LINE
8
BLACK
6
CONTINUOUS
10
6.44106
20
-3.98021
11
6.43902
21
-3.9608
0
LINE
8
BLACK
6
CONTINUOUS
10
6.43902
20
-3.9608
11
6.43902
21
-3.96079
0
LINE
8
BLACK
6
CONTINUOUS
10
6.43902
20
-3.96079
11
6.43902
21
-3.96074
0
LINE
8
BLACK
6
CONTINUOUS
10
6.43902
20
-3.96074
11
6.43902
21
-3.9607
0
LINE
8
BLACK
6
CONTINUOUS
10
6.43902
20
-3.9607
11
6.43902
21
-3.96005
0
LINE
8
BLACK
6
CONTINUOUS
10
6.43902
20
-3.96005
11
6.43902
21
-3.96005
0
LINE
8
BLACK
6
CONTINUOUS
10
6.43902
20
-3.96005
11
6.43902
21
-3.96001
0
LINE
8
BLACK
6
CONTINUOUS
10
6.43902
20
-3.96001
11
6.43902
21
-3.96
0
LINE
8
BLACK
6
CONTINUOUS
10
6.43902
20
-3.96
11
6.43902
21
-3.95999
0
LINE
8
BLACK
6
CONTINUOUS
10
6.43902
20
-3.95999
11
6.43902
21
-3.61005
0
LINE
8
BLACK
6
CONTINUOUS
10
6.43902
20
-3.61005
11
6.43901
21
-3.61
0
LINE
8
BLACK
6
CONTINUOUS
10
6.43901
20
-3.61
11
6.43903
21
-3.60981
0
LINE
8
BLACK
6
CONTINUOUS
10
6.43903
20
-3.60981
11
6.43909
21
-3.60962
0
LINE
8
BLACK
6
CONTINUOUS
10
6.43909
20
-3.60962
11
6.43918
21
-3.60945
0
LINE
8
BLACK
6
CONTINUOUS
10
6.43918
20
-3.60945
11
6.4393
21
-3.6093
0
LINE
8
BLACK
6
CONTINUOUS
10
6.4393
20
-3.6093
11
6.43945
21
-3.60918
0
LINE
8
BLACK
6
CONTINUOUS
10
6.43945
20
-3.60918
11
6.43962
21
-3.60909
0
LINE
8
BLACK
6
CONTINUOUS
10
6.43962
20
-3.60909
11
6.43981
21
-3.60903
0
LINE
8
BLACK
6
CONTINUOUS
10
6.43981
20
-3.60903
11
6.43995
21
-3.60902
0
LINE
8
BLACK
6
CONTINUOUS
10
6.43995
20
-3.60902
11
6.44
21
-3.60901
0
LINE
8
BLACK
6
CONTINUOUS
10
6.44
20
-3.60901
11
6.44005
21
-3.60902
0
LINE
8
BLACK
6
CONTINUOUS
10
6.44005
20
-3.60902
11
6.53995
21
-3.60902
0
LINE
8
BLACK
6
CONTINUOUS
10
6.53995
20
-3.60902
11
6.54
21
-3.60901
0
LINE
8
BLACK
6
CONTINUOUS
10
6.54
20
-3.60901
11
6.54005
21
-3.60902
0
LINE
8
BLACK
6
CONTINUOUS
10
6.44098
20
-3.61098
11
6.44098
21
-3.96
0
LINE
8
BLACK
6
CONTINUOUS
10
6.44098
20
-3.96
11
6.44099
21
-3.96064
0
LINE
8
BLACK
6
CONTINUOUS
10
6.44099
20
-3.96064
11
6.44301
21
-3.97991
0
LINE
8
BLACK
6
CONTINUOUS
10
6.44301
20
-3.97991
11
6.44873
21
-3.99837
0
LINE
8
BLACK
6
CONTINUOUS
10
6.44873
20
-3.99837
11
6.45792
21
-4.01537
0
LINE
8
BLACK
6
CONTINUOUS
10
6.45792
20
-4.01537
11
6.47023
21
-4.03026
0
LINE
8
BLACK
6
CONTINUOUS
10
6.47023
20
-4.03026
11
6.48521
21
-4.04247
0
LINE
8
BLACK
6
CONTINUOUS
10
6.48521
20
-4.04247
11
6.50227
21
-4.05154
0
LINE
8
BLACK
6
CONTINUOUS
10
6.50227
20
-4.05154
11
6.52077
21
-4.05713
0
LINE
8
BLACK
6
CONTINUOUS
10
6.52077
20
-4.05713
11
6.54005
21
-4.05902
0
LINE
8
BLACK
6
CONTINUOUS
10
6.54005
20
-4.05902
11
6.67005
21
-4.05902
0
LINE
8
BLACK
6
CONTINUOUS
10
6.67005
20
-4.05902
11
6.6701
21
-4.05902
0
LINE
8
BLACK
6
CONTINUOUS
10
6.6701
20
-4.05902
11
6.6701
21
-4.05902
0
LINE
8
BLACK
6
CONTINUOUS
10
6.6701
20
-4.05902
11
6.68952
21
-4.06092
0
LINE
8
BLACK
6
CONTINUOUS
10
6.68952
20
-4.06092
11
6.68953
21
-4.06093
0
LINE
8
BLACK
6
CONTINUOUS
10
6.68953
20
-4.06093
11
6.68962
21
-4.06095
0
LINE
8
BLACK
6
CONTINUOUS
10
6.68962
20
-4.06095
11
6.68971
21
-4.06096
0
LINE
8
BLACK
6
CONTINUOUS
10
6.68971
20
-4.06096
11
6.70839
21
-4.0666
0
LINE
8
BLACK
6
CONTINUOUS
10
6.70839
20
-4.0666
11
6.7084
21
-4.06661
0
LINE
8
BLACK
6
CONTINUOUS
10
6.7084
20
-4.06661
11
6.70849
21
-4.06664
0
LINE
8
BLACK
6
CONTINUOUS
10
6.70849
20
-4.06664
11
6.70857
21
-4.06668
0
LINE
8
BLACK
6
CONTINUOUS
10
6.70857
20
-4.06668
11
6.7258
21
-4.07584
0
LINE
8
BLACK
6
CONTINUOUS
10
6.7258
20
-4.07584
11
6.7258
21
-4.07584
0
LINE
8
BLACK
6
CONTINUOUS
10
6.7258
20
-4.07584
11
6.7258
21
-4.07584
0
LINE
8
BLACK
6
CONTINUOUS
10
6.7258
20
-4.07584
11
6.72581
21
-4.07585
0
LINE
8
BLACK
6
CONTINUOUS
10
6.72581
20
-4.07585
11
6.72589
21
-4.0759
0
LINE
8
BLACK
6
CONTINUOUS
10
6.72589
20
-4.0759
11
6.72596
21
-4.07595
0
LINE
8
BLACK
6
CONTINUOUS
10
6.72596
20
-4.07595
11
6.74109
21
-4.08828
0
LINE
8
BLACK
6
CONTINUOUS
10
6.74109
20
-4.08828
11
6.74109
21
-4.08828
0
LINE
8
BLACK
6
CONTINUOUS
10
6.74109
20
-4.08828
11
6.74109
21
-4.08828
0
LINE
8
BLACK
6
CONTINUOUS
10
6.74109
20
-4.08828
11
6.7411
21
-4.08829
0
LINE
8
BLACK
6
CONTINUOUS
10
6.7411
20
-4.08829
11
6.74116
21
-4.08835
0
LINE
8
BLACK
6
CONTINUOUS
10
6.74116
20
-4.08835
11
6.74122
21
-4.08842
0
LINE
8
BLACK
6
CONTINUOUS
10
6.74122
20
-4.08842
11
6.75366
21
-4.10345
0
LINE
8
BLACK
6
CONTINUOUS
10
6.75366
20
-4.10345
11
6.75367
21
-4.10346
0
LINE
8
BLACK
6
CONTINUOUS
10
6.75367
20
-4.10346
11
6.75372
21
-4.10354
0
LINE
8
BLACK
6
CONTINUOUS
10
6.75372
20
-4.10354
11
6.75377
21
-4.10361
0
LINE
8
BLACK
6
CONTINUOUS
10
6.75377
20
-4.10361
11
6.76305
21
-4.12078
0
LINE
8
BLACK
6
CONTINUOUS
10
6.76305
20
-4.12078
11
6.76305
21
-4.12078
0
LINE
8
BLACK
6
CONTINUOUS
10
6.76305
20
-4.12078
11
6.76305
21
-4.12078
0
LINE
8
BLACK
6
CONTINUOUS
10
6.76305
20
-4.12078
11
6.76306
21
-4.12079
0
LINE
8
BLACK
6
CONTINUOUS
10
6.76306
20
-4.12079
11
6.76309
21
-4.12088
0
LINE
8
BLACK
6
CONTINUOUS
10
6.76309
20
-4.12088
11
6.76313
21
-4.12096
0
LINE
8
BLACK
6
CONTINUOUS
10
6.76313
20
-4.12096
11
6.7689
21
-4.1396
0
LINE
8
BLACK
6
CONTINUOUS
10
6.7689
20
-4.1396
11
6.7689
21
-4.13961
0
LINE
8
BLACK
6
CONTINUOUS
10
6.7689
20
-4.13961
11
6.76892
21
-4.1397
0
LINE
8
BLACK
6
CONTINUOUS
10
6.76892
20
-4.1397
11
6.76894
21
-4.13979
0
LINE
8
BLACK
6
CONTINUOUS
10
6.76894
20
-4.13979
11
6.77096
21
-4.15902
0
LINE
8
BLACK
6
CONTINUOUS
10
6.77096
20
-4.15902
11
6.86902
21
-4.15902
0
LINE
8
BLACK
6
CONTINUOUS
10
6.86902
20
-4.15902
11
6.86902
21
-4.06001
0
LINE
8
BLACK
6
CONTINUOUS
10
6.86902
20
-4.06001
11
6.86901
21
-4.05985
0
LINE
8
BLACK
6
CONTINUOUS
10
6.86901
20
-4.05985
11
6.86699
21
-4.04059
0
LINE
8
BLACK
6
CONTINUOUS
10
6.86699
20
-4.04059
11
6.86128
21
-4.02213
0
LINE
8
BLACK
6
CONTINUOUS
10
6.86128
20
-4.02213
11
6.85208
21
-4.00513
0
LINE
8
BLACK
6
CONTINUOUS
10
6.85208
20
-4.00513
11
6.83977
21
-3.99024
0
LINE
8
BLACK
6
CONTINUOUS
10
6.83977
20
-3.99024
11
6.82479
21
-3.97803
0
LINE
8
BLACK
6
CONTINUOUS
10
6.82479
20
-3.97803
11
6.80773
21
-3.96896
0
LINE
8
BLACK
6
CONTINUOUS
10
6.80773
20
-3.96896
11
6.78923
21
-3.96337
0
LINE
8
BLACK
6
CONTINUOUS
10
6.78923
20
-3.96337
11
6.76995
21
-3.96148
0
LINE
8
BLACK
6
CONTINUOUS
10
6.76995
20
-3.96148
11
6.63995
21
-3.96098
0
LINE
8
BLACK
6
CONTINUOUS
10
6.63995
20
-3.96098
11
6.6399
21
-3.96098
0
LINE
8
BLACK
6
CONTINUOUS
10
6.6399
20
-3.96098
11
6.6399
21
-3.96098
0
LINE
8
BLACK
6
CONTINUOUS
10
6.6399
20
-3.96098
11
6.62048
21
-3.95908
0
LINE
8
BLACK
6
CONTINUOUS
10
6.62048
20
-3.95908
11
6.62047
21
-3.95907
0
LINE
8
BLACK
6
CONTINUOUS
10
6.62047
20
-3.95907
11
6.62038
21
-3.95905
0
LINE
8
BLACK
6
CONTINUOUS
10
6.62038
20
-3.95905
11
6.62029
21
-3.95904
0
LINE
8
BLACK
6
CONTINUOUS
10
6.62029
20
-3.95904
11
6.60161
21
-3.9534
0
LINE
8
BLACK
6
CONTINUOUS
10
6.60161
20
-3.9534
11
6.6016
21
-3.95339
0
LINE
8
BLACK
6
CONTINUOUS
10
6.6016
20
-3.95339
11
6.60151
21
-3.95336
0
LINE
8
BLACK
6
CONTINUOUS
10
6.60151
20
-3.95336
11
6.60143
21
-3.95332
0
LINE
8
BLACK
6
CONTINUOUS
10
6.60143
20
-3.95332
11
6.5842
21
-3.94416
0
LINE
8
BLACK
6
CONTINUOUS
10
6.5842
20
-3.94416
11
6.58419
21
-3.94415
0
LINE
8
BLACK
6
CONTINUOUS
10
6.58419
20
-3.94415
11
6.58411
21
-3.9441
0
LINE
8
BLACK
6
CONTINUOUS
10
6.58411
20
-3.9441
11
6.58404
21
-3.94405
0
LINE
8
BLACK
6
CONTINUOUS
10
6.58404
20
-3.94405
11
6.56891
21
-3.93172
0
LINE
8
BLACK
6
CONTINUOUS
10
6.56891
20
-3.93172
11
6.5689
21
-3.93171
0
LINE
8
BLACK
6
CONTINUOUS
10
6.5689
20
-3.93171
11
6.56884
21
-3.93165
0
LINE
8
BLACK
6
CONTINUOUS
10
6.56884
20
-3.93165
11
6.56878
21
-3.93158
0
LINE
8
BLACK
6
CONTINUOUS
10
6.56878
20
-3.93158
11
6.55634
21
-3.91655
0
LINE
8
BLACK
6
CONTINUOUS
10
6.55634
20
-3.91655
11
6.55633
21
-3.91654
0
LINE
8
BLACK
6
CONTINUOUS
10
6.55633
20
-3.91654
11
6.55628
21
-3.91646
0
LINE
8
BLACK
6
CONTINUOUS
10
6.55628
20
-3.91646
11
6.55623
21
-3.91639
0
LINE
8
BLACK
6
CONTINUOUS
10
6.55623
20
-3.91639
11
6.54695
21
-3.89922
0
LINE
8
BLACK
6
CONTINUOUS
10
6.54695
20
-3.89922
11
6.54694
21
-3.89921
0
LINE
8
BLACK
6
CONTINUOUS
10
6.54694
20
-3.89921
11
6.54691
21
-3.89912
0
LINE
8
BLACK
6
CONTINUOUS
10
6.54691
20
-3.89912
11
6.54687
21
-3.89904
0
LINE
8
BLACK
6
CONTINUOUS
10
6.54687
20
-3.89904
11
6.5411
21
-3.8804
0
LINE
8
BLACK
6
CONTINUOUS
10
6.5411
20
-3.8804
11
6.5411
21
-3.88039
0
LINE
8
BLACK
6
CONTINUOUS
10
6.5411
20
-3.88039
11
6.54108
21
-3.8803
0
LINE
8
BLACK
6
CONTINUOUS
10
6.54108
20
-3.8803
11
6.54106
21
-3.88021
0
LINE
8
BLACK
6
CONTINUOUS
10
6.54106
20
-3.88021
11
6.53902
21
-3.8608
0
LINE
8
BLACK
6
CONTINUOUS
10
6.53902
20
-3.8608
11
6.53902
21
-3.86079
0
LINE
8
BLACK
6
CONTINUOUS
10
6.53902
20
-3.86079
11
6.53902
21
-3.86074
0
LINE
8
BLACK
6
CONTINUOUS
10
6.53902
20
-3.86074
11
6.53902
21
-3.8607
0
LINE
8
BLACK
6
CONTINUOUS
10
6.53902
20
-3.8607
11
6.53902
21
-3.86005
0
LINE
8
BLACK
6
CONTINUOUS
10
6.53902
20
-3.86005
11
6.53902
21
-3.86005
0
LINE
8
BLACK
6
CONTINUOUS
10
6.53902
20
-3.86005
11
6.53902
21
-3.86001
0
LINE
8
BLACK
6
CONTINUOUS
10
6.53902
20
-3.86001
11
6.53902
21
-3.86
0
LINE
8
BLACK
6
CONTINUOUS
10
6.53902
20
-3.86
11
6.53902
21
-3.85999
0
LINE
8
BLACK
6
CONTINUOUS
10
6.53902
20
-3.85999
11
6.53902
21
-3.61098
0
LINE
8
BLACK
6
CONTINUOUS
10
6.53902
20
-3.61098
11
6.44098
21
-3.61098
0
LINE
8
BLACK
6
CONTINUOUS
10
13.131
20
-4.1
11
13.131
21
-4.10005
0
LINE
8
BLACK
6
CONTINUOUS
10
13.131
20
-4.10005
11
13.131
21
-4.10019
0
LINE
8
BLACK
6
CONTINUOUS
10
13.131
20
-4.10019
11
13.1309
21
-4.10038
0
LINE
8
BLACK
6
CONTINUOUS
10
13.1309
20
-4.10038
11
13.1308
21
-4.10055
0
LINE
8
BLACK
6
CONTINUOUS
10
13.1308
20
-4.10055
11
13.1307
21
-4.1007
0
LINE
8
BLACK
6
CONTINUOUS
10
13.1307
20
-4.1007
11
13.1305
21
-4.10082
0
LINE
8
BLACK
6
CONTINUOUS
10
13.1305
20
-4.10082
11
13.1304
21
-4.10091
0
LINE
8
BLACK
6
CONTINUOUS
10
13.1304
20
-4.10091
11
13.1302
21
-4.10097
0
LINE
8
BLACK
6
CONTINUOUS
10
13.1302
20
-4.10097
11
13.13
21
-4.10099
0
LINE
8
BLACK
6
CONTINUOUS
10
13.13
20
-4.10099
11
13.13
21
-4.10098
0
LINE
8
BLACK
6
CONTINUOUS
10
13.13
20
-4.10098
11
13.04
21
-4.10098
0
LINE
8
BLACK
6
CONTINUOUS
10
13.04
20
-4.10098
11
13.04
21
-4.10099
0
LINE
8
BLACK
6
CONTINUOUS
10
13.04
20
-4.10099
11
13.04
21
-4.10098
0
LINE
8
BLACK
6
CONTINUOUS
10
13.04
20
-4.10098
11
13.04
21
-4.10098
0
LINE
8
BLACK
6
CONTINUOUS
10
13.04
20
-4.10098
11
13.0398
21
-4.10097
0
LINE
8
BLACK
6
CONTINUOUS
10
13.0398
20
-4.10097
11
13.0396
21
-4.10091
0
LINE
8
BLACK
6
CONTINUOUS
10
13.0396
20
-4.10091
11
13.0395
21
-4.10082
0
LINE
8
BLACK
6
CONTINUOUS
10
13.0395
20
-4.10082
11
13.0393
21
-4.1007
0
LINE
8
BLACK
6
CONTINUOUS
10
13.0393
20
-4.1007
11
13.0392
21
-4.10055
0
LINE
8
BLACK
6
CONTINUOUS
10
13.0392
20
-4.10055
11
13.0391
21
-4.10038
0
LINE
8
BLACK
6
CONTINUOUS
10
13.0391
20
-4.10038
11
13.039
21
-4.10019
0
LINE
8
BLACK
6
CONTINUOUS
10
13.039
20
-4.10019
11
13.039
21
-4.1
0
LINE
8
BLACK
6
CONTINUOUS
10
13.039
20
-4.1
11
13.039
21
-4.09995
0
LINE
8
BLACK
6
CONTINUOUS
10
13.039
20
-4.09995
11
13.039
21
-3.50005
0
LINE
8
BLACK
6
CONTINUOUS
10
13.039
20
-3.50005
11
13.039
21
-3.5
0
LINE
8
BLACK
6
CONTINUOUS
10
13.039
20
-3.5
11
13.039
21
-3.49981
0
LINE
8
BLACK
6
CONTINUOUS
10
13.039
20
-3.49981
11
13.0391
21
-3.49962
0
LINE
8
BLACK
6
CONTINUOUS
10
13.0391
20
-3.49962
11
13.0392
21
-3.49945
0
LINE
8
BLACK
6
CONTINUOUS
10
13.0392
20
-3.49945
11
13.0393
21
-3.4993
0
LINE
8
BLACK
6
CONTINUOUS
10
13.0393
20
-3.4993
11
13.0395
21
-3.49918
0
LINE
8
BLACK
6
CONTINUOUS
10
13.0395
20
-3.49918
11
13.0396
21
-3.49909
0
LINE
8
BLACK
6
CONTINUOUS
10
13.0396
20
-3.49909
11
13.0398
21
-3.49903
0
LINE
8
BLACK
6
CONTINUOUS
10
13.0398
20
-3.49903
11
13.04
21
-3.49902
0
LINE
8
BLACK
6
CONTINUOUS
10
13.04
20
-3.49902
11
13.04
21
-3.49901
0
LINE
8
BLACK
6
CONTINUOUS
10
13.04
20
-3.49901
11
13.04
21
-3.49902
0
LINE
8
BLACK
6
CONTINUOUS
10
13.04
20
-3.49902
11
13.13
21
-3.49902
0
LINE
8
BLACK
6
CONTINUOUS
10
13.13
20
-3.49902
11
13.13
21
-3.49901
0
LINE
8
BLACK
6
CONTINUOUS
10
13.13
20
-3.49901
11
13.13
21
-3.49902
0
LINE
8
BLACK
6
CONTINUOUS
10
13.13
20
-3.49902
11
13.13
21
-3.49902
0
LINE
8
BLACK
6
CONTINUOUS
10
13.13
20
-3.49902
11
13.1302
21
-3.49903
0
LINE
8
BLACK
6
CONTINUOUS
10
13.1302
20
-3.49903
11
13.1304
21
-3.49909
0
LINE
8
BLACK
6
CONTINUOUS
10
13.1304
20
-3.49909
11
13.1305
21
-3.49918
0
LINE
8
BLACK
6
CONTINUOUS
10
13.1305
20
-3.49918
11
13.1307
21
-3.4993
0
LINE
8
BLACK
6
CONTINUOUS
10
13.1307
20
-3.4993
11
13.1308
21
-3.49945
0
LINE
8
BLACK
6
CONTINUOUS
10
13.1308
20
-3.49945
11
13.1309
21
-3.49962
0
LINE
8
BLACK
6
CONTINUOUS
10
13.1309
20
-3.49962
11
13.131
21
-3.49981
0
LINE
8
BLACK
6
CONTINUOUS
10
13.131
20
-3.49981
11
13.131
21
-3.5
0
LINE
8
BLACK
6
CONTINUOUS
10
13.131
20
-3.5
11
13.131
21
-3.50005
0
LINE
8
BLACK
6
CONTINUOUS
10
13.131
20
-3.50005
11
13.131
21
-4.09995
0
LINE
8
BLACK
6
CONTINUOUS
10
13.131
20
-4.09995
11
13.131
21
-4.1
0
LINE
8
BLACK
6
CONTINUOUS
10
13.041
20
-3.50098
11
13.041
21
-4.09902
0
LINE
8
BLACK
6
CONTINUOUS
10
13.041
20
-4.09902
11
13.129
21
-4.09902
0
LINE
8
BLACK
6
CONTINUOUS
10
13.129
20
-4.09902
11
13.129
21
-3.67995
0
LINE
8
BLACK
6
CONTINUOUS
10
13.129
20
-3.67995
11
13.129
21
-3.67995
0
LINE
8
BLACK
6
CONTINUOUS
10
13.129
20
-3.67995
11
13.129
21
-3.50098
0
LINE
8
BLACK
6
CONTINUOUS
10
13.129
20
-3.50098
11
13.041
21
-3.50098
0
LINE
8
BLACK
6
CONTINUOUS
10
6.32005
20
-2.84902
11
6.32005
21
-2.84902
0
LINE
8
BLACK
6
CONTINUOUS
10
6.32005
20
-2.84902
11
6.32019
21
-2.84903
0
LINE
8
BLACK
6
CONTINUOUS
10
6.32019
20
-2.84903
11
6.32038
21
-2.84909
0
LINE
8
BLACK
6
CONTINUOUS
10
6.32038
20
-2.84909
11
6.32055
21
-2.84918
0
LINE
8
BLACK
6
CONTINUOUS
10
6.32055
20
-2.84918
11
6.3207
21
-2.8493
0
LINE
8
BLACK
6
CONTINUOUS
10
6.3207
20
-2.8493
11
6.32082
21
-2.84945
0
LINE
8
BLACK
6
CONTINUOUS
10
6.32082
20
-2.84945
11
6.32091
21
-2.84962
0
LINE
8
BLACK
6
CONTINUOUS
10
6.32091
20
-2.84962
11
6.32097
21
-2.84981
0
LINE
8
BLACK
6
CONTINUOUS
10
6.32097
20
-2.84981
11
6.32099
21
-2.85
0
LINE
8
BLACK
6
CONTINUOUS
10
6.32099
20
-2.85
11
6.32098
21
-2.85005
0
LINE
8
BLACK
6
CONTINUOUS
10
6.32098
20
-2.85005
11
6.32098
21
-3.11
0
LINE
8
BLACK
6
CONTINUOUS
10
6.32098
20
-3.11
11
6.32099
21
-3.11064
0
LINE
8
BLACK
6
CONTINUOUS
10
6.32099
20
-3.11064
11
6.32301
21
-3.12991
0
LINE
8
BLACK
6
CONTINUOUS
10
6.32301
20
-3.12991
11
6.32873
21
-3.14837
0
LINE
8
BLACK
6
CONTINUOUS
10
6.32873
20
-3.14837
11
6.33792
21
-3.16537
0
LINE
8
BLACK
6
CONTINUOUS
10
6.33792
20
-3.16537
11
6.35023
21
-3.18026
0
LINE
8
BLACK
6
CONTINUOUS
10
6.35023
20
-3.18026
11
6.36521
21
-3.19247
0
LINE
8
BLACK
6
CONTINUOUS
10
6.36521
20
-3.19247
11
6.38227
21
-3.20154
0
LINE
8
BLACK
6
CONTINUOUS
10
6.38227
20
-3.20154
11
6.40077
21
-3.20713
0
LINE
8
BLACK
6
CONTINUOUS
10
6.40077
20
-3.20713
11
6.42005
21
-3.20902
0
LINE
8
BLACK
6
CONTINUOUS
10
6.42005
20
-3.20902
11
6.44005
21
-3.20902
0
LINE
8
BLACK
6
CONTINUOUS
10
6.44005
20
-3.20902
11
6.4401
21
-3.20902
0
LINE
8
BLACK
6
CONTINUOUS
10
6.4401
20
-3.20902
11
6.4401
21
-3.20902
0
LINE
8
BLACK
6
CONTINUOUS
10
6.4401
20
-3.20902
11
6.45952
21
-3.21092
0
LINE
8
BLACK
6
CONTINUOUS
10
6.45952
20
-3.21092
11
6.45953
21
-3.21093
0
LINE
8
BLACK
6
CONTINUOUS
10
6.45953
20
-3.21093
11
6.45962
21
-3.21095
0
LINE
8
BLACK
6
CONTINUOUS
10
6.45962
20
-3.21095
11
6.45971
21
-3.21096
0
LINE
8
BLACK
6
CONTINUOUS
10
6.45971
20
-3.21096
11
6.47839
21
-3.2166
0
LINE
8
BLACK
6
CONTINUOUS
10
6.47839
20
-3.2166
11
6.4784
21
-3.21661
0
LINE
8
BLACK
6
CONTINUOUS
10
6.4784
20
-3.21661
11
6.47849
21
-3.21664
0
LINE
8
BLACK
6
CONTINUOUS
10
6.47849
20
-3.21664
11
6.47857
21
-3.21668
0
LINE
8
BLACK
6
CONTINUOUS
10
6.47857
20
-3.21668
11
6.4958
21
-3.22584
0
LINE
8
BLACK
6
CONTINUOUS
10
6.4958
20
-3.22584
11
6.4958
21
-3.22584
0
LINE
8
BLACK
6
CONTINUOUS
10
6.4958
20
-3.22584
11
6.4958
21
-3.22584
0
LINE
8
BLACK
6
CONTINUOUS
10
6.4958
20
-3.22584
11
6.49581
21
-3.22585
0
LINE
8
BLACK
6
CONTINUOUS
10
6.49581
20
-3.22585
11
6.49589
21
-3.2259
0
LINE
8
BLACK
6
CONTINUOUS
10
6.49589
20
-3.2259
11
6.49596
21
-3.22595
0
LINE
8
BLACK
6
CONTINUOUS
10
6.49596
20
-3.22595
11
6.51109
21
-3.23828
0
LINE
8
BLACK
6
CONTINUOUS
10
6.51109
20
-3.23828
11
6.51109
21
-3.23828
0
LINE
8
BLACK
6
CONTINUOUS
10
6.51109
20
-3.23828
11
6.51109
21
-3.23828
0
LINE
8
BLACK
6
CONTINUOUS
10
6.51109
20
-3.23828
11
6.5111
21
-3.23829
0
LINE
8
BLACK
6
CONTINUOUS
10
6.5111
20
-3.23829
11
6.51116
21
-3.23835
0
LINE
8
BLACK
6
CONTINUOUS
10
6.51116
20
-3.23835
11
6.51122
21
-3.23842
0
LINE
8
BLACK
6
CONTINUOUS
10
6.51122
20
-3.23842
11
6.52366
21
-3.25345
0
LINE
8
BLACK
6
CONTINUOUS
10
6.52366
20
-3.25345
11
6.52367
21
-3.25346
0
LINE
8
BLACK
6
CONTINUOUS
10
6.52367
20
-3.25346
11
6.52372
21
-3.25354
0
LINE
8
BLACK
6
CONTINUOUS
10
6.52372
20
-3.25354
11
6.52377
21
-3.25361
0
LINE
8
BLACK
6
CONTINUOUS
10
6.52377
20
-3.25361
11
6.53305
21
-3.27078
0
LINE
8
BLACK
6
CONTINUOUS
10
6.53305
20
-3.27078
11
6.53305
21
-3.27078
0
LINE
8
BLACK
6
CONTINUOUS
10
6.53305
20
-3.27078
11
6.53305
21
-3.27078
0
LINE
8
BLACK
6
CONTINUOUS
10
6.53305
20
-3.27078
11
6.53306
21
-3.27079
0
LINE
8
BLACK
6
CONTINUOUS
10
6.53306
20
-3.27079
11
6.53309
21
-3.27088
0
LINE
8
BLACK
6
CONTINUOUS
10
6.53309
20
-3.27088
11
6.53313
21
-3.27096
0
LINE
8
BLACK
6
CONTINUOUS
10
6.53313
20
-3.27096
11
6.5389
21
-3.2896
0
LINE
8
BLACK
6
CONTINUOUS
10
6.5389
20
-3.2896
11
6.5389
21
-3.28961
0
LINE
8
BLACK
6
CONTINUOUS
10
6.5389
20
-3.28961
11
6.53892
21
-3.2897
0
LINE
8
BLACK
6
CONTINUOUS
10
6.53892
20
-3.2897
11
6.53894
21
-3.28979
0
LINE
8
BLACK
6
CONTINUOUS
10
6.53894
20
-3.28979
11
6.54098
21
-3.3092
0
LINE
8
BLACK
6
CONTINUOUS
10
6.54098
20
-3.3092
11
6.54098
21
-3.30921
0
LINE
8
BLACK
6
CONTINUOUS
10
6.54098
20
-3.30921
11
6.54098
21
-3.30926
0
LINE
8
BLACK
6
CONTINUOUS
10
6.54098
20
-3.30926
11
6.54098
21
-3.3093
0
LINE
8
BLACK
6
CONTINUOUS
10
6.54098
20
-3.3093
11
6.54098
21
-3.30995
0
LINE
8
BLACK
6
CONTINUOUS
10
6.54098
20
-3.30995
11
6.54098
21
-3.30995
0
LINE
8
BLACK
6
CONTINUOUS
10
6.54098
20
-3.30995
11
6.54098
21
-3.40995
0
LINE
8
BLACK
6
CONTINUOUS
10
6.54098
20
-3.40995
11
6.54099
21
-3.41
0
LINE
8
BLACK
6
CONTINUOUS
10
6.54099
20
-3.41
11
6.54098
21
-3.41005
0
LINE
8
BLACK
6
CONTINUOUS
10
6.54098
20
-3.41005
11
6.54097
21
-3.41019
0
LINE
8
BLACK
6
CONTINUOUS
10
6.54097
20
-3.41019
11
6.54091
21
-3.41038
0
LINE
8
BLACK
6
CONTINUOUS
10
6.54091
20
-3.41038
11
6.54082
21
-3.41055
0
LINE
8
BLACK
6
CONTINUOUS
10
6.54082
20
-3.41055
11
6.5407
21
-3.4107
0
LINE
8
BLACK
6
CONTINUOUS
10
6.5407
20
-3.4107
11
6.54055
21
-3.41082
0
LINE
8
BLACK
6
CONTINUOUS
10
6.54055
20
-3.41082
11
6.54038
21
-3.41091
0
LINE
8
BLACK
6
CONTINUOUS
10
6.54038
20
-3.41091
11
6.54019
21
-3.41097
0
LINE
8
BLACK
6
CONTINUOUS
10
6.54019
20
-3.41097
11
6.54
21
-3.41099
0
LINE
8
BLACK
6
CONTINUOUS
10
6.54
20
-3.41099
11
6.53995
21
-3.41098
0
LINE
8
BLACK
6
CONTINUOUS
10
6.53995
20
-3.41098
11
6.43995
21
-3.41098
0
LINE
8
BLACK
6
CONTINUOUS
10
6.43995
20
-3.41098
11
6.43981
21
-3.41097
0
LINE
8
BLACK
6
CONTINUOUS
10
6.43981
20
-3.41097
11
6.43962
21
-3.41091
0
LINE
8
BLACK
6
CONTINUOUS
10
6.43962
20
-3.41091
11
6.43945
21
-3.41082
0
LINE
8
BLACK
6
CONTINUOUS
10
6.43945
20
-3.41082
11
6.4393
21
-3.4107
0
LINE
8
BLACK
6
CONTINUOUS
10
6.4393
20
-3.4107
11
6.43918
21
-3.41055
0
LINE
8
BLACK
6
CONTINUOUS
10
6.43918
20
-3.41055
11
6.43909
21
-3.41038
0
LINE
8
BLACK
6
CONTINUOUS
10
6.43909
20
-3.41038
11
6.43903
21
-3.41019
0
LINE
8
BLACK
6
CONTINUOUS
10
6.43903
20
-3.41019
11
6.43901
21
-3.41
0
LINE
8
BLACK
6
CONTINUOUS
10
6.43901
20
-3.41
11
6.43902
21
-3.40995
0
LINE
8
BLACK
6
CONTINUOUS
10
6.43902
20
-3.40995
11
6.43901
21
-3.40936
0
LINE
8
BLACK
6
CONTINUOUS
10
6.43901
20
-3.40936
11
6.43699
21
-3.39009
0
LINE
8
BLACK
6
CONTINUOUS
10
6.43699
20
-3.39009
11
6.43127
21
-3.37163
0
LINE
8
BLACK
6
CONTINUOUS
10
6.43127
20
-3.37163
11
6.42208
21
-3.35463
0
LINE
8
BLACK
6
CONTINUOUS
10
6.42208
20
-3.35463
11
6.40977
21
-3.33974
0
LINE
8
BLACK
6
CONTINUOUS
10
6.40977
20
-3.33974
11
6.39479
21
-3.32753
0
LINE
8
BLACK
6
CONTINUOUS
10
6.39479
20
-3.32753
11
6.37773
21
-3.31846
0
LINE
8
BLACK
6
CONTINUOUS
10
6.37773
20
-3.31846
11
6.35923
21
-3.31287
0
LINE
8
BLACK
6
CONTINUOUS
10
6.35923
20
-3.31287
11
6.33995
21
-3.31098
0
LINE
8
BLACK
6
CONTINUOUS
10
6.33995
20
-3.31098
11
6.31995
21
-3.31098
0
LINE
8
BLACK
6
CONTINUOUS
10
6.31995
20
-3.31098
11
6.3199
21
-3.31098
0
LINE
8
BLACK
6
CONTINUOUS
10
6.3199
20
-3.31098
11
6.3199
21
-3.31098
0
LINE
8
BLACK
6
CONTINUOUS
10
6.3199
20
-3.31098
11
6.30048
21
-3.30908
0
LINE
8
BLACK
6
CONTINUOUS
10
6.30048
20
-3.30908
11
6.30047
21
-3.30907
0
LINE
8
BLACK
6
CONTINUOUS
10
6.30047
20
-3.30907
11
6.30038
21
-3.30905
0
LINE
8
BLACK
6
CONTINUOUS
10
6.30038
20
-3.30905
11
6.30029
21
-3.30904
0
LINE
8
BLACK
6
CONTINUOUS
10
6.30029
20
-3.30904
11
6.28161
21
-3.3034
0
LINE
8
BLACK
6
CONTINUOUS
10
6.28161
20
-3.3034
11
6.2816
21
-3.30339
0
LINE
8
BLACK
6
CONTINUOUS
10
6.2816
20
-3.30339
11
6.28151
21
-3.30336
0
LINE
8
BLACK
6
CONTINUOUS
10
6.28151
20
-3.30336
11
6.28143
21
-3.30332
0
LINE
8
BLACK
6
CONTINUOUS
10
6.28143
20
-3.30332
11
6.2642
21
-3.29416
0
LINE
8
BLACK
6
CONTINUOUS
10
6.2642
20
-3.29416
11
6.26419
21
-3.29415
0
LINE
8
BLACK
6
CONTINUOUS
10
6.26419
20
-3.29415
11
6.26411
21
-3.2941
0
LINE
8
BLACK
6
CONTINUOUS
10
6.26411
20
-3.2941
11
6.26404
21
-3.29405
0
LINE
8
BLACK
6
CONTINUOUS
10
6.26404
20
-3.29405
11
6.24891
21
-3.28172
0
LINE
8
BLACK
6
CONTINUOUS
10
6.24891
20
-3.28172
11
6.2489
21
-3.28171
0
LINE
8
BLACK
6
CONTINUOUS
10
6.2489
20
-3.28171
11
6.24884
21
-3.28165
0
LINE
8
BLACK
6
CONTINUOUS
10
6.24884
20
-3.28165
11
6.24878
21
-3.28158
0
LINE
8
BLACK
6
CONTINUOUS
10
6.24878
20
-3.28158
11
6.23634
21
-3.26655
0
LINE
8
BLACK
6
CONTINUOUS
10
6.23634
20
-3.26655
11
6.23633
21
-3.26654
0
LINE
8
BLACK
6
CONTINUOUS
10
6.23633
20
-3.26654
11
6.23628
21
-3.26646
0
LINE
8
BLACK
6
CONTINUOUS
10
6.23628
20
-3.26646
11
6.23623
21
-3.26639
0
LINE
8
BLACK
6
CONTINUOUS
10
6.23623
20
-3.26639
11
6.22695
21
-3.24922
0
LINE
8
BLACK
6
CONTINUOUS
10
6.22695
20
-3.24922
11
6.22694
21
-3.24921
0
LINE
8
BLACK
6
CONTINUOUS
10
6.22694
20
-3.24921
11
6.22691
21
-3.24912
0
LINE
8
BLACK
6
CONTINUOUS
10
6.22691
20
-3.24912
11
6.22687
21
-3.24904
0
LINE
8
BLACK
6
CONTINUOUS
10
6.22687
20
-3.24904
11
6.2211
21
-3.2304
0
LINE
8
BLACK
6
CONTINUOUS
10
6.2211
20
-3.2304
11
6.2211
21
-3.23039
0
LINE
8
BLACK
6
CONTINUOUS
10
6.2211
20
-3.23039
11
6.22108
21
-3.2303
0
LINE
8
BLACK
6
CONTINUOUS
10
6.22108
20
-3.2303
11
6.22106
21
-3.23021
0
LINE
8
BLACK
6
CONTINUOUS
10
6.22106
20
-3.23021
11
6.21902
21
-3.2108
0
LINE
8
BLACK
6
CONTINUOUS
10
6.21902
20
-3.2108
11
6.21902
21
-3.21079
0
LINE
8
BLACK
6
CONTINUOUS
10
6.21902
20
-3.21079
11
6.21902
21
-3.21074
0
LINE
8
BLACK
6
CONTINUOUS
10
6.21902
20
-3.21074
11
6.21902
21
-3.2107
0
LINE
8
BLACK
6
CONTINUOUS
10
6.21902
20
-3.2107
11
6.21902
21
-3.21005
0
LINE
8
BLACK
6
CONTINUOUS
10
6.21902
20
-3.21005
11
6.21902
21
-3.21005
0
LINE
8
BLACK
6
CONTINUOUS
10
6.21902
20
-3.21005
11
6.21902
21
-3.21001
0
LINE
8
BLACK
6
CONTINUOUS
10
6.21902
20
-3.21001
11
6.21902
21
-3.21
0
LINE
8
BLACK
6
CONTINUOUS
10
6.21902
20
-3.21
11
6.21902
21
-3.20999
0
LINE
8
BLACK
6
CONTINUOUS
10
6.21902
20
-3.20999
11
6.21902
21
-2.85005
0
LINE
8
BLACK
6
CONTINUOUS
10
6.21902
20
-2.85005
11
6.21901
21
-2.85
0
LINE
8
BLACK
6
CONTINUOUS
10
6.21901
20
-2.85
11
6.21903
21
-2.84981
0
LINE
8
BLACK
6
CONTINUOUS
10
6.21903
20
-2.84981
11
6.21909
21
-2.84962
0
LINE
8
BLACK
6
CONTINUOUS
10
6.21909
20
-2.84962
11
6.21918
21
-2.84945
0
LINE
8
BLACK
6
CONTINUOUS
10
6.21918
20
-2.84945
11
6.2193
21
-2.8493
0
LINE
8
BLACK
6
CONTINUOUS
10
6.2193
20
-2.8493
11
6.21945
21
-2.84918
0
LINE
8
BLACK
6
CONTINUOUS
10
6.21945
20
-2.84918
11
6.21962
21
-2.84909
0
LINE
8
BLACK
6
CONTINUOUS
10
6.21962
20
-2.84909
11
6.21981
21
-2.84903
0
LINE
8
BLACK
6
CONTINUOUS
10
6.21981
20
-2.84903
11
6.21995
21
-2.84902
0
LINE
8
BLACK
6
CONTINUOUS
10
6.21995
20
-2.84902
11
6.22
21
-2.84901
0
LINE
8
BLACK
6
CONTINUOUS
10
6.22
20
-2.84901
11
6.22005
21
-2.84902
0
LINE
8
BLACK
6
CONTINUOUS
10
6.22005
20
-2.84902
11
6.31995
21
-2.84902
0
LINE
8
BLACK
6
CONTINUOUS
10
6.31995
20
-2.84902
11
6.32
21
-2.84901
0
LINE
8
BLACK
6
CONTINUOUS
10
6.32
20
-2.84901
11
6.32005
21
-2.84902
0
LINE
8
BLACK
6
CONTINUOUS
10
6.22098
20
-2.85098
11
6.22098
21
-3.21
0
LINE
8
BLACK
6
CONTINUOUS
10
6.22098
20
-3.21
11
6.22099
21
-3.21064
0
LINE
8
BLACK
6
CONTINUOUS
10
6.22099
20
-3.21064
11
6.22301
21
-3.22991
0
LINE
8
BLACK
6
CONTINUOUS
10
6.22301
20
-3.22991
11
6.22873
21
-3.24837
0
LINE
8
BLACK
6
CONTINUOUS
10
6.22873
20
-3.24837
11
6.23792
21
-3.26537
0
LINE
8
BLACK
6
CONTINUOUS
10
6.23792
20
-3.26537
11
6.25023
21
-3.28026
0
LINE
8
BLACK
6
CONTINUOUS
10
6.25023
20
-3.28026
11
6.26521
21
-3.29247
0
LINE
8
BLACK
6
CONTINUOUS
10
6.26521
20
-3.29247
11
6.28227
21
-3.30154
0
LINE
8
BLACK
6
CONTINUOUS
10
6.28227
20
-3.30154
11
6.30077
21
-3.30713
0
LINE
8
BLACK
6
CONTINUOUS
10
6.30077
20
-3.30713
11
6.32005
21
-3.30902
0
LINE
8
BLACK
6
CONTINUOUS
10
6.32005
20
-3.30902
11
6.34005
21
-3.30902
0
LINE
8
BLACK
6
CONTINUOUS
10
6.34005
20
-3.30902
11
6.3401
21
-3.30902
0
LINE
8
BLACK
6
CONTINUOUS
10
6.3401
20
-3.30902
11
6.3401
21
-3.30902
0
LINE
8
BLACK
6
CONTINUOUS
10
6.3401
20
-3.30902
11
6.35952
21
-3.31092
0
LINE
8
BLACK
6
CONTINUOUS
10
6.35952
20
-3.31092
11
6.35953
21
-3.31093
0
LINE
8
BLACK
6
CONTINUOUS
10
6.35953
20
-3.31093
11
6.35962
21
-3.31095
0
LINE
8
BLACK
6
CONTINUOUS
10
6.35962
20
-3.31095
11
6.35971
21
-3.31096
0
LINE
8
BLACK
6
CONTINUOUS
10
6.35971
20
-3.31096
11
6.37839
21
-3.3166
0
LINE
8
BLACK
6
CONTINUOUS
10
6.37839
20
-3.3166
11
6.3784
21
-3.31661
0
LINE
8
BLACK
6
CONTINUOUS
10
6.3784
20
-3.31661
11
6.37849
21
-3.31664
0
LINE
8
BLACK
6
CONTINUOUS
10
6.37849
20
-3.31664
11
6.37857
21
-3.31668
0
LINE
8
BLACK
6
CONTINUOUS
10
6.37857
20
-3.31668
11
6.3958
21
-3.32584
0
LINE
8
BLACK
6
CONTINUOUS
10
6.3958
20
-3.32584
11
6.3958
21
-3.32584
0
LINE
8
BLACK
6
CONTINUOUS
10
6.3958
20
-3.32584
11
6.3958
21
-3.32584
0
LINE
8
BLACK
6
CONTINUOUS
10
6.3958
20
-3.32584
11
6.39581
21
-3.32585
0
LINE
8
BLACK
6
CONTINUOUS
10
6.39581
20
-3.32585
11
6.39589
21
-3.3259
0
LINE
8
BLACK
6
CONTINUOUS
10
6.39589
20
-3.3259
11
6.39596
21
-3.32595
0
LINE
8
BLACK
6
CONTINUOUS
10
6.39596
20
-3.32595
11
6.41109
21
-3.33828
0
LINE
8
BLACK
6
CONTINUOUS
10
6.41109
20
-3.33828
11
6.41109
21
-3.33828
0
LINE
8
BLACK
6
CONTINUOUS
10
6.41109
20
-3.33828
11
6.41109
21
-3.33828
0
LINE
8
BLACK
6
CONTINUOUS
10
6.41109
20
-3.33828
11
6.4111
21
-3.33829
0
LINE
8
BLACK
6
CONTINUOUS
10
6.4111
20
-3.33829
11
6.41116
21
-3.33835
0
LINE
8
BLACK
6
CONTINUOUS
10
6.41116
20
-3.33835
11
6.41122
21
-3.33842
0
LINE
8
BLACK
6
CONTINUOUS
10
6.41122
20
-3.33842
11
6.42366
21
-3.35345
0
LINE
8
BLACK
6
CONTINUOUS
10
6.42366
20
-3.35345
11
6.42367
21
-3.35346
0
LINE
8
BLACK
6
CONTINUOUS
10
6.42367
20
-3.35346
11
6.42372
21
-3.35354
0
LINE
8
BLACK
6
CONTINUOUS
10
6.42372
20
-3.35354
11
6.42377
21
-3.35361
0
LINE
8
BLACK
6
CONTINUOUS
10
6.42377
20
-3.35361
11
6.43305
21
-3.37078
0
LINE
8
BLACK
6
CONTINUOUS
10
6.43305
20
-3.37078
11
6.43305
21
-3.37078
0
LINE
8
BLACK
6
CONTINUOUS
10
6.43305
20
-3.37078
11
6.43305
21
-3.37078
0
LINE
8
BLACK
6
CONTINUOUS
10
6.43305
20
-3.37078
11
6.43306
21
-3.37079
0
LINE
8
BLACK
6
CONTINUOUS
10
6.43306
20
-3.37079
11
6.43309
21
-3.37088
0
LINE
8
BLACK
6
CONTINUOUS
10
6.43309
20
-3.37088
11
6.43313
21
-3.37096
0
LINE
8
BLACK
6
CONTINUOUS
10
6.43313
20
-3.37096
11
6.4389
21
-3.3896
0
LINE
8
BLACK
6
CONTINUOUS
10
6.4389
20
-3.3896
11
6.4389
21
-3.38961
0
LINE
8
BLACK
6
CONTINUOUS
10
6.4389
20
-3.38961
11
6.43892
21
-3.3897
0
LINE
8
BLACK
6
CONTINUOUS
10
6.43892
20
-3.3897
11
6.43894
21
-3.38979
0
LINE
8
BLACK
6
CONTINUOUS
10
6.43894
20
-3.38979
11
6.44096
21
-3.40902
0
LINE
8
BLACK
6
CONTINUOUS
10
6.44096
20
-3.40902
11
6.53902
21
-3.40902
0
LINE
8
BLACK
6
CONTINUOUS
10
6.53902
20
-3.40902
11
6.53902
21
-3.31
0
LINE
8
BLACK
6
CONTINUOUS
10
6.53902
20
-3.31
11
6.53901
21
-3.30936
0
LINE
8
BLACK
6
CONTINUOUS
10
6.53901
20
-3.30936
11
6.53699
21
-3.29009
0
LINE
8
BLACK
6
CONTINUOUS
10
6.53699
20
-3.29009
11
6.53127
21
-3.27163
0
LINE
8
BLACK
6
CONTINUOUS
10
6.53127
20
-3.27163
11
6.52208
21
-3.25463
0
LINE
8
BLACK
6
CONTINUOUS
10
6.52208
20
-3.25463
11
6.50977
21
-3.23974
0
LINE
8
BLACK
6
CONTINUOUS
10
6.50977
20
-3.23974
11
6.49479
21
-3.22753
0
LINE
8
BLACK
6
CONTINUOUS
10
6.49479
20
-3.22753
11
6.47773
21
-3.21846
0
LINE
8
BLACK
6
CONTINUOUS
10
6.47773
20
-3.21846
11
6.45923
21
-3.21287
0
LINE
8
BLACK
6
CONTINUOUS
10
6.45923
20
-3.21287
11
6.43995
21
-3.21098
0
LINE
8
BLACK
6
CONTINUOUS
10
6.43995
20
-3.21098
11
6.41995
21
-3.21098
0
LINE
8
BLACK
6
CONTINUOUS
10
6.41995
20
-3.21098
11
6.4199
21
-3.21098
0
LINE
8
BLACK
6
CONTINUOUS
10
6.4199
20
-3.21098
11
6.4199
21
-3.21098
0
LINE
8
BLACK
6
CONTINUOUS
10
6.4199
20
-3.21098
11
6.40048
21
-3.20908
0
LINE
8
BLACK
6
CONTINUOUS
10
6.40048
20
-3.20908
11
6.40047
21
-3.20907
0
LINE
8
BLACK
6
CONTINUOUS
10
6.40047
20
-3.20907
11
6.40038
21
-3.20905
0
LINE
8
BLACK
6
CONTINUOUS
10
6.40038
20
-3.20905
11
6.40029
21
-3.20904
0
LINE
8
BLACK
6
CONTINUOUS
10
6.40029
20
-3.20904
11
6.38161
21
-3.2034
0
LINE
8
BLACK
6
CONTINUOUS
10
6.38161
20
-3.2034
11
6.3816
21
-3.20339
0
LINE
8
BLACK
6
CONTINUOUS
10
6.3816
20
-3.20339
11
6.38151
21
-3.20336
0
LINE
8
BLACK
6
CONTINUOUS
10
6.38151
20
-3.20336
11
6.38143
21
-3.20332
0
LINE
8
BLACK
6
CONTINUOUS
10
6.38143
20
-3.20332
11
6.3642
21
-3.19416
0
LINE
8
BLACK
6
CONTINUOUS
10
6.3642
20
-3.19416
11
6.36419
21
-3.19415
0
LINE
8
BLACK
6
CONTINUOUS
10
6.36419
20
-3.19415
11
6.36411
21
-3.1941
0
LINE
8
BLACK
6
CONTINUOUS
10
6.36411
20
-3.1941
11
6.36404
21
-3.19405
0
LINE
8
BLACK
6
CONTINUOUS
10
6.36404
20
-3.19405
11
6.34891
21
-3.18172
0
LINE
8
BLACK
6
CONTINUOUS
10
6.34891
20
-3.18172
11
6.3489
21
-3.18171
0
LINE
8
BLACK
6
CONTINUOUS
10
6.3489
20
-3.18171
11
6.34884
21
-3.18165
0
LINE
8
BLACK
6
CONTINUOUS
10
6.34884
20
-3.18165
11
6.34878
21
-3.18158
0
LINE
8
BLACK
6
CONTINUOUS
10
6.34878
20
-3.18158
11
6.33634
21
-3.16655
0
LINE
8
BLACK
6
CONTINUOUS
10
6.33634
20
-3.16655
11
6.33633
21
-3.16654
0
LINE
8
BLACK
6
CONTINUOUS
10
6.33633
20
-3.16654
11
6.33628
21
-3.16646
0
LINE
8
BLACK
6
CONTINUOUS
10
6.33628
20
-3.16646
11
6.33623
21
-3.16639
0
LINE
8
BLACK
6
CONTINUOUS
10
6.33623
20
-3.16639
11
6.32695
21
-3.14922
0
LINE
8
BLACK
6
CONTINUOUS
10
6.32695
20
-3.14922
11
6.32694
21
-3.14921
0
LINE
8
BLACK
6
CONTINUOUS
10
6.32694
20
-3.14921
11
6.32691
21
-3.14912
0
LINE
8
BLACK
6
CONTINUOUS
10
6.32691
20
-3.14912
11
6.32687
21
-3.14904
0
LINE
8
BLACK
6
CONTINUOUS
10
6.32687
20
-3.14904
11
6.3211
21
-3.1304
0
LINE
8
BLACK
6
CONTINUOUS
10
6.3211
20
-3.1304
11
6.3211
21
-3.13039
0
LINE
8
BLACK
6
CONTINUOUS
10
6.3211
20
-3.13039
11
6.32108
21
-3.1303
0
LINE
8
BLACK
6
CONTINUOUS
10
6.32108
20
-3.1303
11
6.32106
21
-3.13021
0
LINE
8
BLACK
6
CONTINUOUS
10
6.32106
20
-3.13021
11
6.31902
21
-3.1108
0
LINE
8
BLACK
6
CONTINUOUS
10
6.31902
20
-3.1108
11
6.31902
21
-3.11079
0
LINE
8
BLACK
6
CONTINUOUS
10
6.31902
20
-3.11079
11
6.31902
21
-3.11074
0
LINE
8
BLACK
6
CONTINUOUS
10
6.31902
20
-3.11074
11
6.31902
21
-3.1107
0
LINE
8
BLACK
6
CONTINUOUS
10
6.31902
20
-3.1107
11
6.31902
21
-3.11005
0
LINE
8
BLACK
6
CONTINUOUS
10
6.31902
20
-3.11005
11
6.31902
21
-3.11005
0
LINE
8
BLACK
6
CONTINUOUS
10
6.31902
20
-3.11005
11
6.31902
21
-3.11001
0
LINE
8
BLACK
6
CONTINUOUS
10
6.31902
20
-3.11001
11
6.31902
21
-3.11
0
LINE
8
BLACK
6
CONTINUOUS
10
6.31902
20
-3.11
11
6.31902
21
-3.10999
0
LINE
8
BLACK
6
CONTINUOUS
10
6.31902
20
-3.10999
11
6.31902
21
-2.85098
0
LINE
8
BLACK
6
CONTINUOUS
10
6.31902
20
-2.85098
11
6.22098
21
-2.85098
0
LINE
8
BLACK
6
CONTINUOUS
10
13.04
20
-3.09902
11
13.13
21
-3.09902
0
LINE
8
BLACK
6
CONTINUOUS
10
13.13
20
-3.09902
11
13.1302
21
-3.09903
0
LINE
8
BLACK
6
CONTINUOUS
10
13.1302
20
-3.09903
11
13.1304
21
-3.09909
0
LINE
8
BLACK
6
CONTINUOUS
10
13.1304
20
-3.09909
11
13.1305
21
-3.09918
0
LINE
8
BLACK
6
CONTINUOUS
10
13.1305
20
-3.09918
11
13.1307
21
-3.0993
0
LINE
8
BLACK
6
CONTINUOUS
10
13.1307
20
-3.0993
11
13.1308
21
-3.09945
0
LINE
8
BLACK
6
CONTINUOUS
10
13.1308
20
-3.09945
11
13.1309
21
-3.09962
0
LINE
8
BLACK
6
CONTINUOUS
10
13.1309
20
-3.09962
11
13.131
21
-3.09981
0
LINE
8
BLACK
6
CONTINUOUS
10
13.131
20
-3.09981
11
13.131
21
-3.1
0
LINE
8
BLACK
6
CONTINUOUS
10
13.131
20
-3.1
11
13.131
21
-3.10005
0
LINE
8
BLACK
6
CONTINUOUS
10
13.131
20
-3.10005
11
13.131
21
-3.10064
0
LINE
8
BLACK
6
CONTINUOUS
10
13.131
20
-3.10064
11
13.133
21
-3.11991
0
LINE
8
BLACK
6
CONTINUOUS
10
13.133
20
-3.11991
11
13.1387
21
-3.13837
0
LINE
8
BLACK
6
CONTINUOUS
10
13.1387
20
-3.13837
11
13.1479
21
-3.15537
0
LINE
8
BLACK
6
CONTINUOUS
10
13.1479
20
-3.15537
11
13.1602
21
-3.17026
0
LINE
8
BLACK
6
CONTINUOUS
10
13.1602
20
-3.17026
11
13.1752
21
-3.18247
0
LINE
8
BLACK
6
CONTINUOUS
10
13.1752
20
-3.18247
11
13.1923
21
-3.19154
0
LINE
8
BLACK
6
CONTINUOUS
10
13.1923
20
-3.19154
11
13.2108
21
-3.19713
0
LINE
8
BLACK
6
CONTINUOUS
10
13.2108
20
-3.19713
11
13.23
21
-3.19902
0
LINE
8
BLACK
6
CONTINUOUS
10
13.23
20
-3.19902
11
13.51
21
-3.19902
0
LINE
8
BLACK
6
CONTINUOUS
10
13.51
20
-3.19902
11
13.51
21
-3.19901
0
LINE
8
BLACK
6
CONTINUOUS
10
13.51
20
-3.19901
11
13.51
21
-3.19902
0
LINE
8
BLACK
6
CONTINUOUS
10
13.51
20
-3.19902
11
13.51
21
-3.19902
0
LINE
8
BLACK
6
CONTINUOUS
10
13.51
20
-3.19902
11
13.5102
21
-3.19903
0
LINE
8
BLACK
6
CONTINUOUS
10
13.5102
20
-3.19903
11
13.5104
21
-3.19909
0
LINE
8
BLACK
6
CONTINUOUS
10
13.5104
20
-3.19909
11
13.5105
21
-3.19918
0
LINE
8
BLACK
6
CONTINUOUS
10
13.5105
20
-3.19918
11
13.5107
21
-3.1993
0
LINE
8
BLACK
6
CONTINUOUS
10
13.5107
20
-3.1993
11
13.5108
21
-3.19945
0
LINE
8
BLACK
6
CONTINUOUS
10
13.5108
20
-3.19945
11
13.5109
21
-3.19962
0
LINE
8
BLACK
6
CONTINUOUS
10
13.5109
20
-3.19962
11
13.511
21
-3.19981
0
LINE
8
BLACK
6
CONTINUOUS
10
13.511
20
-3.19981
11
13.511
21
-3.2
0
LINE
8
BLACK
6
CONTINUOUS
10
13.511
20
-3.2
11
13.511
21
-3.20005
0
LINE
8
BLACK
6
CONTINUOUS
10
13.511
20
-3.20005
11
13.511
21
-3.29995
0
LINE
8
BLACK
6
CONTINUOUS
10
13.511
20
-3.29995
11
13.511
21
-3.3
0
LINE
8
BLACK
6
CONTINUOUS
10
13.511
20
-3.3
11
13.511
21
-3.30019
0
LINE
8
BLACK
6
CONTINUOUS
10
13.511
20
-3.30019
11
13.5109
21
-3.30038
0
LINE
8
BLACK
6
CONTINUOUS
10
13.5109
20
-3.30038
11
13.5108
21
-3.30055
0
LINE
8
BLACK
6
CONTINUOUS
10
13.5108
20
-3.30055
11
13.5107
21
-3.3007
0
LINE
8
BLACK
6
CONTINUOUS
10
13.5107
20
-3.3007
11
13.5105
21
-3.30082
0
LINE
8
BLACK
6
CONTINUOUS
10
13.5105
20
-3.30082
11
13.5104
21
-3.30091
0
LINE
8
BLACK
6
CONTINUOUS
10
13.5104
20
-3.30091
11
13.5102
21
-3.30097
0
LINE
8
BLACK
6
CONTINUOUS
10
13.5102
20
-3.30097
11
13.5101
21
-3.30098
0
LINE
8
BLACK
6
CONTINUOUS
10
13.5101
20
-3.30098
11
13.51
21
-3.30099
0
LINE
8
BLACK
6
CONTINUOUS
10
13.51
20
-3.30099
11
13.51
21
-3.30098
0
LINE
8
BLACK
6
CONTINUOUS
10
13.51
20
-3.30098
11
13.23
21
-3.30098
0
LINE
8
BLACK
6
CONTINUOUS
10
13.23
20
-3.30098
11
13.2294
21
-3.30099
0
LINE
8
BLACK
6
CONTINUOUS
10
13.2294
20
-3.30099
11
13.2101
21
-3.30301
0
LINE
8
BLACK
6
CONTINUOUS
10
13.2101
20
-3.30301
11
13.1916
21
-3.30873
0
LINE
8
BLACK
6
CONTINUOUS
10
13.1916
20
-3.30873
11
13.1746
21
-3.31792
0
LINE
8
BLACK
6
CONTINUOUS
10
13.1746
20
-3.31792
11
13.1597
21
-3.33023
0
LINE
8
BLACK
6
CONTINUOUS
10
13.1597
20
-3.33023
11
13.1475
21
-3.34521
0
LINE
8
BLACK
6
CONTINUOUS
10
13.1475
20
-3.34521
11
13.1385
21
-3.36227
0
LINE
8
BLACK
6
CONTINUOUS
10
13.1385
20
-3.36227
11
13.1329
21
-3.38077
0
LINE
8
BLACK
6
CONTINUOUS
10
13.1329
20
-3.38077
11
13.131
21
-3.4001
0
LINE
8
BLACK
6
CONTINUOUS
10
13.131
20
-3.4001
11
13.131
21
-3.40011
0
LINE
8
BLACK
6
CONTINUOUS
10
13.131
20
-3.40011
11
13.131
21
-3.40019
0
LINE
8
BLACK
6
CONTINUOUS
10
13.131
20
-3.40019
11
13.1309
21
-3.40038
0
LINE
8
BLACK
6
CONTINUOUS
10
13.1309
20
-3.40038
11
13.1308
21
-3.40055
0
LINE
8
BLACK
6
CONTINUOUS
10
13.1308
20
-3.40055
11
13.1307
21
-3.4007
0
LINE
8
BLACK
6
CONTINUOUS
10
13.1307
20
-3.4007
11
13.1305
21
-3.40082
0
LINE
8
BLACK
6
CONTINUOUS
10
13.1305
20
-3.40082
11
13.1304
21
-3.40091
0
LINE
8
BLACK
6
CONTINUOUS
10
13.1304
20
-3.40091
11
13.1302
21
-3.40097
0
LINE
8
BLACK
6
CONTINUOUS
10
13.1302
20
-3.40097
11
13.1301
21
-3.40098
0
LINE
8
BLACK
6
CONTINUOUS
10
13.1301
20
-3.40098
11
13.1301
21
-3.40098
0
LINE
8
BLACK
6
CONTINUOUS
10
13.1301
20
-3.40098
11
13.1301
21
-3.40098
0
LINE
8
BLACK
6
CONTINUOUS
10
13.1301
20
-3.40098
11
13.13
21
-3.40098
0
LINE
8
BLACK
6
CONTINUOUS
10
13.13
20
-3.40098
11
13.04
21
-3.40098
0
LINE
8
BLACK
6
CONTINUOUS
10
13.04
20
-3.40098
11
13.04
21
-3.40099
0
LINE
8
BLACK
6
CONTINUOUS
10
13.04
20
-3.40099
11
13.0398
21
-3.40097
0
LINE
8
BLACK
6
CONTINUOUS
10
13.0398
20
-3.40097
11
13.0396
21
-3.40091
0
LINE
8
BLACK
6
CONTINUOUS
10
13.0396
20
-3.40091
11
13.0395
21
-3.40082
0
LINE
8
BLACK
6
CONTINUOUS
10
13.0395
20
-3.40082
11
13.0393
21
-3.4007
0
LINE
8
BLACK
6
CONTINUOUS
10
13.0393
20
-3.4007
11
13.0392
21
-3.40062
0
LINE
8
BLACK
6
CONTINUOUS
10
13.0392
20
-3.40062
11
13.0392
21
-3.40055
0
LINE
8
BLACK
6
CONTINUOUS
10
13.0392
20
-3.40055
11
13.0391
21
-3.40038
0
LINE
8
BLACK
6
CONTINUOUS
10
13.0391
20
-3.40038
11
13.039
21
-3.40019
0
LINE
8
BLACK
6
CONTINUOUS
10
13.039
20
-3.40019
11
13.039
21
-3.4
0
LINE
8
BLACK
6
CONTINUOUS
10
13.039
20
-3.4
11
13.039
21
-3.39995
0
LINE
8
BLACK
6
CONTINUOUS
10
13.039
20
-3.39995
11
13.039
21
-3.29995
0
LINE
8
BLACK
6
CONTINUOUS
10
13.039
20
-3.29995
11
13.039
21
-3.19995
0
LINE
8
BLACK
6
CONTINUOUS
10
13.039
20
-3.19995
11
13.039
21
-3.19995
0
LINE
8
BLACK
6
CONTINUOUS
10
13.039
20
-3.19995
11
13.039
21
-3.10005
0
LINE
8
BLACK
6
CONTINUOUS
10
13.039
20
-3.10005
11
13.039
21
-3.1
0
LINE
8
BLACK
6
CONTINUOUS
10
13.039
20
-3.1
11
13.039
21
-3.09981
0
LINE
8
BLACK
6
CONTINUOUS
10
13.039
20
-3.09981
11
13.0391
21
-3.09962
0
LINE
8
BLACK
6
CONTINUOUS
10
13.0391
20
-3.09962
11
13.0392
21
-3.09945
0
LINE
8
BLACK
6
CONTINUOUS
10
13.0392
20
-3.09945
11
13.0393
21
-3.0993
0
LINE
8
BLACK
6
CONTINUOUS
10
13.0393
20
-3.0993
11
13.0395
21
-3.09918
0
LINE
8
BLACK
6
CONTINUOUS
10
13.0395
20
-3.09918
11
13.0396
21
-3.09909
0
LINE
8
BLACK
6
CONTINUOUS
10
13.0396
20
-3.09909
11
13.0398
21
-3.09903
0
LINE
8
BLACK
6
CONTINUOUS
10
13.0398
20
-3.09903
11
13.04
21
-3.09902
0
LINE
8
BLACK
6
CONTINUOUS
10
13.04
20
-3.09902
11
13.04
21
-3.09901
0
LINE
8
BLACK
6
CONTINUOUS
10
13.04
20
-3.09901
11
13.04
21
-3.09902
0
LINE
8
BLACK
6
CONTINUOUS
10
13.1291
20
-3.39902
11
13.1309
21
-3.38048
0
LINE
8
BLACK
6
CONTINUOUS
10
13.1309
20
-3.38048
11
13.1309
21
-3.38047
0
LINE
8
BLACK
6
CONTINUOUS
10
13.1309
20
-3.38047
11
13.1309
21
-3.38038
0
LINE
8
BLACK
6
CONTINUOUS
10
13.1309
20
-3.38038
11
13.131
21
-3.38029
0
LINE
8
BLACK
6
CONTINUOUS
10
13.131
20
-3.38029
11
13.1366
21
-3.36161
0
LINE
8
BLACK
6
CONTINUOUS
10
13.1366
20
-3.36161
11
13.1366
21
-3.3616
0
LINE
8
BLACK
6
CONTINUOUS
10
13.1366
20
-3.3616
11
13.1366
21
-3.36151
0
LINE
8
BLACK
6
CONTINUOUS
10
13.1366
20
-3.36151
11
13.1367
21
-3.36143
0
LINE
8
BLACK
6
CONTINUOUS
10
13.1367
20
-3.36143
11
13.1458
21
-3.3442
0
LINE
8
BLACK
6
CONTINUOUS
10
13.1458
20
-3.3442
11
13.1458
21
-3.3442
0
LINE
8
BLACK
6
CONTINUOUS
10
13.1458
20
-3.3442
11
13.1458
21
-3.3442
0
LINE
8
BLACK
6
CONTINUOUS
10
13.1458
20
-3.3442
11
13.1458
21
-3.34419
0
LINE
8
BLACK
6
CONTINUOUS
10
13.1458
20
-3.34419
11
13.1459
21
-3.34411
0
LINE
8
BLACK
6
CONTINUOUS
10
13.1459
20
-3.34411
11
13.1459
21
-3.34404
0
LINE
8
BLACK
6
CONTINUOUS
10
13.1459
20
-3.34404
11
13.1583
21
-3.32891
0
LINE
8
BLACK
6
CONTINUOUS
10
13.1583
20
-3.32891
11
13.1583
21
-3.32891
0
LINE
8
BLACK
6
CONTINUOUS
10
13.1583
20
-3.32891
11
13.1583
21
-3.32891
0
LINE
8
BLACK
6
CONTINUOUS
10
13.1583
20
-3.32891
11
13.1583
21
-3.3289
0
LINE
8
BLACK
6
CONTINUOUS
10
13.1583
20
-3.3289
11
13.1584
21
-3.32884
0
LINE
8
BLACK
6
CONTINUOUS
10
13.1584
20
-3.32884
11
13.1584
21
-3.32878
0
LINE
8
BLACK
6
CONTINUOUS
10
13.1584
20
-3.32878
11
13.1735
21
-3.31634
0
LINE
8
BLACK
6
CONTINUOUS
10
13.1735
20
-3.31634
11
13.1735
21
-3.31633
0
LINE
8
BLACK
6
CONTINUOUS
10
13.1735
20
-3.31633
11
13.1735
21
-3.31628
0
LINE
8
BLACK
6
CONTINUOUS
10
13.1735
20
-3.31628
11
13.1736
21
-3.31623
0
LINE
8
BLACK
6
CONTINUOUS
10
13.1736
20
-3.31623
11
13.1908
21
-3.30695
0
LINE
8
BLACK
6
CONTINUOUS
10
13.1908
20
-3.30695
11
13.1908
21
-3.30695
0
LINE
8
BLACK
6
CONTINUOUS
10
13.1908
20
-3.30695
11
13.1908
21
-3.30695
0
LINE
8
BLACK
6
CONTINUOUS
10
13.1908
20
-3.30695
11
13.1908
21
-3.30694
0
LINE
8
BLACK
6
CONTINUOUS
10
13.1908
20
-3.30694
11
13.1909
21
-3.30691
0
LINE
8
BLACK
6
CONTINUOUS
10
13.1909
20
-3.30691
11
13.191
21
-3.30687
0
LINE
8
BLACK
6
CONTINUOUS
10
13.191
20
-3.30687
11
13.2096
21
-3.3011
0
LINE
8
BLACK
6
CONTINUOUS
10
13.2096
20
-3.3011
11
13.2096
21
-3.3011
0
LINE
8
BLACK
6
CONTINUOUS
10
13.2096
20
-3.3011
11
13.2096
21
-3.3011
0
LINE
8
BLACK
6
CONTINUOUS
10
13.2096
20
-3.3011
11
13.2097
21
-3.30108
0
LINE
8
BLACK
6
CONTINUOUS
10
13.2097
20
-3.30108
11
13.2098
21
-3.30106
0
LINE
8
BLACK
6
CONTINUOUS
10
13.2098
20
-3.30106
11
13.2292
21
-3.29902
0
LINE
8
BLACK
6
CONTINUOUS
10
13.2292
20
-3.29902
11
13.2292
21
-3.29902
0
LINE
8
BLACK
6
CONTINUOUS
10
13.2292
20
-3.29902
11
13.2293
21
-3.29902
0
LINE
8
BLACK
6
CONTINUOUS
10
13.2293
20
-3.29902
11
13.2293
21
-3.29902
0
LINE
8
BLACK
6
CONTINUOUS
10
13.2293
20
-3.29902
11
13.23
21
-3.29902
0
LINE
8
BLACK
6
CONTINUOUS
10
13.23
20
-3.29902
11
13.23
21
-3.29902
0
LINE
8
BLACK
6
CONTINUOUS
10
13.23
20
-3.29902
11
13.509
21
-3.29902
0
LINE
8
BLACK
6
CONTINUOUS
10
13.509
20
-3.29902
11
13.509
21
-3.20098
0
LINE
8
BLACK
6
CONTINUOUS
10
13.509
20
-3.20098
11
13.23
21
-3.20098
0
LINE
8
BLACK
6
CONTINUOUS
10
13.23
20
-3.20098
11
13.2299
21
-3.20098
0
LINE
8
BLACK
6
CONTINUOUS
10
13.2299
20
-3.20098
11
13.2299
21
-3.20098
0
LINE
8
BLACK
6
CONTINUOUS
10
13.2299
20
-3.20098
11
13.2105
21
-3.19908
0
LINE
8
BLACK
6
CONTINUOUS
10
13.2105
20
-3.19908
11
13.2105
21
-3.19907
0
LINE
8
BLACK
6
CONTINUOUS
10
13.2105
20
-3.19907
11
13.2104
21
-3.19905
0
LINE
8
BLACK
6
CONTINUOUS
10
13.2104
20
-3.19905
11
13.2103
21
-3.19904
0
LINE
8
BLACK
6
CONTINUOUS
10
13.2103
20
-3.19904
11
13.1916
21
-3.1934
0
LINE
8
BLACK
6
CONTINUOUS
10
13.1916
20
-3.1934
11
13.1916
21
-3.19339
0
LINE
8
BLACK
6
CONTINUOUS
10
13.1916
20
-3.19339
11
13.1915
21
-3.19336
0
LINE
8
BLACK
6
CONTINUOUS
10
13.1915
20
-3.19336
11
13.1914
21
-3.19332
0
LINE
8
BLACK
6
CONTINUOUS
10
13.1914
20
-3.19332
11
13.1742
21
-3.18416
0
LINE
8
BLACK
6
CONTINUOUS
10
13.1742
20
-3.18416
11
13.1742
21
-3.18415
0
LINE
8
BLACK
6
CONTINUOUS
10
13.1742
20
-3.18415
11
13.1741
21
-3.1841
0
LINE
8
BLACK
6
CONTINUOUS
10
13.1741
20
-3.1841
11
13.174
21
-3.18405
0
LINE
8
BLACK
6
CONTINUOUS
10
13.174
20
-3.18405
11
13.1589
21
-3.17172
0
LINE
8
BLACK
6
CONTINUOUS
10
13.1589
20
-3.17172
11
13.1589
21
-3.17171
0
LINE
8
BLACK
6
CONTINUOUS
10
13.1589
20
-3.17171
11
13.1588
21
-3.17165
0
LINE
8
BLACK
6
CONTINUOUS
10
13.1588
20
-3.17165
11
13.1588
21
-3.17158
0
LINE
8
BLACK
6
CONTINUOUS
10
13.1588
20
-3.17158
11
13.1463
21
-3.15655
0
LINE
8
BLACK
6
CONTINUOUS
10
13.1463
20
-3.15655
11
13.1463
21
-3.15654
0
LINE
8
BLACK
6
CONTINUOUS
10
13.1463
20
-3.15654
11
13.1463
21
-3.15646
0
LINE
8
BLACK
6
CONTINUOUS
10
13.1463
20
-3.15646
11
13.1462
21
-3.15639
0
LINE
8
BLACK
6
CONTINUOUS
10
13.1462
20
-3.15639
11
13.1369
21
-3.13922
0
LINE
8
BLACK
6
CONTINUOUS
10
13.1369
20
-3.13922
11
13.1369
21
-3.13921
0
LINE
8
BLACK
6
CONTINUOUS
10
13.1369
20
-3.13921
11
13.1369
21
-3.13912
0
LINE
8
BLACK
6
CONTINUOUS
10
13.1369
20
-3.13912
11
13.1369
21
-3.13904
0
LINE
8
BLACK
6
CONTINUOUS
10
13.1369
20
-3.13904
11
13.1311
21
-3.1204
0
LINE
8
BLACK
6
CONTINUOUS
10
13.1311
20
-3.1204
11
13.1311
21
-3.12039
0
LINE
8
BLACK
6
CONTINUOUS
10
13.1311
20
-3.12039
11
13.1311
21
-3.1203
0
LINE
8
BLACK
6
CONTINUOUS
10
13.1311
20
-3.1203
11
13.1311
21
-3.12021
0
LINE
8
BLACK
6
CONTINUOUS
10
13.1311
20
-3.12021
11
13.129
21
-3.10098
0
LINE
8
BLACK
6
CONTINUOUS
10
13.129
20
-3.10098
11
13.041
21
-3.10098
0
LINE
8
BLACK
6
CONTINUOUS
10
13.041
20
-3.10098
11
13.041
21
-3.39902
0
LINE
8
BLACK
6
CONTINUOUS
10
13.041
20
-3.39902
11
13.1291
21
-3.39902
0
LINE
8
BLACK
6
CONTINUOUS
10
13.13
20
-2.39902
11
13.13
21
-2.39902
0
LINE
8
BLACK
6
CONTINUOUS
10
13.13
20
-2.39902
11
13.1302
21
-2.39903
0
LINE
8
BLACK
6
CONTINUOUS
10
13.1302
20
-2.39903
11
13.1304
21
-2.39909
0
LINE
8
BLACK
6
CONTINUOUS
10
13.1304
20
-2.39909
11
13.1305
21
-2.39918
0
LINE
8
BLACK
6
CONTINUOUS
10
13.1305
20
-2.39918
11
13.1307
21
-2.3993
0
LINE
8
BLACK
6
CONTINUOUS
10
13.1307
20
-2.3993
11
13.1308
21
-2.39945
0
LINE
8
BLACK
6
CONTINUOUS
10
13.1308
20
-2.39945
11
13.1309
21
-2.39962
0
LINE
8
BLACK
6
CONTINUOUS
10
13.1309
20
-2.39962
11
13.131
21
-2.39981
0
LINE
8
BLACK
6
CONTINUOUS
10
13.131
20
-2.39981
11
13.131
21
-2.4
0
LINE
8
BLACK
6
CONTINUOUS
10
13.131
20
-2.4
11
13.131
21
-2.40005
0
LINE
8
BLACK
6
CONTINUOUS
10
13.131
20
-2.40005
11
13.131
21
-2.99995
0
LINE
8
BLACK
6
CONTINUOUS
10
13.131
20
-2.99995
11
13.131
21
-3
0
LINE
8
BLACK
6
CONTINUOUS
10
13.131
20
-3
11
13.131
21
-3.00005
0
LINE
8
BLACK
6
CONTINUOUS
10
13.131
20
-3.00005
11
13.131
21
-3.00019
0
LINE
8
BLACK
6
CONTINUOUS
10
13.131
20
-3.00019
11
13.1309
21
-3.00038
0
LINE
8
BLACK
6
CONTINUOUS
10
13.1309
20
-3.00038
11
13.1308
21
-3.00055
0
LINE
8
BLACK
6
CONTINUOUS
10
13.1308
20
-3.00055
11
13.1307
21
-3.0007
0
LINE
8
BLACK
6
CONTINUOUS
10
13.1307
20
-3.0007
11
13.1305
21
-3.00082
0
LINE
8
BLACK
6
CONTINUOUS
10
13.1305
20
-3.00082
11
13.1304
21
-3.00091
0
LINE
8
BLACK
6
CONTINUOUS
10
13.1304
20
-3.00091
11
13.1302
21
-3.00097
0
LINE
8
BLACK
6
CONTINUOUS
10
13.1302
20
-3.00097
11
13.13
21
-3.00099
0
LINE
8
BLACK
6
CONTINUOUS
10
13.13
20
-3.00099
11
13.13
21
-3.00098
0
LINE
8
BLACK
6
CONTINUOUS
10
13.13
20
-3.00098
11
13.04
21
-3.00098
0
LINE
8
BLACK
6
CONTINUOUS
10
13.04
20
-3.00098
11
13.04
21
-3.00099
0
LINE
8
BLACK
6
CONTINUOUS
10
13.04
20
-3.00099
11
13.04
21
-3.00098
0
LINE
8
BLACK
6
CONTINUOUS
10
13.04
20
-3.00098
11
13.04
21
-3.00098
0
LINE
8
BLACK
6
CONTINUOUS
10
13.04
20
-3.00098
11
13.0398
21
-3.00097
0
LINE
8
BLACK
6
CONTINUOUS
10
13.0398
20
-3.00097
11
13.0396
21
-3.00091
0
LINE
8
BLACK
6
CONTINUOUS
10
13.0396
20
-3.00091
11
13.0395
21
-3.00082
0
LINE
8
BLACK
6
CONTINUOUS
10
13.0395
20
-3.00082
11
13.0393
21
-3.0007
0
LINE
8
BLACK
6
CONTINUOUS
10
13.0393
20
-3.0007
11
13.0392
21
-3.00055
0
LINE
8
BLACK
6
CONTINUOUS
10
13.0392
20
-3.00055
11
13.0391
21
-3.00038
0
LINE
8
BLACK
6
CONTINUOUS
10
13.0391
20
-3.00038
11
13.039
21
-3.00019
0
LINE
8
BLACK
6
CONTINUOUS
10
13.039
20
-3.00019
11
13.039
21
-3
0
LINE
8
BLACK
6
CONTINUOUS
10
13.039
20
-3
11
13.039
21
-2.99995
0
LINE
8
BLACK
6
CONTINUOUS
10
13.039
20
-2.99995
11
13.039
21
-2.40005
0
LINE
8
BLACK
6
CONTINUOUS
10
13.039
20
-2.40005
11
13.039
21
-2.4
0
LINE
8
BLACK
6
CONTINUOUS
10
13.039
20
-2.4
11
13.039
21
-2.39981
0
LINE
8
BLACK
6
CONTINUOUS
10
13.039
20
-2.39981
11
13.0391
21
-2.39962
0
LINE
8
BLACK
6
CONTINUOUS
10
13.0391
20
-2.39962
11
13.0392
21
-2.39945
0
LINE
8
BLACK
6
CONTINUOUS
10
13.0392
20
-2.39945
11
13.0393
21
-2.3993
0
LINE
8
BLACK
6
CONTINUOUS
10
13.0393
20
-2.3993
11
13.0395
21
-2.39918
0
LINE
8
BLACK
6
CONTINUOUS
10
13.0395
20
-2.39918
11
13.0396
21
-2.39909
0
LINE
8
BLACK
6
CONTINUOUS
10
13.0396
20
-2.39909
11
13.0398
21
-2.39903
0
LINE
8
BLACK
6
CONTINUOUS
10
13.0398
20
-2.39903
11
13.04
21
-2.39902
0
LINE
8
BLACK
6
CONTINUOUS
10
13.04
20
-2.39902
11
13.04
21
-2.39901
0
LINE
8
BLACK
6
CONTINUOUS
10
13.04
20
-2.39901
11
13.04
21
-2.39902
0
LINE
8
BLACK
6
CONTINUOUS
10
13.04
20
-2.39902
11
13.13
21
-2.39902
0
LINE
8
BLACK
6
CONTINUOUS
10
13.13
20
-2.39902
11
13.13
21
-2.39901
0
LINE
8
BLACK
6
CONTINUOUS
10
13.13
20
-2.39901
11
13.13
21
-2.39902
0
LINE
8
BLACK
6
CONTINUOUS
10
13.041
20
-2.40098
11
13.041
21
-2.99902
0
LINE
8
BLACK
6
CONTINUOUS
10
13.041
20
-2.99902
11
13.129
21
-2.99902
0
LINE
8
BLACK
6
CONTINUOUS
10
13.129
20
-2.99902
11
13.129
21
-2.40098
0
LINE
8
BLACK
6
CONTINUOUS
10
13.129
20
-2.40098
11
13.041
21
-2.40098
0
LINE
8
BLACK
6
CONTINUOUS
10
5.93005
20
-2.34902
11
6.03005
21
-2.34902
0
LINE
8
BLACK
6
CONTINUOUS
10
6.03005
20
-2.34902
11
6.03019
21
-2.34903
0
LINE
8
BLACK
6
CONTINUOUS
10
6.03019
20
-2.34903
11
6.03038
21
-2.34909
0
LINE
8
BLACK
6
CONTINUOUS
10
6.03038
20
-2.34909
11
6.03055
21
-2.34918
0
LINE
8
BLACK
6
CONTINUOUS
10
6.03055
20
-2.34918
11
6.0307
21
-2.3493
0
LINE
8
BLACK
6
CONTINUOUS
10
6.0307
20
-2.3493
11
6.03082
21
-2.34945
0
LINE
8
BLACK
6
CONTINUOUS
10
6.03082
20
-2.34945
11
6.03091
21
-2.34962
0
LINE
8
BLACK
6
CONTINUOUS
10
6.03091
20
-2.34962
11
6.03097
21
-2.34981
0
LINE
8
BLACK
6
CONTINUOUS
10
6.03097
20
-2.34981
11
6.03099
21
-2.35
0
LINE
8
BLACK
6
CONTINUOUS
10
6.03099
20
-2.35
11
6.03098
21
-2.35005
0
LINE
8
BLACK
6
CONTINUOUS
10
6.03098
20
-2.35005
11
6.03099
21
-2.35064
0
LINE
8
BLACK
6
CONTINUOUS
10
6.03099
20
-2.35064
11
6.03301
21
-2.36991
0
LINE
8
BLACK
6
CONTINUOUS
10
6.03301
20
-2.36991
11
6.03873
21
-2.38837
0
LINE
8
BLACK
6
CONTINUOUS
10
6.03873
20
-2.38837
11
6.04792
21
-2.40537
0
LINE
8
BLACK
6
CONTINUOUS
10
6.04792
20
-2.40537
11
6.06023
21
-2.42026
0
LINE
8
BLACK
6
CONTINUOUS
10
6.06023
20
-2.42026
11
6.07521
21
-2.43247
0
LINE
8
BLACK
6
CONTINUOUS
10
6.07521
20
-2.43247
11
6.09227
21
-2.44154
0
LINE
8
BLACK
6
CONTINUOUS
10
6.09227
20
-2.44154
11
6.11077
21
-2.44713
0
LINE
8
BLACK
6
CONTINUOUS
10
6.11077
20
-2.44713
11
6.13005
21
-2.44902
0
LINE
8
BLACK
6
CONTINUOUS
10
6.13005
20
-2.44902
11
6.22005
21
-2.44902
0
LINE
8
BLACK
6
CONTINUOUS
10
6.22005
20
-2.44902
11
6.2201
21
-2.44902
0
LINE
8
BLACK
6
CONTINUOUS
10
6.2201
20
-2.44902
11
6.2201
21
-2.44902
0
LINE
8
BLACK
6
CONTINUOUS
10
6.2201
20
-2.44902
11
6.23952
21
-2.45092
0
LINE
8
BLACK
6
CONTINUOUS
10
6.23952
20
-2.45092
11
6.23953
21
-2.45093
0
LINE
8
BLACK
6
CONTINUOUS
10
6.23953
20
-2.45093
11
6.23962
21
-2.45095
0
LINE
8
BLACK
6
CONTINUOUS
10
6.23962
20
-2.45095
11
6.23971
21
-2.45096
0
LINE
8
BLACK
6
CONTINUOUS
10
6.23971
20
-2.45096
11
6.25839
21
-2.4566
0
LINE
8
BLACK
6
CONTINUOUS
10
6.25839
20
-2.4566
11
6.2584
21
-2.45661
0
LINE
8
BLACK
6
CONTINUOUS
10
6.2584
20
-2.45661
11
6.25849
21
-2.45664
0
LINE
8
BLACK
6
CONTINUOUS
10
6.25849
20
-2.45664
11
6.25857
21
-2.45668
0
LINE
8
BLACK
6
CONTINUOUS
10
6.25857
20
-2.45668
11
6.2758
21
-2.46584
0
LINE
8
BLACK
6
CONTINUOUS
10
6.2758
20
-2.46584
11
6.2758
21
-2.46584
0
LINE
8
BLACK
6
CONTINUOUS
10
6.2758
20
-2.46584
11
6.2758
21
-2.46584
0
LINE
8
BLACK
6
CONTINUOUS
10
6.2758
20
-2.46584
11
6.27581
21
-2.46585
0
LINE
8
BLACK
6
CONTINUOUS
10
6.27581
20
-2.46585
11
6.27589
21
-2.4659
0
LINE
8
BLACK
6
CONTINUOUS
10
6.27589
20
-2.4659
11
6.27596
21
-2.46595
0
LINE
8
BLACK
6
CONTINUOUS
10
6.27596
20
-2.46595
11
6.29109
21
-2.47828
0
LINE
8
BLACK
6
CONTINUOUS
10
6.29109
20
-2.47828
11
6.29109
21
-2.47828
0
LINE
8
BLACK
6
CONTINUOUS
10
6.29109
20
-2.47828
11
6.29109
21
-2.47828
0
LINE
8
BLACK
6
CONTINUOUS
10
6.29109
20
-2.47828
11
6.2911
21
-2.47829
0
LINE
8
BLACK
6
CONTINUOUS
10
6.2911
20
-2.47829
11
6.29116
21
-2.47835
0
LINE
8
BLACK
6
CONTINUOUS
10
6.29116
20
-2.47835
11
6.29122
21
-2.47842
0
LINE
8
BLACK
6
CONTINUOUS
10
6.29122
20
-2.47842
11
6.30366
21
-2.49345
0
LINE
8
BLACK
6
CONTINUOUS
10
6.30366
20
-2.49345
11
6.30367
21
-2.49346
0
LINE
8
BLACK
6
CONTINUOUS
10
6.30367
20
-2.49346
11
6.30372
21
-2.49354
0
LINE
8
BLACK
6
CONTINUOUS
10
6.30372
20
-2.49354
11
6.30377
21
-2.49361
0
LINE
8
BLACK
6
CONTINUOUS
10
6.30377
20
-2.49361
11
6.31305
21
-2.51078
0
LINE
8
BLACK
6
CONTINUOUS
10
6.31305
20
-2.51078
11
6.31305
21
-2.51078
0
LINE
8
BLACK
6
CONTINUOUS
10
6.31305
20
-2.51078
11
6.31305
21
-2.51078
0
LINE
8
BLACK
6
CONTINUOUS
10
6.31305
20
-2.51078
11
6.31306
21
-2.51079
0
LINE
8
BLACK
6
CONTINUOUS
10
6.31306
20
-2.51079
11
6.31309
21
-2.51088
0
LINE
8
BLACK
6
CONTINUOUS
10
6.31309
20
-2.51088
11
6.31313
21
-2.51096
0
LINE
8
BLACK
6
CONTINUOUS
10
6.31313
20
-2.51096
11
6.3189
21
-2.5296
0
LINE
8
BLACK
6
CONTINUOUS
10
6.3189
20
-2.5296
11
6.3189
21
-2.52961
0
LINE
8
BLACK
6
CONTINUOUS
10
6.3189
20
-2.52961
11
6.31892
21
-2.5297
0
LINE
8
BLACK
6
CONTINUOUS
10
6.31892
20
-2.5297
11
6.31894
21
-2.52979
0
LINE
8
BLACK
6
CONTINUOUS
10
6.31894
20
-2.52979
11
6.32098
21
-2.5492
0
LINE
8
BLACK
6
CONTINUOUS
10
6.32098
20
-2.5492
11
6.32098
21
-2.54921
0
LINE
8
BLACK
6
CONTINUOUS
10
6.32098
20
-2.54921
11
6.32098
21
-2.54926
0
LINE
8
BLACK
6
CONTINUOUS
10
6.32098
20
-2.54926
11
6.32098
21
-2.5493
0
LINE
8
BLACK
6
CONTINUOUS
10
6.32098
20
-2.5493
11
6.32098
21
-2.54995
0
LINE
8
BLACK
6
CONTINUOUS
10
6.32098
20
-2.54995
11
6.32098
21
-2.54995
0
LINE
8
BLACK
6
CONTINUOUS
10
6.32098
20
-2.54995
11
6.32098
21
-2.64995
0
LINE
8
BLACK
6
CONTINUOUS
10
6.32098
20
-2.64995
11
6.32099
21
-2.65
0
LINE
8
BLACK
6
CONTINUOUS
10
6.32099
20
-2.65
11
6.32097
21
-2.65019
0
LINE
8
BLACK
6
CONTINUOUS
10
6.32097
20
-2.65019
11
6.32091
21
-2.65038
0
LINE
8
BLACK
6
CONTINUOUS
10
6.32091
20
-2.65038
11
6.32082
21
-2.65055
0
LINE
8
BLACK
6
CONTINUOUS
10
6.32082
20
-2.65055
11
6.3207
21
-2.6507
0
LINE
8
BLACK
6
CONTINUOUS
10
6.3207
20
-2.6507
11
6.32055
21
-2.65082
0
LINE
8
BLACK
6
CONTINUOUS
10
6.32055
20
-2.65082
11
6.32038
21
-2.65091
0
LINE
8
BLACK
6
CONTINUOUS
10
6.32038
20
-2.65091
11
6.32019
21
-2.65097
0
LINE
8
BLACK
6
CONTINUOUS
10
6.32019
20
-2.65097
11
6.32005
21
-2.65098
0
LINE
8
BLACK
6
CONTINUOUS
10
6.32005
20
-2.65098
11
6.32005
21
-2.65098
0
LINE
8
BLACK
6
CONTINUOUS
10
6.32005
20
-2.65098
11
6.32
21
-2.65099
0
LINE
8
BLACK
6
CONTINUOUS
10
6.32
20
-2.65099
11
6.31995
21
-2.65098
0
LINE
8
BLACK
6
CONTINUOUS
10
6.31995
20
-2.65098
11
6.21995
21
-2.65098
0
LINE
8
BLACK
6
CONTINUOUS
10
6.21995
20
-2.65098
11
6.21981
21
-2.65097
0
LINE
8
BLACK
6
CONTINUOUS
10
6.21981
20
-2.65097
11
6.21962
21
-2.65091
0
LINE
8
BLACK
6
CONTINUOUS
10
6.21962
20
-2.65091
11
6.21945
21
-2.65082
0
LINE
8
BLACK
6
CONTINUOUS
10
6.21945
20
-2.65082
11
6.2193
21
-2.6507
0
LINE
8
BLACK
6
CONTINUOUS
10
6.2193
20
-2.6507
11
6.21918
21
-2.65055
0
LINE
8
BLACK
6
CONTINUOUS
10
6.21918
20
-2.65055
11
6.21909
21
-2.65038
0
LINE
8
BLACK
6
CONTINUOUS
10
6.21909
20
-2.65038
11
6.21903
21
-2.65019
0
LINE
8
BLACK
6
CONTINUOUS
10
6.21903
20
-2.65019
11
6.21901
21
-2.65
0
LINE
8
BLACK
6
CONTINUOUS
10
6.21901
20
-2.65
11
6.21902
21
-2.64995
0
LINE
8
BLACK
6
CONTINUOUS
10
6.21902
20
-2.64995
11
6.21901
21
-2.64936
0
LINE
8
BLACK
6
CONTINUOUS
10
6.21901
20
-2.64936
11
6.21699
21
-2.63009
0
LINE
8
BLACK
6
CONTINUOUS
10
6.21699
20
-2.63009
11
6.21127
21
-2.61163
0
LINE
8
BLACK
6
CONTINUOUS
10
6.21127
20
-2.61163
11
6.20208
21
-2.59463
0
LINE
8
BLACK
6
CONTINUOUS
10
6.20208
20
-2.59463
11
6.18977
21
-2.57974
0
LINE
8
BLACK
6
CONTINUOUS
10
6.18977
20
-2.57974
11
6.17479
21
-2.56753
0
LINE
8
BLACK
6
CONTINUOUS
10
6.17479
20
-2.56753
11
6.15773
21
-2.55846
0
LINE
8
BLACK
6
CONTINUOUS
10
6.15773
20
-2.55846
11
6.13923
21
-2.55287
0
LINE
8
BLACK
6
CONTINUOUS
10
6.13923
20
-2.55287
11
6.11995
21
-2.55098
0
LINE
8
BLACK
6
CONTINUOUS
10
6.11995
20
-2.55098
11
6.02995
21
-2.55098
0
LINE
8
BLACK
6
CONTINUOUS
10
6.02995
20
-2.55098
11
6.0299
21
-2.55098
0
LINE
8
BLACK
6
CONTINUOUS
10
6.0299
20
-2.55098
11
6.0299
21
-2.55098
0
LINE
8
BLACK
6
CONTINUOUS
10
6.0299
20
-2.55098
11
6.01048
21
-2.54908
0
LINE
8
BLACK
6
CONTINUOUS
10
6.01048
20
-2.54908
11
6.01047
21
-2.54907
0
LINE
8
BLACK
6
CONTINUOUS
10
6.01047
20
-2.54907
11
6.01038
21
-2.54905
0
LINE
8
BLACK
6
CONTINUOUS
10
6.01038
20
-2.54905
11
6.01029
21
-2.54904
0
LINE
8
BLACK
6
CONTINUOUS
10
6.01029
20
-2.54904
11
5.99161
21
-2.5434
0
LINE
8
BLACK
6
CONTINUOUS
10
5.99161
20
-2.5434
11
5.9916
21
-2.54339
0
LINE
8
BLACK
6
CONTINUOUS
10
5.9916
20
-2.54339
11
5.99151
21
-2.54336
0
LINE
8
BLACK
6
CONTINUOUS
10
5.99151
20
-2.54336
11
5.99143
21
-2.54332
0
LINE
8
BLACK
6
CONTINUOUS
10
5.99143
20
-2.54332
11
5.9742
21
-2.53416
0
LINE
8
BLACK
6
CONTINUOUS
10
5.9742
20
-2.53416
11
5.97419
21
-2.53415
0
LINE
8
BLACK
6
CONTINUOUS
10
5.97419
20
-2.53415
11
5.97411
21
-2.5341
0
LINE
8
BLACK
6
CONTINUOUS
10
5.97411
20
-2.5341
11
5.97404
21
-2.53405
0
LINE
8
BLACK
6
CONTINUOUS
10
5.97404
20
-2.53405
11
5.95891
21
-2.52172
0
LINE
8
BLACK
6
CONTINUOUS
10
5.95891
20
-2.52172
11
5.9589
21
-2.52171
0
LINE
8
BLACK
6
CONTINUOUS
10
5.9589
20
-2.52171
11
5.95884
21
-2.52165
0
LINE
8
BLACK
6
CONTINUOUS
10
5.95884
20
-2.52165
11
5.95878
21
-2.52158
0
LINE
8
BLACK
6
CONTINUOUS
10
5.95878
20
-2.52158
11
5.94634
21
-2.50655
0
LINE
8
BLACK
6
CONTINUOUS
10
5.94634
20
-2.50655
11
5.94633
21
-2.50654
0
LINE
8
BLACK
6
CONTINUOUS
10
5.94633
20
-2.50654
11
5.94628
21
-2.50646
0
LINE
8
BLACK
6
CONTINUOUS
10
5.94628
20
-2.50646
11
5.94623
21
-2.50639
0
LINE
8
BLACK
6
CONTINUOUS
10
5.94623
20
-2.50639
11
5.93695
21
-2.48922
0
LINE
8
BLACK
6
CONTINUOUS
10
5.93695
20
-2.48922
11
5.93694
21
-2.48921
0
LINE
8
BLACK
6
CONTINUOUS
10
5.93694
20
-2.48921
11
5.93691
21
-2.48912
0
LINE
8
BLACK
6
CONTINUOUS
10
5.93691
20
-2.48912
11
5.93687
21
-2.48904
0
LINE
8
BLACK
6
CONTINUOUS
10
5.93687
20
-2.48904
11
5.9311
21
-2.4704
0
LINE
8
BLACK
6
CONTINUOUS
10
5.9311
20
-2.4704
11
5.9311
21
-2.47039
0
LINE
8
BLACK
6
CONTINUOUS
10
5.9311
20
-2.47039
11
5.93108
21
-2.4703
0
LINE
8
BLACK
6
CONTINUOUS
10
5.93108
20
-2.4703
11
5.93106
21
-2.47021
0
LINE
8
BLACK
6
CONTINUOUS
10
5.93106
20
-2.47021
11
5.92902
21
-2.4508
0
LINE
8
BLACK
6
CONTINUOUS
10
5.92902
20
-2.4508
11
5.92902
21
-2.45079
0
LINE
8
BLACK
6
CONTINUOUS
10
5.92902
20
-2.45079
11
5.92902
21
-2.45074
0
LINE
8
BLACK
6
CONTINUOUS
10
5.92902
20
-2.45074
11
5.92902
21
-2.4507
0
LINE
8
BLACK
6
CONTINUOUS
10
5.92902
20
-2.4507
11
5.92902
21
-2.45005
0
LINE
8
BLACK
6
CONTINUOUS
10
5.92902
20
-2.45005
11
5.92902
21
-2.45005
0
LINE
8
BLACK
6
CONTINUOUS
10
5.92902
20
-2.45005
11
5.92902
21
-2.45001
0
LINE
8
BLACK
6
CONTINUOUS
10
5.92902
20
-2.45001
11
5.92902
21
-2.45
0
LINE
8
BLACK
6
CONTINUOUS
10
5.92902
20
-2.45
11
5.92902
21
-2.44999
0
LINE
8
BLACK
6
CONTINUOUS
10
5.92902
20
-2.44999
11
5.92902
21
-2.35005
0
LINE
8
BLACK
6
CONTINUOUS
10
5.92902
20
-2.35005
11
5.92901
21
-2.35
0
LINE
8
BLACK
6
CONTINUOUS
10
5.92901
20
-2.35
11
5.92903
21
-2.34981
0
LINE
8
BLACK
6
CONTINUOUS
10
5.92903
20
-2.34981
11
5.92909
21
-2.34962
0
LINE
8
BLACK
6
CONTINUOUS
10
5.92909
20
-2.34962
11
5.92918
21
-2.34945
0
LINE
8
BLACK
6
CONTINUOUS
10
5.92918
20
-2.34945
11
5.9293
21
-2.3493
0
LINE
8
BLACK
6
CONTINUOUS
10
5.9293
20
-2.3493
11
5.92945
21
-2.34918
0
LINE
8
BLACK
6
CONTINUOUS
10
5.92945
20
-2.34918
11
5.92962
21
-2.34909
0
LINE
8
BLACK
6
CONTINUOUS
10
5.92962
20
-2.34909
11
5.92981
21
-2.34903
0
LINE
8
BLACK
6
CONTINUOUS
10
5.92981
20
-2.34903
11
5.92995
21
-2.34902
0
LINE
8
BLACK
6
CONTINUOUS
10
5.92995
20
-2.34902
11
5.93
21
-2.34901
0
LINE
8
BLACK
6
CONTINUOUS
10
5.93
20
-2.34901
11
5.93005
21
-2.34902
0
LINE
8
BLACK
6
CONTINUOUS
10
5.93098
20
-2.35098
11
5.93098
21
-2.45
0
LINE
8
BLACK
6
CONTINUOUS
10
5.93098
20
-2.45
11
5.93099
21
-2.45064
0
LINE
8
BLACK
6
CONTINUOUS
10
5.93099
20
-2.45064
11
5.93301
21
-2.46991
0
LINE
8
BLACK
6
CONTINUOUS
10
5.93301
20
-2.46991
11
5.93873
21
-2.48837
0
LINE
8
BLACK
6
CONTINUOUS
10
5.93873
20
-2.48837
11
5.94792
21
-2.50537
0
LINE
8
BLACK
6
CONTINUOUS
10
5.94792
20
-2.50537
11
5.96023
21
-2.52026
0
LINE
8
BLACK
6
CONTINUOUS
10
5.96023
20
-2.52026
11
5.97521
21
-2.53247
0
LINE
8
BLACK
6
CONTINUOUS
10
5.97521
20
-2.53247
11
5.99227
21
-2.54154
0
LINE
8
BLACK
6
CONTINUOUS
10
5.99227
20
-2.54154
11
6.01077
21
-2.54713
0
LINE
8
BLACK
6
CONTINUOUS
10
6.01077
20
-2.54713
11
6.03005
21
-2.54902
0
LINE
8
BLACK
6
CONTINUOUS
10
6.03005
20
-2.54902
11
6.12005
21
-2.54902
0
LINE
8
BLACK
6
CONTINUOUS
10
6.12005
20
-2.54902
11
6.1201
21
-2.54902
0
LINE
8
BLACK
6
CONTINUOUS
10
6.1201
20
-2.54902
11
6.1201
21
-2.54902
0
LINE
8
BLACK
6
CONTINUOUS
10
6.1201
20
-2.54902
11
6.13952
21
-2.55092
0
LINE
8
BLACK
6
CONTINUOUS
10
6.13952
20
-2.55092
11
6.13953
21
-2.55093
0
LINE
8
BLACK
6
CONTINUOUS
10
6.13953
20
-2.55093
11
6.13962
21
-2.55095
0
LINE
8
BLACK
6
CONTINUOUS
10
6.13962
20
-2.55095
11
6.13971
21
-2.55096
0
LINE
8
BLACK
6
CONTINUOUS
10
6.13971
20
-2.55096
11
6.15839
21
-2.5566
0
LINE
8
BLACK
6
CONTINUOUS
10
6.15839
20
-2.5566
11
6.1584
21
-2.55661
0
LINE
8
BLACK
6
CONTINUOUS
10
6.1584
20
-2.55661
11
6.15849
21
-2.55664
0
LINE
8
BLACK
6
CONTINUOUS
10
6.15849
20
-2.55664
11
6.15857
21
-2.55668
0
LINE
8
BLACK
6
CONTINUOUS
10
6.15857
20
-2.55668
11
6.1758
21
-2.56584
0
LINE
8
BLACK
6
CONTINUOUS
10
6.1758
20
-2.56584
11
6.1758
21
-2.56584
0
LINE
8
BLACK
6
CONTINUOUS
10
6.1758
20
-2.56584
11
6.1758
21
-2.56584
0
LINE
8
BLACK
6
CONTINUOUS
10
6.1758
20
-2.56584
11
6.17581
21
-2.56585
0
LINE
8
BLACK
6
CONTINUOUS
10
6.17581
20
-2.56585
11
6.17589
21
-2.5659
0
LINE
8
BLACK
6
CONTINUOUS
10
6.17589
20
-2.5659
11
6.17596
21
-2.56595
0
LINE
8
BLACK
6
CONTINUOUS
10
6.17596
20
-2.56595
11
6.19109
21
-2.57828
0
LINE
8
BLACK
6
CONTINUOUS
10
6.19109
20
-2.57828
11
6.19109
21
-2.57828
0
LINE
8
BLACK
6
CONTINUOUS
10
6.19109
20
-2.57828
11
6.19109
21
-2.57828
0
LINE
8
BLACK
6
CONTINUOUS
10
6.19109
20
-2.57828
11
6.1911
21
-2.57829
0
LINE
8
BLACK
6
CONTINUOUS
10
6.1911
20
-2.57829
11
6.19116
21
-2.57835
0
LINE
8
BLACK
6
CONTINUOUS
10
6.19116
20
-2.57835
11
6.19122
21
-2.57842
0
LINE
8
BLACK
6
CONTINUOUS
10
6.19122
20
-2.57842
11
6.20366
21
-2.59345
0
LINE
8
BLACK
6
CONTINUOUS
10
6.20366
20
-2.59345
11
6.20367
21
-2.59346
0
LINE
8
BLACK
6
CONTINUOUS
10
6.20367
20
-2.59346
11
6.20372
21
-2.59354
0
LINE
8
BLACK
6
CONTINUOUS
10
6.20372
20
-2.59354
11
6.20377
21
-2.59361
0
LINE
8
BLACK
6
CONTINUOUS
10
6.20377
20
-2.59361
11
6.21305
21
-2.61078
0
LINE
8
BLACK
6
CONTINUOUS
10
6.21305
20
-2.61078
11
6.21305
21
-2.61078
0
LINE
8
BLACK
6
CONTINUOUS
10
6.21305
20
-2.61078
11
6.21305
21
-2.61078
0
LINE
8
BLACK
6
CONTINUOUS
10
6.21305
20
-2.61078
11
6.21306
21
-2.61079
0
LINE
8
BLACK
6
CONTINUOUS
10
6.21306
20
-2.61079
11
6.21309
21
-2.61088
0
LINE
8
BLACK
6
CONTINUOUS
10
6.21309
20
-2.61088
11
6.21313
21
-2.61096
0
LINE
8
BLACK
6
CONTINUOUS
10
6.21313
20
-2.61096
11
6.2189
21
-2.6296
0
LINE
8
BLACK
6
CONTINUOUS
10
6.2189
20
-2.6296
11
6.2189
21
-2.62961
0
LINE
8
BLACK
6
CONTINUOUS
10
6.2189
20
-2.62961
11
6.21892
21
-2.6297
0
LINE
8
BLACK
6
CONTINUOUS
10
6.21892
20
-2.6297
11
6.21894
21
-2.62979
0
LINE
8
BLACK
6
CONTINUOUS
10
6.21894
20
-2.62979
11
6.22096
21
-2.64902
0
LINE
8
BLACK
6
CONTINUOUS
10
6.22096
20
-2.64902
11
6.31902
21
-2.64902
0
LINE
8
BLACK
6
CONTINUOUS
10
6.31902
20
-2.64902
11
6.31902
21
-2.55
0
LINE
8
BLACK
6
CONTINUOUS
10
6.31902
20
-2.55
11
6.31902
21
-2.55
0
LINE
8
BLACK
6
CONTINUOUS
10
6.31902
20
-2.55
11
6.31901
21
-2.54936
0
LINE
8
BLACK
6
CONTINUOUS
10
6.31901
20
-2.54936
11
6.31699
21
-2.53009
0
LINE
8
BLACK
6
CONTINUOUS
10
6.31699
20
-2.53009
11
6.31127
21
-2.51163
0
LINE
8
BLACK
6
CONTINUOUS
10
6.31127
20
-2.51163
11
6.30208
21
-2.49463
0
LINE
8
BLACK
6
CONTINUOUS
10
6.30208
20
-2.49463
11
6.28977
21
-2.47974
0
LINE
8
BLACK
6
CONTINUOUS
10
6.28977
20
-2.47974
11
6.27479
21
-2.46753
0
LINE
8
BLACK
6
CONTINUOUS
10
6.27479
20
-2.46753
11
6.25773
21
-2.45846
0
LINE
8
BLACK
6
CONTINUOUS
10
6.25773
20
-2.45846
11
6.23923
21
-2.45287
0
LINE
8
BLACK
6
CONTINUOUS
10
6.23923
20
-2.45287
11
6.21995
21
-2.45098
0
LINE
8
BLACK
6
CONTINUOUS
10
6.21995
20
-2.45098
11
6.12995
21
-2.45098
0
LINE
8
BLACK
6
CONTINUOUS
10
6.12995
20
-2.45098
11
6.1299
21
-2.45098
0
LINE
8
BLACK
6
CONTINUOUS
10
6.1299
20
-2.45098
11
6.1299
21
-2.45098
0
LINE
8
BLACK
6
CONTINUOUS
10
6.1299
20
-2.45098
11
6.11048
21
-2.44908
0
LINE
8
BLACK
6
CONTINUOUS
10
6.11048
20
-2.44908
11
6.11047
21
-2.44907
0
LINE
8
BLACK
6
CONTINUOUS
10
6.11047
20
-2.44907
11
6.11038
21
-2.44905
0
LINE
8
BLACK
6
CONTINUOUS
10
6.11038
20
-2.44905
11
6.11029
21
-2.44904
0
LINE
8
BLACK
6
CONTINUOUS
10
6.11029
20
-2.44904
11
6.09161
21
-2.4434
0
LINE
8
BLACK
6
CONTINUOUS
10
6.09161
20
-2.4434
11
6.0916
21
-2.44339
0
LINE
8
BLACK
6
CONTINUOUS
10
6.0916
20
-2.44339
11
6.09151
21
-2.44336
0
LINE
8
BLACK
6
CONTINUOUS
10
6.09151
20
-2.44336
11
6.09143
21
-2.44332
0
LINE
8
BLACK
6
CONTINUOUS
10
6.09143
20
-2.44332
11
6.0742
21
-2.43416
0
LINE
8
BLACK
6
CONTINUOUS
10
6.0742
20
-2.43416
11
6.07419
21
-2.43415
0
LINE
8
BLACK
6
CONTINUOUS
10
6.07419
20
-2.43415
11
6.07411
21
-2.4341
0
LINE
8
BLACK
6
CONTINUOUS
10
6.07411
20
-2.4341
11
6.07404
21
-2.43405
0
LINE
8
BLACK
6
CONTINUOUS
10
6.07404
20
-2.43405
11
6.05891
21
-2.42172
0
LINE
8
BLACK
6
CONTINUOUS
10
6.05891
20
-2.42172
11
6.0589
21
-2.42171
0
LINE
8
BLACK
6
CONTINUOUS
10
6.0589
20
-2.42171
11
6.05884
21
-2.42165
0
LINE
8
BLACK
6
CONTINUOUS
10
6.05884
20
-2.42165
11
6.05878
21
-2.42158
0
LINE
8
BLACK
6
CONTINUOUS
10
6.05878
20
-2.42158
11
6.04634
21
-2.40655
0
LINE
8
BLACK
6
CONTINUOUS
10
6.04634
20
-2.40655
11
6.04633
21
-2.40654
0
LINE
8
BLACK
6
CONTINUOUS
10
6.04633
20
-2.40654
11
6.04628
21
-2.40646
0
LINE
8
BLACK
6
CONTINUOUS
10
6.04628
20
-2.40646
11
6.04623
21
-2.40639
0
LINE
8
BLACK
6
CONTINUOUS
10
6.04623
20
-2.40639
11
6.03695
21
-2.38922
0
LINE
8
BLACK
6
CONTINUOUS
10
6.03695
20
-2.38922
11
6.03694
21
-2.38921
0
LINE
8
BLACK
6
CONTINUOUS
10
6.03694
20
-2.38921
11
6.03691
21
-2.38912
0
LINE
8
BLACK
6
CONTINUOUS
10
6.03691
20
-2.38912
11
6.03687
21
-2.38904
0
LINE
8
BLACK
6
CONTINUOUS
10
6.03687
20
-2.38904
11
6.0311
21
-2.3704
0
LINE
8
BLACK
6
CONTINUOUS
10
6.0311
20
-2.3704
11
6.0311
21
-2.37039
0
LINE
8
BLACK
6
CONTINUOUS
10
6.0311
20
-2.37039
11
6.03108
21
-2.3703
0
LINE
8
BLACK
6
CONTINUOUS
10
6.03108
20
-2.3703
11
6.03106
21
-2.37021
0
LINE
8
BLACK
6
CONTINUOUS
10
6.03106
20
-2.37021
11
6.02904
21
-2.35098
0
LINE
8
BLACK
6
CONTINUOUS
10
6.02904
20
-2.35098
11
5.93098
21
-2.35098
0
LINE
8
BLACK
6
CONTINUOUS
10
13.04
20
-1.99902
11
13.13
21
-1.99902
0
LINE
8
BLACK
6
CONTINUOUS
10
13.13
20
-1.99902
11
13.1302
21
-1.99903
0
LINE
8
BLACK
6
CONTINUOUS
10
13.1302
20
-1.99903
11
13.1304
21
-1.99909
0
LINE
8
BLACK
6
CONTINUOUS
10
13.1304
20
-1.99909
11
13.1305
21
-1.99918
0
LINE
8
BLACK
6
CONTINUOUS
10
13.1305
20
-1.99918
11
13.1307
21
-1.9993
0
LINE
8
BLACK
6
CONTINUOUS
10
13.1307
20
-1.9993
11
13.1308
21
-1.99945
0
LINE
8
BLACK
6
CONTINUOUS
10
13.1308
20
-1.99945
11
13.1309
21
-1.99962
0
LINE
8
BLACK
6
CONTINUOUS
10
13.1309
20
-1.99962
11
13.131
21
-1.99981
0
LINE
8
BLACK
6
CONTINUOUS
10
13.131
20
-1.99981
11
13.131
21
-2
0
LINE
8
BLACK
6
CONTINUOUS
10
13.131
20
-2
11
13.131
21
-2.00005
0
LINE
8
BLACK
6
CONTINUOUS
10
13.131
20
-2.00005
11
13.131
21
-2.00064
0
LINE
8
BLACK
6
CONTINUOUS
10
13.131
20
-2.00064
11
13.133
21
-2.01991
0
LINE
8
BLACK
6
CONTINUOUS
10
13.133
20
-2.01991
11
13.1387
21
-2.03837
0
LINE
8
BLACK
6
CONTINUOUS
10
13.1387
20
-2.03837
11
13.1479
21
-2.05537
0
LINE
8
BLACK
6
CONTINUOUS
10
13.1479
20
-2.05537
11
13.1602
21
-2.07026
0
LINE
8
BLACK
6
CONTINUOUS
10
13.1602
20
-2.07026
11
13.1752
21
-2.08247
0
LINE
8
BLACK
6
CONTINUOUS
10
13.1752
20
-2.08247
11
13.1923
21
-2.09154
0
LINE
8
BLACK
6
CONTINUOUS
10
13.1923
20
-2.09154
11
13.2108
21
-2.09713
0
LINE
8
BLACK
6
CONTINUOUS
10
13.2108
20
-2.09713
11
13.23
21
-2.09902
0
LINE
8
BLACK
6
CONTINUOUS
10
13.23
20
-2.09902
11
13.51
21
-2.09902
0
LINE
8
BLACK
6
CONTINUOUS
10
13.51
20
-2.09902
11
13.51
21
-2.09901
0
LINE
8
BLACK
6
CONTINUOUS
10
13.51
20
-2.09901
11
13.51
21
-2.09902
0
LINE
8
BLACK
6
CONTINUOUS
10
13.51
20
-2.09902
11
13.51
21
-2.09902
0
LINE
8
BLACK
6
CONTINUOUS
10
13.51
20
-2.09902
11
13.5102
21
-2.09903
0
LINE
8
BLACK
6
CONTINUOUS
10
13.5102
20
-2.09903
11
13.5104
21
-2.09909
0
LINE
8
BLACK
6
CONTINUOUS
10
13.5104
20
-2.09909
11
13.5105
21
-2.09918
0
LINE
8
BLACK
6
CONTINUOUS
10
13.5105
20
-2.09918
11
13.5107
21
-2.0993
0
LINE
8
BLACK
6
CONTINUOUS
10
13.5107
20
-2.0993
11
13.5108
21
-2.09945
0
LINE
8
BLACK
6
CONTINUOUS
10
13.5108
20
-2.09945
11
13.5109
21
-2.09962
0
LINE
8
BLACK
6
CONTINUOUS
10
13.5109
20
-2.09962
11
13.511
21
-2.09981
0
LINE
8
BLACK
6
CONTINUOUS
10
13.511
20
-2.09981
11
13.511
21
-2.1
0
LINE
8
BLACK
6
CONTINUOUS
10
13.511
20
-2.1
11
13.511
21
-2.10005
0
LINE
8
BLACK
6
CONTINUOUS
10
13.511
20
-2.10005
11
13.511
21
-2.19995
0
LINE
8
BLACK
6
CONTINUOUS
10
13.511
20
-2.19995
11
13.511
21
-2.2
0
LINE
8
BLACK
6
CONTINUOUS
10
13.511
20
-2.2
11
13.511
21
-2.20019
0
LINE
8
BLACK
6
CONTINUOUS
10
13.511
20
-2.20019
11
13.5109
21
-2.20038
0
LINE
8
BLACK
6
CONTINUOUS
10
13.5109
20
-2.20038
11
13.5108
21
-2.20055
0
LINE
8
BLACK
6
CONTINUOUS
10
13.5108
20
-2.20055
11
13.5107
21
-2.2007
0
LINE
8
BLACK
6
CONTINUOUS
10
13.5107
20
-2.2007
11
13.5105
21
-2.20082
0
LINE
8
BLACK
6
CONTINUOUS
10
13.5105
20
-2.20082
11
13.5104
21
-2.20091
0
LINE
8
BLACK
6
CONTINUOUS
10
13.5104
20
-2.20091
11
13.5102
21
-2.20097
0
LINE
8
BLACK
6
CONTINUOUS
10
13.5102
20
-2.20097
11
13.5101
21
-2.20098
0
LINE
8
BLACK
6
CONTINUOUS
10
13.5101
20
-2.20098
11
13.51
21
-2.20099
0
LINE
8
BLACK
6
CONTINUOUS
10
13.51
20
-2.20099
11
13.51
21
-2.20098
0
LINE
8
BLACK
6
CONTINUOUS
10
13.51
20
-2.20098
11
13.23
21
-2.20098
0
LINE
8
BLACK
6
CONTINUOUS
10
13.23
20
-2.20098
11
13.2294
21
-2.20099
0
LINE
8
BLACK
6
CONTINUOUS
10
13.2294
20
-2.20099
11
13.2101
21
-2.20301
0
LINE
8
BLACK
6
CONTINUOUS
10
13.2101
20
-2.20301
11
13.1916
21
-2.20873
0
LINE
8
BLACK
6
CONTINUOUS
10
13.1916
20
-2.20873
11
13.1746
21
-2.21792
0
LINE
8
BLACK
6
CONTINUOUS
10
13.1746
20
-2.21792
11
13.1597
21
-2.23023
0
LINE
8
BLACK
6
CONTINUOUS
10
13.1597
20
-2.23023
11
13.1475
21
-2.24521
0
LINE
8
BLACK
6
CONTINUOUS
10
13.1475
20
-2.24521
11
13.1385
21
-2.26227
0
LINE
8
BLACK
6
CONTINUOUS
10
13.1385
20
-2.26227
11
13.1329
21
-2.28077
0
LINE
8
BLACK
6
CONTINUOUS
10
13.1329
20
-2.28077
11
13.131
21
-2.3001
0
LINE
8
BLACK
6
CONTINUOUS
10
13.131
20
-2.3001
11
13.131
21
-2.30011
0
LINE
8
BLACK
6
CONTINUOUS
10
13.131
20
-2.30011
11
13.131
21
-2.30019
0
LINE
8
BLACK
6
CONTINUOUS
10
13.131
20
-2.30019
11
13.1309
21
-2.30038
0
LINE
8
BLACK
6
CONTINUOUS
10
13.1309
20
-2.30038
11
13.1308
21
-2.30055
0
LINE
8
BLACK
6
CONTINUOUS
10
13.1308
20
-2.30055
11
13.1307
21
-2.3007
0
LINE
8
BLACK
6
CONTINUOUS
10
13.1307
20
-2.3007
11
13.1305
21
-2.30082
0
LINE
8
BLACK
6
CONTINUOUS
10
13.1305
20
-2.30082
11
13.1304
21
-2.30091
0
LINE
8
BLACK
6
CONTINUOUS
10
13.1304
20
-2.30091
11
13.1302
21
-2.30097
0
LINE
8
BLACK
6
CONTINUOUS
10
13.1302
20
-2.30097
11
13.1301
21
-2.30098
0
LINE
8
BLACK
6
CONTINUOUS
10
13.1301
20
-2.30098
11
13.1301
21
-2.30098
0
LINE
8
BLACK
6
CONTINUOUS
10
13.1301
20
-2.30098
11
13.1301
21
-2.30098
0
LINE
8
BLACK
6
CONTINUOUS
10
13.1301
20
-2.30098
11
13.13
21
-2.30098
0
LINE
8
BLACK
6
CONTINUOUS
10
13.13
20
-2.30098
11
13.04
21
-2.30098
0
LINE
8
BLACK
6
CONTINUOUS
10
13.04
20
-2.30098
11
13.04
21
-2.30099
0
LINE
8
BLACK
6
CONTINUOUS
10
13.04
20
-2.30099
11
13.0398
21
-2.30097
0
LINE
8
BLACK
6
CONTINUOUS
10
13.0398
20
-2.30097
11
13.0396
21
-2.30091
0
LINE
8
BLACK
6
CONTINUOUS
10
13.0396
20
-2.30091
11
13.0395
21
-2.30082
0
LINE
8
BLACK
6
CONTINUOUS
10
13.0395
20
-2.30082
11
13.0393
21
-2.3007
0
LINE
8
BLACK
6
CONTINUOUS
10
13.0393
20
-2.3007
11
13.0392
21
-2.30062
0
LINE
8
BLACK
6
CONTINUOUS
10
13.0392
20
-2.30062
11
13.0392
21
-2.30055
0
LINE
8
BLACK
6
CONTINUOUS
10
13.0392
20
-2.30055
11
13.0391
21
-2.30038
0
LINE
8
BLACK
6
CONTINUOUS
10
13.0391
20
-2.30038
11
13.039
21
-2.30019
0
LINE
8
BLACK
6
CONTINUOUS
10
13.039
20
-2.30019
11
13.039
21
-2.3
0
LINE
8
BLACK
6
CONTINUOUS
10
13.039
20
-2.3
11
13.039
21
-2.29995
0
LINE
8
BLACK
6
CONTINUOUS
10
13.039
20
-2.29995
11
13.039
21
-2.19995
0
LINE
8
BLACK
6
CONTINUOUS
10
13.039
20
-2.19995
11
13.039
21
-2.09995
0
LINE
8
BLACK
6
CONTINUOUS
10
13.039
20
-2.09995
11
13.039
21
-2.09995
0
LINE
8
BLACK
6
CONTINUOUS
10
13.039
20
-2.09995
11
13.039
21
-2.00005
0
LINE
8
BLACK
6
CONTINUOUS
10
13.039
20
-2.00005
11
13.039
21
-2
0
LINE
8
BLACK
6
CONTINUOUS
10
13.039
20
-2
11
13.039
21
-1.99981
0
LINE
8
BLACK
6
CONTINUOUS
10
13.039
20
-1.99981
11
13.0391
21
-1.99962
0
LINE
8
BLACK
6
CONTINUOUS
10
13.0391
20
-1.99962
11
13.0392
21
-1.99945
0
LINE
8
BLACK
6
CONTINUOUS
10
13.0392
20
-1.99945
11
13.0393
21
-1.9993
0
LINE
8
BLACK
6
CONTINUOUS
10
13.0393
20
-1.9993
11
13.0395
21
-1.99918
0
LINE
8
BLACK
6
CONTINUOUS
10
13.0395
20
-1.99918
11
13.0396
21
-1.99909
0
LINE
8
BLACK
6
CONTINUOUS
10
13.0396
20
-1.99909
11
13.0398
21
-1.99903
0
LINE
8
BLACK
6
CONTINUOUS
10
13.0398
20
-1.99903
11
13.04
21
-1.99902
0
LINE
8
BLACK
6
CONTINUOUS
10
13.04
20
-1.99902
11
13.04
21
-1.99901
0
LINE
8
BLACK
6
CONTINUOUS
10
13.04
20
-1.99901
11
13.04
21
-1.99902
0
LINE
8
BLACK
6
CONTINUOUS
10
13.1291
20
-2.29902
11
13.1309
21
-2.28048
0
LINE
8
BLACK
6
CONTINUOUS
10
13.1309
20
-2.28048
11
13.1309
21
-2.28047
0
LINE
8
BLACK
6
CONTINUOUS
10
13.1309
20
-2.28047
11
13.1309
21
-2.28038
0
LINE
8
BLACK
6
CONTINUOUS
10
13.1309
20
-2.28038
11
13.131
21
-2.28029
0
LINE
8
BLACK
6
CONTINUOUS
10
13.131
20
-2.28029
11
13.1366
21
-2.26161
0
LINE
8
BLACK
6
CONTINUOUS
10
13.1366
20
-2.26161
11
13.1366
21
-2.2616
0
LINE
8
BLACK
6
CONTINUOUS
10
13.1366
20
-2.2616
11
13.1366
21
-2.26151
0
LINE
8
BLACK
6
CONTINUOUS
10
13.1366
20
-2.26151
11
13.1367
21
-2.26143
0
LINE
8
BLACK
6
CONTINUOUS
10
13.1367
20
-2.26143
11
13.1458
21
-2.2442
0
LINE
8
BLACK
6
CONTINUOUS
10
13.1458
20
-2.2442
11
13.1458
21
-2.2442
0
LINE
8
BLACK
6
CONTINUOUS
10
13.1458
20
-2.2442
11
13.1458
21
-2.2442
0
LINE
8
BLACK
6
CONTINUOUS
10
13.1458
20
-2.2442
11
13.1458
21
-2.24419
0
LINE
8
BLACK
6
CONTINUOUS
10
13.1458
20
-2.24419
11
13.1459
21
-2.24411
0
LINE
8
BLACK
6
CONTINUOUS
10
13.1459
20
-2.24411
11
13.1459
21
-2.24404
0
LINE
8
BLACK
6
CONTINUOUS
10
13.1459
20
-2.24404
11
13.1583
21
-2.22891
0
LINE
8
BLACK
6
CONTINUOUS
10
13.1583
20
-2.22891
11
13.1583
21
-2.22891
0
LINE
8
BLACK
6
CONTINUOUS
10
13.1583
20
-2.22891
11
13.1583
21
-2.22891
0
LINE
8
BLACK
6
CONTINUOUS
10
13.1583
20
-2.22891
11
13.1583
21
-2.2289
0
LINE
8
BLACK
6
CONTINUOUS
10
13.1583
20
-2.2289
11
13.1584
21
-2.22884
0
LINE
8
BLACK
6
CONTINUOUS
10
13.1584
20
-2.22884
11
13.1584
21
-2.22878
0
LINE
8
BLACK
6
CONTINUOUS
10
13.1584
20
-2.22878
11
13.1735
21
-2.21634
0
LINE
8
BLACK
6
CONTINUOUS
10
13.1735
20
-2.21634
11
13.1735
21
-2.21633
0
LINE
8
BLACK
6
CONTINUOUS
10
13.1735
20
-2.21633
11
13.1735
21
-2.21628
0
LINE
8
BLACK
6
CONTINUOUS
10
13.1735
20
-2.21628
11
13.1736
21
-2.21623
0
LINE
8
BLACK
6
CONTINUOUS
10
13.1736
20
-2.21623
11
13.1908
21
-2.20695
0
LINE
8
BLACK
6
CONTINUOUS
10
13.1908
20
-2.20695
11
13.1908
21
-2.20695
0
LINE
8
BLACK
6
CONTINUOUS
10
13.1908
20
-2.20695
11
13.1908
21
-2.20695
0
LINE
8
BLACK
6
CONTINUOUS
10
13.1908
20
-2.20695
11
13.1908
21
-2.20694
0
LINE
8
BLACK
6
CONTINUOUS
10
13.1908
20
-2.20694
11
13.1909
21
-2.20691
0
LINE
8
BLACK
6
CONTINUOUS
10
13.1909
20
-2.20691
11
13.191
21
-2.20687
0
LINE
8
BLACK
6
CONTINUOUS
10
13.191
20
-2.20687
11
13.2096
21
-2.2011
0
LINE
8
BLACK
6
CONTINUOUS
10
13.2096
20
-2.2011
11
13.2096
21
-2.2011
0
LINE
8
BLACK
6
CONTINUOUS
10
13.2096
20
-2.2011
11
13.2096
21
-2.2011
0
LINE
8
BLACK
6
CONTINUOUS
10
13.2096
20
-2.2011
11
13.2097
21
-2.20108
0
LINE
8
BLACK
6
CONTINUOUS
10
13.2097
20
-2.20108
11
13.2098
21
-2.20106
0
LINE
8
BLACK
6
CONTINUOUS
10
13.2098
20
-2.20106
11
13.2292
21
-2.19902
0
LINE
8
BLACK
6
CONTINUOUS
10
13.2292
20
-2.19902
11
13.2292
21
-2.19902
0
LINE
8
BLACK
6
CONTINUOUS
10
13.2292
20
-2.19902
11
13.2293
21
-2.19902
0
LINE
8
BLACK
6
CONTINUOUS
10
13.2293
20
-2.19902
11
13.2293
21
-2.19902
0
LINE
8
BLACK
6
CONTINUOUS
10
13.2293
20
-2.19902
11
13.23
21
-2.19902
0
LINE
8
BLACK
6
CONTINUOUS
10
13.23
20
-2.19902
11
13.23
21
-2.19902
0
LINE
8
BLACK
6
CONTINUOUS
10
13.23
20
-2.19902
11
13.509
21
-2.19902
0
LINE
8
BLACK
6
CONTINUOUS
10
13.509
20
-2.19902
11
13.509
21
-2.10098
0
LINE
8
BLACK
6
CONTINUOUS
10
13.509
20
-2.10098
11
13.23
21
-2.10098
0
LINE
8
BLACK
6
CONTINUOUS
10
13.23
20
-2.10098
11
13.2299
21
-2.10098
0
LINE
8
BLACK
6
CONTINUOUS
10
13.2299
20
-2.10098
11
13.2299
21
-2.10098
0
LINE
8
BLACK
6
CONTINUOUS
10
13.2299
20
-2.10098
11
13.2105
21
-2.09908
0
LINE
8
BLACK
6
CONTINUOUS
10
13.2105
20
-2.09908
11
13.2105
21
-2.09907
0
LINE
8
BLACK
6
CONTINUOUS
10
13.2105
20
-2.09907
11
13.2104
21
-2.09905
0
LINE
8
BLACK
6
CONTINUOUS
10
13.2104
20
-2.09905
11
13.2103
21
-2.09904
0
LINE
8
BLACK
6
CONTINUOUS
10
13.2103
20
-2.09904
11
13.1916
21
-2.0934
0
LINE
8
BLACK
6
CONTINUOUS
10
13.1916
20
-2.0934
11
13.1916
21
-2.09339
0
LINE
8
BLACK
6
CONTINUOUS
10
13.1916
20
-2.09339
11
13.1915
21
-2.09336
0
LINE
8
BLACK
6
CONTINUOUS
10
13.1915
20
-2.09336
11
13.1914
21
-2.09332
0
LINE
8
BLACK
6
CONTINUOUS
10
13.1914
20
-2.09332
11
13.1742
21
-2.08416
0
LINE
8
BLACK
6
CONTINUOUS
10
13.1742
20
-2.08416
11
13.1742
21
-2.08415
0
LINE
8
BLACK
6
CONTINUOUS
10
13.1742
20
-2.08415
11
13.1741
21
-2.0841
0
LINE
8
BLACK
6
CONTINUOUS
10
13.1741
20
-2.0841
11
13.174
21
-2.08405
0
LINE
8
BLACK
6
CONTINUOUS
10
13.174
20
-2.08405
11
13.1589
21
-2.07172
0
LINE
8
BLACK
6
CONTINUOUS
10
13.1589
20
-2.07172
11
13.1589
21
-2.07171
0
LINE
8
BLACK
6
CONTINUOUS
10
13.1589
20
-2.07171
11
13.1588
21
-2.07165
0
LINE
8
BLACK
6
CONTINUOUS
10
13.1588
20
-2.07165
11
13.1588
21
-2.07158
0
LINE
8
BLACK
6
CONTINUOUS
10
13.1588
20
-2.07158
11
13.1463
21
-2.05655
0
LINE
8
BLACK
6
CONTINUOUS
10
13.1463
20
-2.05655
11
13.1463
21
-2.05654
0
LINE
8
BLACK
6
CONTINUOUS
10
13.1463
20
-2.05654
11
13.1463
21
-2.05646
0
LINE
8
BLACK
6
CONTINUOUS
10
13.1463
20
-2.05646
11
13.1462
21
-2.05639
0
LINE
8
BLACK
6
CONTINUOUS
10
13.1462
20
-2.05639
11
13.1369
21
-2.03922
0
LINE
8
BLACK
6
CONTINUOUS
10
13.1369
20
-2.03922
11
13.1369
21
-2.03921
0
LINE
8
BLACK
6
CONTINUOUS
10
13.1369
20
-2.03921
11
13.1369
21
-2.03912
0
LINE
8
BLACK
6
CONTINUOUS
10
13.1369
20
-2.03912
11
13.1369
21
-2.03904
0
LINE
8
BLACK
6
CONTINUOUS
10
13.1369
20
-2.03904
11
13.1311
21
-2.0204
0
LINE
8
BLACK
6
CONTINUOUS
10
13.1311
20
-2.0204
11
13.1311
21
-2.02039
0
LINE
8
BLACK
6
CONTINUOUS
10
13.1311
20
-2.02039
11
13.1311
21
-2.0203
0
LINE
8
BLACK
6
CONTINUOUS
10
13.1311
20
-2.0203
11
13.1311
21
-2.02021
0
LINE
8
BLACK
6
CONTINUOUS
10
13.1311
20
-2.02021
11
13.129
21
-2.00098
0
LINE
8
BLACK
6
CONTINUOUS
10
13.129
20
-2.00098
11
13.041
21
-2.00098
0
LINE
8
BLACK
6
CONTINUOUS
10
13.041
20
-2.00098
11
13.041
21
-2.29902
0
LINE
8
BLACK
6
CONTINUOUS
10
13.041
20
-2.29902
11
13.1291
21
-2.29902
0
LINE
8
BLACK
6
CONTINUOUS
10
6.03005
20
-1.39902
11
6.03005
21
-1.39902
0
LINE
8
BLACK
6
CONTINUOUS
10
6.03005
20
-1.39902
11
6.03019
21
-1.39903
0
LINE
8
BLACK
6
CONTINUOUS
10
6.03019
20
-1.39903
11
6.03038
21
-1.39909
0
LINE
8
BLACK
6
CONTINUOUS
10
6.03038
20
-1.39909
11
6.03055
21
-1.39918
0
LINE
8
BLACK
6
CONTINUOUS
10
6.03055
20
-1.39918
11
6.0307
21
-1.3993
0
LINE
8
BLACK
6
CONTINUOUS
10
6.0307
20
-1.3993
11
6.03082
21
-1.39945
0
LINE
8
BLACK
6
CONTINUOUS
10
6.03082
20
-1.39945
11
6.03091
21
-1.39962
0
LINE
8
BLACK
6
CONTINUOUS
10
6.03091
20
-1.39962
11
6.03097
21
-1.39981
0
LINE
8
BLACK
6
CONTINUOUS
10
6.03097
20
-1.39981
11
6.03099
21
-1.4
0
LINE
8
BLACK
6
CONTINUOUS
10
6.03099
20
-1.4
11
6.03098
21
-1.40005
0
LINE
8
BLACK
6
CONTINUOUS
10
6.03098
20
-1.40005
11
6.03098
21
-2.17995
0
LINE
8
BLACK
6
CONTINUOUS
10
6.03098
20
-2.17995
11
6.03099
21
-2.18
0
LINE
8
BLACK
6
CONTINUOUS
10
6.03099
20
-2.18
11
6.03098
21
-2.18005
0
LINE
8
BLACK
6
CONTINUOUS
10
6.03098
20
-2.18005
11
6.03098
21
-2.18005
0
LINE
8
BLACK
6
CONTINUOUS
10
6.03098
20
-2.18005
11
6.03097
21
-2.18019
0
LINE
8
BLACK
6
CONTINUOUS
10
6.03097
20
-2.18019
11
6.03091
21
-2.18038
0
LINE
8
BLACK
6
CONTINUOUS
10
6.03091
20
-2.18038
11
6.03082
21
-2.18055
0
LINE
8
BLACK
6
CONTINUOUS
10
6.03082
20
-2.18055
11
6.0307
21
-2.1807
0
LINE
8
BLACK
6
CONTINUOUS
10
6.0307
20
-2.1807
11
6.03055
21
-2.18082
0
LINE
8
BLACK
6
CONTINUOUS
10
6.03055
20
-2.18082
11
6.03038
21
-2.18091
0
LINE
8
BLACK
6
CONTINUOUS
10
6.03038
20
-2.18091
11
6.03019
21
-2.18097
0
LINE
8
BLACK
6
CONTINUOUS
10
6.03019
20
-2.18097
11
6.03
21
-2.18099
0
LINE
8
BLACK
6
CONTINUOUS
10
6.03
20
-2.18099
11
6.02995
21
-2.18098
0
LINE
8
BLACK
6
CONTINUOUS
10
6.02995
20
-2.18098
11
5.93005
21
-2.18098
0
LINE
8
BLACK
6
CONTINUOUS
10
5.93005
20
-2.18098
11
5.93
21
-2.18099
0
LINE
8
BLACK
6
CONTINUOUS
10
5.93
20
-2.18099
11
5.92981
21
-2.18097
0
LINE
8
BLACK
6
CONTINUOUS
10
5.92981
20
-2.18097
11
5.92962
21
-2.18091
0
LINE
8
BLACK
6
CONTINUOUS
10
5.92962
20
-2.18091
11
5.92945
21
-2.18082
0
LINE
8
BLACK
6
CONTINUOUS
10
5.92945
20
-2.18082
11
5.9293
21
-2.1807
0
LINE
8
BLACK
6
CONTINUOUS
10
5.9293
20
-2.1807
11
5.92918
21
-2.18055
0
LINE
8
BLACK
6
CONTINUOUS
10
5.92918
20
-2.18055
11
5.92909
21
-2.18038
0
LINE
8
BLACK
6
CONTINUOUS
10
5.92909
20
-2.18038
11
5.92903
21
-2.18019
0
LINE
8
BLACK
6
CONTINUOUS
10
5.92903
20
-2.18019
11
5.92901
21
-2.18
0
LINE
8
BLACK
6
CONTINUOUS
10
5.92901
20
-2.18
11
5.92902
21
-2.17995
0
LINE
8
BLACK
6
CONTINUOUS
10
5.92902
20
-2.17995
11
5.92902
21
-1.40005
0
LINE
8
BLACK
6
CONTINUOUS
10
5.92902
20
-1.40005
11
5.92901
21
-1.4
0
LINE
8
BLACK
6
CONTINUOUS
10
5.92901
20
-1.4
11
5.92903
21
-1.39981
0
LINE
8
BLACK
6
CONTINUOUS
10
5.92903
20
-1.39981
11
5.92909
21
-1.39962
0
LINE
8
BLACK
6
CONTINUOUS
10
5.92909
20
-1.39962
11
5.92918
21
-1.39945
0
LINE
8
BLACK
6
CONTINUOUS
10
5.92918
20
-1.39945
11
5.9293
21
-1.3993
0
LINE
8
BLACK
6
CONTINUOUS
10
5.9293
20
-1.3993
11
5.92945
21
-1.39918
0
LINE
8
BLACK
6
CONTINUOUS
10
5.92945
20
-1.39918
11
5.92962
21
-1.39909
0
LINE
8
BLACK
6
CONTINUOUS
10
5.92962
20
-1.39909
11
5.92981
21
-1.39903
0
LINE
8
BLACK
6
CONTINUOUS
10
5.92981
20
-1.39903
11
5.92995
21
-1.39902
0
LINE
8
BLACK
6
CONTINUOUS
10
5.92995
20
-1.39902
11
5.92995
21
-1.39902
0
LINE
8
BLACK
6
CONTINUOUS
10
5.92995
20
-1.39902
11
5.93
21
-1.39901
0
LINE
8
BLACK
6
CONTINUOUS
10
5.93
20
-1.39901
11
5.93005
21
-1.39902
0
LINE
8
BLACK
6
CONTINUOUS
10
5.93005
20
-1.39902
11
6.02995
21
-1.39902
0
LINE
8
BLACK
6
CONTINUOUS
10
6.02995
20
-1.39902
11
6.03
21
-1.39901
0
LINE
8
BLACK
6
CONTINUOUS
10
6.03
20
-1.39901
11
6.03005
21
-1.39902
0
LINE
8
BLACK
6
CONTINUOUS
10
5.93098
20
-1.40098
11
5.93098
21
-2.17902
0
LINE
8
BLACK
6
CONTINUOUS
10
5.93098
20
-2.17902
11
6.02902
21
-2.17902
0
LINE
8
BLACK
6
CONTINUOUS
10
6.02902
20
-2.17902
11
6.02902
21
-1.40098
0
LINE
8
BLACK
6
CONTINUOUS
10
6.02902
20
-1.40098
11
5.93098
21
-1.40098
0
LINE
8
BLACK
6
CONTINUOUS
10
13.13
20
-1.29902
11
13.13
21
-1.29902
0
LINE
8
BLACK
6
CONTINUOUS
10
13.13
20
-1.29902
11
13.1302
21
-1.29903
0
LINE
8
BLACK
6
CONTINUOUS
10
13.1302
20
-1.29903
11
13.1304
21
-1.29909
0
LINE
8
BLACK
6
CONTINUOUS
10
13.1304
20
-1.29909
11
13.1305
21
-1.29918
0
LINE
8
BLACK
6
CONTINUOUS
10
13.1305
20
-1.29918
11
13.1307
21
-1.2993
0
LINE
8
BLACK
6
CONTINUOUS
10
13.1307
20
-1.2993
11
13.1308
21
-1.29945
0
LINE
8
BLACK
6
CONTINUOUS
10
13.1308
20
-1.29945
11
13.1309
21
-1.29962
0
LINE
8
BLACK
6
CONTINUOUS
10
13.1309
20
-1.29962
11
13.131
21
-1.29981
0
LINE
8
BLACK
6
CONTINUOUS
10
13.131
20
-1.29981
11
13.131
21
-1.3
0
LINE
8
BLACK
6
CONTINUOUS
10
13.131
20
-1.3
11
13.131
21
-1.30005
0
LINE
8
BLACK
6
CONTINUOUS
10
13.131
20
-1.30005
11
13.131
21
-1.89995
0
LINE
8
BLACK
6
CONTINUOUS
10
13.131
20
-1.89995
11
13.131
21
-1.9
0
LINE
8
BLACK
6
CONTINUOUS
10
13.131
20
-1.9
11
13.131
21
-1.90005
0
LINE
8
BLACK
6
CONTINUOUS
10
13.131
20
-1.90005
11
13.131
21
-1.90019
0
LINE
8
BLACK
6
CONTINUOUS
10
13.131
20
-1.90019
11
13.1309
21
-1.90038
0
LINE
8
BLACK
6
CONTINUOUS
10
13.1309
20
-1.90038
11
13.1308
21
-1.90055
0
LINE
8
BLACK
6
CONTINUOUS
10
13.1308
20
-1.90055
11
13.1307
21
-1.9007
0
LINE
8
BLACK
6
CONTINUOUS
10
13.1307
20
-1.9007
11
13.1305
21
-1.90082
0
LINE
8
BLACK
6
CONTINUOUS
10
13.1305
20
-1.90082
11
13.1304
21
-1.90091
0
LINE
8
BLACK
6
CONTINUOUS
10
13.1304
20
-1.90091
11
13.1302
21
-1.90097
0
LINE
8
BLACK
6
CONTINUOUS
10
13.1302
20
-1.90097
11
13.13
21
-1.90099
0
LINE
8
BLACK
6
CONTINUOUS
10
13.13
20
-1.90099
11
13.13
21
-1.90098
0
LINE
8
BLACK
6
CONTINUOUS
10
13.13
20
-1.90098
11
13.04
21
-1.90098
0
LINE
8
BLACK
6
CONTINUOUS
10
13.04
20
-1.90098
11
13.04
21
-1.90099
0
LINE
8
BLACK
6
CONTINUOUS
10
13.04
20
-1.90099
11
13.04
21
-1.90098
0
LINE
8
BLACK
6
CONTINUOUS
10
13.04
20
-1.90098
11
13.04
21
-1.90098
0
LINE
8
BLACK
6
CONTINUOUS
10
13.04
20
-1.90098
11
13.0398
21
-1.90097
0
LINE
8
BLACK
6
CONTINUOUS
10
13.0398
20
-1.90097
11
13.0396
21
-1.90091
0
LINE
8
BLACK
6
CONTINUOUS
10
13.0396
20
-1.90091
11
13.0395
21
-1.90082
0
LINE
8
BLACK
6
CONTINUOUS
10
13.0395
20
-1.90082
11
13.0393
21
-1.9007
0
LINE
8
BLACK
6
CONTINUOUS
10
13.0393
20
-1.9007
11
13.0392
21
-1.90055
0
LINE
8
BLACK
6
CONTINUOUS
10
13.0392
20
-1.90055
11
13.0391
21
-1.90038
0
LINE
8
BLACK
6
CONTINUOUS
10
13.0391
20
-1.90038
11
13.039
21
-1.90019
0
LINE
8
BLACK
6
CONTINUOUS
10
13.039
20
-1.90019
11
13.039
21
-1.9
0
LINE
8
BLACK
6
CONTINUOUS
10
13.039
20
-1.9
11
13.039
21
-1.89995
0
LINE
8
BLACK
6
CONTINUOUS
10
13.039
20
-1.89995
11
13.039
21
-1.30005
0
LINE
8
BLACK
6
CONTINUOUS
10
13.039
20
-1.30005
11
13.039
21
-1.3
0
LINE
8
BLACK
6
CONTINUOUS
10
13.039
20
-1.3
11
13.039
21
-1.29981
0
LINE
8
BLACK
6
CONTINUOUS
10
13.039
20
-1.29981
11
13.0391
21
-1.29962
0
LINE
8
BLACK
6
CONTINUOUS
10
13.0391
20
-1.29962
11
13.0392
21
-1.29945
0
LINE
8
BLACK
6
CONTINUOUS
10
13.0392
20
-1.29945
11
13.0393
21
-1.2993
0
LINE
8
BLACK
6
CONTINUOUS
10
13.0393
20
-1.2993
11
13.0395
21
-1.29918
0
LINE
8
BLACK
6
CONTINUOUS
10
13.0395
20
-1.29918
11
13.0396
21
-1.29909
0
LINE
8
BLACK
6
CONTINUOUS
10
13.0396
20
-1.29909
11
13.0398
21
-1.29903
0
LINE
8
BLACK
6
CONTINUOUS
10
13.0398
20
-1.29903
11
13.04
21
-1.29902
0
LINE
8
BLACK
6
CONTINUOUS
10
13.04
20
-1.29902
11
13.04
21
-1.29901
0
LINE
8
BLACK
6
CONTINUOUS
10
13.04
20
-1.29901
11
13.04
21
-1.29902
0
LINE
8
BLACK
6
CONTINUOUS
10
13.04
20
-1.29902
11
13.13
21
-1.29902
0
LINE
8
BLACK
6
CONTINUOUS
10
13.13
20
-1.29902
11
13.13
21
-1.29901
0
LINE
8
BLACK
6
CONTINUOUS
10
13.13
20
-1.29901
11
13.13
21
-1.29902
0
LINE
8
BLACK
6
CONTINUOUS
10
13.041
20
-1.30098
11
13.041
21
-1.89902
0
LINE
8
BLACK
6
CONTINUOUS
10
13.041
20
-1.89902
11
13.129
21
-1.89902
0
LINE
8
BLACK
6
CONTINUOUS
10
13.129
20
-1.89902
11
13.129
21
-1.30098
0
LINE
8
BLACK
6
CONTINUOUS
10
13.129
20
-1.30098
11
13.041
21
-1.30098
  0
ENDSEC
  0
EOF
