<?xml version="1.0" standalone="no"?>
 <!DOCTYPE svg PUBLIC "-//W3C//DTD SVG 1.1//EN" 
 "http://www.w3.org/Graphics/SVG/1.1/DTD/svg11.dtd"> 
<svg
  xmlns:svg="http://www.w3.org/2000/svg"
  xmlns="http://www.w3.org/2000/svg"
  xmlns:xlink="http://www.w3.org/1999/xlink"
  version="1.1"
  width="29.700220cm" height="21.000720cm" viewBox="0 0 116930 82680">
<title>SVG Picture created as skb_i2c_lefthand-F_CrtYd.svg date 2021/01/23 19:36:53 </title>
  <desc>Picture generated by PCBNEW </desc>
<g style="fill:#000000; fill-opacity:1;stroke:#000000; stroke-opacity:1;
stroke-linecap:round; stroke-linejoin:round;"
 transform="translate(0 0) scale(1 1)">
</g>
<g style="fill:#000000; fill-opacity:0.0; 
stroke:#000000; stroke-width:-0.000393701; stroke-opacity:1; 
stroke-linecap:round; stroke-linejoin:round;">
</g>
<g style="fill:#000000; fill-opacity:0.0; 
stroke:#000000; stroke-width:19.685; stroke-opacity:1; 
stroke-linecap:round; stroke-linejoin:round;">
<circle cx="100800" cy="54100" r="964.567" /> 
<circle cx="101100" cy="12200" r="964.567" /> 
<circle cx="35800" cy="54100" r="964.567" /> 
<circle cx="12600" cy="17400" r="964.567" /> 
<circle cx="57200" cy="18700" r="964.567" /> 
<circle cx="128900" cy="54300" r="964.567" /> 
<circle cx="61600" cy="18700" r="964.567" /> 
<circle cx="128900" cy="16700" r="964.567" /> 
<circle cx="12700" cy="55000" r="964.567" /> 
<circle cx="71500" cy="54900" r="964.567" /> 
<circle cx="63700" cy="54900" r="964.567" /> 
<path d="M61508 16308
L61508 12903
" />
<path d="M61508 12903
L60091 12903
" />
<path d="M60091 12903
L60091 16308
" />
<path d="M60091 16308
L61508 16308
" />
<path d="M69908 54708
L69908 51303
" />
<path d="M69908 51303
L68491 51303
" />
<path d="M68491 51303
L68491 54708
" />
<path d="M68491 54708
L69908 54708
" />
<path d="M58091 16308
L59508 16308
" />
<path d="M58091 12903
L58091 16308
" />
<path d="M59508 12903
L58091 12903
" />
<path d="M59508 16308
L59508 12903
" />
<path d="M66491 54708
L67908 54708
" />
<path d="M66491 51303
L66491 54708
" />
<path d="M67908 51303
L66491 51303
" />
<path d="M67908 54708
L67908 51303
" />
<path d="M59256 11114
L57347 11114
" />
<path d="M59256 12885
L59256 11114
" />
<path d="M57347 12885
L59256 12885
" />
<path d="M57347 11114
L57347 12885
" />
<path d="M67656 54714
L65747 54714
" />
<path d="M67656 56485
L67656 54714
" />
<path d="M65747 56485
L67656 56485
" />
<path d="M65747 54714
L65747 56485
" />
<path d="M132891 38458
L134308 38458
" />
<path d="M132891 34049
L132891 38458
" />
<path d="M134308 34049
L132891 34049
" />
<path d="M134308 38458
L134308 34049
" />
<path d="M131391 49458
L132808 49458
" />
<path d="M131391 45049
L131391 49458
" />
<path d="M132808 45049
L131391 45049
" />
<path d="M132808 49458
L132808 45049
" />
<path d="M132891 27458
L134308 27458
" />
<path d="M132891 23049
L132891 27458
" />
<path d="M134308 23049
L132891 23049
" />
<path d="M134308 27458
L134308 23049
" />
<path d="M131391 16708
L132808 16708
" />
<path d="M131391 12299
L131391 16708
" />
<path d="M132808 12299
L131391 12299
" />
<path d="M132808 16708
L132808 12299
" />
<path d="M131391 38458
L132808 38458
" />
<path d="M131391 34049
L131391 38458
" />
<path d="M132808 34049
L131391 34049
" />
<path d="M132808 38458
L132808 34049
" />
<path d="M138891 28458
L140308 28458
" />
<path d="M138891 23045
L138891 28458
" />
<path d="M140308 23045
L138891 23045
" />
<path d="M140308 28458
L140308 23045
" />
<path d="M138891 50458
L140308 50458
" />
<path d="M138891 45045
L138891 50458
" />
<path d="M140308 45045
L138891 45045
" />
<path d="M140308 50458
L140308 45045
" />
<path d="M138891 39458
L140308 39458
" />
<path d="M138891 34045
L138891 39458
" />
<path d="M140308 34045
L138891 34045
" />
<path d="M140308 39458
L140308 34045
" />
<path d="M138891 17708
L140308 17708
" />
<path d="M138891 12295
L138891 17708
" />
<path d="M140308 12295
L138891 12295
" />
<path d="M140308 17708
L140308 12295
" />
<path d="M132891 49458
L134308 49458
" />
<path d="M132891 45049
L132891 49458
" />
<path d="M134308 45049
L132891 45049
" />
<path d="M134308 49458
L134308 45049
" />
<path d="M131391 27458
L132808 27458
" />
<path d="M131391 23049
L131391 27458
" />
<path d="M132808 23049
L131391 23049
" />
<path d="M132808 27458
L132808 23049
" />
<path d="M132891 16708
L134308 16708
" />
<path d="M132891 12299
L132891 16708
" />
<path d="M134308 12299
L132891 12299
" />
<path d="M134308 16708
L134308 12299
" />
<path d="M130344 33025
L130344 29166
" />
<path d="M128455 33025
L130344 33025
" />
<path d="M128455 29166
L128455 33025
" />
<path d="M130344 29166
L128455 29166
" />
<path d="M13244 29266
L11355 29266
" />
<path d="M11355 29266
L11355 33125
" />
<path d="M11355 33125
L13244 33125
" />
<path d="M13244 33125
L13244 29266
" />
<path d="M55913 25507
L52086 25507
" />
<path d="M55913 26492
L55913 25507
" />
<path d="M52086 26492
L55913 26492
" />
<path d="M52086 25507
L52086 26492
" />
<path d="M18413 18007
L14586 18007
" />
<path d="M18413 18992
L18413 18007
" />
<path d="M14586 18992
L18413 18992
" />
<path d="M14586 18007
L14586 18992
" />
<path d="M18413 25507
L14586 25507
" />
<path d="M18413 26492
L18413 25507
" />
<path d="M14586 26492
L18413 26492
" />
<path d="M14586 25507
L14586 26492
" />
<path d="M20413 33007
L16586 33007
" />
<path d="M20413 33992
L20413 33007
" />
<path d="M16586 33992
L20413 33992
" />
<path d="M16586 33007
L16586 33992
" />
<path d="M21413 40507
L17586 40507
" />
<path d="M21413 41492
L21413 40507
" />
<path d="M17586 41492
L21413 41492
" />
<path d="M17586 40507
L17586 41492
" />
<path d="M20913 48007
L17086 48007
" />
<path d="M20913 48992
L20913 48007
" />
<path d="M17086 48992
L20913 48992
" />
<path d="M17086 48007
L17086 48992
" />
<path d="M19413 55507
L15586 55507
" />
<path d="M19413 56492
L19413 55507
" />
<path d="M15586 56492
L19413 56492
" />
<path d="M15586 55507
L15586 56492
" />
<path d="M25913 18007
L22086 18007
" />
<path d="M25913 18992
L25913 18007
" />
<path d="M22086 18992
L25913 18992
" />
<path d="M22086 18007
L22086 18992
" />
<path d="M25913 25507
L22086 25507
" />
<path d="M25913 26492
L25913 25507
" />
<path d="M22086 26492
L25913 26492
" />
<path d="M22086 25507
L22086 26492
" />
<path d="M29913 33007
L26086 33007
" />
<path d="M29913 33992
L29913 33007
" />
<path d="M26086 33992
L29913 33992
" />
<path d="M26086 33007
L26086 33992
" />
<path d="M31413 40507
L27586 40507
" />
<path d="M31413 41492
L31413 40507
" />
<path d="M27586 41492
L31413 41492
" />
<path d="M27586 40507
L27586 41492
" />
<path d="M35913 48007
L32086 48007
" />
<path d="M35913 48992
L35913 48007
" />
<path d="M32086 48992
L35913 48992
" />
<path d="M32086 48007
L32086 48992
" />
<path d="M27913 55507
L24086 55507
" />
<path d="M27913 56492
L27913 55507
" />
<path d="M24086 56492
L27913 56492
" />
<path d="M24086 55507
L24086 56492
" />
<path d="M32913 18007
L29086 18007
" />
<path d="M32913 18992
L32913 18007
" />
<path d="M29086 18992
L32913 18992
" />
<path d="M29086 18007
L29086 18992
" />
<path d="M33413 25507
L29586 25507
" />
<path d="M33413 26492
L33413 25507
" />
<path d="M29586 26492
L33413 26492
" />
<path d="M29586 25507
L29586 26492
" />
<path d="M37413 33007
L33586 33007
" />
<path d="M37413 33992
L37413 33007
" />
<path d="M33586 33992
L37413 33992
" />
<path d="M33586 33007
L33586 33992
" />
<path d="M38913 40507
L35086 40507
" />
<path d="M38913 41492
L38913 40507
" />
<path d="M35086 41492
L38913 41492
" />
<path d="M35086 40507
L35086 41492
" />
<path d="M42913 48007
L39086 48007
" />
<path d="M42913 48992
L42913 48007
" />
<path d="M39086 48992
L42913 48992
" />
<path d="M39086 48007
L39086 48992
" />
<path d="M35413 55507
L31586 55507
" />
<path d="M35413 56492
L35413 55507
" />
<path d="M31586 56492
L35413 56492
" />
<path d="M31586 55507
L31586 56492
" />
<path d="M40413 18007
L36586 18007
" />
<path d="M40413 18992
L40413 18007
" />
<path d="M36586 18992
L40413 18992
" />
<path d="M36586 18007
L36586 18992
" />
<path d="M40913 25507
L37086 25507
" />
<path d="M40913 26492
L40913 25507
" />
<path d="M37086 26492
L40913 26492
" />
<path d="M37086 25507
L37086 26492
" />
<path d="M44913 33007
L41086 33007
" />
<path d="M44913 33992
L44913 33007
" />
<path d="M41086 33992
L44913 33992
" />
<path d="M41086 33007
L41086 33992
" />
<path d="M46413 40507
L42586 40507
" />
<path d="M46413 41492
L46413 40507
" />
<path d="M42586 41492
L46413 41492
" />
<path d="M42586 40507
L42586 41492
" />
<path d="M50413 48007
L46586 48007
" />
<path d="M50413 48992
L50413 48007
" />
<path d="M46586 48992
L50413 48992
" />
<path d="M46586 48007
L46586 48992
" />
<path d="M42913 55507
L39086 55507
" />
<path d="M42913 56492
L42913 55507
" />
<path d="M39086 56492
L42913 56492
" />
<path d="M39086 55507
L39086 56492
" />
<path d="M47913 18007
L44086 18007
" />
<path d="M47913 18992
L47913 18007
" />
<path d="M44086 18992
L47913 18992
" />
<path d="M44086 18007
L44086 18992
" />
<path d="M48413 25507
L44586 25507
" />
<path d="M48413 26492
L48413 25507
" />
<path d="M44586 26492
L48413 26492
" />
<path d="M44586 25507
L44586 26492
" />
<path d="M52413 33007
L48586 33007
" />
<path d="M52413 33992
L52413 33007
" />
<path d="M48586 33992
L52413 33992
" />
<path d="M48586 33007
L48586 33992
" />
<path d="M53913 40507
L50086 40507
" />
<path d="M53913 41492
L53913 40507
" />
<path d="M50086 41492
L53913 41492
" />
<path d="M50086 40507
L50086 41492
" />
<path d="M57913 48007
L54086 48007
" />
<path d="M57913 48992
L57913 48007
" />
<path d="M54086 48992
L57913 48992
" />
<path d="M54086 48007
L54086 48992
" />
<path d="M50413 55507
L46586 55507
" />
<path d="M50413 56492
L50413 55507
" />
<path d="M46586 56492
L50413 56492
" />
<path d="M46586 55507
L46586 56492
" />
<path d="M55413 18007
L51586 18007
" />
<path d="M55413 18992
L55413 18007
" />
<path d="M51586 18992
L55413 18992
" />
<path d="M51586 18007
L51586 18992
" />
<path d="M59913 33007
L56086 33007
" />
<path d="M59913 33992
L59913 33007
" />
<path d="M56086 33992
L59913 33992
" />
<path d="M56086 33007
L56086 33992
" />
<path d="M60913 40507
L57086 40507
" />
<path d="M60913 41492
L60913 40507
" />
<path d="M57086 41492
L60913 41492
" />
<path d="M57086 40507
L57086 41492
" />
<path d="M65413 48007
L61586 48007
" />
<path d="M65413 48992
L65413 48007
" />
<path d="M61586 48992
L65413 48992
" />
<path d="M61586 48007
L61586 48992
" />
<path d="M61413 55507
L57586 55507
" />
<path d="M61413 56492
L61413 55507
" />
<path d="M57586 56492
L61413 56492
" />
<path d="M57586 55507
L57586 56492
" />
<circle cx="23250" cy="39992.1" r="1082.68" /> 
<circle cx="117350" cy="46257.9" r="1082.68" /> 
<path d="M64436 18007
L64436 18992
" />
<path d="M64436 18992
L68263 18992
" />
<path d="M68263 18992
L68263 18007
" />
<path d="M68263 18007
L64436 18007
" />
<path d="M69763 25507
L65936 25507
" />
<path d="M69763 26492
L69763 25507
" />
<path d="M65936 26492
L69763 26492
" />
<path d="M65936 25507
L65936 26492
" />
<path d="M73763 33007
L69936 33007
" />
<path d="M73763 33992
L73763 33007
" />
<path d="M69936 33992
L73763 33992
" />
<path d="M69936 33007
L69936 33992
" />
<path d="M71686 40507
L71686 41492
" />
<path d="M71686 41492
L75513 41492
" />
<path d="M75513 41492
L75513 40507
" />
<path d="M75513 40507
L71686 40507
" />
<path d="M75436 48007
L75436 48992
" />
<path d="M75436 48992
L79263 48992
" />
<path d="M79263 48992
L79263 48007
" />
<path d="M79263 48007
L75436 48007
" />
<path d="M81913 55507
L78086 55507
" />
<path d="M81913 56492
L81913 55507
" />
<path d="M78086 56492
L81913 56492
" />
<path d="M78086 55507
L78086 56492
" />
<path d="M71936 18007
L71936 18992
" />
<path d="M71936 18992
L75763 18992
" />
<path d="M75763 18992
L75763 18007
" />
<path d="M75763 18007
L71936 18007
" />
<path d="M73436 25507
L73436 26492
" />
<path d="M73436 26492
L77263 26492
" />
<path d="M77263 26492
L77263 25507
" />
<path d="M77263 25507
L73436 25507
" />
<path d="M77436 33007
L77436 33992
" />
<path d="M77436 33992
L81263 33992
" />
<path d="M81263 33992
L81263 33007
" />
<path d="M81263 33007
L77436 33007
" />
<path d="M83013 40507
L79186 40507
" />
<path d="M83013 41492
L83013 40507
" />
<path d="M79186 41492
L83013 41492
" />
<path d="M79186 40507
L79186 41492
" />
<path d="M82936 48007
L82936 48992
" />
<path d="M82936 48992
L86763 48992
" />
<path d="M86763 48992
L86763 48007
" />
<path d="M86763 48007
L82936 48007
" />
<path d="M88436 55507
L88436 56492
" />
<path d="M88436 56492
L92263 56492
" />
<path d="M92263 56492
L92263 55507
" />
<path d="M92263 55507
L88436 55507
" />
<path d="M79936 18007
L79936 18992
" />
<path d="M79936 18992
L83763 18992
" />
<path d="M83763 18992
L83763 18007
" />
<path d="M83763 18007
L79936 18007
" />
<path d="M80936 25507
L80936 26492
" />
<path d="M80936 26492
L84763 26492
" />
<path d="M84763 26492
L84763 25507
" />
<path d="M84763 25507
L80936 25507
" />
<path d="M84936 33007
L84936 33992
" />
<path d="M84936 33992
L88763 33992
" />
<path d="M88763 33992
L88763 33007
" />
<path d="M88763 33007
L84936 33007
" />
<path d="M90513 40507
L86686 40507
" />
<path d="M90513 41492
L90513 40507
" />
<path d="M86686 41492
L90513 41492
" />
<path d="M86686 40507
L86686 41492
" />
<path d="M90436 48007
L90436 48992
" />
<path d="M90436 48992
L94263 48992
" />
<path d="M94263 48992
L94263 48007
" />
<path d="M94263 48007
L90436 48007
" />
<path d="M99763 55507
L95936 55507
" />
<path d="M99763 56492
L99763 55507
" />
<path d="M95936 56492
L99763 56492
" />
<path d="M95936 55507
L95936 56492
" />
<path d="M92263 18007
L88436 18007
" />
<path d="M92263 18992
L92263 18007
" />
<path d="M88436 18992
L92263 18992
" />
<path d="M88436 18007
L88436 18992
" />
<path d="M92263 25507
L88436 25507
" />
<path d="M92263 26492
L92263 25507
" />
<path d="M88436 26492
L92263 26492
" />
<path d="M88436 25507
L88436 26492
" />
<path d="M96263 33007
L92436 33007
" />
<path d="M96263 33992
L96263 33007
" />
<path d="M92436 33992
L96263 33992
" />
<path d="M92436 33007
L92436 33992
" />
<path d="M98013 40507
L94186 40507
" />
<path d="M98013 41492
L98013 40507
" />
<path d="M94186 41492
L98013 41492
" />
<path d="M94186 40507
L94186 41492
" />
<path d="M101763 48007
L97936 48007
" />
<path d="M101763 48992
L101763 48007
" />
<path d="M97936 48992
L101763 48992
" />
<path d="M97936 48007
L97936 48992
" />
<path d="M107263 55507
L103436 55507
" />
<path d="M107263 56492
L107263 55507
" />
<path d="M103436 56492
L107263 56492
" />
<path d="M103436 55507
L103436 56492
" />
<path d="M95936 18007
L95936 18992
" />
<path d="M95936 18992
L99763 18992
" />
<path d="M99763 18992
L99763 18007
" />
<path d="M99763 18007
L95936 18007
" />
<path d="M99763 25507
L95936 25507
" />
<path d="M99763 26492
L99763 25507
" />
<path d="M95936 26492
L99763 26492
" />
<path d="M95936 25507
L95936 26492
" />
<path d="M103763 33007
L99936 33007
" />
<path d="M103763 33992
L103763 33007
" />
<path d="M99936 33992
L103763 33992
" />
<path d="M99936 33007
L99936 33992
" />
<path d="M101686 40507
L101686 41492
" />
<path d="M101686 41492
L105513 41492
" />
<path d="M105513 41492
L105513 40507
" />
<path d="M105513 40507
L101686 40507
" />
<path d="M105436 48007
L105436 48992
" />
<path d="M105436 48992
L109263 48992
" />
<path d="M109263 48992
L109263 48007
" />
<path d="M109263 48007
L105436 48007
" />
<path d="M110936 55507
L110936 56492
" />
<path d="M110936 56492
L114763 56492
" />
<path d="M114763 56492
L114763 55507
" />
<path d="M114763 55507
L110936 55507
" />
<path d="M107263 18007
L103436 18007
" />
<path d="M107263 18992
L107263 18007
" />
<path d="M103436 18992
L107263 18992
" />
<path d="M103436 18007
L103436 18992
" />
<path d="M103436 25507
L103436 26492
" />
<path d="M103436 26492
L107263 26492
" />
<path d="M107263 26492
L107263 25507
" />
<path d="M107263 25507
L103436 25507
" />
<path d="M107436 33007
L107436 33992
" />
<path d="M107436 33992
L111263 33992
" />
<path d="M111263 33992
L111263 33007
" />
<path d="M111263 33007
L107436 33007
" />
<path d="M113013 40507
L109186 40507
" />
<path d="M113013 41492
L113013 40507
" />
<path d="M109186 41492
L113013 41492
" />
<path d="M109186 40507
L109186 41492
" />
<path d="M116763 48007
L112936 48007
" />
<path d="M116763 48992
L116763 48007
" />
<path d="M112936 48992
L116763 48992
" />
<path d="M112936 48007
L112936 48992
" />
<path d="M122263 55507
L118436 55507
" />
<path d="M122263 56492
L122263 55507
" />
<path d="M118436 56492
L122263 56492
" />
<path d="M118436 55507
L118436 56492
" />
<path d="M110936 18007
L110936 18992
" />
<path d="M110936 18992
L114763 18992
" />
<path d="M114763 18992
L114763 18007
" />
<path d="M114763 18007
L110936 18007
" />
<path d="M114763 25507
L110936 25507
" />
<path d="M114763 26492
L114763 25507
" />
<path d="M110936 26492
L114763 26492
" />
<path d="M110936 25507
L110936 26492
" />
<path d="M114936 33007
L114936 33992
" />
<path d="M114936 33992
L118763 33992
" />
<path d="M118763 33992
L118763 33007
" />
<path d="M118763 33007
L114936 33007
" />
<path d="M116436 40507
L116436 41492
" />
<path d="M116436 41492
L120263 41492
" />
<path d="M120263 41492
L120263 40507
" />
<path d="M120263 40507
L116436 40507
" />
<path d="M126763 48007
L122936 48007
" />
<path d="M126763 48992
L126763 48007
" />
<path d="M122936 48992
L126763 48992
" />
<path d="M122936 48007
L122936 48992
" />
<path d="M125936 55507
L125936 56492
" />
<path d="M125936 56492
L129763 56492
" />
<path d="M129763 56492
L129763 55507
" />
<path d="M129763 55507
L125936 55507
" />
<path d="M122263 18007
L118436 18007
" />
<path d="M122263 18992
L122263 18007
" />
<path d="M118436 18992
L122263 18992
" />
<path d="M118436 18007
L118436 18992
" />
<path d="M118436 25507
L118436 26492
" />
<path d="M118436 26492
L122263 26492
" />
<path d="M122263 26492
L122263 25507
" />
<path d="M122263 25507
L118436 25507
" />
<path d="M127763 33007
L123936 33007
" />
<path d="M127763 33992
L127763 33007
" />
<path d="M123936 33992
L127763 33992
" />
<path d="M123936 33007
L123936 33992
" />
<path d="M125936 18007
L125936 18992
" />
<path d="M125936 18992
L129763 18992
" />
<path d="M129763 18992
L129763 18007
" />
<path d="M129763 18007
L125936 18007
" />
<path d="M129763 25507
L125936 25507
" />
<path d="M129763 26492
L129763 25507
" />
<path d="M125936 26492
L129763 26492
" />
<path d="M125936 25507
L125936 26492
" />
<path d="M22708 34549
L22708 38958
" />
<path d="M21311 34549
L22708 34549
" />
<path d="M21311 38958
L21311 34549
" />
<path d="M22708 38958
L21311 38958
" />
<path d="M12213 43374
L12213 39625
" />
<path d="M11386 43374
L12213 43374
" />
<path d="M11386 39625
L11386 43374
" />
<path d="M12213 39625
L11386 39625
" />
<path d="M13413 39625
L12586 39625
" />
<path d="M12586 39625
L12586 43374
" />
<path d="M12586 43374
L13413 43374
" />
<path d="M13413 43374
L13413 39625
" />
<path d="M121186 34625
L121186 38374
" />
<path d="M122013 34625
L121186 34625
" />
<path d="M122013 38374
L122013 34625
" />
<path d="M121186 38374
L122013 38374
" />
<path d="M120186 38374
L121013 38374
" />
<path d="M121013 38374
L121013 34625
" />
<path d="M121013 34625
L120186 34625
" />
<path d="M120186 34625
L120186 38374
" />
<path d="M66413 54574
L66413 50825
" />
<path d="M65586 54574
L66413 54574
" />
<path d="M65586 50825
L65586 54574
" />
<path d="M66413 50825
L65586 50825
" />
<path d="M57186 16674
L58013 16674
" />
<path d="M58013 16674
L58013 12925
" />
<path d="M58013 12925
L57186 12925
" />
<path d="M57186 12925
L57186 16674
" />
<g >
</g>
<g >
</g>
<g >
</g>
<g >
</g>
<g >
</g>
<g >
</g>
<g >
</g>
<g >
</g>
<g >
</g>
<g >
</g>
<g >
</g>
<g >
</g>
<g >
</g>
<g >
</g>
<g >
</g>
<g >
</g>
<g >
</g>
<g >
</g>
<g >
</g>
<g >
</g>
<g >
</g>
<g >
</g>
<g >
</g>
<g >
</g>
<g >
</g>
<g >
</g>
<g >
</g>
<g >
</g>
<g >
</g>
<g >
</g>
<g >
</g>
<g >
</g>
<g >
</g>
<g >
</g>
<g >
</g>
<g >
</g>
<g >
</g>
<g >
</g>
<g >
</g>
<g >
</g>
<g >
</g>
<g >
</g>
<g >
</g>
<g >
</g>
<g >
</g>
<g >
</g>
<g >
</g>
<g >
</g>
<g >
</g>
<g >
</g>
<g >
</g>
<g >
</g>
<g >
</g>
<g >
</g>
<g >
</g>
<g >
</g>
<g >
</g>
<g >
</g>
<g >
</g>
<g >
</g>
<g >
</g>
<g >
</g>
<g >
</g>
<g >
</g>
<g >
</g>
<g >
</g>
<g >
</g>
<g >
</g>
<g >
</g>
<g >
</g>
<g >
</g>
<g >
</g>
<g >
</g>
<g >
</g>
<g >
</g>
<g >
</g>
<g >
</g>
<g >
</g>
<g >
</g>
<g >
</g>
<g >
</g>
<g >
</g>
<g >
</g>
<g >
</g>
<g >
</g>
<g >
</g>
<g >
</g>
<g >
</g>
<g >
</g>
<g >
</g>
<g >
</g>
<g >
</g>
<g >
</g>
<g >
</g>
<g >
</g>
<g >
</g>
<g >
</g>
<g >
</g>
<g >
</g>
<g >
</g>
<g >
</g>
<g >
</g>
<g >
</g>
<g >
</g>
<g >
</g>
<g >
</g>
<g >
</g>
<g >
</g>
<g >
</g>
<g >
</g>
<g >
</g>
<g >
</g>
<g >
</g>
<g >
</g>
<g >
</g>
<g >
</g>
<g >
</g>
<g >
</g>
<g >
</g>
<g >
</g>
<g >
</g>
<g >
</g>
<g >
</g>
<g >
</g>
<g >
</g>
<g >
</g>
<g >
</g>
<g >
</g>
<g >
</g>
<g >
</g>
<g >
</g>
<g >
</g>
<g >
</g>
<g >
</g>
<g >
</g>
<g >
</g>
<g >
</g>
<g >
</g>
<g >
</g>
<g >
</g>
<g >
</g>
<g >
</g>
<g >
</g>
<g >
</g>
<g >
</g>
<g >
</g>
<g >
</g>
<g >
</g>
<g >
</g>
<g >
</g>
<g >
</g>
<g >
</g>
<g >
</g>
<g >
</g>
<g >
</g>
<g >
</g>
<g >
</g>
<g >
</g>
<g >
</g>
<g >
</g>
<g >
</g>
<g >
</g>
<g >
</g>
<g >
</g>
<g >
</g>
<g >
</g>
<g >
</g>
<g >
</g>
<g >
</g>
<g >
</g>
<g >
</g>
<g >
</g>
<g >
</g>
<g >
</g>
<g >
</g>
<g >
</g>
<g >
</g>
<g >
</g>
<g >
</g>
<g >
</g>
<g >
</g>
<g >
</g>
<g >
</g>
<g >
</g>
<g >
</g>
<g >
</g>
<g >
</g>
<g >
</g>
<g >
</g>
<g >
</g>
<g >
</g>
<g >
</g>
<g >
</g>
<g >
</g>
<g >
</g>
<g >
</g>
<g >
</g>
<g >
</g>
<g >
</g>
<g >
</g>
<g >
</g>
<g >
</g>
<g >
</g>
<g >
</g>
<g >
</g>
<g >
</g>
<g >
</g>
<g >
</g>
<g >
</g>
<g >
</g>
<g >
</g>
<g >
</g>
<g >
</g>
<g >
</g>
<g >
</g>
<g >
</g>
<g >
</g>
<g >
</g>
<g >
</g>
<g >
</g>
<g >
</g>
<g >
</g>
<g >
</g>
<g >
</g>
<g >
</g>
<g >
</g>
<g >
</g>
<g >
</g>
<g >
</g>
<g >
</g>
<g >
</g>
<g >
</g>
</g> 
</svg>
