<?xml version="1.0" standalone="no"?>
 <!DOCTYPE svg PUBLIC "-//W3C//DTD SVG 1.1//EN" 
 "http://www.w3.org/Graphics/SVG/1.1/DTD/svg11.dtd"> 
<svg
  xmlns:svg="http://www.w3.org/2000/svg"
  xmlns="http://www.w3.org/2000/svg"
  xmlns:xlink="http://www.w3.org/1999/xlink"
  version="1.1"
  width="29.700220cm" height="21.000720cm" viewBox="0 0 116930 82680">
<title>SVG Picture created as skb_i2c_lefthand-Edge_Cuts.svg date 2021/01/23 19:36:53 </title>
  <desc>Picture generated by PCBNEW </desc>
<g style="fill:#000000; fill-opacity:1;stroke:#000000; stroke-opacity:1;
stroke-linecap:round; stroke-linejoin:round;"
 transform="translate(0 0) scale(1 1)">
</g>
<g style="fill:#000000; fill-opacity:0.0; 
stroke:#000000; stroke-width:-0.000393701; stroke-opacity:1; 
stroke-linecap:round; stroke-linejoin:round;">
</g>
<g style="fill:#000000; fill-opacity:0.0; 
stroke:#000000; stroke-width:19.685; stroke-opacity:1; 
stroke-linecap:round; stroke-linejoin:round;">
<path d="M67704 55500
L68700 55500
" />
<path d="M59300 21800
L59300 14000
" />
<path d="M59300 23500
L59300 24500
" />
<path d="M62200 28500
L62200 32100
" />
<path d="M63200 28500
L63200 31100
" />
<path d="M62200 28500
L63200 28500
" />
<path d="M64400 36100
L64400 39600
" />
<path d="M65400 36100
L65400 38600
" />
<path d="M64400 36100
L65400 36100
" />
<path d="M65400 34100
L64400 34100
" />
<path d="M65400 33100
L65400 34100
" />
<path d="M66400 39600
L67700 39604
" />
<path d="M68700 41600
L68699 40600
" />
<path d="M68700 43600
L68700 53500
" />
<path d="M67700 53500
L67700 43600
" />
<path d="M63200 26500
L63200 25500
" />
<path d="M62200 26500
L63200 26500
" />
<path d="M60300 21800
L59300 21800
" />
<path d="M60300 14000
L60300 21800
" />
<path d="M60300 23500
L59300 23500
" />
<path d="M59300 14000
L60300 14000
" />
<path d="M60300 12000
L59300 12000
" />
<path d="M61300 24500
L62200 24500
" />
<path d="M60300 23500 A1000 1000 0.0 0 0 61300 24500" />
<path d="M64200 32100
L64400 32100
" />
<path d="M63200 31100 A1000 1000 0.0 0 0 64200 32100" />
<path d="M65400 38600 A1000 1000 0.0 0 0 66400 39600" />
<path d="M68700 40600 A1000.01 1000.01 0.0 0 0 67700 39605" />
<path d="M67700 43600
L68700 43600
" />
<path d="M67700 41600
L68700 41600
" />
<path d="M68700 53500
L67700 53500
" />
<path d="M130400 42000
L130400 45000
" />
<path d="M140300 43000
L137100 43000
" />
<path d="M137100 33000
L140300 33000
" />
<path d="M137100 32000
L140300 32000
" />
<path d="M132300 54000
L140399 53999
" />
<path d="M130400 53000
L130400 55500
" />
<path d="M131300 53000
L130400 53000
" />
<path d="M131300 45000
L130400 45000
" />
<path d="M135100 44000
L132300 44000
" />
<path d="M131300 42000
L130400 42000
" />
<path d="M135100 43000
L132300 43000
" />
<path d="M130400 34000
L130400 33000
" />
<path d="M131300 34000
L130400 34000
" />
<path d="M130400 31000
L130400 32000
" />
<path d="M131300 31000
L130400 31000
" />
<path d="M135100 33000
L132300 33000
" />
<path d="M132300 32000
L135100 32000
" />
<path d="M130400 23000
L130400 22000
" />
<path d="M131300 23000
L130400 23000
" />
<path d="M132300 22000
L135100 22000
" />
<path d="M132300 21000
L135100 21000
" />
<path d="M130400 20000
L130400 21000
" />
<path d="M131300 20000
L130400 20000
" />
<path d="M130400 12000
L131300 12000
" />
<path d="M58300 11000
L12200 11000
" />
<path d="M61300 11000
L129400 11000
" />
<path d="M129400 56500
L69700 56500
" />
<path d="M129400 56500 A1000 1000 0.0 0 0 130400 55500" />
<path d="M66799 56499
L12200 56500
" />
<path d="M65400 40600
L66700 40600
" />
<path d="M63200 33100
L63400 33100
" />
<path d="M60300 25500
L61200 25500
" />
<path d="M59300 12000 A1000 1000 0.0 0 0 58300 11000" />
<path d="M66800 56500 A1004.99 1004.99 0.0 0 0 67705 55500" />
<path d="M65400 33100 A1000 1000 0.0 0 0 64400 32100" />
<path d="M63200 25500 A1000 1000 0.0 0 0 62200 24500" />
<path d="M59300 24500 A1000 1000 0.0 0 0 60300 25500" />
<path d="M62200 32100 A1000 1000 0.0 0 0 63200 33100" />
<path d="M64400 39600 A1000 1000 0.0 0 0 65400 40600" />
<path d="M11200 12000
L11200 55500
" />
<path d="M12200 11000 A1000 1000 0.0 0 0 11200 12000" />
<path d="M11200 55500 A1000 1000 0.0 0 0 12200 56500" />
<path d="M68700 55500 A1000 1000 0.0 0 0 69700 56500" />
<path d="M67700 41600 A1000 1000 0.0 0 0 66700 40600" />
<path d="M64400 34100 A1000 1000 0.0 0 0 63400 33100" />
<path d="M62200 26500 A1000 1000 0.0 0 0 61200 25500" />
<path d="M61300 11000 A1000 1000 0.0 0 0 60300 12000" />
<path d="M130400 12000 A1000 1000 0.0 0 0 129400 11000" />
<path d="M137100 21000
L140300 21000
" />
<path d="M137100 22000
L140300 22000
" />
<path d="M137100 44000
L140300 44000
" />
<path d="M141300 45000
L141304 53000
" />
<path d="M141300 34000
L141300 42000
" />
<path d="M141300 23000
L141300 31000
" />
<path d="M141300 12000
L141300 20000
" />
<path d="M132300 11000
L140300 11000
" />
<path d="M132300 11000 A1000 1000 0.0 0 0 131300 12000" />
<path d="M131300 20000 A1000 1000 0.0 0 0 132300 21000" />
<path d="M132300 22000 A1000 1000 0.0 0 0 131300 23000" />
<path d="M131300 31000 A1000 1000 0.0 0 0 132300 32000" />
<path d="M132300 33000 A1000 1000 0.0 0 0 131300 34000" />
<path d="M131300 53000 A1000 1000 0.0 0 0 132300 54000" />
<path d="M132300 44000 A1000 1000 0.0 0 0 131300 45000" />
<path d="M131300 42000 A1000 1000 0.0 0 0 132300 43000" />
<path d="M140400 54000 A1004.99 1004.99 0.0 0 0 141305 53000" />
<path d="M141300 45000 A1000 1000 0.0 0 0 140300 44000" />
<path d="M140300 43000 A1000 1000 0.0 0 0 141300 42000" />
<path d="M141300 34000 A1000 1000 0.0 0 0 140300 33000" />
<path d="M140300 32000 A1000 1000 0.0 0 0 141300 31000" />
<path d="M141300 23000 A1000 1000 0.0 0 0 140300 22000" />
<path d="M140300 21000 A1000 1000 0.0 0 0 141300 20000" />
<path d="M141300 12000 A1000 1000 0.0 0 0 140300 11000" />
<path d="M130400 46000
L130400 52000
" />
<path d="M130400 35000
L130400 41000
" />
<path d="M130400 32000
L130400 33000
" />
<path d="M130400 24000
L130400 30000
" />
<path d="M130400 21000
L130400 22000
" />
<path d="M130400 13000
L130400 19000
" />
<path d="M131300 13000
L131300 19000
" />
<path d="M131300 24000
L131300 30000
" />
<path d="M130400 24000
L131300 24000
" />
<path d="M131300 46000
L131300 47800
" />
<path d="M130400 46000
L131300 46000
" />
<path d="M131300 35000
L131300 36800
" />
<path d="M130400 35000
L131300 35000
" />
<path d="M131300 36800
L131300 41000
" />
<path d="M131300 52000
L131300 47800
" />
<path d="M137100 43000
L137100 44000
" />
<path d="M135100 43000
L135100 44000
" />
<path d="M137100 32000
L137100 33000
" />
<path d="M135100 32000
L135100 33000
" />
<path d="M137100 21000
L137100 22000
" />
<path d="M135100 21000
L135100 22000
" />
<path d="M131300 19000
L130400 19000
" />
<path d="M131300 30000
L130400 30000
" />
<path d="M131300 41000
L130400 41000
" />
<path d="M131300 52000
L130400 52000
" />
<path d="M131300 13000
L130400 13000
" />
<g >
</g>
<g >
</g>
<g >
</g>
<g >
</g>
<g >
</g>
<g >
</g>
<g >
</g>
<g >
</g>
<g >
</g>
<g >
</g>
<g >
</g>
<g >
</g>
<g >
</g>
<g >
</g>
<g >
</g>
<g >
</g>
<g >
</g>
<g >
</g>
<g >
</g>
<g >
</g>
<g >
</g>
<g >
</g>
<g >
</g>
<g >
</g>
<g >
</g>
<g >
</g>
<g >
</g>
<g >
</g>
<g >
</g>
<g >
</g>
<g >
</g>
<g >
</g>
<g >
</g>
<g >
</g>
<g >
</g>
<g >
</g>
<g >
</g>
<g >
</g>
<g >
</g>
<g >
</g>
<g >
</g>
<g >
</g>
<g >
</g>
<g >
</g>
<g >
</g>
<g >
</g>
<g >
</g>
<g >
</g>
<g >
</g>
<g >
</g>
<g >
</g>
<g >
</g>
<g >
</g>
<g >
</g>
<g >
</g>
<g >
</g>
<g >
</g>
<g >
</g>
<g >
</g>
<g >
</g>
<g >
</g>
<g >
</g>
<g >
</g>
<g >
</g>
<g >
</g>
<g >
</g>
<g >
</g>
<g >
</g>
<g >
</g>
<g >
</g>
<g >
</g>
<g >
</g>
<g >
</g>
<g >
</g>
<g >
</g>
<g >
</g>
<g >
</g>
<g >
</g>
<g >
</g>
<g >
</g>
<g >
</g>
<g >
</g>
<g >
</g>
<g >
</g>
<g >
</g>
<g >
</g>
<g >
</g>
<g >
</g>
<g >
</g>
<g >
</g>
<g >
</g>
<g >
</g>
<g >
</g>
<g >
</g>
<g >
</g>
<g >
</g>
<g >
</g>
<g >
</g>
<g >
</g>
<g >
</g>
<g >
</g>
<g >
</g>
<g >
</g>
<g >
</g>
<g >
</g>
<g >
</g>
<g >
</g>
<g >
</g>
<g >
</g>
<g >
</g>
<g >
</g>
<g >
</g>
<g >
</g>
<g >
</g>
<g >
</g>
<g >
</g>
<g >
</g>
<g >
</g>
<g >
</g>
<g >
</g>
<g >
</g>
<g >
</g>
<g >
</g>
<g >
</g>
<g >
</g>
<g >
</g>
<g >
</g>
<g >
</g>
<g >
</g>
<g >
</g>
<g >
</g>
<g >
</g>
<g >
</g>
<g >
</g>
<g >
</g>
<g >
</g>
<g >
</g>
<g >
</g>
<g >
</g>
<g >
</g>
<g >
</g>
<g >
</g>
<g >
</g>
<g >
</g>
<g >
</g>
<g >
</g>
<g >
</g>
<g >
</g>
<g >
</g>
<g >
</g>
<g >
</g>
<g >
</g>
<g >
</g>
<g >
</g>
<g >
</g>
<g >
</g>
<g >
</g>
<g >
</g>
<g >
</g>
<g >
</g>
<g >
</g>
<g >
</g>
<g >
</g>
<g >
</g>
<g >
</g>
<g >
</g>
<g >
</g>
<g >
</g>
<g >
</g>
<g >
</g>
<g >
</g>
<g >
</g>
<g >
</g>
<g >
</g>
<g >
</g>
<g >
</g>
<g >
</g>
<g >
</g>
<g >
</g>
<g >
</g>
<g >
</g>
<g >
</g>
<g >
</g>
<g >
</g>
<g >
</g>
<g >
</g>
<g >
</g>
<g >
</g>
<g >
</g>
<g >
</g>
<g >
</g>
<g >
</g>
<g >
</g>
<g >
</g>
<g >
</g>
<g >
</g>
<g >
</g>
<g >
</g>
<g >
</g>
<g >
</g>
<g >
</g>
<g >
</g>
<g >
</g>
<g >
</g>
<g >
</g>
<g >
</g>
<g >
</g>
<g >
</g>
<g >
</g>
<g >
</g>
<g >
</g>
<g >
</g>
<g >
</g>
<g >
</g>
<g >
</g>
<g >
</g>
<g >
</g>
<g >
</g>
<g >
</g>
<g >
</g>
<g >
</g>
<g >
</g>
<g >
</g>
<g >
</g>
<g >
</g>
<g >
</g>
<g >
</g>
<g >
</g>
<g >
</g>
<g >
</g>
<g >
</g>
<g >
</g>
</g> 
</svg>
