  0
SECTION
  2
HEADER
  9
$ACADVER
  1
AC1009
  9
$EXTMIN
 10
0.0
 20
0.0
 30
0.0
  9
$EXTMAX
 10
1000.0
 20
1000.0
 30
0.0
  9
$FILLMODE
 70
 0
  9
$SPLFRAME
 70
 1
  0
ENDSEC
  0
SECTION
  2
TABLES
  0
TABLE
  2
LAYER
 70
1
  0
LAYER
  2
0
 70
     0
 62
     7
  6
CONTINUOUS
  0
ENDTAB
  0
ENDSEC
  0
SECTION
  2
ENTITIES
  0
LINE
  8
0
 62
     0
 10
0.0950846
 20
114.558
 30
0.0
 11
171.545
 21
114.558
 31
0.0
  0
LINE
  8
0
 62
     0
 10
171.545
 20
114.558
 30
0.0
 11
171.545
 21
0.257693
 31
0.0
  0
LINE
  8
0
 62
     0
 10
171.545
 20
0.257693
 30
0.0
 11
0.0950846
 21
0.257693
 31
0.0
  0
LINE
  8
0
 62
     0
 10
0.0950846
 20
0.257693
 30
0.0
 11
0.0950846
 21
114.558
 31
0.0
  0
LINE
  8
0
 62
     0
 10
155.02
 20
16.7845
 30
0.0
 11
155.02
 21
15.7841
 31
0.0
  0
LINE
  8
0
 62
     0
 10
155.02
 20
15.7841
 30
0.0
 11
154.219
 21
15.7841
 31
0.0
  0
LINE
  8
0
 62
     0
 10
154.219
 20
15.7841
 30
0.0
 11
154.219
 21
12.6848
 31
0.0
  0
LINE
  8
0
 62
     0
 10
154.219
 20
12.6848
 30
0.0
 11
155.02
 21
12.6848
 31
0.0
  0
LINE
  8
0
 62
     0
 10
155.02
 20
12.6848
 30
0.0
 11
155.02
 21
6.88329
 31
0.0
  0
LINE
  8
0
 62
     0
 10
155.02
 20
6.88329
 30
0.0
 11
154.219
 21
6.88329
 31
0.0
  0
LINE
  8
0
 62
     0
 10
154.219
 20
6.88329
 30
0.0
 11
154.219
 21
3.78411
 31
0.0
  0
LINE
  8
0
 62
     0
 10
154.219
 20
3.78411
 30
0.0
 11
155.02
 21
3.78411
 31
0.0
  0
LINE
  8
0
 62
     0
 10
155.02
 20
3.78411
 30
0.0
 11
155.02
 21
2.78364
 31
0.0
  0
LINE
  8
0
 62
     0
 10
155.02
 20
2.78364
 30
0.0
 11
169.019
 21
2.78364
 31
0.0
  0
LINE
  8
0
 62
     0
 10
169.019
 20
2.78364
 30
0.0
 11
169.019
 21
3.78411
 31
0.0
  0
LINE
  8
0
 62
     0
 10
169.019
 20
3.78411
 30
0.0
 11
169.82
 21
3.78411
 31
0.0
  0
LINE
  8
0
 62
     0
 10
169.82
 20
3.78411
 30
0.0
 11
169.82
 21
6.88329
 31
0.0
  0
LINE
  8
0
 62
     0
 10
169.82
 20
6.88329
 30
0.0
 11
169.019
 21
6.88329
 31
0.0
  0
LINE
  8
0
 62
     0
 10
169.019
 20
6.88329
 30
0.0
 11
169.019
 21
12.6848
 31
0.0
  0
LINE
  8
0
 62
     0
 10
169.019
 20
12.6848
 30
0.0
 11
169.82
 21
12.6848
 31
0.0
  0
LINE
  8
0
 62
     0
 10
169.82
 20
12.6848
 30
0.0
 11
169.82
 21
15.7841
 31
0.0
  0
LINE
  8
0
 62
     0
 10
169.82
 20
15.7841
 30
0.0
 11
169.019
 21
15.7841
 31
0.0
  0
LINE
  8
0
 62
     0
 10
169.019
 20
15.7841
 30
0.0
 11
169.019
 21
16.7845
 31
0.0
  0
LINE
  8
0
 62
     0
 10
169.019
 20
16.7845
 30
0.0
 11
155.02
 21
16.7845
 31
0.0
  0
LINE
  8
0
 62
     0
 10
135.97
 20
16.7845
 30
0.0
 11
135.97
 21
15.7841
 31
0.0
  0
LINE
  8
0
 62
     0
 10
135.97
 20
15.7841
 30
0.0
 11
135.169
 21
15.7841
 31
0.0
  0
LINE
  8
0
 62
     0
 10
135.169
 20
15.7841
 30
0.0
 11
135.169
 21
12.6848
 31
0.0
  0
LINE
  8
0
 62
     0
 10
135.169
 20
12.6848
 30
0.0
 11
135.97
 21
12.6848
 31
0.0
  0
LINE
  8
0
 62
     0
 10
135.97
 20
12.6848
 30
0.0
 11
135.97
 21
6.88329
 31
0.0
  0
LINE
  8
0
 62
     0
 10
135.97
 20
6.88329
 30
0.0
 11
135.169
 21
6.88329
 31
0.0
  0
LINE
  8
0
 62
     0
 10
135.169
 20
6.88329
 30
0.0
 11
135.169
 21
3.78411
 31
0.0
  0
LINE
  8
0
 62
     0
 10
135.169
 20
3.78411
 30
0.0
 11
135.97
 21
3.78411
 31
0.0
  0
LINE
  8
0
 62
     0
 10
135.97
 20
3.78411
 30
0.0
 11
135.97
 21
2.78364
 31
0.0
  0
LINE
  8
0
 62
     0
 10
135.97
 20
2.78364
 30
0.0
 11
149.969
 21
2.78364
 31
0.0
  0
LINE
  8
0
 62
     0
 10
149.969
 20
2.78364
 30
0.0
 11
149.969
 21
3.78411
 31
0.0
  0
LINE
  8
0
 62
     0
 10
149.969
 20
3.78411
 30
0.0
 11
150.77
 21
3.78411
 31
0.0
  0
LINE
  8
0
 62
     0
 10
150.77
 20
3.78411
 30
0.0
 11
150.77
 21
6.88329
 31
0.0
  0
LINE
  8
0
 62
     0
 10
150.77
 20
6.88329
 30
0.0
 11
149.969
 21
6.88329
 31
0.0
  0
LINE
  8
0
 62
     0
 10
149.969
 20
6.88329
 30
0.0
 11
149.969
 21
12.6848
 31
0.0
  0
LINE
  8
0
 62
     0
 10
149.969
 20
12.6848
 30
0.0
 11
150.77
 21
12.6848
 31
0.0
  0
LINE
  8
0
 62
     0
 10
150.77
 20
12.6848
 30
0.0
 11
150.77
 21
15.7841
 31
0.0
  0
LINE
  8
0
 62
     0
 10
150.77
 20
15.7841
 30
0.0
 11
149.969
 21
15.7841
 31
0.0
  0
LINE
  8
0
 62
     0
 10
149.969
 20
15.7841
 30
0.0
 11
149.969
 21
16.7845
 31
0.0
  0
LINE
  8
0
 62
     0
 10
149.969
 20
16.7845
 30
0.0
 11
135.97
 21
16.7845
 31
0.0
  0
LINE
  8
0
 62
     0
 10
116.92
 20
16.7845
 30
0.0
 11
116.92
 21
15.7841
 31
0.0
  0
LINE
  8
0
 62
     0
 10
116.92
 20
15.7841
 30
0.0
 11
116.119
 21
15.7841
 31
0.0
  0
LINE
  8
0
 62
     0
 10
116.119
 20
15.7841
 30
0.0
 11
116.119
 21
12.6848
 31
0.0
  0
LINE
  8
0
 62
     0
 10
116.119
 20
12.6848
 30
0.0
 11
116.92
 21
12.6848
 31
0.0
  0
LINE
  8
0
 62
     0
 10
116.92
 20
12.6848
 30
0.0
 11
116.92
 21
6.88329
 31
0.0
  0
LINE
  8
0
 62
     0
 10
116.92
 20
6.88329
 30
0.0
 11
116.119
 21
6.88329
 31
0.0
  0
LINE
  8
0
 62
     0
 10
116.119
 20
6.88329
 30
0.0
 11
116.119
 21
3.78411
 31
0.0
  0
LINE
  8
0
 62
     0
 10
116.119
 20
3.78411
 30
0.0
 11
116.92
 21
3.78411
 31
0.0
  0
LINE
  8
0
 62
     0
 10
116.92
 20
3.78411
 30
0.0
 11
116.92
 21
2.78364
 31
0.0
  0
LINE
  8
0
 62
     0
 10
116.92
 20
2.78364
 30
0.0
 11
130.919
 21
2.78364
 31
0.0
  0
LINE
  8
0
 62
     0
 10
130.919
 20
2.78364
 30
0.0
 11
130.919
 21
3.78411
 31
0.0
  0
LINE
  8
0
 62
     0
 10
130.919
 20
3.78411
 30
0.0
 11
131.72
 21
3.78411
 31
0.0
  0
LINE
  8
0
 62
     0
 10
131.72
 20
3.78411
 30
0.0
 11
131.72
 21
6.88329
 31
0.0
  0
LINE
  8
0
 62
     0
 10
131.72
 20
6.88329
 30
0.0
 11
130.919
 21
6.88329
 31
0.0
  0
LINE
  8
0
 62
     0
 10
130.919
 20
6.88329
 30
0.0
 11
130.919
 21
12.6848
 31
0.0
  0
LINE
  8
0
 62
     0
 10
130.919
 20
12.6848
 30
0.0
 11
131.72
 21
12.6848
 31
0.0
  0
LINE
  8
0
 62
     0
 10
131.72
 20
12.6848
 30
0.0
 11
131.72
 21
15.7841
 31
0.0
  0
LINE
  8
0
 62
     0
 10
131.72
 20
15.7841
 30
0.0
 11
130.919
 21
15.7841
 31
0.0
  0
LINE
  8
0
 62
     0
 10
130.919
 20
15.7841
 30
0.0
 11
130.919
 21
16.7845
 31
0.0
  0
LINE
  8
0
 62
     0
 10
130.919
 20
16.7845
 30
0.0
 11
116.92
 21
16.7845
 31
0.0
  0
LINE
  8
0
 62
     0
 10
97.8697
 20
16.7845
 30
0.0
 11
97.8697
 21
15.7841
 31
0.0
  0
LINE
  8
0
 62
     0
 10
97.8697
 20
15.7841
 30
0.0
 11
97.0689
 21
15.7841
 31
0.0
  0
LINE
  8
0
 62
     0
 10
97.0689
 20
15.7841
 30
0.0
 11
97.0689
 21
12.6848
 31
0.0
  0
LINE
  8
0
 62
     0
 10
97.0689
 20
12.6848
 30
0.0
 11
97.8697
 21
12.6848
 31
0.0
  0
LINE
  8
0
 62
     0
 10
97.8697
 20
12.6848
 30
0.0
 11
97.8697
 21
6.88329
 31
0.0
  0
LINE
  8
0
 62
     0
 10
97.8697
 20
6.88329
 30
0.0
 11
97.0689
 21
6.88329
 31
0.0
  0
LINE
  8
0
 62
     0
 10
97.0689
 20
6.88329
 30
0.0
 11
97.0689
 21
3.78411
 31
0.0
  0
LINE
  8
0
 62
     0
 10
97.0689
 20
3.78411
 30
0.0
 11
97.8697
 21
3.78411
 31
0.0
  0
LINE
  8
0
 62
     0
 10
97.8697
 20
3.78411
 30
0.0
 11
97.8697
 21
2.78364
 31
0.0
  0
LINE
  8
0
 62
     0
 10
97.8697
 20
2.78364
 30
0.0
 11
111.869
 21
2.78364
 31
0.0
  0
LINE
  8
0
 62
     0
 10
111.869
 20
2.78364
 30
0.0
 11
111.869
 21
3.78411
 31
0.0
  0
LINE
  8
0
 62
     0
 10
111.869
 20
3.78411
 30
0.0
 11
112.67
 21
3.78411
 31
0.0
  0
LINE
  8
0
 62
     0
 10
112.67
 20
3.78411
 30
0.0
 11
112.67
 21
6.88329
 31
0.0
  0
LINE
  8
0
 62
     0
 10
112.67
 20
6.88329
 30
0.0
 11
111.869
 21
6.88329
 31
0.0
  0
LINE
  8
0
 62
     0
 10
111.869
 20
6.88329
 30
0.0
 11
111.869
 21
12.6848
 31
0.0
  0
LINE
  8
0
 62
     0
 10
111.869
 20
12.6848
 30
0.0
 11
112.67
 21
12.6848
 31
0.0
  0
LINE
  8
0
 62
     0
 10
112.67
 20
12.6848
 30
0.0
 11
112.67
 21
15.7841
 31
0.0
  0
LINE
  8
0
 62
     0
 10
112.67
 20
15.7841
 30
0.0
 11
111.869
 21
15.7841
 31
0.0
  0
LINE
  8
0
 62
     0
 10
111.869
 20
15.7841
 30
0.0
 11
111.869
 21
16.7845
 31
0.0
  0
LINE
  8
0
 62
     0
 10
111.869
 20
16.7845
 30
0.0
 11
97.8697
 21
16.7845
 31
0.0
  0
LINE
  8
0
 62
     0
 10
78.8197
 20
16.7845
 30
0.0
 11
78.8197
 21
15.7841
 31
0.0
  0
LINE
  8
0
 62
     0
 10
78.8197
 20
15.7841
 30
0.0
 11
78.0189
 21
15.7841
 31
0.0
  0
LINE
  8
0
 62
     0
 10
78.0189
 20
15.7841
 30
0.0
 11
78.0189
 21
12.6848
 31
0.0
  0
LINE
  8
0
 62
     0
 10
78.0189
 20
12.6848
 30
0.0
 11
78.8197
 21
12.6848
 31
0.0
  0
LINE
  8
0
 62
     0
 10
78.8197
 20
12.6848
 30
0.0
 11
78.8197
 21
6.88329
 31
0.0
  0
LINE
  8
0
 62
     0
 10
78.8197
 20
6.88329
 30
0.0
 11
78.0189
 21
6.88329
 31
0.0
  0
LINE
  8
0
 62
     0
 10
78.0189
 20
6.88329
 30
0.0
 11
78.0189
 21
3.78411
 31
0.0
  0
LINE
  8
0
 62
     0
 10
78.0189
 20
3.78411
 30
0.0
 11
78.8197
 21
3.78411
 31
0.0
  0
LINE
  8
0
 62
     0
 10
78.8197
 20
3.78411
 30
0.0
 11
78.8197
 21
2.78364
 31
0.0
  0
LINE
  8
0
 62
     0
 10
78.8197
 20
2.78364
 30
0.0
 11
92.819
 21
2.78364
 31
0.0
  0
LINE
  8
0
 62
     0
 10
92.819
 20
2.78364
 30
0.0
 11
92.819
 21
3.78411
 31
0.0
  0
LINE
  8
0
 62
     0
 10
92.819
 20
3.78411
 30
0.0
 11
93.6198
 21
3.78411
 31
0.0
  0
LINE
  8
0
 62
     0
 10
93.6198
 20
3.78411
 30
0.0
 11
93.6198
 21
6.88329
 31
0.0
  0
LINE
  8
0
 62
     0
 10
93.6198
 20
6.88329
 30
0.0
 11
92.819
 21
6.88329
 31
0.0
  0
LINE
  8
0
 62
     0
 10
92.819
 20
6.88329
 30
0.0
 11
92.819
 21
12.6848
 31
0.0
  0
LINE
  8
0
 62
     0
 10
92.819
 20
12.6848
 30
0.0
 11
93.6198
 21
12.6848
 31
0.0
  0
LINE
  8
0
 62
     0
 10
93.6198
 20
12.6848
 30
0.0
 11
93.6198
 21
15.7841
 31
0.0
  0
LINE
  8
0
 62
     0
 10
93.6198
 20
15.7841
 30
0.0
 11
92.819
 21
15.7841
 31
0.0
  0
LINE
  8
0
 62
     0
 10
92.819
 20
15.7841
 30
0.0
 11
92.819
 21
16.7845
 31
0.0
  0
LINE
  8
0
 62
     0
 10
92.819
 20
16.7845
 30
0.0
 11
78.8197
 21
16.7845
 31
0.0
  0
LINE
  8
0
 62
     0
 10
59.7697
 20
16.7845
 30
0.0
 11
59.7697
 21
15.7841
 31
0.0
  0
LINE
  8
0
 62
     0
 10
59.7697
 20
15.7841
 30
0.0
 11
58.9689
 21
15.7841
 31
0.0
  0
LINE
  8
0
 62
     0
 10
58.9689
 20
15.7841
 30
0.0
 11
58.9689
 21
12.6848
 31
0.0
  0
LINE
  8
0
 62
     0
 10
58.9689
 20
12.6848
 30
0.0
 11
59.7697
 21
12.6848
 31
0.0
  0
LINE
  8
0
 62
     0
 10
59.7697
 20
12.6848
 30
0.0
 11
59.7697
 21
6.88329
 31
0.0
  0
LINE
  8
0
 62
     0
 10
59.7697
 20
6.88329
 30
0.0
 11
58.9689
 21
6.88329
 31
0.0
  0
LINE
  8
0
 62
     0
 10
58.9689
 20
6.88329
 30
0.0
 11
58.9689
 21
3.78411
 31
0.0
  0
LINE
  8
0
 62
     0
 10
58.9689
 20
3.78411
 30
0.0
 11
59.7697
 21
3.78411
 31
0.0
  0
LINE
  8
0
 62
     0
 10
59.7697
 20
3.78411
 30
0.0
 11
59.7697
 21
2.78364
 31
0.0
  0
LINE
  8
0
 62
     0
 10
59.7697
 20
2.78364
 30
0.0
 11
73.769
 21
2.78364
 31
0.0
  0
LINE
  8
0
 62
     0
 10
73.769
 20
2.78364
 30
0.0
 11
73.769
 21
3.78411
 31
0.0
  0
LINE
  8
0
 62
     0
 10
73.769
 20
3.78411
 30
0.0
 11
74.5698
 21
3.78411
 31
0.0
  0
LINE
  8
0
 62
     0
 10
74.5698
 20
3.78411
 30
0.0
 11
74.5698
 21
6.88329
 31
0.0
  0
LINE
  8
0
 62
     0
 10
74.5698
 20
6.88329
 30
0.0
 11
73.769
 21
6.88329
 31
0.0
  0
LINE
  8
0
 62
     0
 10
73.769
 20
6.88329
 30
0.0
 11
73.769
 21
12.6848
 31
0.0
  0
LINE
  8
0
 62
     0
 10
73.769
 20
12.6848
 30
0.0
 11
74.5698
 21
12.6848
 31
0.0
  0
LINE
  8
0
 62
     0
 10
74.5698
 20
12.6848
 30
0.0
 11
74.5698
 21
15.7841
 31
0.0
  0
LINE
  8
0
 62
     0
 10
74.5698
 20
15.7841
 30
0.0
 11
73.769
 21
15.7841
 31
0.0
  0
LINE
  8
0
 62
     0
 10
73.769
 20
15.7841
 30
0.0
 11
73.769
 21
16.7845
 31
0.0
  0
LINE
  8
0
 62
     0
 10
73.769
 20
16.7845
 30
0.0
 11
59.7697
 21
16.7845
 31
0.0
  0
LINE
  8
0
 62
     0
 10
33.5759
 20
16.7845
 30
0.0
 11
33.5759
 21
15.7841
 31
0.0
  0
LINE
  8
0
 62
     0
 10
33.5759
 20
15.7841
 30
0.0
 11
32.7753
 21
15.7841
 31
0.0
  0
LINE
  8
0
 62
     0
 10
32.7753
 20
15.7841
 30
0.0
 11
32.7753
 21
12.6848
 31
0.0
  0
LINE
  8
0
 62
     0
 10
32.7753
 20
12.6848
 30
0.0
 11
33.5759
 21
12.6848
 31
0.0
  0
LINE
  8
0
 62
     0
 10
33.5759
 20
12.6848
 30
0.0
 11
33.5759
 21
6.88329
 31
0.0
  0
LINE
  8
0
 62
     0
 10
33.5759
 20
6.88329
 30
0.0
 11
32.7753
 21
6.88329
 31
0.0
  0
LINE
  8
0
 62
     0
 10
32.7753
 20
6.88329
 30
0.0
 11
32.7753
 21
3.78411
 31
0.0
  0
LINE
  8
0
 62
     0
 10
32.7753
 20
3.78411
 30
0.0
 11
33.5759
 21
3.78411
 31
0.0
  0
LINE
  8
0
 62
     0
 10
33.5759
 20
3.78411
 30
0.0
 11
33.5759
 21
2.78364
 31
0.0
  0
LINE
  8
0
 62
     0
 10
33.5759
 20
2.78364
 30
0.0
 11
47.5753
 21
2.78364
 31
0.0
  0
LINE
  8
0
 62
     0
 10
47.5753
 20
2.78364
 30
0.0
 11
47.5753
 21
3.78411
 31
0.0
  0
LINE
  8
0
 62
     0
 10
47.5753
 20
3.78411
 30
0.0
 11
48.3761
 21
3.78411
 31
0.0
  0
LINE
  8
0
 62
     0
 10
48.3761
 20
3.78411
 30
0.0
 11
48.3761
 21
6.88329
 31
0.0
  0
LINE
  8
0
 62
     0
 10
48.3761
 20
6.88329
 30
0.0
 11
47.5753
 21
6.88329
 31
0.0
  0
LINE
  8
0
 62
     0
 10
47.5753
 20
6.88329
 30
0.0
 11
47.5753
 21
12.6848
 31
0.0
  0
LINE
  8
0
 62
     0
 10
47.5753
 20
12.6848
 30
0.0
 11
48.3761
 21
12.6848
 31
0.0
  0
LINE
  8
0
 62
     0
 10
48.3761
 20
12.6848
 30
0.0
 11
48.3761
 21
15.7841
 31
0.0
  0
LINE
  8
0
 62
     0
 10
48.3761
 20
15.7841
 30
0.0
 11
47.5753
 21
15.7841
 31
0.0
  0
LINE
  8
0
 62
     0
 10
47.5753
 20
15.7841
 30
0.0
 11
47.5753
 21
16.7845
 31
0.0
  0
LINE
  8
0
 62
     0
 10
47.5753
 20
16.7845
 30
0.0
 11
33.5759
 21
16.7845
 31
0.0
  0
LINE
  8
0
 62
     0
 10
147.876
 20
35.833
 30
0.0
 11
147.876
 21
34.8327
 31
0.0
  0
LINE
  8
0
 62
     0
 10
147.876
 20
34.8327
 30
0.0
 11
147.075
 21
34.8327
 31
0.0
  0
LINE
  8
0
 62
     0
 10
147.075
 20
34.8327
 30
0.0
 11
147.075
 21
31.7348
 31
0.0
  0
LINE
  8
0
 62
     0
 10
147.075
 20
31.7348
 30
0.0
 11
147.876
 21
31.7348
 31
0.0
  0
LINE
  8
0
 62
     0
 10
147.876
 20
31.7348
 30
0.0
 11
147.876
 21
25.9333
 31
0.0
  0
LINE
  8
0
 62
     0
 10
147.876
 20
25.9333
 30
0.0
 11
147.075
 21
25.9333
 31
0.0
  0
LINE
  8
0
 62
     0
 10
147.075
 20
25.9333
 30
0.0
 11
147.075
 21
22.8327
 31
0.0
  0
LINE
  8
0
 62
     0
 10
147.075
 20
22.8327
 30
0.0
 11
147.876
 21
22.8327
 31
0.0
  0
LINE
  8
0
 62
     0
 10
147.876
 20
22.8327
 30
0.0
 11
147.876
 21
21.8336
 31
0.0
  0
LINE
  8
0
 62
     0
 10
147.876
 20
21.8336
 30
0.0
 11
161.875
 21
21.8336
 31
0.0
  0
LINE
  8
0
 62
     0
 10
161.875
 20
21.8336
 30
0.0
 11
161.875
 21
22.8327
 31
0.0
  0
LINE
  8
0
 62
     0
 10
161.875
 20
22.8327
 30
0.0
 11
162.676
 21
22.8327
 31
0.0
  0
LINE
  8
0
 62
     0
 10
162.676
 20
22.8327
 30
0.0
 11
162.676
 21
25.9333
 31
0.0
  0
LINE
  8
0
 62
     0
 10
162.676
 20
25.9333
 30
0.0
 11
161.875
 21
25.9333
 31
0.0
  0
LINE
  8
0
 62
     0
 10
161.875
 20
25.9333
 30
0.0
 11
161.875
 21
31.7348
 31
0.0
  0
LINE
  8
0
 62
     0
 10
161.875
 20
31.7348
 30
0.0
 11
162.676
 21
31.7348
 31
0.0
  0
LINE
  8
0
 62
     0
 10
162.676
 20
31.7348
 30
0.0
 11
162.676
 21
34.8327
 31
0.0
  0
LINE
  8
0
 62
     0
 10
162.676
 20
34.8327
 30
0.0
 11
161.875
 21
34.8327
 31
0.0
  0
LINE
  8
0
 62
     0
 10
161.875
 20
34.8327
 30
0.0
 11
161.875
 21
35.833
 31
0.0
  0
LINE
  8
0
 62
     0
 10
161.875
 20
35.833
 30
0.0
 11
147.876
 21
35.833
 31
0.0
  0
LINE
  8
0
 62
     0
 10
121.682
 20
35.833
 30
0.0
 11
121.682
 21
34.8327
 31
0.0
  0
LINE
  8
0
 62
     0
 10
121.682
 20
34.8327
 30
0.0
 11
120.881
 21
34.8327
 31
0.0
  0
LINE
  8
0
 62
     0
 10
120.881
 20
34.8327
 30
0.0
 11
120.881
 21
31.7348
 31
0.0
  0
LINE
  8
0
 62
     0
 10
120.881
 20
31.7348
 30
0.0
 11
121.682
 21
31.7348
 31
0.0
  0
LINE
  8
0
 62
     0
 10
121.682
 20
31.7348
 30
0.0
 11
121.682
 21
25.9333
 31
0.0
  0
LINE
  8
0
 62
     0
 10
121.682
 20
25.9333
 30
0.0
 11
120.881
 21
25.9333
 31
0.0
  0
LINE
  8
0
 62
     0
 10
120.881
 20
25.9333
 30
0.0
 11
120.881
 21
22.8327
 31
0.0
  0
LINE
  8
0
 62
     0
 10
120.881
 20
22.8327
 30
0.0
 11
121.682
 21
22.8327
 31
0.0
  0
LINE
  8
0
 62
     0
 10
121.682
 20
22.8327
 30
0.0
 11
121.682
 21
21.8336
 31
0.0
  0
LINE
  8
0
 62
     0
 10
121.682
 20
21.8336
 30
0.0
 11
135.682
 21
21.8336
 31
0.0
  0
LINE
  8
0
 62
     0
 10
135.682
 20
21.8336
 30
0.0
 11
135.682
 21
22.8327
 31
0.0
  0
LINE
  8
0
 62
     0
 10
135.682
 20
22.8327
 30
0.0
 11
136.481
 21
22.8327
 31
0.0
  0
LINE
  8
0
 62
     0
 10
136.481
 20
22.8327
 30
0.0
 11
136.481
 21
25.9333
 31
0.0
  0
LINE
  8
0
 62
     0
 10
136.481
 20
25.9333
 30
0.0
 11
135.682
 21
25.9333
 31
0.0
  0
LINE
  8
0
 62
     0
 10
135.682
 20
25.9333
 30
0.0
 11
135.682
 21
31.7348
 31
0.0
  0
LINE
  8
0
 62
     0
 10
135.682
 20
31.7348
 30
0.0
 11
136.481
 21
31.7348
 31
0.0
  0
LINE
  8
0
 62
     0
 10
136.481
 20
31.7348
 30
0.0
 11
136.481
 21
34.8327
 31
0.0
  0
LINE
  8
0
 62
     0
 10
136.481
 20
34.8327
 30
0.0
 11
135.682
 21
34.8327
 31
0.0
  0
LINE
  8
0
 62
     0
 10
135.682
 20
34.8327
 30
0.0
 11
135.682
 21
35.833
 31
0.0
  0
LINE
  8
0
 62
     0
 10
135.682
 20
35.833
 30
0.0
 11
121.682
 21
35.833
 31
0.0
  0
LINE
  8
0
 62
     0
 10
102.632
 20
35.833
 30
0.0
 11
102.632
 21
34.8327
 31
0.0
  0
LINE
  8
0
 62
     0
 10
102.632
 20
34.8327
 30
0.0
 11
101.831
 21
34.8327
 31
0.0
  0
LINE
  8
0
 62
     0
 10
101.831
 20
34.8327
 30
0.0
 11
101.831
 21
31.7348
 31
0.0
  0
LINE
  8
0
 62
     0
 10
101.831
 20
31.7348
 30
0.0
 11
102.632
 21
31.7348
 31
0.0
  0
LINE
  8
0
 62
     0
 10
102.632
 20
31.7348
 30
0.0
 11
102.632
 21
25.9333
 31
0.0
  0
LINE
  8
0
 62
     0
 10
102.632
 20
25.9333
 30
0.0
 11
101.831
 21
25.9333
 31
0.0
  0
LINE
  8
0
 62
     0
 10
101.831
 20
25.9333
 30
0.0
 11
101.831
 21
22.8327
 31
0.0
  0
LINE
  8
0
 62
     0
 10
101.831
 20
22.8327
 30
0.0
 11
102.632
 21
22.8327
 31
0.0
  0
LINE
  8
0
 62
     0
 10
102.632
 20
22.8327
 30
0.0
 11
102.632
 21
21.8336
 31
0.0
  0
LINE
  8
0
 62
     0
 10
102.632
 20
21.8336
 30
0.0
 11
116.632
 21
21.8336
 31
0.0
  0
LINE
  8
0
 62
     0
 10
116.632
 20
21.8336
 30
0.0
 11
116.632
 21
22.8327
 31
0.0
  0
LINE
  8
0
 62
     0
 10
116.632
 20
22.8327
 30
0.0
 11
117.431
 21
22.8327
 31
0.0
  0
LINE
  8
0
 62
     0
 10
117.431
 20
22.8327
 30
0.0
 11
117.431
 21
25.9333
 31
0.0
  0
LINE
  8
0
 62
     0
 10
117.431
 20
25.9333
 30
0.0
 11
116.632
 21
25.9333
 31
0.0
  0
LINE
  8
0
 62
     0
 10
116.632
 20
25.9333
 30
0.0
 11
116.632
 21
31.7348
 31
0.0
  0
LINE
  8
0
 62
     0
 10
116.632
 20
31.7348
 30
0.0
 11
117.431
 21
31.7348
 31
0.0
  0
LINE
  8
0
 62
     0
 10
117.431
 20
31.7348
 30
0.0
 11
117.431
 21
34.8327
 31
0.0
  0
LINE
  8
0
 62
     0
 10
117.431
 20
34.8327
 30
0.0
 11
116.632
 21
34.8327
 31
0.0
  0
LINE
  8
0
 62
     0
 10
116.632
 20
34.8327
 30
0.0
 11
116.632
 21
35.833
 31
0.0
  0
LINE
  8
0
 62
     0
 10
116.632
 20
35.833
 30
0.0
 11
102.632
 21
35.833
 31
0.0
  0
LINE
  8
0
 62
     0
 10
83.5822
 20
35.833
 30
0.0
 11
83.5822
 21
34.8327
 31
0.0
  0
LINE
  8
0
 62
     0
 10
83.5822
 20
34.8327
 30
0.0
 11
82.7814
 21
34.8327
 31
0.0
  0
LINE
  8
0
 62
     0
 10
82.7814
 20
34.8327
 30
0.0
 11
82.7814
 21
31.7348
 31
0.0
  0
LINE
  8
0
 62
     0
 10
82.7814
 20
31.7348
 30
0.0
 11
83.5822
 21
31.7348
 31
0.0
  0
LINE
  8
0
 62
     0
 10
83.5822
 20
31.7348
 30
0.0
 11
83.5822
 21
25.9333
 31
0.0
  0
LINE
  8
0
 62
     0
 10
83.5822
 20
25.9333
 30
0.0
 11
82.7814
 21
25.9333
 31
0.0
  0
LINE
  8
0
 62
     0
 10
82.7814
 20
25.9333
 30
0.0
 11
82.7814
 21
22.8327
 31
0.0
  0
LINE
  8
0
 62
     0
 10
82.7814
 20
22.8327
 30
0.0
 11
83.5822
 21
22.8327
 31
0.0
  0
LINE
  8
0
 62
     0
 10
83.5822
 20
22.8327
 30
0.0
 11
83.5822
 21
21.8336
 31
0.0
  0
LINE
  8
0
 62
     0
 10
83.5822
 20
21.8336
 30
0.0
 11
97.5815
 21
21.8336
 31
0.0
  0
LINE
  8
0
 62
     0
 10
97.5815
 20
21.8336
 30
0.0
 11
97.5815
 21
22.8327
 31
0.0
  0
LINE
  8
0
 62
     0
 10
97.5815
 20
22.8327
 30
0.0
 11
98.3809
 21
22.8327
 31
0.0
  0
LINE
  8
0
 62
     0
 10
98.3809
 20
22.8327
 30
0.0
 11
98.3809
 21
25.9333
 31
0.0
  0
LINE
  8
0
 62
     0
 10
98.3809
 20
25.9333
 30
0.0
 11
97.5815
 21
25.9333
 31
0.0
  0
LINE
  8
0
 62
     0
 10
97.5815
 20
25.9333
 30
0.0
 11
97.5815
 21
31.7348
 31
0.0
  0
LINE
  8
0
 62
     0
 10
97.5815
 20
31.7348
 30
0.0
 11
98.3809
 21
31.7348
 31
0.0
  0
LINE
  8
0
 62
     0
 10
98.3809
 20
31.7348
 30
0.0
 11
98.3809
 21
34.8327
 31
0.0
  0
LINE
  8
0
 62
     0
 10
98.3809
 20
34.8327
 30
0.0
 11
97.5815
 21
34.8327
 31
0.0
  0
LINE
  8
0
 62
     0
 10
97.5815
 20
34.8327
 30
0.0
 11
97.5815
 21
35.833
 31
0.0
  0
LINE
  8
0
 62
     0
 10
97.5815
 20
35.833
 30
0.0
 11
83.5822
 21
35.833
 31
0.0
  0
LINE
  8
0
 62
     0
 10
64.5322
 20
35.833
 30
0.0
 11
64.5322
 21
34.8327
 31
0.0
  0
LINE
  8
0
 62
     0
 10
64.5322
 20
34.8327
 30
0.0
 11
63.7314
 21
34.8327
 31
0.0
  0
LINE
  8
0
 62
     0
 10
63.7314
 20
34.8327
 30
0.0
 11
63.7314
 21
31.7348
 31
0.0
  0
LINE
  8
0
 62
     0
 10
63.7314
 20
31.7348
 30
0.0
 11
64.5322
 21
31.7348
 31
0.0
  0
LINE
  8
0
 62
     0
 10
64.5322
 20
31.7348
 30
0.0
 11
64.5322
 21
25.9333
 31
0.0
  0
LINE
  8
0
 62
     0
 10
64.5322
 20
25.9333
 30
0.0
 11
63.7314
 21
25.9333
 31
0.0
  0
LINE
  8
0
 62
     0
 10
63.7314
 20
25.9333
 30
0.0
 11
63.7314
 21
22.8327
 31
0.0
  0
LINE
  8
0
 62
     0
 10
63.7314
 20
22.8327
 30
0.0
 11
64.5322
 21
22.8327
 31
0.0
  0
LINE
  8
0
 62
     0
 10
64.5322
 20
22.8327
 30
0.0
 11
64.5322
 21
21.8336
 31
0.0
  0
LINE
  8
0
 62
     0
 10
64.5322
 20
21.8336
 30
0.0
 11
78.5315
 21
21.8336
 31
0.0
  0
LINE
  8
0
 62
     0
 10
78.5315
 20
21.8336
 30
0.0
 11
78.5315
 21
22.8327
 31
0.0
  0
LINE
  8
0
 62
     0
 10
78.5315
 20
22.8327
 30
0.0
 11
79.3309
 21
22.8327
 31
0.0
  0
LINE
  8
0
 62
     0
 10
79.3309
 20
22.8327
 30
0.0
 11
79.3309
 21
25.9333
 31
0.0
  0
LINE
  8
0
 62
     0
 10
79.3309
 20
25.9333
 30
0.0
 11
78.5315
 21
25.9333
 31
0.0
  0
LINE
  8
0
 62
     0
 10
78.5315
 20
25.9333
 30
0.0
 11
78.5315
 21
31.7348
 31
0.0
  0
LINE
  8
0
 62
     0
 10
78.5315
 20
31.7348
 30
0.0
 11
79.3309
 21
31.7348
 31
0.0
  0
LINE
  8
0
 62
     0
 10
79.3309
 20
31.7348
 30
0.0
 11
79.3309
 21
34.8327
 31
0.0
  0
LINE
  8
0
 62
     0
 10
79.3309
 20
34.8327
 30
0.0
 11
78.5315
 21
34.8327
 31
0.0
  0
LINE
  8
0
 62
     0
 10
78.5315
 20
34.8327
 30
0.0
 11
78.5315
 21
35.833
 31
0.0
  0
LINE
  8
0
 62
     0
 10
78.5315
 20
35.833
 30
0.0
 11
64.5322
 21
35.833
 31
0.0
  0
LINE
  8
0
 62
     0
 10
45.4822
 20
35.833
 30
0.0
 11
45.4822
 21
34.8327
 31
0.0
  0
LINE
  8
0
 62
     0
 10
45.4822
 20
34.8327
 30
0.0
 11
44.6814
 21
34.8327
 31
0.0
  0
LINE
  8
0
 62
     0
 10
44.6814
 20
34.8327
 30
0.0
 11
44.6814
 21
31.7348
 31
0.0
  0
LINE
  8
0
 62
     0
 10
44.6814
 20
31.7348
 30
0.0
 11
45.4822
 21
31.7348
 31
0.0
  0
LINE
  8
0
 62
     0
 10
45.4822
 20
31.7348
 30
0.0
 11
45.4822
 21
25.9333
 31
0.0
  0
LINE
  8
0
 62
     0
 10
45.4822
 20
25.9333
 30
0.0
 11
44.6814
 21
25.9333
 31
0.0
  0
LINE
  8
0
 62
     0
 10
44.6814
 20
25.9333
 30
0.0
 11
44.6814
 21
22.8327
 31
0.0
  0
LINE
  8
0
 62
     0
 10
44.6814
 20
22.8327
 30
0.0
 11
45.4822
 21
22.8327
 31
0.0
  0
LINE
  8
0
 62
     0
 10
45.4822
 20
22.8327
 30
0.0
 11
45.4822
 21
21.8336
 31
0.0
  0
LINE
  8
0
 62
     0
 10
45.4822
 20
21.8336
 30
0.0
 11
59.4815
 21
21.8336
 31
0.0
  0
LINE
  8
0
 62
     0
 10
59.4815
 20
21.8336
 30
0.0
 11
59.4815
 21
22.8327
 31
0.0
  0
LINE
  8
0
 62
     0
 10
59.4815
 20
22.8327
 30
0.0
 11
60.2809
 21
22.8327
 31
0.0
  0
LINE
  8
0
 62
     0
 10
60.2809
 20
22.8327
 30
0.0
 11
60.2809
 21
25.9333
 31
0.0
  0
LINE
  8
0
 62
     0
 10
60.2809
 20
25.9333
 30
0.0
 11
59.4815
 21
25.9333
 31
0.0
  0
LINE
  8
0
 62
     0
 10
59.4815
 20
25.9333
 30
0.0
 11
59.4815
 21
31.7348
 31
0.0
  0
LINE
  8
0
 62
     0
 10
59.4815
 20
31.7348
 30
0.0
 11
60.2809
 21
31.7348
 31
0.0
  0
LINE
  8
0
 62
     0
 10
60.2809
 20
31.7348
 30
0.0
 11
60.2809
 21
34.8327
 31
0.0
  0
LINE
  8
0
 62
     0
 10
60.2809
 20
34.8327
 30
0.0
 11
59.4815
 21
34.8327
 31
0.0
  0
LINE
  8
0
 62
     0
 10
59.4815
 20
34.8327
 30
0.0
 11
59.4815
 21
35.833
 31
0.0
  0
LINE
  8
0
 62
     0
 10
59.4815
 20
35.833
 30
0.0
 11
45.4822
 21
35.833
 31
0.0
  0
LINE
  8
0
 62
     0
 10
26.4322
 20
35.833
 30
0.0
 11
26.4322
 21
34.8327
 31
0.0
  0
LINE
  8
0
 62
     0
 10
26.4322
 20
34.8327
 30
0.0
 11
25.6315
 21
34.8327
 31
0.0
  0
LINE
  8
0
 62
     0
 10
25.6315
 20
34.8327
 30
0.0
 11
25.6315
 21
31.7348
 31
0.0
  0
LINE
  8
0
 62
     0
 10
25.6315
 20
31.7348
 30
0.0
 11
26.4322
 21
31.7348
 31
0.0
  0
LINE
  8
0
 62
     0
 10
26.4322
 20
31.7348
 30
0.0
 11
26.4322
 21
25.9333
 31
0.0
  0
LINE
  8
0
 62
     0
 10
26.4322
 20
25.9333
 30
0.0
 11
25.6315
 21
25.9333
 31
0.0
  0
LINE
  8
0
 62
     0
 10
25.6315
 20
25.9333
 30
0.0
 11
25.6315
 21
22.8327
 31
0.0
  0
LINE
  8
0
 62
     0
 10
25.6315
 20
22.8327
 30
0.0
 11
26.4322
 21
22.8327
 31
0.0
  0
LINE
  8
0
 62
     0
 10
26.4322
 20
22.8327
 30
0.0
 11
26.4322
 21
21.8336
 31
0.0
  0
LINE
  8
0
 62
     0
 10
26.4322
 20
21.8336
 30
0.0
 11
40.4315
 21
21.8336
 31
0.0
  0
LINE
  8
0
 62
     0
 10
40.4315
 20
21.8336
 30
0.0
 11
40.4315
 21
22.8327
 31
0.0
  0
LINE
  8
0
 62
     0
 10
40.4315
 20
22.8327
 30
0.0
 11
41.2309
 21
22.8327
 31
0.0
  0
LINE
  8
0
 62
     0
 10
41.2309
 20
22.8327
 30
0.0
 11
41.2309
 21
25.9333
 31
0.0
  0
LINE
  8
0
 62
     0
 10
41.2309
 20
25.9333
 30
0.0
 11
40.4315
 21
25.9333
 31
0.0
  0
LINE
  8
0
 62
     0
 10
40.4315
 20
25.9333
 30
0.0
 11
40.4315
 21
31.7348
 31
0.0
  0
LINE
  8
0
 62
     0
 10
40.4315
 20
31.7348
 30
0.0
 11
41.2309
 21
31.7348
 31
0.0
  0
LINE
  8
0
 62
     0
 10
41.2309
 20
31.7348
 30
0.0
 11
41.2309
 21
34.8327
 31
0.0
  0
LINE
  8
0
 62
     0
 10
41.2309
 20
34.8327
 30
0.0
 11
40.4315
 21
34.8327
 31
0.0
  0
LINE
  8
0
 62
     0
 10
40.4315
 20
34.8327
 30
0.0
 11
40.4315
 21
35.833
 31
0.0
  0
LINE
  8
0
 62
     0
 10
40.4315
 20
35.833
 30
0.0
 11
26.4322
 21
35.833
 31
0.0
  0
LINE
  8
0
 62
     0
 10
131.207
 20
54.8831
 30
0.0
 11
131.207
 21
53.8826
 31
0.0
  0
LINE
  8
0
 62
     0
 10
131.207
 20
53.8826
 30
0.0
 11
130.406
 21
53.8826
 31
0.0
  0
LINE
  8
0
 62
     0
 10
130.406
 20
53.8826
 30
0.0
 11
130.406
 21
50.7848
 31
0.0
  0
LINE
  8
0
 62
     0
 10
130.406
 20
50.7848
 30
0.0
 11
131.207
 21
50.7848
 31
0.0
  0
LINE
  8
0
 62
     0
 10
131.207
 20
50.7848
 30
0.0
 11
131.207
 21
44.9834
 31
0.0
  0
LINE
  8
0
 62
     0
 10
131.207
 20
44.9834
 30
0.0
 11
130.406
 21
44.9834
 31
0.0
  0
LINE
  8
0
 62
     0
 10
130.406
 20
44.9834
 30
0.0
 11
130.406
 21
41.8828
 31
0.0
  0
LINE
  8
0
 62
     0
 10
130.406
 20
41.8828
 30
0.0
 11
131.207
 21
41.8828
 31
0.0
  0
LINE
  8
0
 62
     0
 10
131.207
 20
41.8828
 30
0.0
 11
131.207
 21
40.8838
 31
0.0
  0
LINE
  8
0
 62
     0
 10
131.207
 20
40.8838
 30
0.0
 11
145.207
 21
40.8838
 31
0.0
  0
LINE
  8
0
 62
     0
 10
145.207
 20
40.8838
 30
0.0
 11
145.207
 21
41.8828
 31
0.0
  0
LINE
  8
0
 62
     0
 10
145.207
 20
41.8828
 30
0.0
 11
146.006
 21
41.8828
 31
0.0
  0
LINE
  8
0
 62
     0
 10
146.006
 20
41.8828
 30
0.0
 11
146.006
 21
44.9834
 31
0.0
  0
LINE
  8
0
 62
     0
 10
146.006
 20
44.9834
 30
0.0
 11
145.207
 21
44.9834
 31
0.0
  0
LINE
  8
0
 62
     0
 10
145.207
 20
44.9834
 30
0.0
 11
145.207
 21
50.7848
 31
0.0
  0
LINE
  8
0
 62
     0
 10
145.207
 20
50.7848
 30
0.0
 11
146.006
 21
50.7848
 31
0.0
  0
LINE
  8
0
 62
     0
 10
146.006
 20
50.7848
 30
0.0
 11
146.006
 21
53.8826
 31
0.0
  0
LINE
  8
0
 62
     0
 10
146.006
 20
53.8826
 30
0.0
 11
145.207
 21
53.8826
 31
0.0
  0
LINE
  8
0
 62
     0
 10
145.207
 20
53.8826
 30
0.0
 11
145.207
 21
54.8831
 31
0.0
  0
LINE
  8
0
 62
     0
 10
145.207
 20
54.8831
 30
0.0
 11
131.207
 21
54.8831
 31
0.0
  0
LINE
  8
0
 62
     0
 10
112.157
 20
54.8831
 30
0.0
 11
112.157
 21
53.8826
 31
0.0
  0
LINE
  8
0
 62
     0
 10
112.157
 20
53.8826
 30
0.0
 11
111.356
 21
53.8826
 31
0.0
  0
LINE
  8
0
 62
     0
 10
111.356
 20
53.8826
 30
0.0
 11
111.356
 21
50.7848
 31
0.0
  0
LINE
  8
0
 62
     0
 10
111.356
 20
50.7848
 30
0.0
 11
112.157
 21
50.7848
 31
0.0
  0
LINE
  8
0
 62
     0
 10
112.157
 20
50.7848
 30
0.0
 11
112.157
 21
44.9834
 31
0.0
  0
LINE
  8
0
 62
     0
 10
112.157
 20
44.9834
 30
0.0
 11
111.356
 21
44.9834
 31
0.0
  0
LINE
  8
0
 62
     0
 10
111.356
 20
44.9834
 30
0.0
 11
111.356
 21
41.8828
 31
0.0
  0
LINE
  8
0
 62
     0
 10
111.356
 20
41.8828
 30
0.0
 11
112.157
 21
41.8828
 31
0.0
  0
LINE
  8
0
 62
     0
 10
112.157
 20
41.8828
 30
0.0
 11
112.157
 21
40.8838
 31
0.0
  0
LINE
  8
0
 62
     0
 10
112.157
 20
40.8838
 30
0.0
 11
126.157
 21
40.8838
 31
0.0
  0
LINE
  8
0
 62
     0
 10
126.157
 20
40.8838
 30
0.0
 11
126.157
 21
41.8828
 31
0.0
  0
LINE
  8
0
 62
     0
 10
126.157
 20
41.8828
 30
0.0
 11
126.956
 21
41.8828
 31
0.0
  0
LINE
  8
0
 62
     0
 10
126.956
 20
41.8828
 30
0.0
 11
126.956
 21
44.9834
 31
0.0
  0
LINE
  8
0
 62
     0
 10
126.956
 20
44.9834
 30
0.0
 11
126.157
 21
44.9834
 31
0.0
  0
LINE
  8
0
 62
     0
 10
126.157
 20
44.9834
 30
0.0
 11
126.157
 21
50.7848
 31
0.0
  0
LINE
  8
0
 62
     0
 10
126.157
 20
50.7848
 30
0.0
 11
126.956
 21
50.7848
 31
0.0
  0
LINE
  8
0
 62
     0
 10
126.956
 20
50.7848
 30
0.0
 11
126.956
 21
53.8826
 31
0.0
  0
LINE
  8
0
 62
     0
 10
126.956
 20
53.8826
 30
0.0
 11
126.157
 21
53.8826
 31
0.0
  0
LINE
  8
0
 62
     0
 10
126.157
 20
53.8826
 30
0.0
 11
126.157
 21
54.8831
 31
0.0
  0
LINE
  8
0
 62
     0
 10
126.157
 20
54.8831
 30
0.0
 11
112.157
 21
54.8831
 31
0.0
  0
LINE
  8
0
 62
     0
 10
93.1072
 20
54.8831
 30
0.0
 11
93.1072
 21
53.8826
 31
0.0
  0
LINE
  8
0
 62
     0
 10
93.1072
 20
53.8826
 30
0.0
 11
92.3064
 21
53.8826
 31
0.0
  0
LINE
  8
0
 62
     0
 10
92.3064
 20
53.8826
 30
0.0
 11
92.3064
 21
50.7848
 31
0.0
  0
LINE
  8
0
 62
     0
 10
92.3064
 20
50.7848
 30
0.0
 11
93.1072
 21
50.7848
 31
0.0
  0
LINE
  8
0
 62
     0
 10
93.1072
 20
50.7848
 30
0.0
 11
93.1072
 21
44.9834
 31
0.0
  0
LINE
  8
0
 62
     0
 10
93.1072
 20
44.9834
 30
0.0
 11
92.3064
 21
44.9834
 31
0.0
  0
LINE
  8
0
 62
     0
 10
92.3064
 20
44.9834
 30
0.0
 11
92.3064
 21
41.8828
 31
0.0
  0
LINE
  8
0
 62
     0
 10
92.3064
 20
41.8828
 30
0.0
 11
93.1072
 21
41.8828
 31
0.0
  0
LINE
  8
0
 62
     0
 10
93.1072
 20
41.8828
 30
0.0
 11
93.1072
 21
40.8838
 31
0.0
  0
LINE
  8
0
 62
     0
 10
93.1072
 20
40.8838
 30
0.0
 11
107.107
 21
40.8838
 31
0.0
  0
LINE
  8
0
 62
     0
 10
107.107
 20
40.8838
 30
0.0
 11
107.107
 21
41.8828
 31
0.0
  0
LINE
  8
0
 62
     0
 10
107.107
 20
41.8828
 30
0.0
 11
107.906
 21
41.8828
 31
0.0
  0
LINE
  8
0
 62
     0
 10
107.906
 20
41.8828
 30
0.0
 11
107.906
 21
44.9834
 31
0.0
  0
LINE
  8
0
 62
     0
 10
107.906
 20
44.9834
 30
0.0
 11
107.107
 21
44.9834
 31
0.0
  0
LINE
  8
0
 62
     0
 10
107.107
 20
44.9834
 30
0.0
 11
107.107
 21
50.7848
 31
0.0
  0
LINE
  8
0
 62
     0
 10
107.107
 20
50.7848
 30
0.0
 11
107.906
 21
50.7848
 31
0.0
  0
LINE
  8
0
 62
     0
 10
107.906
 20
50.7848
 30
0.0
 11
107.906
 21
53.8826
 31
0.0
  0
LINE
  8
0
 62
     0
 10
107.906
 20
53.8826
 30
0.0
 11
107.107
 21
53.8826
 31
0.0
  0
LINE
  8
0
 62
     0
 10
107.107
 20
53.8826
 30
0.0
 11
107.107
 21
54.8831
 31
0.0
  0
LINE
  8
0
 62
     0
 10
107.107
 20
54.8831
 30
0.0
 11
93.1072
 21
54.8831
 31
0.0
  0
LINE
  8
0
 62
     0
 10
74.0572
 20
54.8831
 30
0.0
 11
74.0572
 21
53.8826
 31
0.0
  0
LINE
  8
0
 62
     0
 10
74.0572
 20
53.8826
 30
0.0
 11
73.2564
 21
53.8826
 31
0.0
  0
LINE
  8
0
 62
     0
 10
73.2564
 20
53.8826
 30
0.0
 11
73.2564
 21
50.7848
 31
0.0
  0
LINE
  8
0
 62
     0
 10
73.2564
 20
50.7848
 30
0.0
 11
74.0572
 21
50.7848
 31
0.0
  0
LINE
  8
0
 62
     0
 10
74.0572
 20
50.7848
 30
0.0
 11
74.0572
 21
44.9834
 31
0.0
  0
LINE
  8
0
 62
     0
 10
74.0572
 20
44.9834
 30
0.0
 11
73.2564
 21
44.9834
 31
0.0
  0
LINE
  8
0
 62
     0
 10
73.2564
 20
44.9834
 30
0.0
 11
73.2564
 21
41.8828
 31
0.0
  0
LINE
  8
0
 62
     0
 10
73.2564
 20
41.8828
 30
0.0
 11
74.0572
 21
41.8828
 31
0.0
  0
LINE
  8
0
 62
     0
 10
74.0572
 20
41.8828
 30
0.0
 11
74.0572
 21
40.8838
 31
0.0
  0
LINE
  8
0
 62
     0
 10
74.0572
 20
40.8838
 30
0.0
 11
88.0565
 21
40.8838
 31
0.0
  0
LINE
  8
0
 62
     0
 10
88.0565
 20
40.8838
 30
0.0
 11
88.0565
 21
41.8828
 31
0.0
  0
LINE
  8
0
 62
     0
 10
88.0565
 20
41.8828
 30
0.0
 11
88.8559
 21
41.8828
 31
0.0
  0
LINE
  8
0
 62
     0
 10
88.8559
 20
41.8828
 30
0.0
 11
88.8559
 21
44.9834
 31
0.0
  0
LINE
  8
0
 62
     0
 10
88.8559
 20
44.9834
 30
0.0
 11
88.0565
 21
44.9834
 31
0.0
  0
LINE
  8
0
 62
     0
 10
88.0565
 20
44.9834
 30
0.0
 11
88.0565
 21
50.7848
 31
0.0
  0
LINE
  8
0
 62
     0
 10
88.0565
 20
50.7848
 30
0.0
 11
88.8559
 21
50.7848
 31
0.0
  0
LINE
  8
0
 62
     0
 10
88.8559
 20
50.7848
 30
0.0
 11
88.8559
 21
53.8826
 31
0.0
  0
LINE
  8
0
 62
     0
 10
88.8559
 20
53.8826
 30
0.0
 11
88.0565
 21
53.8826
 31
0.0
  0
LINE
  8
0
 62
     0
 10
88.0565
 20
53.8826
 30
0.0
 11
88.0565
 21
54.8831
 31
0.0
  0
LINE
  8
0
 62
     0
 10
88.0565
 20
54.8831
 30
0.0
 11
74.0572
 21
54.8831
 31
0.0
  0
LINE
  8
0
 62
     0
 10
55.0072
 20
54.8831
 30
0.0
 11
55.0072
 21
53.8826
 31
0.0
  0
LINE
  8
0
 62
     0
 10
55.0072
 20
53.8826
 30
0.0
 11
54.2064
 21
53.8826
 31
0.0
  0
LINE
  8
0
 62
     0
 10
54.2064
 20
53.8826
 30
0.0
 11
54.2064
 21
50.7848
 31
0.0
  0
LINE
  8
0
 62
     0
 10
54.2064
 20
50.7848
 30
0.0
 11
55.0072
 21
50.7848
 31
0.0
  0
LINE
  8
0
 62
     0
 10
55.0072
 20
50.7848
 30
0.0
 11
55.0072
 21
44.9834
 31
0.0
  0
LINE
  8
0
 62
     0
 10
55.0072
 20
44.9834
 30
0.0
 11
54.2064
 21
44.9834
 31
0.0
  0
LINE
  8
0
 62
     0
 10
54.2064
 20
44.9834
 30
0.0
 11
54.2064
 21
41.8828
 31
0.0
  0
LINE
  8
0
 62
     0
 10
54.2064
 20
41.8828
 30
0.0
 11
55.0072
 21
41.8828
 31
0.0
  0
LINE
  8
0
 62
     0
 10
55.0072
 20
41.8828
 30
0.0
 11
55.0072
 21
40.8838
 31
0.0
  0
LINE
  8
0
 62
     0
 10
55.0072
 20
40.8838
 30
0.0
 11
69.0065
 21
40.8838
 31
0.0
  0
LINE
  8
0
 62
     0
 10
69.0065
 20
40.8838
 30
0.0
 11
69.0065
 21
41.8828
 31
0.0
  0
LINE
  8
0
 62
     0
 10
69.0065
 20
41.8828
 30
0.0
 11
69.8059
 21
41.8828
 31
0.0
  0
LINE
  8
0
 62
     0
 10
69.8059
 20
41.8828
 30
0.0
 11
69.8059
 21
44.9834
 31
0.0
  0
LINE
  8
0
 62
     0
 10
69.8059
 20
44.9834
 30
0.0
 11
69.0065
 21
44.9834
 31
0.0
  0
LINE
  8
0
 62
     0
 10
69.0065
 20
44.9834
 30
0.0
 11
69.0065
 21
50.7848
 31
0.0
  0
LINE
  8
0
 62
     0
 10
69.0065
 20
50.7848
 30
0.0
 11
69.8059
 21
50.7848
 31
0.0
  0
LINE
  8
0
 62
     0
 10
69.8059
 20
50.7848
 30
0.0
 11
69.8059
 21
53.8826
 31
0.0
  0
LINE
  8
0
 62
     0
 10
69.8059
 20
53.8826
 30
0.0
 11
69.0065
 21
53.8826
 31
0.0
  0
LINE
  8
0
 62
     0
 10
69.0065
 20
53.8826
 30
0.0
 11
69.0065
 21
54.8831
 31
0.0
  0
LINE
  8
0
 62
     0
 10
69.0065
 20
54.8831
 30
0.0
 11
55.0072
 21
54.8831
 31
0.0
  0
LINE
  8
0
 62
     0
 10
35.9572
 20
54.8831
 30
0.0
 11
35.9572
 21
53.8826
 31
0.0
  0
LINE
  8
0
 62
     0
 10
35.9572
 20
53.8826
 30
0.0
 11
35.1565
 21
53.8826
 31
0.0
  0
LINE
  8
0
 62
     0
 10
35.1565
 20
53.8826
 30
0.0
 11
35.1565
 21
50.7848
 31
0.0
  0
LINE
  8
0
 62
     0
 10
35.1565
 20
50.7848
 30
0.0
 11
35.9572
 21
50.7848
 31
0.0
  0
LINE
  8
0
 62
     0
 10
35.9572
 20
50.7848
 30
0.0
 11
35.9572
 21
44.9834
 31
0.0
  0
LINE
  8
0
 62
     0
 10
35.9572
 20
44.9834
 30
0.0
 11
35.1565
 21
44.9834
 31
0.0
  0
LINE
  8
0
 62
     0
 10
35.1565
 20
44.9834
 30
0.0
 11
35.1565
 21
41.8828
 31
0.0
  0
LINE
  8
0
 62
     0
 10
35.1565
 20
41.8828
 30
0.0
 11
35.9572
 21
41.8828
 31
0.0
  0
LINE
  8
0
 62
     0
 10
35.9572
 20
41.8828
 30
0.0
 11
35.9572
 21
40.8838
 31
0.0
  0
LINE
  8
0
 62
     0
 10
35.9572
 20
40.8838
 30
0.0
 11
49.9565
 21
40.8838
 31
0.0
  0
LINE
  8
0
 62
     0
 10
49.9565
 20
40.8838
 30
0.0
 11
49.9565
 21
41.8828
 31
0.0
  0
LINE
  8
0
 62
     0
 10
49.9565
 20
41.8828
 30
0.0
 11
50.7559
 21
41.8828
 31
0.0
  0
LINE
  8
0
 62
     0
 10
50.7559
 20
41.8828
 30
0.0
 11
50.7559
 21
44.9834
 31
0.0
  0
LINE
  8
0
 62
     0
 10
50.7559
 20
44.9834
 30
0.0
 11
49.9565
 21
44.9834
 31
0.0
  0
LINE
  8
0
 62
     0
 10
49.9565
 20
44.9834
 30
0.0
 11
49.9565
 21
50.7848
 31
0.0
  0
LINE
  8
0
 62
     0
 10
49.9565
 20
50.7848
 30
0.0
 11
50.7559
 21
50.7848
 31
0.0
  0
LINE
  8
0
 62
     0
 10
50.7559
 20
50.7848
 30
0.0
 11
50.7559
 21
53.8826
 31
0.0
  0
LINE
  8
0
 62
     0
 10
50.7559
 20
53.8826
 30
0.0
 11
49.9565
 21
53.8826
 31
0.0
  0
LINE
  8
0
 62
     0
 10
49.9565
 20
53.8826
 30
0.0
 11
49.9565
 21
54.8831
 31
0.0
  0
LINE
  8
0
 62
     0
 10
49.9565
 20
54.8831
 30
0.0
 11
35.9572
 21
54.8831
 31
0.0
  0
LINE
  8
0
 62
     0
 10
16.9072
 20
54.8831
 30
0.0
 11
16.9072
 21
53.8826
 31
0.0
  0
LINE
  8
0
 62
     0
 10
16.9072
 20
53.8826
 30
0.0
 11
16.1065
 21
53.8826
 31
0.0
  0
LINE
  8
0
 62
     0
 10
16.1065
 20
53.8826
 30
0.0
 11
16.1065
 21
50.7848
 31
0.0
  0
LINE
  8
0
 62
     0
 10
16.1065
 20
50.7848
 30
0.0
 11
16.9072
 21
50.7848
 31
0.0
  0
LINE
  8
0
 62
     0
 10
16.9072
 20
50.7848
 30
0.0
 11
16.9072
 21
44.9834
 31
0.0
  0
LINE
  8
0
 62
     0
 10
16.9072
 20
44.9834
 30
0.0
 11
16.1065
 21
44.9834
 31
0.0
  0
LINE
  8
0
 62
     0
 10
16.1065
 20
44.9834
 30
0.0
 11
16.1065
 21
41.8828
 31
0.0
  0
LINE
  8
0
 62
     0
 10
16.1065
 20
41.8828
 30
0.0
 11
16.9072
 21
41.8828
 31
0.0
  0
LINE
  8
0
 62
     0
 10
16.9072
 20
41.8828
 30
0.0
 11
16.9072
 21
40.8838
 31
0.0
  0
LINE
  8
0
 62
     0
 10
16.9072
 20
40.8838
 30
0.0
 11
30.9066
 21
40.8838
 31
0.0
  0
LINE
  8
0
 62
     0
 10
30.9066
 20
40.8838
 30
0.0
 11
30.9066
 21
41.8828
 31
0.0
  0
LINE
  8
0
 62
     0
 10
30.9066
 20
41.8828
 30
0.0
 11
31.7059
 21
41.8828
 31
0.0
  0
LINE
  8
0
 62
     0
 10
31.7059
 20
41.8828
 30
0.0
 11
31.7059
 21
44.9834
 31
0.0
  0
LINE
  8
0
 62
     0
 10
31.7059
 20
44.9834
 30
0.0
 11
30.9066
 21
44.9834
 31
0.0
  0
LINE
  8
0
 62
     0
 10
30.9066
 20
44.9834
 30
0.0
 11
30.9066
 21
50.7848
 31
0.0
  0
LINE
  8
0
 62
     0
 10
30.9066
 20
50.7848
 30
0.0
 11
31.7059
 21
50.7848
 31
0.0
  0
LINE
  8
0
 62
     0
 10
31.7059
 20
50.7848
 30
0.0
 11
31.7059
 21
53.8826
 31
0.0
  0
LINE
  8
0
 62
     0
 10
31.7059
 20
53.8826
 30
0.0
 11
30.9066
 21
53.8826
 31
0.0
  0
LINE
  8
0
 62
     0
 10
30.9066
 20
53.8826
 30
0.0
 11
30.9066
 21
54.8831
 31
0.0
  0
LINE
  8
0
 62
     0
 10
30.9066
 20
54.8831
 30
0.0
 11
16.9072
 21
54.8831
 31
0.0
  0
LINE
  8
0
 62
     0
 10
150.257
 20
73.9331
 30
0.0
 11
150.257
 21
72.9326
 31
0.0
  0
LINE
  8
0
 62
     0
 10
150.257
 20
72.9326
 30
0.0
 11
149.456
 21
72.9326
 31
0.0
  0
LINE
  8
0
 62
     0
 10
149.456
 20
72.9326
 30
0.0
 11
149.456
 21
69.8334
 31
0.0
  0
LINE
  8
0
 62
     0
 10
149.456
 20
69.8334
 30
0.0
 11
150.257
 21
69.8334
 31
0.0
  0
LINE
  8
0
 62
     0
 10
150.257
 20
69.8334
 30
0.0
 11
150.257
 21
64.0334
 31
0.0
  0
LINE
  8
0
 62
     0
 10
150.257
 20
64.0334
 30
0.0
 11
149.456
 21
64.0334
 31
0.0
  0
LINE
  8
0
 62
     0
 10
149.456
 20
64.0334
 30
0.0
 11
149.456
 21
60.9328
 31
0.0
  0
LINE
  8
0
 62
     0
 10
149.456
 20
60.9328
 30
0.0
 11
150.257
 21
60.9328
 31
0.0
  0
LINE
  8
0
 62
     0
 10
150.257
 20
60.9328
 30
0.0
 11
150.257
 21
59.9338
 31
0.0
  0
LINE
  8
0
 62
     0
 10
150.257
 20
59.9338
 30
0.0
 11
152.637
 21
59.9338
 31
0.0
  0
LINE
  8
0
 62
     0
 10
152.637
 20
59.9338
 30
0.0
 11
152.637
 21
50.4088
 31
0.0
  0
LINE
  8
0
 62
     0
 10
152.637
 20
50.4088
 30
0.0
 11
153.638
 21
50.4088
 31
0.0
  0
LINE
  8
0
 62
     0
 10
153.638
 20
50.4088
 30
0.0
 11
153.638
 21
49.608
 31
0.0
  0
LINE
  8
0
 62
     0
 10
153.638
 20
49.608
 30
0.0
 11
156.738
 21
49.608
 31
0.0
  0
LINE
  8
0
 62
     0
 10
156.738
 20
49.608
 30
0.0
 11
156.738
 21
50.4088
 31
0.0
  0
LINE
  8
0
 62
     0
 10
156.738
 20
50.4088
 30
0.0
 11
157.337
 21
50.4088
 31
0.0
  0
LINE
  8
0
 62
     0
 10
157.337
 20
50.4088
 30
0.0
 11
157.337
 21
48.883
 31
0.0
  0
LINE
  8
0
 62
     0
 10
157.337
 20
48.883
 30
0.0
 11
152.867
 21
48.883
 31
0.0
  0
LINE
  8
0
 62
     0
 10
152.867
 20
48.883
 30
0.0
 11
152.867
 21
47.1579
 31
0.0
  0
LINE
  8
0
 62
     0
 10
152.867
 20
47.1579
 30
0.0
 11
151.887
 21
47.1579
 31
0.0
  0
LINE
  8
0
 62
     0
 10
151.887
 20
47.1579
 30
0.0
 11
151.887
 21
43.8587
 31
0.0
  0
LINE
  8
0
 62
     0
 10
151.887
 20
43.8587
 30
0.0
 11
152.867
 21
43.8587
 31
0.0
  0
LINE
  8
0
 62
     0
 10
152.867
 20
43.8587
 30
0.0
 11
152.867
 21
42.1337
 31
0.0
  0
LINE
  8
0
 62
     0
 10
152.867
 20
42.1337
 30
0.0
 11
159.137
 21
42.1337
 31
0.0
  0
LINE
  8
0
 62
     0
 10
159.137
 20
42.1337
 30
0.0
 11
159.137
 21
41.3082
 31
0.0
  0
LINE
  8
0
 62
     0
 10
159.137
 20
41.3082
 30
0.0
 11
161.937
 21
41.3082
 31
0.0
  0
LINE
  8
0
 62
     0
 10
161.937
 20
41.3082
 30
0.0
 11
161.937
 21
42.1337
 31
0.0
  0
LINE
  8
0
 62
     0
 10
161.937
 20
42.1337
 30
0.0
 11
165.167
 21
42.1337
 31
0.0
  0
LINE
  8
0
 62
     0
 10
165.167
 20
42.1337
 30
0.0
 11
165.167
 21
43.8587
 31
0.0
  0
LINE
  8
0
 62
     0
 10
165.167
 20
43.8587
 30
0.0
 11
166.088
 21
43.8587
 31
0.0
  0
LINE
  8
0
 62
     0
 10
166.088
 20
43.8587
 30
0.0
 11
166.088
 21
47.1579
 31
0.0
  0
LINE
  8
0
 62
     0
 10
166.088
 20
47.1579
 30
0.0
 11
165.167
 21
47.1579
 31
0.0
  0
LINE
  8
0
 62
     0
 10
165.167
 20
47.1579
 30
0.0
 11
165.167
 21
48.883
 31
0.0
  0
LINE
  8
0
 62
     0
 10
165.167
 20
48.883
 30
0.0
 11
161.937
 21
48.883
 31
0.0
  0
LINE
  8
0
 62
     0
 10
161.937
 20
48.883
 30
0.0
 11
161.937
 21
50.4088
 31
0.0
  0
LINE
  8
0
 62
     0
 10
161.937
 20
50.4088
 30
0.0
 11
162.537
 21
50.4088
 31
0.0
  0
LINE
  8
0
 62
     0
 10
162.537
 20
50.4088
 30
0.0
 11
162.537
 21
49.608
 31
0.0
  0
LINE
  8
0
 62
     0
 10
162.537
 20
49.608
 30
0.0
 11
165.637
 21
49.608
 31
0.0
  0
LINE
  8
0
 62
     0
 10
165.637
 20
49.608
 30
0.0
 11
165.637
 21
50.4088
 31
0.0
  0
LINE
  8
0
 62
     0
 10
165.637
 20
50.4088
 30
0.0
 11
166.638
 21
50.4088
 31
0.0
  0
LINE
  8
0
 62
     0
 10
166.638
 20
50.4088
 30
0.0
 11
166.638
 21
64.4081
 31
0.0
  0
LINE
  8
0
 62
     0
 10
166.638
 20
64.4081
 30
0.0
 11
165.637
 21
64.4081
 31
0.0
  0
LINE
  8
0
 62
     0
 10
165.637
 20
64.4081
 30
0.0
 11
165.637
 21
65.2089
 31
0.0
  0
LINE
  8
0
 62
     0
 10
165.637
 20
65.2089
 30
0.0
 11
164.257
 21
65.2089
 31
0.0
  0
LINE
  8
0
 62
     0
 10
164.257
 20
65.2089
 30
0.0
 11
164.257
 21
65.9335
 31
0.0
  0
LINE
  8
0
 62
     0
 10
164.257
 20
65.9335
 30
0.0
 11
165.167
 21
65.9335
 31
0.0
  0
LINE
  8
0
 62
     0
 10
165.167
 20
65.9335
 30
0.0
 11
165.167
 21
67.6589
 31
0.0
  0
LINE
  8
0
 62
     0
 10
165.167
 20
67.6589
 30
0.0
 11
166.088
 21
67.6589
 31
0.0
  0
LINE
  8
0
 62
     0
 10
166.088
 20
67.6589
 30
0.0
 11
166.088
 21
70.9595
 31
0.0
  0
LINE
  8
0
 62
     0
 10
166.088
 20
70.9595
 30
0.0
 11
165.167
 21
70.9595
 31
0.0
  0
LINE
  8
0
 62
     0
 10
165.167
 20
70.9595
 30
0.0
 11
165.167
 21
72.6832
 31
0.0
  0
LINE
  8
0
 62
     0
 10
165.167
 20
72.6832
 30
0.0
 11
165.056
 21
72.6832
 31
0.0
  0
LINE
  8
0
 62
     0
 10
165.056
 20
72.6832
 30
0.0
 11
165.056
 21
72.9326
 31
0.0
  0
LINE
  8
0
 62
     0
 10
165.056
 20
72.9326
 30
0.0
 11
164.257
 21
72.9326
 31
0.0
  0
LINE
  8
0
 62
     0
 10
164.257
 20
72.9326
 30
0.0
 11
164.257
 21
73.9331
 31
0.0
  0
LINE
  8
0
 62
     0
 10
164.257
 20
73.9331
 30
0.0
 11
150.257
 21
73.9331
 31
0.0
  0
LINE
  8
0
 62
     0
 10
126.445
 20
73.9331
 30
0.0
 11
126.445
 21
72.9326
 31
0.0
  0
LINE
  8
0
 62
     0
 10
126.445
 20
72.9326
 30
0.0
 11
125.644
 21
72.9326
 31
0.0
  0
LINE
  8
0
 62
     0
 10
125.644
 20
72.9326
 30
0.0
 11
125.644
 21
69.8334
 31
0.0
  0
LINE
  8
0
 62
     0
 10
125.644
 20
69.8334
 30
0.0
 11
126.445
 21
69.8334
 31
0.0
  0
LINE
  8
0
 62
     0
 10
126.445
 20
69.8334
 30
0.0
 11
126.445
 21
64.0334
 31
0.0
  0
LINE
  8
0
 62
     0
 10
126.445
 20
64.0334
 30
0.0
 11
125.644
 21
64.0334
 31
0.0
  0
LINE
  8
0
 62
     0
 10
125.644
 20
64.0334
 30
0.0
 11
125.644
 21
60.9328
 31
0.0
  0
LINE
  8
0
 62
     0
 10
125.644
 20
60.9328
 30
0.0
 11
126.445
 21
60.9328
 31
0.0
  0
LINE
  8
0
 62
     0
 10
126.445
 20
60.9328
 30
0.0
 11
126.445
 21
59.9338
 31
0.0
  0
LINE
  8
0
 62
     0
 10
126.445
 20
59.9338
 30
0.0
 11
140.444
 21
59.9338
 31
0.0
  0
LINE
  8
0
 62
     0
 10
140.444
 20
59.9338
 30
0.0
 11
140.444
 21
60.9328
 31
0.0
  0
LINE
  8
0
 62
     0
 10
140.444
 20
60.9328
 30
0.0
 11
141.245
 21
60.9328
 31
0.0
  0
LINE
  8
0
 62
     0
 10
141.245
 20
60.9328
 30
0.0
 11
141.245
 21
64.0334
 31
0.0
  0
LINE
  8
0
 62
     0
 10
141.245
 20
64.0334
 30
0.0
 11
140.444
 21
64.0334
 31
0.0
  0
LINE
  8
0
 62
     0
 10
140.444
 20
64.0334
 30
0.0
 11
140.444
 21
69.8334
 31
0.0
  0
LINE
  8
0
 62
     0
 10
140.444
 20
69.8334
 30
0.0
 11
141.245
 21
69.8334
 31
0.0
  0
LINE
  8
0
 62
     0
 10
141.245
 20
69.8334
 30
0.0
 11
141.245
 21
72.9326
 31
0.0
  0
LINE
  8
0
 62
     0
 10
141.245
 20
72.9326
 30
0.0
 11
140.444
 21
72.9326
 31
0.0
  0
LINE
  8
0
 62
     0
 10
140.444
 20
72.9326
 30
0.0
 11
140.444
 21
73.9331
 31
0.0
  0
LINE
  8
0
 62
     0
 10
140.444
 20
73.9331
 30
0.0
 11
126.445
 21
73.9331
 31
0.0
  0
LINE
  8
0
 62
     0
 10
107.395
 20
73.9331
 30
0.0
 11
107.395
 21
72.9326
 31
0.0
  0
LINE
  8
0
 62
     0
 10
107.395
 20
72.9326
 30
0.0
 11
106.594
 21
72.9326
 31
0.0
  0
LINE
  8
0
 62
     0
 10
106.594
 20
72.9326
 30
0.0
 11
106.594
 21
69.8334
 31
0.0
  0
LINE
  8
0
 62
     0
 10
106.594
 20
69.8334
 30
0.0
 11
107.395
 21
69.8334
 31
0.0
  0
LINE
  8
0
 62
     0
 10
107.395
 20
69.8334
 30
0.0
 11
107.395
 21
64.0334
 31
0.0
  0
LINE
  8
0
 62
     0
 10
107.395
 20
64.0334
 30
0.0
 11
106.594
 21
64.0334
 31
0.0
  0
LINE
  8
0
 62
     0
 10
106.594
 20
64.0334
 30
0.0
 11
106.594
 21
60.9328
 31
0.0
  0
LINE
  8
0
 62
     0
 10
106.594
 20
60.9328
 30
0.0
 11
107.395
 21
60.9328
 31
0.0
  0
LINE
  8
0
 62
     0
 10
107.395
 20
60.9328
 30
0.0
 11
107.395
 21
59.9338
 31
0.0
  0
LINE
  8
0
 62
     0
 10
107.395
 20
59.9338
 30
0.0
 11
121.394
 21
59.9338
 31
0.0
  0
LINE
  8
0
 62
     0
 10
121.394
 20
59.9338
 30
0.0
 11
121.394
 21
60.9328
 31
0.0
  0
LINE
  8
0
 62
     0
 10
121.394
 20
60.9328
 30
0.0
 11
122.195
 21
60.9328
 31
0.0
  0
LINE
  8
0
 62
     0
 10
122.195
 20
60.9328
 30
0.0
 11
122.195
 21
64.0334
 31
0.0
  0
LINE
  8
0
 62
     0
 10
122.195
 20
64.0334
 30
0.0
 11
121.394
 21
64.0334
 31
0.0
  0
LINE
  8
0
 62
     0
 10
121.394
 20
64.0334
 30
0.0
 11
121.394
 21
69.8334
 31
0.0
  0
LINE
  8
0
 62
     0
 10
121.394
 20
69.8334
 30
0.0
 11
122.195
 21
69.8334
 31
0.0
  0
LINE
  8
0
 62
     0
 10
122.195
 20
69.8334
 30
0.0
 11
122.195
 21
72.9326
 31
0.0
  0
LINE
  8
0
 62
     0
 10
122.195
 20
72.9326
 30
0.0
 11
121.394
 21
72.9326
 31
0.0
  0
LINE
  8
0
 62
     0
 10
121.394
 20
72.9326
 30
0.0
 11
121.394
 21
73.9331
 31
0.0
  0
LINE
  8
0
 62
     0
 10
121.394
 20
73.9331
 30
0.0
 11
107.395
 21
73.9331
 31
0.0
  0
LINE
  8
0
 62
     0
 10
88.3447
 20
73.9331
 30
0.0
 11
88.3447
 21
72.9326
 31
0.0
  0
LINE
  8
0
 62
     0
 10
88.3447
 20
72.9326
 30
0.0
 11
87.5439
 21
72.9326
 31
0.0
  0
LINE
  8
0
 62
     0
 10
87.5439
 20
72.9326
 30
0.0
 11
87.5439
 21
69.8334
 31
0.0
  0
LINE
  8
0
 62
     0
 10
87.5439
 20
69.8334
 30
0.0
 11
88.3447
 21
69.8334
 31
0.0
  0
LINE
  8
0
 62
     0
 10
88.3447
 20
69.8334
 30
0.0
 11
88.3447
 21
64.0334
 31
0.0
  0
LINE
  8
0
 62
     0
 10
88.3447
 20
64.0334
 30
0.0
 11
87.5439
 21
64.0334
 31
0.0
  0
LINE
  8
0
 62
     0
 10
87.5439
 20
64.0334
 30
0.0
 11
87.5439
 21
60.9328
 31
0.0
  0
LINE
  8
0
 62
     0
 10
87.5439
 20
60.9328
 30
0.0
 11
88.3447
 21
60.9328
 31
0.0
  0
LINE
  8
0
 62
     0
 10
88.3447
 20
60.9328
 30
0.0
 11
88.3447
 21
59.9338
 31
0.0
  0
LINE
  8
0
 62
     0
 10
88.3447
 20
59.9338
 30
0.0
 11
102.344
 21
59.9338
 31
0.0
  0
LINE
  8
0
 62
     0
 10
102.344
 20
59.9338
 30
0.0
 11
102.344
 21
60.9328
 31
0.0
  0
LINE
  8
0
 62
     0
 10
102.344
 20
60.9328
 30
0.0
 11
103.145
 21
60.9328
 31
0.0
  0
LINE
  8
0
 62
     0
 10
103.145
 20
60.9328
 30
0.0
 11
103.145
 21
64.0334
 31
0.0
  0
LINE
  8
0
 62
     0
 10
103.145
 20
64.0334
 30
0.0
 11
102.344
 21
64.0334
 31
0.0
  0
LINE
  8
0
 62
     0
 10
102.344
 20
64.0334
 30
0.0
 11
102.344
 21
69.8334
 31
0.0
  0
LINE
  8
0
 62
     0
 10
102.344
 20
69.8334
 30
0.0
 11
103.145
 21
69.8334
 31
0.0
  0
LINE
  8
0
 62
     0
 10
103.145
 20
69.8334
 30
0.0
 11
103.145
 21
72.9326
 31
0.0
  0
LINE
  8
0
 62
     0
 10
103.145
 20
72.9326
 30
0.0
 11
102.344
 21
72.9326
 31
0.0
  0
LINE
  8
0
 62
     0
 10
102.344
 20
72.9326
 30
0.0
 11
102.344
 21
73.9331
 31
0.0
  0
LINE
  8
0
 62
     0
 10
102.344
 20
73.9331
 30
0.0
 11
88.3447
 21
73.9331
 31
0.0
  0
LINE
  8
0
 62
     0
 10
69.2947
 20
73.9331
 30
0.0
 11
69.2947
 21
72.9326
 31
0.0
  0
LINE
  8
0
 62
     0
 10
69.2947
 20
72.9326
 30
0.0
 11
68.4939
 21
72.9326
 31
0.0
  0
LINE
  8
0
 62
     0
 10
68.4939
 20
72.9326
 30
0.0
 11
68.4939
 21
69.8334
 31
0.0
  0
LINE
  8
0
 62
     0
 10
68.4939
 20
69.8334
 30
0.0
 11
69.2947
 21
69.8334
 31
0.0
  0
LINE
  8
0
 62
     0
 10
69.2947
 20
69.8334
 30
0.0
 11
69.2947
 21
64.0334
 31
0.0
  0
LINE
  8
0
 62
     0
 10
69.2947
 20
64.0334
 30
0.0
 11
68.4939
 21
64.0334
 31
0.0
  0
LINE
  8
0
 62
     0
 10
68.4939
 20
64.0334
 30
0.0
 11
68.4939
 21
60.9328
 31
0.0
  0
LINE
  8
0
 62
     0
 10
68.4939
 20
60.9328
 30
0.0
 11
69.2947
 21
60.9328
 31
0.0
  0
LINE
  8
0
 62
     0
 10
69.2947
 20
60.9328
 30
0.0
 11
69.2947
 21
59.9338
 31
0.0
  0
LINE
  8
0
 62
     0
 10
69.2947
 20
59.9338
 30
0.0
 11
83.294
 21
59.9338
 31
0.0
  0
LINE
  8
0
 62
     0
 10
83.294
 20
59.9338
 30
0.0
 11
83.294
 21
60.9328
 31
0.0
  0
LINE
  8
0
 62
     0
 10
83.294
 20
60.9328
 30
0.0
 11
84.0948
 21
60.9328
 31
0.0
  0
LINE
  8
0
 62
     0
 10
84.0948
 20
60.9328
 30
0.0
 11
84.0948
 21
64.0334
 31
0.0
  0
LINE
  8
0
 62
     0
 10
84.0948
 20
64.0334
 30
0.0
 11
83.294
 21
64.0334
 31
0.0
  0
LINE
  8
0
 62
     0
 10
83.294
 20
64.0334
 30
0.0
 11
83.294
 21
69.8334
 31
0.0
  0
LINE
  8
0
 62
     0
 10
83.294
 20
69.8334
 30
0.0
 11
84.0948
 21
69.8334
 31
0.0
  0
LINE
  8
0
 62
     0
 10
84.0948
 20
69.8334
 30
0.0
 11
84.0948
 21
72.9326
 31
0.0
  0
LINE
  8
0
 62
     0
 10
84.0948
 20
72.9326
 30
0.0
 11
83.294
 21
72.9326
 31
0.0
  0
LINE
  8
0
 62
     0
 10
83.294
 20
72.9326
 30
0.0
 11
83.294
 21
73.9331
 31
0.0
  0
LINE
  8
0
 62
     0
 10
83.294
 20
73.9331
 30
0.0
 11
69.2947
 21
73.9331
 31
0.0
  0
LINE
  8
0
 62
     0
 10
50.2447
 20
73.9331
 30
0.0
 11
50.2447
 21
72.9326
 31
0.0
  0
LINE
  8
0
 62
     0
 10
50.2447
 20
72.9326
 30
0.0
 11
49.4439
 21
72.9326
 31
0.0
  0
LINE
  8
0
 62
     0
 10
49.4439
 20
72.9326
 30
0.0
 11
49.4439
 21
69.8334
 31
0.0
  0
LINE
  8
0
 62
     0
 10
49.4439
 20
69.8334
 30
0.0
 11
50.2447
 21
69.8334
 31
0.0
  0
LINE
  8
0
 62
     0
 10
50.2447
 20
69.8334
 30
0.0
 11
50.2447
 21
64.0334
 31
0.0
  0
LINE
  8
0
 62
     0
 10
50.2447
 20
64.0334
 30
0.0
 11
49.4439
 21
64.0334
 31
0.0
  0
LINE
  8
0
 62
     0
 10
49.4439
 20
64.0334
 30
0.0
 11
49.4439
 21
60.9328
 31
0.0
  0
LINE
  8
0
 62
     0
 10
49.4439
 20
60.9328
 30
0.0
 11
50.2447
 21
60.9328
 31
0.0
  0
LINE
  8
0
 62
     0
 10
50.2447
 20
60.9328
 30
0.0
 11
50.2447
 21
59.9338
 31
0.0
  0
LINE
  8
0
 62
     0
 10
50.2447
 20
59.9338
 30
0.0
 11
64.244
 21
59.9338
 31
0.0
  0
LINE
  8
0
 62
     0
 10
64.244
 20
59.9338
 30
0.0
 11
64.244
 21
60.9328
 31
0.0
  0
LINE
  8
0
 62
     0
 10
64.244
 20
60.9328
 30
0.0
 11
65.0448
 21
60.9328
 31
0.0
  0
LINE
  8
0
 62
     0
 10
65.0448
 20
60.9328
 30
0.0
 11
65.0448
 21
64.0334
 31
0.0
  0
LINE
  8
0
 62
     0
 10
65.0448
 20
64.0334
 30
0.0
 11
64.244
 21
64.0334
 31
0.0
  0
LINE
  8
0
 62
     0
 10
64.244
 20
64.0334
 30
0.0
 11
64.244
 21
69.8334
 31
0.0
  0
LINE
  8
0
 62
     0
 10
64.244
 20
69.8334
 30
0.0
 11
65.0448
 21
69.8334
 31
0.0
  0
LINE
  8
0
 62
     0
 10
65.0448
 20
69.8334
 30
0.0
 11
65.0448
 21
72.9326
 31
0.0
  0
LINE
  8
0
 62
     0
 10
65.0448
 20
72.9326
 30
0.0
 11
64.244
 21
72.9326
 31
0.0
  0
LINE
  8
0
 62
     0
 10
64.244
 20
72.9326
 30
0.0
 11
64.244
 21
73.9331
 31
0.0
  0
LINE
  8
0
 62
     0
 10
64.244
 20
73.9331
 30
0.0
 11
50.2447
 21
73.9331
 31
0.0
  0
LINE
  8
0
 62
     0
 10
31.1947
 20
73.9331
 30
0.0
 11
31.1947
 21
72.9326
 31
0.0
  0
LINE
  8
0
 62
     0
 10
31.1947
 20
72.9326
 30
0.0
 11
30.394
 21
72.9326
 31
0.0
  0
LINE
  8
0
 62
     0
 10
30.394
 20
72.9326
 30
0.0
 11
30.394
 21
69.8334
 31
0.0
  0
LINE
  8
0
 62
     0
 10
30.394
 20
69.8334
 30
0.0
 11
31.1947
 21
69.8334
 31
0.0
  0
LINE
  8
0
 62
     0
 10
31.1947
 20
69.8334
 30
0.0
 11
31.1947
 21
64.0334
 31
0.0
  0
LINE
  8
0
 62
     0
 10
31.1947
 20
64.0334
 30
0.0
 11
30.394
 21
64.0334
 31
0.0
  0
LINE
  8
0
 62
     0
 10
30.394
 20
64.0334
 30
0.0
 11
30.394
 21
60.9328
 31
0.0
  0
LINE
  8
0
 62
     0
 10
30.394
 20
60.9328
 30
0.0
 11
31.1947
 21
60.9328
 31
0.0
  0
LINE
  8
0
 62
     0
 10
31.1947
 20
60.9328
 30
0.0
 11
31.1947
 21
59.9338
 31
0.0
  0
LINE
  8
0
 62
     0
 10
31.1947
 20
59.9338
 30
0.0
 11
45.194
 21
59.9338
 31
0.0
  0
LINE
  8
0
 62
     0
 10
45.194
 20
59.9338
 30
0.0
 11
45.194
 21
60.9328
 31
0.0
  0
LINE
  8
0
 62
     0
 10
45.194
 20
60.9328
 30
0.0
 11
45.9948
 21
60.9328
 31
0.0
  0
LINE
  8
0
 62
     0
 10
45.9948
 20
60.9328
 30
0.0
 11
45.9948
 21
64.0334
 31
0.0
  0
LINE
  8
0
 62
     0
 10
45.9948
 20
64.0334
 30
0.0
 11
45.194
 21
64.0334
 31
0.0
  0
LINE
  8
0
 62
     0
 10
45.194
 20
64.0334
 30
0.0
 11
45.194
 21
69.8334
 31
0.0
  0
LINE
  8
0
 62
     0
 10
45.194
 20
69.8334
 30
0.0
 11
45.9948
 21
69.8334
 31
0.0
  0
LINE
  8
0
 62
     0
 10
45.9948
 20
69.8334
 30
0.0
 11
45.9948
 21
72.9326
 31
0.0
  0
LINE
  8
0
 62
     0
 10
45.9948
 20
72.9326
 30
0.0
 11
45.194
 21
72.9326
 31
0.0
  0
LINE
  8
0
 62
     0
 10
45.194
 20
72.9326
 30
0.0
 11
45.194
 21
73.9331
 31
0.0
  0
LINE
  8
0
 62
     0
 10
45.194
 20
73.9331
 30
0.0
 11
31.1947
 21
73.9331
 31
0.0
  0
LINE
  8
0
 62
     0
 10
12.1447
 20
73.9331
 30
0.0
 11
12.1447
 21
72.9326
 31
0.0
  0
LINE
  8
0
 62
     0
 10
12.1447
 20
72.9326
 30
0.0
 11
11.344
 21
72.9326
 31
0.0
  0
LINE
  8
0
 62
     0
 10
11.344
 20
72.9326
 30
0.0
 11
11.344
 21
69.8334
 31
0.0
  0
LINE
  8
0
 62
     0
 10
11.344
 20
69.8334
 30
0.0
 11
12.1447
 21
69.8334
 31
0.0
  0
LINE
  8
0
 62
     0
 10
12.1447
 20
69.8334
 30
0.0
 11
12.1447
 21
64.0334
 31
0.0
  0
LINE
  8
0
 62
     0
 10
12.1447
 20
64.0334
 30
0.0
 11
11.344
 21
64.0334
 31
0.0
  0
LINE
  8
0
 62
     0
 10
11.344
 20
64.0334
 30
0.0
 11
11.344
 21
60.9328
 31
0.0
  0
LINE
  8
0
 62
     0
 10
11.344
 20
60.9328
 30
0.0
 11
12.1447
 21
60.9328
 31
0.0
  0
LINE
  8
0
 62
     0
 10
12.1447
 20
60.9328
 30
0.0
 11
12.1447
 21
59.9338
 31
0.0
  0
LINE
  8
0
 62
     0
 10
12.1447
 20
59.9338
 30
0.0
 11
26.1441
 21
59.9338
 31
0.0
  0
LINE
  8
0
 62
     0
 10
26.1441
 20
59.9338
 30
0.0
 11
26.1441
 21
60.9328
 31
0.0
  0
LINE
  8
0
 62
     0
 10
26.1441
 20
60.9328
 30
0.0
 11
26.9448
 21
60.9328
 31
0.0
  0
LINE
  8
0
 62
     0
 10
26.9448
 20
60.9328
 30
0.0
 11
26.9448
 21
64.0334
 31
0.0
  0
LINE
  8
0
 62
     0
 10
26.9448
 20
64.0334
 30
0.0
 11
26.1441
 21
64.0334
 31
0.0
  0
LINE
  8
0
 62
     0
 10
26.1441
 20
64.0334
 30
0.0
 11
26.1441
 21
69.8334
 31
0.0
  0
LINE
  8
0
 62
     0
 10
26.1441
 20
69.8334
 30
0.0
 11
26.9448
 21
69.8334
 31
0.0
  0
LINE
  8
0
 62
     0
 10
26.9448
 20
69.8334
 30
0.0
 11
26.9448
 21
72.9326
 31
0.0
  0
LINE
  8
0
 62
     0
 10
26.9448
 20
72.9326
 30
0.0
 11
26.1441
 21
72.9326
 31
0.0
  0
LINE
  8
0
 62
     0
 10
26.1441
 20
72.9326
 30
0.0
 11
26.1441
 21
73.9331
 31
0.0
  0
LINE
  8
0
 62
     0
 10
26.1441
 20
73.9331
 30
0.0
 11
12.1447
 21
73.9331
 31
0.0
  0
LINE
  8
0
 62
     0
 10
155.02
 20
92.9831
 30
0.0
 11
155.02
 21
91.9826
 31
0.0
  0
LINE
  8
0
 62
     0
 10
155.02
 20
91.9826
 30
0.0
 11
154.219
 21
91.9826
 31
0.0
  0
LINE
  8
0
 62
     0
 10
154.219
 20
91.9826
 30
0.0
 11
154.219
 21
88.8834
 31
0.0
  0
LINE
  8
0
 62
     0
 10
154.219
 20
88.8834
 30
0.0
 11
155.02
 21
88.8834
 31
0.0
  0
LINE
  8
0
 62
     0
 10
155.02
 20
88.8834
 30
0.0
 11
155.02
 21
83.0834
 31
0.0
  0
LINE
  8
0
 62
     0
 10
155.02
 20
83.0834
 30
0.0
 11
154.219
 21
83.0834
 31
0.0
  0
LINE
  8
0
 62
     0
 10
154.219
 20
83.0834
 30
0.0
 11
154.219
 21
79.9828
 31
0.0
  0
LINE
  8
0
 62
     0
 10
154.219
 20
79.9828
 30
0.0
 11
155.02
 21
79.9828
 31
0.0
  0
LINE
  8
0
 62
     0
 10
155.02
 20
79.9828
 30
0.0
 11
155.02
 21
78.9838
 31
0.0
  0
LINE
  8
0
 62
     0
 10
155.02
 20
78.9838
 30
0.0
 11
169.019
 21
78.9838
 31
0.0
  0
LINE
  8
0
 62
     0
 10
169.019
 20
78.9838
 30
0.0
 11
169.019
 21
79.9828
 31
0.0
  0
LINE
  8
0
 62
     0
 10
169.019
 20
79.9828
 30
0.0
 11
169.82
 21
79.9828
 31
0.0
  0
LINE
  8
0
 62
     0
 10
169.82
 20
79.9828
 30
0.0
 11
169.82
 21
83.0834
 31
0.0
  0
LINE
  8
0
 62
     0
 10
169.82
 20
83.0834
 30
0.0
 11
169.019
 21
83.0834
 31
0.0
  0
LINE
  8
0
 62
     0
 10
169.019
 20
83.0834
 30
0.0
 11
169.019
 21
88.8834
 31
0.0
  0
LINE
  8
0
 62
     0
 10
169.019
 20
88.8834
 30
0.0
 11
169.82
 21
88.8834
 31
0.0
  0
LINE
  8
0
 62
     0
 10
169.82
 20
88.8834
 30
0.0
 11
169.82
 21
91.9826
 31
0.0
  0
LINE
  8
0
 62
     0
 10
169.82
 20
91.9826
 30
0.0
 11
169.019
 21
91.9826
 31
0.0
  0
LINE
  8
0
 62
     0
 10
169.019
 20
91.9826
 30
0.0
 11
169.019
 21
92.9831
 31
0.0
  0
LINE
  8
0
 62
     0
 10
169.019
 20
92.9831
 30
0.0
 11
155.02
 21
92.9831
 31
0.0
  0
LINE
  8
0
 62
     0
 10
135.97
 20
92.9831
 30
0.0
 11
135.97
 21
91.9826
 31
0.0
  0
LINE
  8
0
 62
     0
 10
135.97
 20
91.9826
 30
0.0
 11
135.169
 21
91.9826
 31
0.0
  0
LINE
  8
0
 62
     0
 10
135.169
 20
91.9826
 30
0.0
 11
135.169
 21
88.8834
 31
0.0
  0
LINE
  8
0
 62
     0
 10
135.169
 20
88.8834
 30
0.0
 11
135.97
 21
88.8834
 31
0.0
  0
LINE
  8
0
 62
     0
 10
135.97
 20
88.8834
 30
0.0
 11
135.97
 21
83.0834
 31
0.0
  0
LINE
  8
0
 62
     0
 10
135.97
 20
83.0834
 30
0.0
 11
135.169
 21
83.0834
 31
0.0
  0
LINE
  8
0
 62
     0
 10
135.169
 20
83.0834
 30
0.0
 11
135.169
 21
79.9828
 31
0.0
  0
LINE
  8
0
 62
     0
 10
135.169
 20
79.9828
 30
0.0
 11
135.97
 21
79.9828
 31
0.0
  0
LINE
  8
0
 62
     0
 10
135.97
 20
79.9828
 30
0.0
 11
135.97
 21
78.9838
 31
0.0
  0
LINE
  8
0
 62
     0
 10
135.97
 20
78.9838
 30
0.0
 11
149.969
 21
78.9838
 31
0.0
  0
LINE
  8
0
 62
     0
 10
149.969
 20
78.9838
 30
0.0
 11
149.969
 21
79.9828
 31
0.0
  0
LINE
  8
0
 62
     0
 10
149.969
 20
79.9828
 30
0.0
 11
150.77
 21
79.9828
 31
0.0
  0
LINE
  8
0
 62
     0
 10
150.77
 20
79.9828
 30
0.0
 11
150.77
 21
83.0834
 31
0.0
  0
LINE
  8
0
 62
     0
 10
150.77
 20
83.0834
 30
0.0
 11
149.969
 21
83.0834
 31
0.0
  0
LINE
  8
0
 62
     0
 10
149.969
 20
83.0834
 30
0.0
 11
149.969
 21
88.8834
 31
0.0
  0
LINE
  8
0
 62
     0
 10
149.969
 20
88.8834
 30
0.0
 11
150.77
 21
88.8834
 31
0.0
  0
LINE
  8
0
 62
     0
 10
150.77
 20
88.8834
 30
0.0
 11
150.77
 21
91.9826
 31
0.0
  0
LINE
  8
0
 62
     0
 10
150.77
 20
91.9826
 30
0.0
 11
149.969
 21
91.9826
 31
0.0
  0
LINE
  8
0
 62
     0
 10
149.969
 20
91.9826
 30
0.0
 11
149.969
 21
92.9831
 31
0.0
  0
LINE
  8
0
 62
     0
 10
149.969
 20
92.9831
 30
0.0
 11
135.97
 21
92.9831
 31
0.0
  0
LINE
  8
0
 62
     0
 10
116.918
 20
92.9831
 30
0.0
 11
116.918
 21
91.9826
 31
0.0
  0
LINE
  8
0
 62
     0
 10
116.918
 20
91.9826
 30
0.0
 11
116.119
 21
91.9826
 31
0.0
  0
LINE
  8
0
 62
     0
 10
116.119
 20
91.9826
 30
0.0
 11
116.119
 21
88.8834
 31
0.0
  0
LINE
  8
0
 62
     0
 10
116.119
 20
88.8834
 30
0.0
 11
116.918
 21
88.8834
 31
0.0
  0
LINE
  8
0
 62
     0
 10
116.918
 20
88.8834
 30
0.0
 11
116.918
 21
83.0834
 31
0.0
  0
LINE
  8
0
 62
     0
 10
116.918
 20
83.0834
 30
0.0
 11
116.119
 21
83.0834
 31
0.0
  0
LINE
  8
0
 62
     0
 10
116.119
 20
83.0834
 30
0.0
 11
116.119
 21
79.9828
 31
0.0
  0
LINE
  8
0
 62
     0
 10
116.119
 20
79.9828
 30
0.0
 11
116.918
 21
79.9828
 31
0.0
  0
LINE
  8
0
 62
     0
 10
116.918
 20
79.9828
 30
0.0
 11
116.918
 21
78.9838
 31
0.0
  0
LINE
  8
0
 62
     0
 10
116.918
 20
78.9838
 30
0.0
 11
130.919
 21
78.9838
 31
0.0
  0
LINE
  8
0
 62
     0
 10
130.919
 20
78.9838
 30
0.0
 11
130.919
 21
79.9828
 31
0.0
  0
LINE
  8
0
 62
     0
 10
130.919
 20
79.9828
 30
0.0
 11
131.72
 21
79.9828
 31
0.0
  0
LINE
  8
0
 62
     0
 10
131.72
 20
79.9828
 30
0.0
 11
131.72
 21
83.0834
 31
0.0
  0
LINE
  8
0
 62
     0
 10
131.72
 20
83.0834
 30
0.0
 11
130.919
 21
83.0834
 31
0.0
  0
LINE
  8
0
 62
     0
 10
130.919
 20
83.0834
 30
0.0
 11
130.919
 21
88.8834
 31
0.0
  0
LINE
  8
0
 62
     0
 10
130.919
 20
88.8834
 30
0.0
 11
131.72
 21
88.8834
 31
0.0
  0
LINE
  8
0
 62
     0
 10
131.72
 20
88.8834
 30
0.0
 11
131.72
 21
91.9826
 31
0.0
  0
LINE
  8
0
 62
     0
 10
131.72
 20
91.9826
 30
0.0
 11
130.919
 21
91.9826
 31
0.0
  0
LINE
  8
0
 62
     0
 10
130.919
 20
91.9826
 30
0.0
 11
130.919
 21
92.9831
 31
0.0
  0
LINE
  8
0
 62
     0
 10
130.919
 20
92.9831
 30
0.0
 11
116.918
 21
92.9831
 31
0.0
  0
LINE
  8
0
 62
     0
 10
97.8683
 20
92.9831
 30
0.0
 11
97.8683
 21
91.9826
 31
0.0
  0
LINE
  8
0
 62
     0
 10
97.8683
 20
91.9826
 30
0.0
 11
97.0689
 21
91.9826
 31
0.0
  0
LINE
  8
0
 62
     0
 10
97.0689
 20
91.9826
 30
0.0
 11
97.0689
 21
88.8834
 31
0.0
  0
LINE
  8
0
 62
     0
 10
97.0689
 20
88.8834
 30
0.0
 11
97.8683
 21
88.8834
 31
0.0
  0
LINE
  8
0
 62
     0
 10
97.8683
 20
88.8834
 30
0.0
 11
97.8683
 21
83.0834
 31
0.0
  0
LINE
  8
0
 62
     0
 10
97.8683
 20
83.0834
 30
0.0
 11
97.0689
 21
83.0834
 31
0.0
  0
LINE
  8
0
 62
     0
 10
97.0689
 20
83.0834
 30
0.0
 11
97.0689
 21
79.9828
 31
0.0
  0
LINE
  8
0
 62
     0
 10
97.0689
 20
79.9828
 30
0.0
 11
97.8683
 21
79.9828
 31
0.0
  0
LINE
  8
0
 62
     0
 10
97.8683
 20
79.9828
 30
0.0
 11
97.8683
 21
78.9838
 31
0.0
  0
LINE
  8
0
 62
     0
 10
97.8683
 20
78.9838
 30
0.0
 11
111.869
 21
78.9838
 31
0.0
  0
LINE
  8
0
 62
     0
 10
111.869
 20
78.9838
 30
0.0
 11
111.869
 21
79.9828
 31
0.0
  0
LINE
  8
0
 62
     0
 10
111.869
 20
79.9828
 30
0.0
 11
112.668
 21
79.9828
 31
0.0
  0
LINE
  8
0
 62
     0
 10
112.668
 20
79.9828
 30
0.0
 11
112.668
 21
83.0834
 31
0.0
  0
LINE
  8
0
 62
     0
 10
112.668
 20
83.0834
 30
0.0
 11
111.869
 21
83.0834
 31
0.0
  0
LINE
  8
0
 62
     0
 10
111.869
 20
83.0834
 30
0.0
 11
111.869
 21
88.8834
 31
0.0
  0
LINE
  8
0
 62
     0
 10
111.869
 20
88.8834
 30
0.0
 11
112.668
 21
88.8834
 31
0.0
  0
LINE
  8
0
 62
     0
 10
112.668
 20
88.8834
 30
0.0
 11
112.668
 21
91.9826
 31
0.0
  0
LINE
  8
0
 62
     0
 10
112.668
 20
91.9826
 30
0.0
 11
111.869
 21
91.9826
 31
0.0
  0
LINE
  8
0
 62
     0
 10
111.869
 20
91.9826
 30
0.0
 11
111.869
 21
92.9831
 31
0.0
  0
LINE
  8
0
 62
     0
 10
111.869
 20
92.9831
 30
0.0
 11
97.8683
 21
92.9831
 31
0.0
  0
LINE
  8
0
 62
     0
 10
78.8197
 20
92.9831
 30
0.0
 11
78.8197
 21
91.9826
 31
0.0
  0
LINE
  8
0
 62
     0
 10
78.8197
 20
91.9826
 30
0.0
 11
78.0189
 21
91.9826
 31
0.0
  0
LINE
  8
0
 62
     0
 10
78.0189
 20
91.9826
 30
0.0
 11
78.0189
 21
88.8834
 31
0.0
  0
LINE
  8
0
 62
     0
 10
78.0189
 20
88.8834
 30
0.0
 11
78.8197
 21
88.8834
 31
0.0
  0
LINE
  8
0
 62
     0
 10
78.8197
 20
88.8834
 30
0.0
 11
78.8197
 21
83.0834
 31
0.0
  0
LINE
  8
0
 62
     0
 10
78.8197
 20
83.0834
 30
0.0
 11
78.0189
 21
83.0834
 31
0.0
  0
LINE
  8
0
 62
     0
 10
78.0189
 20
83.0834
 30
0.0
 11
78.0189
 21
79.9828
 31
0.0
  0
LINE
  8
0
 62
     0
 10
78.0189
 20
79.9828
 30
0.0
 11
78.8197
 21
79.9828
 31
0.0
  0
LINE
  8
0
 62
     0
 10
78.8197
 20
79.9828
 30
0.0
 11
78.8197
 21
78.9838
 31
0.0
  0
LINE
  8
0
 62
     0
 10
78.8197
 20
78.9838
 30
0.0
 11
92.819
 21
78.9838
 31
0.0
  0
LINE
  8
0
 62
     0
 10
92.819
 20
78.9838
 30
0.0
 11
92.819
 21
79.9828
 31
0.0
  0
LINE
  8
0
 62
     0
 10
92.819
 20
79.9828
 30
0.0
 11
93.6184
 21
79.9828
 31
0.0
  0
LINE
  8
0
 62
     0
 10
93.6184
 20
79.9828
 30
0.0
 11
93.6184
 21
83.0834
 31
0.0
  0
LINE
  8
0
 62
     0
 10
93.6184
 20
83.0834
 30
0.0
 11
92.819
 21
83.0834
 31
0.0
  0
LINE
  8
0
 62
     0
 10
92.819
 20
83.0834
 30
0.0
 11
92.819
 21
88.8834
 31
0.0
  0
LINE
  8
0
 62
     0
 10
92.819
 20
88.8834
 30
0.0
 11
93.6184
 21
88.8834
 31
0.0
  0
LINE
  8
0
 62
     0
 10
93.6184
 20
88.8834
 30
0.0
 11
93.6184
 21
91.9826
 31
0.0
  0
LINE
  8
0
 62
     0
 10
93.6184
 20
91.9826
 30
0.0
 11
92.819
 21
91.9826
 31
0.0
  0
LINE
  8
0
 62
     0
 10
92.819
 20
91.9826
 30
0.0
 11
92.819
 21
92.9831
 31
0.0
  0
LINE
  8
0
 62
     0
 10
92.819
 20
92.9831
 30
0.0
 11
78.8197
 21
92.9831
 31
0.0
  0
LINE
  8
0
 62
     0
 10
59.7697
 20
92.9831
 30
0.0
 11
59.7697
 21
91.9826
 31
0.0
  0
LINE
  8
0
 62
     0
 10
59.7697
 20
91.9826
 30
0.0
 11
58.9689
 21
91.9826
 31
0.0
  0
LINE
  8
0
 62
     0
 10
58.9689
 20
91.9826
 30
0.0
 11
58.9689
 21
88.8834
 31
0.0
  0
LINE
  8
0
 62
     0
 10
58.9689
 20
88.8834
 30
0.0
 11
59.7697
 21
88.8834
 31
0.0
  0
LINE
  8
0
 62
     0
 10
59.7697
 20
88.8834
 30
0.0
 11
59.7697
 21
83.0834
 31
0.0
  0
LINE
  8
0
 62
     0
 10
59.7697
 20
83.0834
 30
0.0
 11
58.9689
 21
83.0834
 31
0.0
  0
LINE
  8
0
 62
     0
 10
58.9689
 20
83.0834
 30
0.0
 11
58.9689
 21
79.9828
 31
0.0
  0
LINE
  8
0
 62
     0
 10
58.9689
 20
79.9828
 30
0.0
 11
59.7697
 21
79.9828
 31
0.0
  0
LINE
  8
0
 62
     0
 10
59.7697
 20
79.9828
 30
0.0
 11
59.7697
 21
78.9838
 31
0.0
  0
LINE
  8
0
 62
     0
 10
59.7697
 20
78.9838
 30
0.0
 11
73.769
 21
78.9838
 31
0.0
  0
LINE
  8
0
 62
     0
 10
73.769
 20
78.9838
 30
0.0
 11
73.769
 21
79.9828
 31
0.0
  0
LINE
  8
0
 62
     0
 10
73.769
 20
79.9828
 30
0.0
 11
74.5698
 21
79.9828
 31
0.0
  0
LINE
  8
0
 62
     0
 10
74.5698
 20
79.9828
 30
0.0
 11
74.5698
 21
83.0834
 31
0.0
  0
LINE
  8
0
 62
     0
 10
74.5698
 20
83.0834
 30
0.0
 11
73.769
 21
83.0834
 31
0.0
  0
LINE
  8
0
 62
     0
 10
73.769
 20
83.0834
 30
0.0
 11
73.769
 21
88.8834
 31
0.0
  0
LINE
  8
0
 62
     0
 10
73.769
 20
88.8834
 30
0.0
 11
74.5698
 21
88.8834
 31
0.0
  0
LINE
  8
0
 62
     0
 10
74.5698
 20
88.8834
 30
0.0
 11
74.5698
 21
91.9826
 31
0.0
  0
LINE
  8
0
 62
     0
 10
74.5698
 20
91.9826
 30
0.0
 11
73.769
 21
91.9826
 31
0.0
  0
LINE
  8
0
 62
     0
 10
73.769
 20
91.9826
 30
0.0
 11
73.769
 21
92.9831
 31
0.0
  0
LINE
  8
0
 62
     0
 10
73.769
 20
92.9831
 30
0.0
 11
59.7697
 21
92.9831
 31
0.0
  0
LINE
  8
0
 62
     0
 10
40.7197
 20
92.9831
 30
0.0
 11
40.7197
 21
91.9826
 31
0.0
  0
LINE
  8
0
 62
     0
 10
40.7197
 20
91.9826
 30
0.0
 11
39.9189
 21
91.9826
 31
0.0
  0
LINE
  8
0
 62
     0
 10
39.9189
 20
91.9826
 30
0.0
 11
39.9189
 21
88.8834
 31
0.0
  0
LINE
  8
0
 62
     0
 10
39.9189
 20
88.8834
 30
0.0
 11
40.7197
 21
88.8834
 31
0.0
  0
LINE
  8
0
 62
     0
 10
40.7197
 20
88.8834
 30
0.0
 11
40.7197
 21
83.0834
 31
0.0
  0
LINE
  8
0
 62
     0
 10
40.7197
 20
83.0834
 30
0.0
 11
39.9189
 21
83.0834
 31
0.0
  0
LINE
  8
0
 62
     0
 10
39.9189
 20
83.0834
 30
0.0
 11
39.9189
 21
79.9828
 31
0.0
  0
LINE
  8
0
 62
     0
 10
39.9189
 20
79.9828
 30
0.0
 11
40.7197
 21
79.9828
 31
0.0
  0
LINE
  8
0
 62
     0
 10
40.7197
 20
79.9828
 30
0.0
 11
40.7197
 21
78.9838
 31
0.0
  0
LINE
  8
0
 62
     0
 10
40.7197
 20
78.9838
 30
0.0
 11
54.719
 21
78.9838
 31
0.0
  0
LINE
  8
0
 62
     0
 10
54.719
 20
78.9838
 30
0.0
 11
54.719
 21
79.9828
 31
0.0
  0
LINE
  8
0
 62
     0
 10
54.719
 20
79.9828
 30
0.0
 11
55.5198
 21
79.9828
 31
0.0
  0
LINE
  8
0
 62
     0
 10
55.5198
 20
79.9828
 30
0.0
 11
55.5198
 21
83.0834
 31
0.0
  0
LINE
  8
0
 62
     0
 10
55.5198
 20
83.0834
 30
0.0
 11
54.719
 21
83.0834
 31
0.0
  0
LINE
  8
0
 62
     0
 10
54.719
 20
83.0834
 30
0.0
 11
54.719
 21
88.8834
 31
0.0
  0
LINE
  8
0
 62
     0
 10
54.719
 20
88.8834
 30
0.0
 11
55.5198
 21
88.8834
 31
0.0
  0
LINE
  8
0
 62
     0
 10
55.5198
 20
88.8834
 30
0.0
 11
55.5198
 21
91.9826
 31
0.0
  0
LINE
  8
0
 62
     0
 10
55.5198
 20
91.9826
 30
0.0
 11
54.719
 21
91.9826
 31
0.0
  0
LINE
  8
0
 62
     0
 10
54.719
 20
91.9826
 30
0.0
 11
54.719
 21
92.9831
 31
0.0
  0
LINE
  8
0
 62
     0
 10
54.719
 20
92.9831
 30
0.0
 11
40.7197
 21
92.9831
 31
0.0
  0
LINE
  8
0
 62
     0
 10
21.6697
 20
92.9831
 30
0.0
 11
21.6697
 21
91.9826
 31
0.0
  0
LINE
  8
0
 62
     0
 10
21.6697
 20
91.9826
 30
0.0
 11
20.869
 21
91.9826
 31
0.0
  0
LINE
  8
0
 62
     0
 10
20.869
 20
91.9826
 30
0.0
 11
20.869
 21
88.8834
 31
0.0
  0
LINE
  8
0
 62
     0
 10
20.869
 20
88.8834
 30
0.0
 11
21.6697
 21
88.8834
 31
0.0
  0
LINE
  8
0
 62
     0
 10
21.6697
 20
88.8834
 30
0.0
 11
21.6697
 21
83.0834
 31
0.0
  0
LINE
  8
0
 62
     0
 10
21.6697
 20
83.0834
 30
0.0
 11
20.869
 21
83.0834
 31
0.0
  0
LINE
  8
0
 62
     0
 10
20.869
 20
83.0834
 30
0.0
 11
20.869
 21
79.9828
 31
0.0
  0
LINE
  8
0
 62
     0
 10
20.869
 20
79.9828
 30
0.0
 11
21.6697
 21
79.9828
 31
0.0
  0
LINE
  8
0
 62
     0
 10
21.6697
 20
79.9828
 30
0.0
 11
21.6697
 21
78.9838
 31
0.0
  0
LINE
  8
0
 62
     0
 10
21.6697
 20
78.9838
 30
0.0
 11
35.669
 21
78.9838
 31
0.0
  0
LINE
  8
0
 62
     0
 10
35.669
 20
78.9838
 30
0.0
 11
35.669
 21
79.9828
 31
0.0
  0
LINE
  8
0
 62
     0
 10
35.669
 20
79.9828
 30
0.0
 11
36.4698
 21
79.9828
 31
0.0
  0
LINE
  8
0
 62
     0
 10
36.4698
 20
79.9828
 30
0.0
 11
36.4698
 21
83.0834
 31
0.0
  0
LINE
  8
0
 62
     0
 10
36.4698
 20
83.0834
 30
0.0
 11
35.669
 21
83.0834
 31
0.0
  0
LINE
  8
0
 62
     0
 10
35.669
 20
83.0834
 30
0.0
 11
35.669
 21
88.8834
 31
0.0
  0
LINE
  8
0
 62
     0
 10
35.669
 20
88.8834
 30
0.0
 11
36.4698
 21
88.8834
 31
0.0
  0
LINE
  8
0
 62
     0
 10
36.4698
 20
88.8834
 30
0.0
 11
36.4698
 21
91.9826
 31
0.0
  0
LINE
  8
0
 62
     0
 10
36.4698
 20
91.9826
 30
0.0
 11
35.669
 21
91.9826
 31
0.0
  0
LINE
  8
0
 62
     0
 10
35.669
 20
91.9826
 30
0.0
 11
35.669
 21
92.9831
 31
0.0
  0
LINE
  8
0
 62
     0
 10
35.669
 20
92.9831
 30
0.0
 11
21.6697
 21
92.9831
 31
0.0
  0
LINE
  8
0
 62
     0
 10
2.61965
 20
92.9831
 30
0.0
 11
2.61965
 21
91.9826
 31
0.0
  0
LINE
  8
0
 62
     0
 10
2.61965
 20
91.9826
 30
0.0
 11
1.81901
 21
91.9826
 31
0.0
  0
LINE
  8
0
 62
     0
 10
1.81901
 20
91.9826
 30
0.0
 11
1.81901
 21
88.8834
 31
0.0
  0
LINE
  8
0
 62
     0
 10
1.81901
 20
88.8834
 30
0.0
 11
2.61965
 21
88.8834
 31
0.0
  0
LINE
  8
0
 62
     0
 10
2.61965
 20
88.8834
 30
0.0
 11
2.61965
 21
83.0834
 31
0.0
  0
LINE
  8
0
 62
     0
 10
2.61965
 20
83.0834
 30
0.0
 11
1.81901
 21
83.0834
 31
0.0
  0
LINE
  8
0
 62
     0
 10
1.81901
 20
83.0834
 30
0.0
 11
1.81901
 21
79.9828
 31
0.0
  0
LINE
  8
0
 62
     0
 10
1.81901
 20
79.9828
 30
0.0
 11
2.61965
 21
79.9828
 31
0.0
  0
LINE
  8
0
 62
     0
 10
2.61965
 20
79.9828
 30
0.0
 11
2.61965
 21
78.9838
 31
0.0
  0
LINE
  8
0
 62
     0
 10
2.61965
 20
78.9838
 30
0.0
 11
16.6192
 21
78.9838
 31
0.0
  0
LINE
  8
0
 62
     0
 10
16.6192
 20
78.9838
 30
0.0
 11
16.6192
 21
79.9828
 31
0.0
  0
LINE
  8
0
 62
     0
 10
16.6192
 20
79.9828
 30
0.0
 11
17.4198
 21
79.9828
 31
0.0
  0
LINE
  8
0
 62
     0
 10
17.4198
 20
79.9828
 30
0.0
 11
17.4198
 21
83.0834
 31
0.0
  0
LINE
  8
0
 62
     0
 10
17.4198
 20
83.0834
 30
0.0
 11
16.6192
 21
83.0834
 31
0.0
  0
LINE
  8
0
 62
     0
 10
16.6192
 20
83.0834
 30
0.0
 11
16.6192
 21
88.8834
 31
0.0
  0
LINE
  8
0
 62
     0
 10
16.6192
 20
88.8834
 30
0.0
 11
17.4198
 21
88.8834
 31
0.0
  0
LINE
  8
0
 62
     0
 10
17.4198
 20
88.8834
 30
0.0
 11
17.4198
 21
91.9826
 31
0.0
  0
LINE
  8
0
 62
     0
 10
17.4198
 20
91.9826
 30
0.0
 11
16.6192
 21
91.9826
 31
0.0
  0
LINE
  8
0
 62
     0
 10
16.6192
 20
91.9826
 30
0.0
 11
16.6192
 21
92.9831
 31
0.0
  0
LINE
  8
0
 62
     0
 10
16.6192
 20
92.9831
 30
0.0
 11
2.61965
 21
92.9831
 31
0.0
  0
LINE
  8
0
 62
     0
 10
155.02
 20
112.033
 30
0.0
 11
155.02
 21
111.033
 31
0.0
  0
LINE
  8
0
 62
     0
 10
155.02
 20
111.033
 30
0.0
 11
154.219
 21
111.033
 31
0.0
  0
LINE
  8
0
 62
     0
 10
154.219
 20
111.033
 30
0.0
 11
154.219
 21
107.933
 31
0.0
  0
LINE
  8
0
 62
     0
 10
154.219
 20
107.933
 30
0.0
 11
155.02
 21
107.933
 31
0.0
  0
LINE
  8
0
 62
     0
 10
155.02
 20
107.933
 30
0.0
 11
155.02
 21
102.133
 31
0.0
  0
LINE
  8
0
 62
     0
 10
155.02
 20
102.133
 30
0.0
 11
154.219
 21
102.133
 31
0.0
  0
LINE
  8
0
 62
     0
 10
154.219
 20
102.133
 30
0.0
 11
154.219
 21
99.0328
 31
0.0
  0
LINE
  8
0
 62
     0
 10
154.219
 20
99.0328
 30
0.0
 11
155.02
 21
99.0328
 31
0.0
  0
LINE
  8
0
 62
     0
 10
155.02
 20
99.0328
 30
0.0
 11
155.02
 21
98.0338
 31
0.0
  0
LINE
  8
0
 62
     0
 10
155.02
 20
98.0338
 30
0.0
 11
169.019
 21
98.0338
 31
0.0
  0
LINE
  8
0
 62
     0
 10
169.019
 20
98.0338
 30
0.0
 11
169.019
 21
99.0328
 31
0.0
  0
LINE
  8
0
 62
     0
 10
169.019
 20
99.0328
 30
0.0
 11
169.82
 21
99.0328
 31
0.0
  0
LINE
  8
0
 62
     0
 10
169.82
 20
99.0328
 30
0.0
 11
169.82
 21
102.133
 31
0.0
  0
LINE
  8
0
 62
     0
 10
169.82
 20
102.133
 30
0.0
 11
169.019
 21
102.133
 31
0.0
  0
LINE
  8
0
 62
     0
 10
169.019
 20
102.133
 30
0.0
 11
169.019
 21
107.933
 31
0.0
  0
LINE
  8
0
 62
     0
 10
169.019
 20
107.933
 30
0.0
 11
169.82
 21
107.933
 31
0.0
  0
LINE
  8
0
 62
     0
 10
169.82
 20
107.933
 30
0.0
 11
169.82
 21
111.033
 31
0.0
  0
LINE
  8
0
 62
     0
 10
169.82
 20
111.033
 30
0.0
 11
169.019
 21
111.033
 31
0.0
  0
LINE
  8
0
 62
     0
 10
169.019
 20
111.033
 30
0.0
 11
169.019
 21
112.033
 31
0.0
  0
LINE
  8
0
 62
     0
 10
169.019
 20
112.033
 30
0.0
 11
155.02
 21
112.033
 31
0.0
  0
LINE
  8
0
 62
     0
 10
135.97
 20
112.033
 30
0.0
 11
135.97
 21
111.033
 31
0.0
  0
LINE
  8
0
 62
     0
 10
135.97
 20
111.033
 30
0.0
 11
135.169
 21
111.033
 31
0.0
  0
LINE
  8
0
 62
     0
 10
135.169
 20
111.033
 30
0.0
 11
135.169
 21
107.933
 31
0.0
  0
LINE
  8
0
 62
     0
 10
135.169
 20
107.933
 30
0.0
 11
135.97
 21
107.933
 31
0.0
  0
LINE
  8
0
 62
     0
 10
135.97
 20
107.933
 30
0.0
 11
135.97
 21
102.133
 31
0.0
  0
LINE
  8
0
 62
     0
 10
135.97
 20
102.133
 30
0.0
 11
135.169
 21
102.133
 31
0.0
  0
LINE
  8
0
 62
     0
 10
135.169
 20
102.133
 30
0.0
 11
135.169
 21
99.0328
 31
0.0
  0
LINE
  8
0
 62
     0
 10
135.169
 20
99.0328
 30
0.0
 11
135.97
 21
99.0328
 31
0.0
  0
LINE
  8
0
 62
     0
 10
135.97
 20
99.0328
 30
0.0
 11
135.97
 21
98.0338
 31
0.0
  0
LINE
  8
0
 62
     0
 10
135.97
 20
98.0338
 30
0.0
 11
149.969
 21
98.0338
 31
0.0
  0
LINE
  8
0
 62
     0
 10
149.969
 20
98.0338
 30
0.0
 11
149.969
 21
99.0328
 31
0.0
  0
LINE
  8
0
 62
     0
 10
149.969
 20
99.0328
 30
0.0
 11
150.77
 21
99.0328
 31
0.0
  0
LINE
  8
0
 62
     0
 10
150.77
 20
99.0328
 30
0.0
 11
150.77
 21
102.133
 31
0.0
  0
LINE
  8
0
 62
     0
 10
150.77
 20
102.133
 30
0.0
 11
149.969
 21
102.133
 31
0.0
  0
LINE
  8
0
 62
     0
 10
149.969
 20
102.133
 30
0.0
 11
149.969
 21
107.933
 31
0.0
  0
LINE
  8
0
 62
     0
 10
149.969
 20
107.933
 30
0.0
 11
150.77
 21
107.933
 31
0.0
  0
LINE
  8
0
 62
     0
 10
150.77
 20
107.933
 30
0.0
 11
150.77
 21
111.033
 31
0.0
  0
LINE
  8
0
 62
     0
 10
150.77
 20
111.033
 30
0.0
 11
149.969
 21
111.033
 31
0.0
  0
LINE
  8
0
 62
     0
 10
149.969
 20
111.033
 30
0.0
 11
149.969
 21
112.033
 31
0.0
  0
LINE
  8
0
 62
     0
 10
149.969
 20
112.033
 30
0.0
 11
135.97
 21
112.033
 31
0.0
  0
LINE
  8
0
 62
     0
 10
116.918
 20
112.033
 30
0.0
 11
116.918
 21
111.033
 31
0.0
  0
LINE
  8
0
 62
     0
 10
116.918
 20
111.033
 30
0.0
 11
116.119
 21
111.033
 31
0.0
  0
LINE
  8
0
 62
     0
 10
116.119
 20
111.033
 30
0.0
 11
116.119
 21
107.933
 31
0.0
  0
LINE
  8
0
 62
     0
 10
116.119
 20
107.933
 30
0.0
 11
116.918
 21
107.933
 31
0.0
  0
LINE
  8
0
 62
     0
 10
116.918
 20
107.933
 30
0.0
 11
116.918
 21
102.133
 31
0.0
  0
LINE
  8
0
 62
     0
 10
116.918
 20
102.133
 30
0.0
 11
116.119
 21
102.133
 31
0.0
  0
LINE
  8
0
 62
     0
 10
116.119
 20
102.133
 30
0.0
 11
116.119
 21
99.0328
 31
0.0
  0
LINE
  8
0
 62
     0
 10
116.119
 20
99.0328
 30
0.0
 11
116.918
 21
99.0328
 31
0.0
  0
LINE
  8
0
 62
     0
 10
116.918
 20
99.0328
 30
0.0
 11
116.918
 21
98.0338
 31
0.0
  0
LINE
  8
0
 62
     0
 10
116.918
 20
98.0338
 30
0.0
 11
130.919
 21
98.0338
 31
0.0
  0
LINE
  8
0
 62
     0
 10
130.919
 20
98.0338
 30
0.0
 11
130.919
 21
99.0328
 31
0.0
  0
LINE
  8
0
 62
     0
 10
130.919
 20
99.0328
 30
0.0
 11
131.72
 21
99.0328
 31
0.0
  0
LINE
  8
0
 62
     0
 10
131.72
 20
99.0328
 30
0.0
 11
131.72
 21
102.133
 31
0.0
  0
LINE
  8
0
 62
     0
 10
131.72
 20
102.133
 30
0.0
 11
130.919
 21
102.133
 31
0.0
  0
LINE
  8
0
 62
     0
 10
130.919
 20
102.133
 30
0.0
 11
130.919
 21
107.933
 31
0.0
  0
LINE
  8
0
 62
     0
 10
130.919
 20
107.933
 30
0.0
 11
131.72
 21
107.933
 31
0.0
  0
LINE
  8
0
 62
     0
 10
131.72
 20
107.933
 30
0.0
 11
131.72
 21
111.033
 31
0.0
  0
LINE
  8
0
 62
     0
 10
131.72
 20
111.033
 30
0.0
 11
130.919
 21
111.033
 31
0.0
  0
LINE
  8
0
 62
     0
 10
130.919
 20
111.033
 30
0.0
 11
130.919
 21
112.033
 31
0.0
  0
LINE
  8
0
 62
     0
 10
130.919
 20
112.033
 30
0.0
 11
116.918
 21
112.033
 31
0.0
  0
LINE
  8
0
 62
     0
 10
97.8683
 20
112.033
 30
0.0
 11
97.8683
 21
111.033
 31
0.0
  0
LINE
  8
0
 62
     0
 10
97.8683
 20
111.033
 30
0.0
 11
97.0689
 21
111.033
 31
0.0
  0
LINE
  8
0
 62
     0
 10
97.0689
 20
111.033
 30
0.0
 11
97.0689
 21
107.933
 31
0.0
  0
LINE
  8
0
 62
     0
 10
97.0689
 20
107.933
 30
0.0
 11
97.8683
 21
107.933
 31
0.0
  0
LINE
  8
0
 62
     0
 10
97.8683
 20
107.933
 30
0.0
 11
97.8683
 21
102.133
 31
0.0
  0
LINE
  8
0
 62
     0
 10
97.8683
 20
102.133
 30
0.0
 11
97.0689
 21
102.133
 31
0.0
  0
LINE
  8
0
 62
     0
 10
97.0689
 20
102.133
 30
0.0
 11
97.0689
 21
99.0328
 31
0.0
  0
LINE
  8
0
 62
     0
 10
97.0689
 20
99.0328
 30
0.0
 11
97.8683
 21
99.0328
 31
0.0
  0
LINE
  8
0
 62
     0
 10
97.8683
 20
99.0328
 30
0.0
 11
97.8683
 21
98.0338
 31
0.0
  0
LINE
  8
0
 62
     0
 10
97.8683
 20
98.0338
 30
0.0
 11
111.869
 21
98.0338
 31
0.0
  0
LINE
  8
0
 62
     0
 10
111.869
 20
98.0338
 30
0.0
 11
111.869
 21
99.0328
 31
0.0
  0
LINE
  8
0
 62
     0
 10
111.869
 20
99.0328
 30
0.0
 11
112.668
 21
99.0328
 31
0.0
  0
LINE
  8
0
 62
     0
 10
112.668
 20
99.0328
 30
0.0
 11
112.668
 21
102.133
 31
0.0
  0
LINE
  8
0
 62
     0
 10
112.668
 20
102.133
 30
0.0
 11
111.869
 21
102.133
 31
0.0
  0
LINE
  8
0
 62
     0
 10
111.869
 20
102.133
 30
0.0
 11
111.869
 21
107.933
 31
0.0
  0
LINE
  8
0
 62
     0
 10
111.869
 20
107.933
 30
0.0
 11
112.668
 21
107.933
 31
0.0
  0
LINE
  8
0
 62
     0
 10
112.668
 20
107.933
 30
0.0
 11
112.668
 21
111.033
 31
0.0
  0
LINE
  8
0
 62
     0
 10
112.668
 20
111.033
 30
0.0
 11
111.869
 21
111.033
 31
0.0
  0
LINE
  8
0
 62
     0
 10
111.869
 20
111.033
 30
0.0
 11
111.869
 21
112.033
 31
0.0
  0
LINE
  8
0
 62
     0
 10
111.869
 20
112.033
 30
0.0
 11
97.8683
 21
112.033
 31
0.0
  0
LINE
  8
0
 62
     0
 10
78.8197
 20
112.033
 30
0.0
 11
78.8197
 21
111.033
 31
0.0
  0
LINE
  8
0
 62
     0
 10
78.8197
 20
111.033
 30
0.0
 11
78.0189
 21
111.033
 31
0.0
  0
LINE
  8
0
 62
     0
 10
78.0189
 20
111.033
 30
0.0
 11
78.0189
 21
107.933
 31
0.0
  0
LINE
  8
0
 62
     0
 10
78.0189
 20
107.933
 30
0.0
 11
78.8197
 21
107.933
 31
0.0
  0
LINE
  8
0
 62
     0
 10
78.8197
 20
107.933
 30
0.0
 11
78.8197
 21
102.133
 31
0.0
  0
LINE
  8
0
 62
     0
 10
78.8197
 20
102.133
 30
0.0
 11
78.0189
 21
102.133
 31
0.0
  0
LINE
  8
0
 62
     0
 10
78.0189
 20
102.133
 30
0.0
 11
78.0189
 21
99.0328
 31
0.0
  0
LINE
  8
0
 62
     0
 10
78.0189
 20
99.0328
 30
0.0
 11
78.8197
 21
99.0328
 31
0.0
  0
LINE
  8
0
 62
     0
 10
78.8197
 20
99.0328
 30
0.0
 11
78.8197
 21
98.0338
 31
0.0
  0
LINE
  8
0
 62
     0
 10
78.8197
 20
98.0338
 30
0.0
 11
92.819
 21
98.0338
 31
0.0
  0
LINE
  8
0
 62
     0
 10
92.819
 20
98.0338
 30
0.0
 11
92.819
 21
99.0328
 31
0.0
  0
LINE
  8
0
 62
     0
 10
92.819
 20
99.0328
 30
0.0
 11
93.6184
 21
99.0328
 31
0.0
  0
LINE
  8
0
 62
     0
 10
93.6184
 20
99.0328
 30
0.0
 11
93.6184
 21
102.133
 31
0.0
  0
LINE
  8
0
 62
     0
 10
93.6184
 20
102.133
 30
0.0
 11
92.819
 21
102.133
 31
0.0
  0
LINE
  8
0
 62
     0
 10
92.819
 20
102.133
 30
0.0
 11
92.819
 21
107.933
 31
0.0
  0
LINE
  8
0
 62
     0
 10
92.819
 20
107.933
 30
0.0
 11
93.6184
 21
107.933
 31
0.0
  0
LINE
  8
0
 62
     0
 10
93.6184
 20
107.933
 30
0.0
 11
93.6184
 21
111.033
 31
0.0
  0
LINE
  8
0
 62
     0
 10
93.6184
 20
111.033
 30
0.0
 11
92.819
 21
111.033
 31
0.0
  0
LINE
  8
0
 62
     0
 10
92.819
 20
111.033
 30
0.0
 11
92.819
 21
112.033
 31
0.0
  0
LINE
  8
0
 62
     0
 10
92.819
 20
112.033
 30
0.0
 11
78.8197
 21
112.033
 31
0.0
  0
LINE
  8
0
 62
     0
 10
59.7697
 20
112.033
 30
0.0
 11
59.7697
 21
111.033
 31
0.0
  0
LINE
  8
0
 62
     0
 10
59.7697
 20
111.033
 30
0.0
 11
58.9689
 21
111.033
 31
0.0
  0
LINE
  8
0
 62
     0
 10
58.9689
 20
111.033
 30
0.0
 11
58.9689
 21
107.933
 31
0.0
  0
LINE
  8
0
 62
     0
 10
58.9689
 20
107.933
 30
0.0
 11
59.7697
 21
107.933
 31
0.0
  0
LINE
  8
0
 62
     0
 10
59.7697
 20
107.933
 30
0.0
 11
59.7697
 21
102.133
 31
0.0
  0
LINE
  8
0
 62
     0
 10
59.7697
 20
102.133
 30
0.0
 11
58.9689
 21
102.133
 31
0.0
  0
LINE
  8
0
 62
     0
 10
58.9689
 20
102.133
 30
0.0
 11
58.9689
 21
99.0328
 31
0.0
  0
LINE
  8
0
 62
     0
 10
58.9689
 20
99.0328
 30
0.0
 11
59.7697
 21
99.0328
 31
0.0
  0
LINE
  8
0
 62
     0
 10
59.7697
 20
99.0328
 30
0.0
 11
59.7697
 21
98.0338
 31
0.0
  0
LINE
  8
0
 62
     0
 10
59.7697
 20
98.0338
 30
0.0
 11
73.769
 21
98.0338
 31
0.0
  0
LINE
  8
0
 62
     0
 10
73.769
 20
98.0338
 30
0.0
 11
73.769
 21
99.0328
 31
0.0
  0
LINE
  8
0
 62
     0
 10
73.769
 20
99.0328
 30
0.0
 11
74.5698
 21
99.0328
 31
0.0
  0
LINE
  8
0
 62
     0
 10
74.5698
 20
99.0328
 30
0.0
 11
74.5698
 21
102.133
 31
0.0
  0
LINE
  8
0
 62
     0
 10
74.5698
 20
102.133
 30
0.0
 11
73.769
 21
102.133
 31
0.0
  0
LINE
  8
0
 62
     0
 10
73.769
 20
102.133
 30
0.0
 11
73.769
 21
107.933
 31
0.0
  0
LINE
  8
0
 62
     0
 10
73.769
 20
107.933
 30
0.0
 11
74.5698
 21
107.933
 31
0.0
  0
LINE
  8
0
 62
     0
 10
74.5698
 20
107.933
 30
0.0
 11
74.5698
 21
111.033
 31
0.0
  0
LINE
  8
0
 62
     0
 10
74.5698
 20
111.033
 30
0.0
 11
73.769
 21
111.033
 31
0.0
  0
LINE
  8
0
 62
     0
 10
73.769
 20
111.033
 30
0.0
 11
73.769
 21
112.033
 31
0.0
  0
LINE
  8
0
 62
     0
 10
73.769
 20
112.033
 30
0.0
 11
59.7697
 21
112.033
 31
0.0
  0
LINE
  8
0
 62
     0
 10
40.7197
 20
112.033
 30
0.0
 11
40.7197
 21
111.033
 31
0.0
  0
LINE
  8
0
 62
     0
 10
40.7197
 20
111.033
 30
0.0
 11
39.9189
 21
111.033
 31
0.0
  0
LINE
  8
0
 62
     0
 10
39.9189
 20
111.033
 30
0.0
 11
39.9189
 21
107.933
 31
0.0
  0
LINE
  8
0
 62
     0
 10
39.9189
 20
107.933
 30
0.0
 11
40.7197
 21
107.933
 31
0.0
  0
LINE
  8
0
 62
     0
 10
40.7197
 20
107.933
 30
0.0
 11
40.7197
 21
102.133
 31
0.0
  0
LINE
  8
0
 62
     0
 10
40.7197
 20
102.133
 30
0.0
 11
39.9189
 21
102.133
 31
0.0
  0
LINE
  8
0
 62
     0
 10
39.9189
 20
102.133
 30
0.0
 11
39.9189
 21
99.0328
 31
0.0
  0
LINE
  8
0
 62
     0
 10
39.9189
 20
99.0328
 30
0.0
 11
40.7197
 21
99.0328
 31
0.0
  0
LINE
  8
0
 62
     0
 10
40.7197
 20
99.0328
 30
0.0
 11
40.7197
 21
98.0338
 31
0.0
  0
LINE
  8
0
 62
     0
 10
40.7197
 20
98.0338
 30
0.0
 11
54.719
 21
98.0338
 31
0.0
  0
LINE
  8
0
 62
     0
 10
54.719
 20
98.0338
 30
0.0
 11
54.719
 21
99.0328
 31
0.0
  0
LINE
  8
0
 62
     0
 10
54.719
 20
99.0328
 30
0.0
 11
55.5198
 21
99.0328
 31
0.0
  0
LINE
  8
0
 62
     0
 10
55.5198
 20
99.0328
 30
0.0
 11
55.5198
 21
102.133
 31
0.0
  0
LINE
  8
0
 62
     0
 10
55.5198
 20
102.133
 30
0.0
 11
54.719
 21
102.133
 31
0.0
  0
LINE
  8
0
 62
     0
 10
54.719
 20
102.133
 30
0.0
 11
54.719
 21
107.933
 31
0.0
  0
LINE
  8
0
 62
     0
 10
54.719
 20
107.933
 30
0.0
 11
55.5198
 21
107.933
 31
0.0
  0
LINE
  8
0
 62
     0
 10
55.5198
 20
107.933
 30
0.0
 11
55.5198
 21
111.033
 31
0.0
  0
LINE
  8
0
 62
     0
 10
55.5198
 20
111.033
 30
0.0
 11
54.719
 21
111.033
 31
0.0
  0
LINE
  8
0
 62
     0
 10
54.719
 20
111.033
 30
0.0
 11
54.719
 21
112.033
 31
0.0
  0
LINE
  8
0
 62
     0
 10
54.719
 20
112.033
 30
0.0
 11
40.7197
 21
112.033
 31
0.0
  0
LINE
  8
0
 62
     0
 10
21.6697
 20
112.033
 30
0.0
 11
21.6697
 21
111.033
 31
0.0
  0
LINE
  8
0
 62
     0
 10
21.6697
 20
111.033
 30
0.0
 11
20.869
 21
111.033
 31
0.0
  0
LINE
  8
0
 62
     0
 10
20.869
 20
111.033
 30
0.0
 11
20.869
 21
107.933
 31
0.0
  0
LINE
  8
0
 62
     0
 10
20.869
 20
107.933
 30
0.0
 11
21.6697
 21
107.933
 31
0.0
  0
LINE
  8
0
 62
     0
 10
21.6697
 20
107.933
 30
0.0
 11
21.6697
 21
102.133
 31
0.0
  0
LINE
  8
0
 62
     0
 10
21.6697
 20
102.133
 30
0.0
 11
20.869
 21
102.133
 31
0.0
  0
LINE
  8
0
 62
     0
 10
20.869
 20
102.133
 30
0.0
 11
20.869
 21
99.0328
 31
0.0
  0
LINE
  8
0
 62
     0
 10
20.869
 20
99.0328
 30
0.0
 11
21.6697
 21
99.0328
 31
0.0
  0
LINE
  8
0
 62
     0
 10
21.6697
 20
99.0328
 30
0.0
 11
21.6697
 21
98.0338
 31
0.0
  0
LINE
  8
0
 62
     0
 10
21.6697
 20
98.0338
 30
0.0
 11
35.669
 21
98.0338
 31
0.0
  0
LINE
  8
0
 62
     0
 10
35.669
 20
98.0338
 30
0.0
 11
35.669
 21
99.0328
 31
0.0
  0
LINE
  8
0
 62
     0
 10
35.669
 20
99.0328
 30
0.0
 11
36.4698
 21
99.0328
 31
0.0
  0
LINE
  8
0
 62
     0
 10
36.4698
 20
99.0328
 30
0.0
 11
36.4698
 21
102.133
 31
0.0
  0
LINE
  8
0
 62
     0
 10
36.4698
 20
102.133
 30
0.0
 11
35.669
 21
102.133
 31
0.0
  0
LINE
  8
0
 62
     0
 10
35.669
 20
102.133
 30
0.0
 11
35.669
 21
107.933
 31
0.0
  0
LINE
  8
0
 62
     0
 10
35.669
 20
107.933
 30
0.0
 11
36.4698
 21
107.933
 31
0.0
  0
LINE
  8
0
 62
     0
 10
36.4698
 20
107.933
 30
0.0
 11
36.4698
 21
111.033
 31
0.0
  0
LINE
  8
0
 62
     0
 10
36.4698
 20
111.033
 30
0.0
 11
35.669
 21
111.033
 31
0.0
  0
LINE
  8
0
 62
     0
 10
35.669
 20
111.033
 30
0.0
 11
35.669
 21
112.033
 31
0.0
  0
LINE
  8
0
 62
     0
 10
35.669
 20
112.033
 30
0.0
 11
21.6697
 21
112.033
 31
0.0
  0
LINE
  8
0
 62
     0
 10
2.61965
 20
112.033
 30
0.0
 11
2.61965
 21
111.033
 31
0.0
  0
LINE
  8
0
 62
     0
 10
2.61965
 20
111.033
 30
0.0
 11
1.81901
 21
111.033
 31
0.0
  0
LINE
  8
0
 62
     0
 10
1.81901
 20
111.033
 30
0.0
 11
1.81901
 21
107.933
 31
0.0
  0
LINE
  8
0
 62
     0
 10
1.81901
 20
107.933
 30
0.0
 11
2.61965
 21
107.933
 31
0.0
  0
LINE
  8
0
 62
     0
 10
2.61965
 20
107.933
 30
0.0
 11
2.61965
 21
102.133
 31
0.0
  0
LINE
  8
0
 62
     0
 10
2.61965
 20
102.133
 30
0.0
 11
1.81901
 21
102.133
 31
0.0
  0
LINE
  8
0
 62
     0
 10
1.81901
 20
102.133
 30
0.0
 11
1.81901
 21
99.0328
 31
0.0
  0
LINE
  8
0
 62
     0
 10
1.81901
 20
99.0328
 30
0.0
 11
2.61965
 21
99.0328
 31
0.0
  0
LINE
  8
0
 62
     0
 10
2.61965
 20
99.0328
 30
0.0
 11
2.61965
 21
98.0338
 31
0.0
  0
LINE
  8
0
 62
     0
 10
2.61965
 20
98.0338
 30
0.0
 11
16.6192
 21
98.0338
 31
0.0
  0
LINE
  8
0
 62
     0
 10
16.6192
 20
98.0338
 30
0.0
 11
16.6192
 21
99.0328
 31
0.0
  0
LINE
  8
0
 62
     0
 10
16.6192
 20
99.0328
 30
0.0
 11
17.4198
 21
99.0328
 31
0.0
  0
LINE
  8
0
 62
     0
 10
17.4198
 20
99.0328
 30
0.0
 11
17.4198
 21
102.133
 31
0.0
  0
LINE
  8
0
 62
     0
 10
17.4198
 20
102.133
 30
0.0
 11
16.6192
 21
102.133
 31
0.0
  0
LINE
  8
0
 62
     0
 10
16.6192
 20
102.133
 30
0.0
 11
16.6192
 21
107.933
 31
0.0
  0
LINE
  8
0
 62
     0
 10
16.6192
 20
107.933
 30
0.0
 11
17.4198
 21
107.933
 31
0.0
  0
LINE
  8
0
 62
     0
 10
17.4198
 20
107.933
 30
0.0
 11
17.4198
 21
111.033
 31
0.0
  0
LINE
  8
0
 62
     0
 10
17.4198
 20
111.033
 30
0.0
 11
16.6192
 21
111.033
 31
0.0
  0
LINE
  8
0
 62
     0
 10
16.6192
 20
111.033
 30
0.0
 11
16.6192
 21
112.033
 31
0.0
  0
LINE
  8
0
 62
     0
 10
16.6192
 20
112.033
 30
0.0
 11
2.61965
 21
112.033
 31
0.0
  0
ENDSEC
  0
EOF
