M48
; DRILL file {KiCad (5.1.7)-1} date 12/27/20 21:22:38
; FORMAT={-:-/ absolute / inch / decimal}
; #@! TF.CreationDate,2020-12-27T21:22:38+09:00
; #@! TF.GenerationSoftware,Kicad,Pcbnew,(5.1.7)-1
; #@! TF.FileFunction,NonPlated,1,2,NPTH
FMAT,2
INCH
T1C0.0472
T2C0.0669
T3C0.1161
T4C0.1567
T5C0.1890
%
G90
G05
T1
X8.435Y-1.1591
X8.435Y-1.4346
X4.925Y-1.1591
X4.925Y-1.4346
T2
X4.675Y-3.0
X5.075Y-3.0
X4.3Y-2.25
X4.7Y-2.25
X7.8037Y-1.5
X8.2037Y-1.5
X3.7375Y-4.5
X4.1375Y-4.5
X10.0162Y-3.75
X10.4162Y-3.75
X5.9875Y-4.5
X6.3875Y-4.5
X9.6412Y-4.5
X10.0412Y-4.5
X5.2375Y-4.5
X5.6375Y-4.5
X10.2037Y-2.25
X10.6037Y-2.25
X1.7688Y-4.5
X2.1687Y-4.5
X3.175Y-3.0
X3.575Y-3.0
X2.05Y-2.25
X2.45Y-2.25
X7.5787Y-3.0
X7.9787Y-3.0
X10.3912Y-4.5
X10.7912Y-4.5
X2.2375Y-5.25
X2.6375Y-5.25
X4.8625Y-3.75
X5.2625Y-3.75
X8.8912Y-4.5
X9.2912Y-4.5
X5.1906Y-1.5
X5.5906Y-1.5
X11.1412Y-4.5
X11.5412Y-4.5
X12.4537Y-2.25
X12.8537Y-2.25
X3.925Y-3.0
X4.325Y-3.0
X3.55Y-1.5
X3.95Y-1.5
X10.2037Y-5.25
X10.6037Y-5.25
X9.8287Y-3.0
X10.2287Y-3.0
X11.7037Y-5.25
X12.1037Y-5.25
X6.3037Y-1.5
X6.7037Y-1.5
X9.4537Y-5.25
X9.8537Y-5.25
X2.9875Y-4.5
X3.3875Y-4.5
X11.7037Y-1.5
X12.1037Y-1.5
X7.9537Y-2.25
X8.3537Y-2.25
X10.5787Y-3.0
X10.9787Y-3.0
X1.3Y-1.5
X1.7Y-1.5
X2.6125Y-3.75
X3.0125Y-3.75
X3.7375Y-5.25
X4.1375Y-5.25
X8.7037Y-2.25
X9.1037Y-2.25
X9.0787Y-3.0
X9.4787Y-3.0
X11.3287Y-3.0
X11.7287Y-3.0
X9.4537Y-2.25
X9.8537Y-2.25
X5.05Y-2.25
X5.45Y-2.25
X12.4537Y-1.5
X12.8537Y-1.5
X5.6125Y-3.75
X6.0125Y-3.75
X10.9537Y-1.5
X11.3537Y-1.5
X8.7037Y-5.25
X9.1037Y-5.25
X12.4537Y-5.25
X12.8537Y-5.25
X1.4875Y-3.0
X1.8875Y-3.0
X3.55Y-2.25
X3.95Y-2.25
X2.05Y-1.5
X2.45Y-1.5
X2.425Y-3.0
X2.825Y-3.0
X7.2037Y-2.25
X7.6037Y-2.25
X7.3912Y-4.5
X7.7912Y-4.5
X9.4537Y-1.5
X9.8537Y-1.5
X8.5162Y-3.75
X8.9162Y-3.75
X11.5162Y-3.75
X11.9162Y-3.75
X8.3287Y-3.0
X8.7287Y-3.0
X5.425Y-3.0
X5.825Y-3.0
X10.7662Y-3.75
X11.1662Y-3.75
X7.7662Y-3.75
X8.1662Y-3.75
X4.1125Y-3.75
X4.5125Y-3.75
X3.3625Y-3.75
X3.7625Y-3.75
X6.8287Y-3.0
X7.2287Y-3.0
X4.4875Y-4.5
X4.8875Y-4.5
X7.6725Y-5.25
X8.0725Y-5.25
X7.0162Y-3.75
X7.4162Y-3.75
X5.6125Y-5.25
X6.0125Y-5.25
X4.3Y-1.5
X4.7Y-1.5
X8.1412Y-4.5
X8.5412Y-4.5
X10.9537Y-2.25
X11.3537Y-2.25
X9.2662Y-3.75
X9.6662Y-3.75
X12.2662Y-3.0
X12.6662Y-3.0
X1.6Y-3.75
X2.0Y-3.75
X2.8Y-2.25
X3.2Y-2.25
X2.9875Y-5.25
X3.3875Y-5.25
X6.4537Y-2.25
X6.8537Y-2.25
X1.3Y-2.25
X1.7Y-2.25
X2.8Y-1.5
X3.2Y-1.5
X10.9537Y-5.25
X11.3537Y-5.25
X4.4875Y-5.25
X4.8875Y-5.25
X12.1725Y-4.5
X12.5725Y-4.5
X8.7037Y-1.5
X9.1037Y-1.5
X7.0537Y-1.5
X7.4537Y-1.5
X10.2037Y-1.5
X10.6037Y-1.5
X11.7037Y-2.25
X12.1037Y-2.25
X1.3938Y-5.25
X1.7937Y-5.25
T3
X5.6625Y-5.15
X5.9125Y-5.05
X4.35Y-1.4
X4.6Y-1.3
X8.1913Y-4.4
X8.4413Y-4.3
X11.0038Y-2.15
X11.2538Y-2.05
X9.3163Y-3.65
X9.5663Y-3.55
X12.3163Y-2.9
X12.5663Y-2.8
X1.65Y-3.65
X1.9Y-3.55
X2.85Y-2.15
X3.1Y-2.05
X3.0375Y-5.15
X3.2875Y-5.05
X6.5038Y-2.15
X6.7538Y-2.05
X1.35Y-2.15
X1.6Y-2.05
X2.85Y-1.4
X3.1Y-1.3
X11.0038Y-5.15
X11.2538Y-5.05
X4.5375Y-5.15
X4.7875Y-5.05
X12.2225Y-4.4
X12.4725Y-4.3
X8.7538Y-1.4
X9.0038Y-1.3
X7.1037Y-1.4
X7.3537Y-1.3
X10.2538Y-1.4
X10.5038Y-1.3
X11.7538Y-2.15
X12.0038Y-2.05
X1.4437Y-5.15
X1.6937Y-5.05
X4.725Y-2.9
X4.975Y-2.8
X4.35Y-2.15
X4.6Y-2.05
X7.8537Y-1.4
X8.1037Y-1.3
X3.7875Y-4.4
X4.0375Y-4.3
X10.0663Y-3.65
X10.3163Y-3.55
X6.0375Y-4.4
X6.2875Y-4.3
X9.6913Y-4.4
X9.9413Y-4.3
X5.2875Y-4.4
X5.5375Y-4.3
X10.2538Y-2.15
X10.5038Y-2.05
X1.8187Y-4.4
X2.0688Y-4.3
X3.225Y-2.9
X3.475Y-2.8
X2.1Y-2.15
X2.35Y-2.05
X7.6288Y-2.9
X7.8788Y-2.8
X10.4413Y-4.4
X10.6913Y-4.3
X2.2875Y-5.15
X2.5375Y-5.05
X4.9125Y-3.65
X5.1625Y-3.55
X8.9413Y-4.4
X9.1913Y-4.3
X5.2406Y-1.4
X5.4906Y-1.3
X11.1913Y-4.4
X11.4413Y-4.3
X12.5038Y-2.15
X12.7538Y-2.05
X3.975Y-2.9
X4.225Y-2.8
X3.6Y-1.4
X3.85Y-1.3
X10.2538Y-5.15
X10.5038Y-5.05
X9.8788Y-2.9
X10.1288Y-2.8
X11.7538Y-5.15
X12.0038Y-5.05
X6.3537Y-1.4
X6.6037Y-1.3
X9.5038Y-5.15
X9.7538Y-5.05
X3.0375Y-4.4
X3.2875Y-4.3
X11.7538Y-1.4
X12.0038Y-1.3
X8.0038Y-2.15
X8.2538Y-2.05
X10.6288Y-2.9
X10.8788Y-2.8
X1.35Y-1.4
X1.6Y-1.3
X2.6625Y-3.65
X2.9125Y-3.55
X3.7875Y-5.15
X4.0375Y-5.05
X8.7538Y-2.15
X9.0038Y-2.05
X9.1288Y-2.9
X9.3788Y-2.8
X11.3788Y-2.9
X11.6288Y-2.8
X9.5038Y-2.15
X9.7538Y-2.05
X5.1Y-2.15
X5.35Y-2.05
X12.5038Y-1.4
X12.7538Y-1.3
X5.6625Y-3.65
X5.9125Y-3.55
X11.0038Y-1.4
X11.2538Y-1.3
X8.7538Y-5.15
X9.0038Y-5.05
X12.5038Y-5.15
X12.7538Y-5.05
X1.5375Y-2.9
X1.7875Y-2.8
X3.6Y-2.15
X3.85Y-2.05
X2.1Y-1.4
X2.35Y-1.3
X2.475Y-2.9
X2.725Y-2.8
X7.2538Y-2.15
X7.5038Y-2.05
X7.4413Y-4.4
X7.6913Y-4.3
X9.5038Y-1.4
X9.7538Y-1.3
X8.5663Y-3.65
X8.8163Y-3.55
X11.5663Y-3.65
X11.8163Y-3.55
X8.3788Y-2.9
X8.6288Y-2.8
X5.475Y-2.9
X5.725Y-2.8
X10.8163Y-3.65
X11.0663Y-3.55
X7.8163Y-3.65
X8.0663Y-3.55
X4.1625Y-3.65
X4.4125Y-3.55
X3.4125Y-3.65
X3.6625Y-3.55
X6.8788Y-2.9
X7.1288Y-2.8
X4.5375Y-4.4
X4.7875Y-4.3
X7.7225Y-5.15
X7.9725Y-5.05
X7.0663Y-3.65
X7.3163Y-3.55
T4
X4.3125Y-3.75
X3.5625Y-3.75
X7.0287Y-3.0
X4.6875Y-4.5
X7.8725Y-5.25
X7.2162Y-3.75
X5.8125Y-5.25
X4.5Y-1.5
X8.3413Y-4.5
X11.1538Y-2.25
X9.4663Y-3.75
X12.4663Y-3.0
X1.8Y-3.75
X3.0Y-2.25
X3.1875Y-5.25
X6.6537Y-2.25
X1.5Y-2.25
X3.0Y-1.5
X11.1538Y-5.25
X4.6875Y-5.25
X12.3725Y-4.5
X8.9038Y-1.5
X7.2538Y-1.5
X10.4038Y-1.5
X11.9038Y-2.25
X1.5938Y-5.25
X4.875Y-3.0
X4.5Y-2.25
X8.0038Y-1.5
X3.9375Y-4.5
X10.2163Y-3.75
X6.1875Y-4.5
X9.8413Y-4.5
X5.4375Y-4.5
X10.4038Y-2.25
X1.9688Y-4.5
X3.375Y-3.0
X2.25Y-2.25
X7.7787Y-3.0
X10.5913Y-4.5
X2.4375Y-5.25
X5.0625Y-3.75
X9.0913Y-4.5
X5.3906Y-1.5
X11.3413Y-4.5
X12.6538Y-2.25
X4.125Y-3.0
X3.75Y-1.5
X10.4038Y-5.25
X10.0288Y-3.0
X11.9038Y-5.25
X6.5038Y-1.5
X9.6538Y-5.25
X3.1875Y-4.5
X11.9038Y-1.5
X8.1538Y-2.25
X10.7788Y-3.0
X1.5Y-1.5
X2.8125Y-3.75
X3.9375Y-5.25
X8.9038Y-2.25
X9.2788Y-3.0
X11.5288Y-3.0
X9.6538Y-2.25
X5.25Y-2.25
X12.6538Y-1.5
X5.8125Y-3.75
X11.1538Y-1.5
X8.9038Y-5.25
X12.6538Y-5.25
X1.6875Y-3.0
X3.75Y-2.25
X2.25Y-1.5
X2.625Y-3.0
X7.4037Y-2.25
X7.5912Y-4.5
X9.6538Y-1.5
X8.7163Y-3.75
X11.7163Y-3.75
X8.5288Y-3.0
X5.625Y-3.0
X10.9663Y-3.75
X7.9662Y-3.75
T5
X7.15Y-5.49
X1.27Y-5.5
X12.89Y-1.67
X6.37Y-5.49
X6.16Y-1.87
X12.89Y-5.43
X5.72Y-1.87
X1.26Y-1.74
X10.11Y-1.22
X3.58Y-5.41
X10.08Y-5.41
T0
M30
