%TF.GenerationSoftware,KiCad,Pcbnew,(5.1.7)-1*%
%TF.CreationDate,2020-12-27T21:22:25+09:00*%
%TF.ProjectId,skb_i2c_lefthand,736b625f-6932-4635-9f6c-65667468616e,rev?*%
%TF.SameCoordinates,Original*%
%TF.FileFunction,Soldermask,Top*%
%TF.FilePolarity,Negative*%
%FSLAX46Y46*%
G04 Gerber Fmt 4.6, Leading zero omitted, Abs format (unit mm)*
G04 Created by KiCad (PCBNEW (5.1.7)-1) date 2020-12-27 21:22:25*
%MOMM*%
%LPD*%
G01*
G04 APERTURE LIST*
%ADD10C,3.980180*%
%ADD11C,2.950000*%
%ADD12C,1.700000*%
%ADD13C,5.000000*%
%ADD14R,1.700000X1.700000*%
%ADD15O,1.700000X1.700000*%
%ADD16C,1.800000*%
%ADD17R,1.800000X1.800000*%
%ADD18R,1.600000X1.600000*%
%ADD19O,1.600000X1.600000*%
%ADD20C,1.600000*%
%ADD21C,1.200000*%
%ADD22O,1.700000X2.500000*%
%ADD23O,1.350000X1.350000*%
%ADD24R,1.350000X1.350000*%
%ADD25C,1.400000*%
%ADD26O,1.400000X1.400000*%
G04 APERTURE END LIST*
D10*
%TO.C,SW83*%
X321405250Y-57150000D03*
D11*
X323945250Y-52070000D03*
X317595250Y-54610000D03*
D12*
X326485250Y-57150000D03*
X316325250Y-57150000D03*
%TD*%
D13*
%TO.C,Ref\u002A\u002A*%
X256032000Y-137414000D03*
%TD*%
%TO.C,Ref\u002A\u002A*%
X256794000Y-30988000D03*
%TD*%
%TO.C,Ref\u002A\u002A*%
X90932000Y-137414000D03*
%TD*%
%TO.C,Ref\u002A\u002A*%
X32004000Y-44196000D03*
%TD*%
%TO.C,Ref\u002A\u002A*%
X145288000Y-47498000D03*
%TD*%
%TO.C,Ref\u002A\u002A*%
X327406000Y-137922000D03*
%TD*%
%TO.C,Ref\u002A\u002A*%
X156464000Y-47498000D03*
%TD*%
%TO.C,Ref\u002A\u002A*%
X327406000Y-42418000D03*
%TD*%
%TO.C,Ref\u002A\u002A*%
X32258000Y-139700000D03*
%TD*%
%TO.C,Ref\u002A\u002A*%
X181610000Y-139446000D03*
%TD*%
%TO.C,Ref\u002A\u002A*%
X161798000Y-139446000D03*
%TD*%
D10*
%TO.C,SW2*%
X38100000Y-57150000D03*
D11*
X40640000Y-52070000D03*
X34290000Y-54610000D03*
D12*
X43180000Y-57150000D03*
X33020000Y-57150000D03*
%TD*%
D14*
%TO.C,J10*%
X154432000Y-39624000D03*
D15*
X154432000Y-37084000D03*
X154432000Y-34544000D03*
%TD*%
D14*
%TO.C,J9*%
X175768000Y-137160000D03*
D15*
X175768000Y-134620000D03*
X175768000Y-132080000D03*
%TD*%
%TO.C,J8*%
X149352000Y-34544000D03*
X149352000Y-37084000D03*
D14*
X149352000Y-39624000D03*
%TD*%
D15*
%TO.C,J7*%
X170688000Y-132080000D03*
X170688000Y-134620000D03*
D14*
X170688000Y-137160000D03*
%TD*%
D16*
%TO.C,D85*%
X149352000Y-30480000D03*
D17*
X146812000Y-30480000D03*
%TD*%
D16*
%TO.C,D84*%
X170688000Y-141224000D03*
D17*
X168148000Y-141224000D03*
%TD*%
D14*
%TO.C,J_PIKO4*%
X339344000Y-95885000D03*
D15*
X339344000Y-93345000D03*
X339344000Y-90805000D03*
X339344000Y-88265000D03*
%TD*%
D14*
%TO.C,J_PIKO_4E4*%
X335534000Y-123825000D03*
D15*
X335534000Y-121285000D03*
X335534000Y-118745000D03*
X335534000Y-116205000D03*
%TD*%
D14*
%TO.C,J_PIKO_4E3*%
X339344000Y-67945000D03*
D15*
X339344000Y-65405000D03*
X339344000Y-62865000D03*
X339344000Y-60325000D03*
%TD*%
D14*
%TO.C,J_PIKO_4E2*%
X335534000Y-40640000D03*
D15*
X335534000Y-38100000D03*
X335534000Y-35560000D03*
X335534000Y-33020000D03*
%TD*%
D14*
%TO.C,J_PIKO_4E1*%
X335534000Y-95885000D03*
D15*
X335534000Y-93345000D03*
X335534000Y-90805000D03*
X335534000Y-88265000D03*
%TD*%
D14*
%TO.C,J_PIKO_5*%
X354584000Y-70485000D03*
D15*
X354584000Y-67945000D03*
X354584000Y-65405000D03*
X354584000Y-62865000D03*
X354584000Y-60325000D03*
%TD*%
D14*
%TO.C,J_PIKO_3*%
X354584000Y-126365000D03*
D15*
X354584000Y-123825000D03*
X354584000Y-121285000D03*
X354584000Y-118745000D03*
X354584000Y-116205000D03*
%TD*%
D14*
%TO.C,J_PIKO_2*%
X354584000Y-98425000D03*
D15*
X354584000Y-95885000D03*
X354584000Y-93345000D03*
X354584000Y-90805000D03*
X354584000Y-88265000D03*
%TD*%
D14*
%TO.C,J_PIKO_1*%
X354584000Y-43180000D03*
D15*
X354584000Y-40640000D03*
X354584000Y-38100000D03*
X354584000Y-35560000D03*
X354584000Y-33020000D03*
%TD*%
D14*
%TO.C,J_PIKO3*%
X339344000Y-123825000D03*
D15*
X339344000Y-121285000D03*
X339344000Y-118745000D03*
X339344000Y-116205000D03*
%TD*%
D14*
%TO.C,J_PIKO2*%
X335534000Y-67945000D03*
D15*
X335534000Y-65405000D03*
X335534000Y-62865000D03*
X335534000Y-60325000D03*
%TD*%
D14*
%TO.C,J_PIKO1*%
X339344000Y-40640000D03*
D15*
X339344000Y-38100000D03*
X339344000Y-35560000D03*
X339344000Y-33020000D03*
%TD*%
D18*
%TO.C,SW85*%
X328676000Y-75184000D03*
D19*
X328676000Y-82804000D03*
%TD*%
%TO.C,SW84*%
X31242000Y-83058000D03*
D18*
X31242000Y-75438000D03*
%TD*%
D10*
%TO.C,SW52*%
X221392750Y-95250000D03*
D11*
X223932750Y-90170000D03*
X217582750Y-92710000D03*
D12*
X226472750Y-95250000D03*
X216312750Y-95250000D03*
%TD*%
D10*
%TO.C,SW25*%
X114300000Y-38100000D03*
D11*
X116840000Y-33020000D03*
X110490000Y-35560000D03*
D12*
X119380000Y-38100000D03*
X109220000Y-38100000D03*
%TD*%
D10*
%TO.C,SW11*%
X80962500Y-114300000D03*
D11*
X83502500Y-109220000D03*
X77152500Y-111760000D03*
D12*
X86042500Y-114300000D03*
X75882500Y-114300000D03*
%TD*%
D10*
%TO.C,SW12*%
X61912500Y-133350000D03*
D11*
X64452500Y-128270000D03*
X58102500Y-130810000D03*
D12*
X66992500Y-133350000D03*
X56832500Y-133350000D03*
%TD*%
D19*
%TO.C,D32*%
X140970000Y-66040000D03*
D18*
X133350000Y-66040000D03*
%TD*%
D10*
%TO.C,SW32*%
X133350000Y-57150000D03*
D11*
X135890000Y-52070000D03*
X129540000Y-54610000D03*
D12*
X138430000Y-57150000D03*
X128270000Y-57150000D03*
%TD*%
D10*
%TO.C,SW36*%
X147637500Y-133350000D03*
D11*
X150177500Y-128270000D03*
X143827500Y-130810000D03*
D12*
X152717500Y-133350000D03*
X142557500Y-133350000D03*
%TD*%
D10*
%TO.C,SW35*%
X157162500Y-114300000D03*
D11*
X159702500Y-109220000D03*
X153352500Y-111760000D03*
D12*
X162242500Y-114300000D03*
X152082500Y-114300000D03*
%TD*%
D10*
%TO.C,SW34*%
X147637500Y-95250000D03*
D11*
X150177500Y-90170000D03*
X143827500Y-92710000D03*
D12*
X152717500Y-95250000D03*
X142557500Y-95250000D03*
%TD*%
D10*
%TO.C,SW33*%
X142875000Y-76200000D03*
D11*
X145415000Y-71120000D03*
X139065000Y-73660000D03*
D12*
X147955000Y-76200000D03*
X137795000Y-76200000D03*
%TD*%
D10*
%TO.C,SW31*%
X136921875Y-38100000D03*
D11*
X139461875Y-33020000D03*
X133111875Y-35560000D03*
D12*
X142001875Y-38100000D03*
X131841875Y-38100000D03*
%TD*%
D10*
%TO.C,SW30*%
X119062500Y-133350000D03*
D11*
X121602500Y-128270000D03*
X115252500Y-130810000D03*
D12*
X124142500Y-133350000D03*
X113982500Y-133350000D03*
%TD*%
D10*
%TO.C,SW29*%
X138112500Y-114300000D03*
D11*
X140652500Y-109220000D03*
X134302500Y-111760000D03*
D12*
X143192500Y-114300000D03*
X133032500Y-114300000D03*
%TD*%
D10*
%TO.C,SW28*%
X128587500Y-95250000D03*
D11*
X131127500Y-90170000D03*
X124777500Y-92710000D03*
D12*
X133667500Y-95250000D03*
X123507500Y-95250000D03*
%TD*%
D10*
%TO.C,SW27*%
X123825000Y-76200000D03*
D11*
X126365000Y-71120000D03*
X120015000Y-73660000D03*
D12*
X128905000Y-76200000D03*
X118745000Y-76200000D03*
%TD*%
D10*
%TO.C,SW26*%
X114300000Y-57150000D03*
D11*
X116840000Y-52070000D03*
X110490000Y-54610000D03*
D12*
X119380000Y-57150000D03*
X109220000Y-57150000D03*
%TD*%
D10*
%TO.C,SW24*%
X100012500Y-133350000D03*
D11*
X102552500Y-128270000D03*
X96202500Y-130810000D03*
D12*
X105092500Y-133350000D03*
X94932500Y-133350000D03*
%TD*%
D10*
%TO.C,SW23*%
X119062500Y-114300000D03*
D11*
X121602500Y-109220000D03*
X115252500Y-111760000D03*
D12*
X124142500Y-114300000D03*
X113982500Y-114300000D03*
%TD*%
D10*
%TO.C,SW22*%
X109537500Y-95250000D03*
D11*
X112077500Y-90170000D03*
X105727500Y-92710000D03*
D12*
X114617500Y-95250000D03*
X104457500Y-95250000D03*
%TD*%
D10*
%TO.C,SW21*%
X104775000Y-76200000D03*
D11*
X107315000Y-71120000D03*
X100965000Y-73660000D03*
D12*
X109855000Y-76200000D03*
X99695000Y-76200000D03*
%TD*%
D10*
%TO.C,SW20*%
X95250000Y-57150000D03*
D11*
X97790000Y-52070000D03*
X91440000Y-54610000D03*
D12*
X100330000Y-57150000D03*
X90170000Y-57150000D03*
%TD*%
D10*
%TO.C,SW19*%
X95250000Y-38100000D03*
D11*
X97790000Y-33020000D03*
X91440000Y-35560000D03*
D12*
X100330000Y-38100000D03*
X90170000Y-38100000D03*
%TD*%
D10*
%TO.C,SW18*%
X80962500Y-133350000D03*
D11*
X83502500Y-128270000D03*
X77152500Y-130810000D03*
D12*
X86042500Y-133350000D03*
X75882500Y-133350000D03*
%TD*%
D10*
%TO.C,SW17*%
X100012500Y-114300000D03*
D11*
X102552500Y-109220000D03*
X96202500Y-111760000D03*
D12*
X105092500Y-114300000D03*
X94932500Y-114300000D03*
%TD*%
D10*
%TO.C,SW16*%
X90487500Y-95250000D03*
D11*
X93027500Y-90170000D03*
X86677500Y-92710000D03*
D12*
X95567500Y-95250000D03*
X85407500Y-95250000D03*
%TD*%
D10*
%TO.C,SW15*%
X85725000Y-76200000D03*
D11*
X88265000Y-71120000D03*
X81915000Y-73660000D03*
D12*
X90805000Y-76200000D03*
X80645000Y-76200000D03*
%TD*%
D10*
%TO.C,SW14*%
X76200000Y-57150000D03*
D11*
X78740000Y-52070000D03*
X72390000Y-54610000D03*
D12*
X81280000Y-57150000D03*
X71120000Y-57150000D03*
%TD*%
D10*
%TO.C,SW13*%
X76200000Y-38100000D03*
D11*
X78740000Y-33020000D03*
X72390000Y-35560000D03*
D12*
X81280000Y-38100000D03*
X71120000Y-38100000D03*
%TD*%
D10*
%TO.C,SW10*%
X71437500Y-95250000D03*
D11*
X73977500Y-90170000D03*
X67627500Y-92710000D03*
D12*
X76517500Y-95250000D03*
X66357500Y-95250000D03*
%TD*%
D10*
%TO.C,SW9*%
X66675000Y-76200000D03*
D11*
X69215000Y-71120000D03*
X62865000Y-73660000D03*
D12*
X71755000Y-76200000D03*
X61595000Y-76200000D03*
%TD*%
D10*
%TO.C,SW8*%
X57150000Y-57150000D03*
D11*
X59690000Y-52070000D03*
X53340000Y-54610000D03*
D12*
X62230000Y-57150000D03*
X52070000Y-57150000D03*
%TD*%
D10*
%TO.C,SW7*%
X57150000Y-38100000D03*
D11*
X59690000Y-33020000D03*
X53340000Y-35560000D03*
D12*
X62230000Y-38100000D03*
X52070000Y-38100000D03*
%TD*%
D10*
%TO.C,SW6*%
X40481250Y-133350000D03*
D11*
X43021250Y-128270000D03*
X36671250Y-130810000D03*
D12*
X45561250Y-133350000D03*
X35401250Y-133350000D03*
%TD*%
D10*
%TO.C,SW5*%
X50006250Y-114300000D03*
D11*
X52546250Y-109220000D03*
X46196250Y-111760000D03*
D12*
X55086250Y-114300000D03*
X44926250Y-114300000D03*
%TD*%
D10*
%TO.C,SW4*%
X45720000Y-95250000D03*
D11*
X48260000Y-90170000D03*
X41910000Y-92710000D03*
D12*
X50800000Y-95250000D03*
X40640000Y-95250000D03*
%TD*%
D10*
%TO.C,SW3*%
X42862500Y-76200000D03*
D11*
X45402500Y-71120000D03*
X39052500Y-73660000D03*
D12*
X47942500Y-76200000D03*
X37782500Y-76200000D03*
%TD*%
D10*
%TO.C,SW1*%
X38100000Y-38100000D03*
D11*
X40640000Y-33020000D03*
X34290000Y-35560000D03*
D12*
X43180000Y-38100000D03*
X33020000Y-38100000D03*
%TD*%
D19*
%TO.C,D1*%
X45720000Y-46990000D03*
D18*
X38100000Y-46990000D03*
%TD*%
D19*
%TO.C,D2*%
X45720000Y-66040000D03*
D18*
X38100000Y-66040000D03*
%TD*%
D19*
%TO.C,D3*%
X50800000Y-85090000D03*
D18*
X43180000Y-85090000D03*
%TD*%
D19*
%TO.C,D4*%
X53340000Y-104140000D03*
D18*
X45720000Y-104140000D03*
%TD*%
D19*
%TO.C,D5*%
X52070000Y-123190000D03*
D18*
X44450000Y-123190000D03*
%TD*%
D19*
%TO.C,D6*%
X48260000Y-142240000D03*
D18*
X40640000Y-142240000D03*
%TD*%
D19*
%TO.C,D7*%
X64770000Y-46990000D03*
D18*
X57150000Y-46990000D03*
%TD*%
D19*
%TO.C,D8*%
X64770000Y-66040000D03*
D18*
X57150000Y-66040000D03*
%TD*%
D19*
%TO.C,D9*%
X74930000Y-85090000D03*
D18*
X67310000Y-85090000D03*
%TD*%
D19*
%TO.C,D10*%
X78740000Y-104140000D03*
D18*
X71120000Y-104140000D03*
%TD*%
D19*
%TO.C,D11*%
X90170000Y-123190000D03*
D18*
X82550000Y-123190000D03*
%TD*%
D19*
%TO.C,D12*%
X69850000Y-142240000D03*
D18*
X62230000Y-142240000D03*
%TD*%
D19*
%TO.C,D13*%
X82550000Y-46990000D03*
D18*
X74930000Y-46990000D03*
%TD*%
D19*
%TO.C,D14*%
X83820000Y-66040000D03*
D18*
X76200000Y-66040000D03*
%TD*%
D19*
%TO.C,D15*%
X93980000Y-85090000D03*
D18*
X86360000Y-85090000D03*
%TD*%
D19*
%TO.C,D16*%
X97790000Y-104140000D03*
D18*
X90170000Y-104140000D03*
%TD*%
D19*
%TO.C,D17*%
X107950000Y-123190000D03*
D18*
X100330000Y-123190000D03*
%TD*%
D19*
%TO.C,D18*%
X88900000Y-142240000D03*
D18*
X81280000Y-142240000D03*
%TD*%
D19*
%TO.C,D19*%
X101600000Y-46990000D03*
D18*
X93980000Y-46990000D03*
%TD*%
D19*
%TO.C,D20*%
X102870000Y-66040000D03*
D18*
X95250000Y-66040000D03*
%TD*%
D19*
%TO.C,D21*%
X113030000Y-85090000D03*
D18*
X105410000Y-85090000D03*
%TD*%
D19*
%TO.C,D22*%
X116840000Y-104140000D03*
D18*
X109220000Y-104140000D03*
%TD*%
D19*
%TO.C,D23*%
X127000000Y-123190000D03*
D18*
X119380000Y-123190000D03*
%TD*%
D19*
%TO.C,D24*%
X107950000Y-142240000D03*
D18*
X100330000Y-142240000D03*
%TD*%
D19*
%TO.C,D25*%
X120650000Y-46990000D03*
D18*
X113030000Y-46990000D03*
%TD*%
D19*
%TO.C,D26*%
X121920000Y-66040000D03*
D18*
X114300000Y-66040000D03*
%TD*%
D19*
%TO.C,D27*%
X132080000Y-85090000D03*
D18*
X124460000Y-85090000D03*
%TD*%
D19*
%TO.C,D28*%
X135890000Y-104140000D03*
D18*
X128270000Y-104140000D03*
%TD*%
D19*
%TO.C,D29*%
X146050000Y-123190000D03*
D18*
X138430000Y-123190000D03*
%TD*%
D19*
%TO.C,D30*%
X127000000Y-142240000D03*
D18*
X119380000Y-142240000D03*
%TD*%
D19*
%TO.C,D31*%
X139700000Y-46990000D03*
D18*
X132080000Y-46990000D03*
%TD*%
D19*
%TO.C,D33*%
X151130000Y-85090000D03*
D18*
X143510000Y-85090000D03*
%TD*%
D19*
%TO.C,D34*%
X153670000Y-104140000D03*
D18*
X146050000Y-104140000D03*
%TD*%
D19*
%TO.C,D35*%
X165100000Y-123190000D03*
D18*
X157480000Y-123190000D03*
%TD*%
D19*
%TO.C,D36*%
X154940000Y-142240000D03*
D18*
X147320000Y-142240000D03*
%TD*%
D20*
%TO.C,C1*%
X59055000Y-102830000D03*
D18*
X59055000Y-100330000D03*
%TD*%
D20*
%TO.C,C2*%
X298069000Y-116245000D03*
D18*
X298069000Y-118745000D03*
%TD*%
D19*
%TO.C,D37*%
X172339000Y-46990000D03*
D18*
X164719000Y-46990000D03*
%TD*%
%TO.C,D38*%
X168529000Y-66040000D03*
D19*
X176149000Y-66040000D03*
%TD*%
D18*
%TO.C,D39*%
X178689000Y-85090000D03*
D19*
X186309000Y-85090000D03*
%TD*%
%TO.C,D40*%
X190754000Y-104140000D03*
D18*
X183134000Y-104140000D03*
%TD*%
D19*
%TO.C,D41*%
X200279000Y-123190000D03*
D18*
X192659000Y-123190000D03*
%TD*%
%TO.C,D42*%
X199390000Y-142240000D03*
D19*
X207010000Y-142240000D03*
%TD*%
%TO.C,D43*%
X191389000Y-46990000D03*
D18*
X183769000Y-46990000D03*
%TD*%
D19*
%TO.C,D44*%
X195199000Y-66040000D03*
D18*
X187579000Y-66040000D03*
%TD*%
D19*
%TO.C,D45*%
X205359000Y-85090000D03*
D18*
X197739000Y-85090000D03*
%TD*%
%TO.C,D46*%
X202184000Y-104140000D03*
D19*
X209804000Y-104140000D03*
%TD*%
%TO.C,D47*%
X219329000Y-123190000D03*
D18*
X211709000Y-123190000D03*
%TD*%
D19*
%TO.C,D48*%
X233299000Y-142240000D03*
D18*
X225679000Y-142240000D03*
%TD*%
D19*
%TO.C,D49*%
X211709000Y-46990000D03*
D18*
X204089000Y-46990000D03*
%TD*%
D19*
%TO.C,D50*%
X214249000Y-66040000D03*
D18*
X206629000Y-66040000D03*
%TD*%
D19*
%TO.C,D51*%
X224409000Y-85090000D03*
D18*
X216789000Y-85090000D03*
%TD*%
%TO.C,D52*%
X221234000Y-104140000D03*
D19*
X228854000Y-104140000D03*
%TD*%
%TO.C,D53*%
X238379000Y-123190000D03*
D18*
X230759000Y-123190000D03*
%TD*%
%TO.C,D54*%
X244729000Y-142240000D03*
D19*
X252349000Y-142240000D03*
%TD*%
D18*
%TO.C,D55*%
X225679000Y-46990000D03*
D19*
X233299000Y-46990000D03*
%TD*%
D18*
%TO.C,D56*%
X225679000Y-66040000D03*
D19*
X233299000Y-66040000D03*
%TD*%
D18*
%TO.C,D57*%
X235839000Y-85090000D03*
D19*
X243459000Y-85090000D03*
%TD*%
D18*
%TO.C,D58*%
X240284000Y-104140000D03*
D19*
X247904000Y-104140000D03*
%TD*%
D18*
%TO.C,D59*%
X249809000Y-123190000D03*
D19*
X257429000Y-123190000D03*
%TD*%
D18*
%TO.C,D60*%
X263779000Y-142240000D03*
D19*
X271399000Y-142240000D03*
%TD*%
%TO.C,D61*%
X252349000Y-46990000D03*
D18*
X244729000Y-46990000D03*
%TD*%
%TO.C,D62*%
X244729000Y-66040000D03*
D19*
X252349000Y-66040000D03*
%TD*%
D18*
%TO.C,D63*%
X254889000Y-85090000D03*
D19*
X262509000Y-85090000D03*
%TD*%
%TO.C,D64*%
X266954000Y-104140000D03*
D18*
X259334000Y-104140000D03*
%TD*%
D19*
%TO.C,D65*%
X276479000Y-123190000D03*
D18*
X268859000Y-123190000D03*
%TD*%
D19*
%TO.C,D66*%
X290449000Y-142240000D03*
D18*
X282829000Y-142240000D03*
%TD*%
%TO.C,D67*%
X263779000Y-46990000D03*
D19*
X271399000Y-46990000D03*
%TD*%
%TO.C,D68*%
X271399000Y-66040000D03*
D18*
X263779000Y-66040000D03*
%TD*%
D19*
%TO.C,D69*%
X281559000Y-85090000D03*
D18*
X273939000Y-85090000D03*
%TD*%
%TO.C,D70*%
X278384000Y-104140000D03*
D19*
X286004000Y-104140000D03*
%TD*%
D18*
%TO.C,D71*%
X287909000Y-123190000D03*
D19*
X295529000Y-123190000D03*
%TD*%
D18*
%TO.C,D72*%
X301879000Y-142240000D03*
D19*
X309499000Y-142240000D03*
%TD*%
%TO.C,D73*%
X290449000Y-46990000D03*
D18*
X282829000Y-46990000D03*
%TD*%
%TO.C,D74*%
X282829000Y-66040000D03*
D19*
X290449000Y-66040000D03*
%TD*%
%TO.C,D75*%
X300609000Y-85090000D03*
D18*
X292989000Y-85090000D03*
%TD*%
D19*
%TO.C,D76*%
X304419000Y-104140000D03*
D18*
X296799000Y-104140000D03*
%TD*%
%TO.C,D77*%
X313309000Y-123190000D03*
D19*
X320929000Y-123190000D03*
%TD*%
%TO.C,D78*%
X328549000Y-142240000D03*
D18*
X320929000Y-142240000D03*
%TD*%
%TO.C,D79*%
X301879000Y-46990000D03*
D19*
X309499000Y-46990000D03*
%TD*%
%TO.C,D80*%
X309499000Y-66040000D03*
D18*
X301879000Y-66040000D03*
%TD*%
%TO.C,D81*%
X315849000Y-85090000D03*
D19*
X323469000Y-85090000D03*
%TD*%
%TO.C,D82*%
X328549000Y-46990000D03*
D18*
X320929000Y-46990000D03*
%TD*%
%TO.C,D83*%
X320929000Y-66040000D03*
D19*
X328549000Y-66040000D03*
%TD*%
D21*
%TO.C,J1*%
X125095000Y-29440000D03*
X125095000Y-36440000D03*
D22*
X122995000Y-31240000D03*
X122995000Y-34240000D03*
X122995000Y-38240000D03*
X127195000Y-39740000D03*
%TD*%
D14*
%TO.C,J2*%
X104140000Y-42545000D03*
D15*
X104140000Y-40005000D03*
X104140000Y-37465000D03*
X104140000Y-34925000D03*
X104140000Y-32385000D03*
%TD*%
D23*
%TO.C,J3*%
X110840000Y-41910000D03*
X112840000Y-41910000D03*
X114840000Y-41910000D03*
D24*
X116840000Y-41910000D03*
%TD*%
D14*
%TO.C,J4*%
X55880000Y-97155000D03*
D15*
X55880000Y-94615000D03*
X55880000Y-92075000D03*
X55880000Y-89535000D03*
%TD*%
%TO.C,J5*%
X85090000Y-32385000D03*
X85090000Y-34925000D03*
X85090000Y-37465000D03*
D14*
X85090000Y-40005000D03*
%TD*%
%TO.C,J6*%
X303149000Y-111125000D03*
D15*
X303149000Y-113665000D03*
X303149000Y-116205000D03*
X303149000Y-118745000D03*
%TD*%
D21*
%TO.C,J2_TRRS1*%
X214249000Y-29440000D03*
X214249000Y-36440000D03*
D22*
X212149000Y-31240000D03*
X212149000Y-34240000D03*
X212149000Y-38240000D03*
X216349000Y-39740000D03*
%TD*%
D14*
%TO.C,J3_PIKO_L1*%
X193294000Y-42545000D03*
D15*
X193294000Y-40005000D03*
X193294000Y-37465000D03*
X193294000Y-34925000D03*
X193294000Y-32385000D03*
%TD*%
%TO.C,J3_PIKO_R1*%
X174244000Y-32385000D03*
X174244000Y-34925000D03*
X174244000Y-37465000D03*
D14*
X174244000Y-40005000D03*
%TD*%
D23*
%TO.C,J4_GROVE1*%
X199994000Y-41910000D03*
X201994000Y-41910000D03*
X203994000Y-41910000D03*
D24*
X205994000Y-41910000D03*
%TD*%
D25*
%TO.C,R1*%
X29972000Y-101600000D03*
D26*
X29972000Y-109220000D03*
%TD*%
%TO.C,R2*%
X33020000Y-109220000D03*
D25*
X33020000Y-101600000D03*
%TD*%
%TO.C,R3*%
X308864000Y-96520000D03*
D26*
X308864000Y-88900000D03*
%TD*%
%TO.C,R4*%
X306324000Y-88900000D03*
D25*
X306324000Y-96520000D03*
%TD*%
D10*
%TO.C,SW37*%
X165195250Y-38100000D03*
D11*
X167735250Y-33020000D03*
X161385250Y-35560000D03*
D12*
X170275250Y-38100000D03*
X160115250Y-38100000D03*
%TD*%
%TO.C,SW38*%
X163925250Y-57150000D03*
X174085250Y-57150000D03*
D11*
X165195250Y-54610000D03*
X171545250Y-52070000D03*
D10*
X169005250Y-57150000D03*
%TD*%
D12*
%TO.C,SW39*%
X173450250Y-76200000D03*
X183610250Y-76200000D03*
D11*
X174720250Y-73660000D03*
X181070250Y-71120000D03*
D10*
X178530250Y-76200000D03*
%TD*%
%TO.C,SW40*%
X183292750Y-95250000D03*
D11*
X185832750Y-90170000D03*
X179482750Y-92710000D03*
D12*
X188372750Y-95250000D03*
X178212750Y-95250000D03*
%TD*%
%TO.C,SW41*%
X187737750Y-114300000D03*
X197897750Y-114300000D03*
D11*
X189007750Y-111760000D03*
X195357750Y-109220000D03*
D10*
X192817750Y-114300000D03*
%TD*%
%TO.C,SW42*%
X199961500Y-133350000D03*
D11*
X202501500Y-128270000D03*
X196151500Y-130810000D03*
D12*
X205041500Y-133350000D03*
X194881500Y-133350000D03*
%TD*%
D10*
%TO.C,SW43*%
X184245250Y-38100000D03*
D11*
X186785250Y-33020000D03*
X180435250Y-35560000D03*
D12*
X189325250Y-38100000D03*
X179165250Y-38100000D03*
%TD*%
D10*
%TO.C,SW44*%
X188055250Y-57150000D03*
D11*
X190595250Y-52070000D03*
X184245250Y-54610000D03*
D12*
X193135250Y-57150000D03*
X182975250Y-57150000D03*
%TD*%
%TO.C,SW45*%
X192500250Y-76200000D03*
X202660250Y-76200000D03*
D11*
X193770250Y-73660000D03*
X200120250Y-71120000D03*
D10*
X197580250Y-76200000D03*
%TD*%
D12*
%TO.C,SW46*%
X197262750Y-95250000D03*
X207422750Y-95250000D03*
D11*
X198532750Y-92710000D03*
X204882750Y-90170000D03*
D10*
X202342750Y-95250000D03*
%TD*%
%TO.C,SW47*%
X211867750Y-114300000D03*
D11*
X214407750Y-109220000D03*
X208057750Y-111760000D03*
D12*
X216947750Y-114300000D03*
X206787750Y-114300000D03*
%TD*%
%TO.C,SW48*%
X221075250Y-133350000D03*
X231235250Y-133350000D03*
D11*
X222345250Y-130810000D03*
X228695250Y-128270000D03*
D10*
X226155250Y-133350000D03*
%TD*%
%TO.C,SW49*%
X203295250Y-38100000D03*
D11*
X205835250Y-33020000D03*
X199485250Y-35560000D03*
D12*
X208375250Y-38100000D03*
X198215250Y-38100000D03*
%TD*%
D10*
%TO.C,SW50*%
X207105250Y-57150000D03*
D11*
X209645250Y-52070000D03*
X203295250Y-54610000D03*
D12*
X212185250Y-57150000D03*
X202025250Y-57150000D03*
%TD*%
D10*
%TO.C,SW51*%
X216630250Y-76200000D03*
D11*
X219170250Y-71120000D03*
X212820250Y-73660000D03*
D12*
X221710250Y-76200000D03*
X211550250Y-76200000D03*
%TD*%
%TO.C,SW53*%
X225837750Y-114300000D03*
X235997750Y-114300000D03*
D11*
X227107750Y-111760000D03*
X233457750Y-109220000D03*
D10*
X230917750Y-114300000D03*
%TD*%
%TO.C,SW54*%
X245205250Y-133350000D03*
D11*
X247745250Y-128270000D03*
X241395250Y-130810000D03*
D12*
X250285250Y-133350000D03*
X240125250Y-133350000D03*
%TD*%
%TO.C,SW55*%
X221075250Y-38100000D03*
X231235250Y-38100000D03*
D11*
X222345250Y-35560000D03*
X228695250Y-33020000D03*
D10*
X226155250Y-38100000D03*
%TD*%
%TO.C,SW56*%
X226155250Y-57150000D03*
D11*
X228695250Y-52070000D03*
X222345250Y-54610000D03*
D12*
X231235250Y-57150000D03*
X221075250Y-57150000D03*
%TD*%
%TO.C,SW57*%
X230600250Y-76200000D03*
X240760250Y-76200000D03*
D11*
X231870250Y-73660000D03*
X238220250Y-71120000D03*
D10*
X235680250Y-76200000D03*
%TD*%
D12*
%TO.C,SW58*%
X235362750Y-95250000D03*
X245522750Y-95250000D03*
D11*
X236632750Y-92710000D03*
X242982750Y-90170000D03*
D10*
X240442750Y-95250000D03*
%TD*%
D12*
%TO.C,SW59*%
X244887750Y-114300000D03*
X255047750Y-114300000D03*
D11*
X246157750Y-111760000D03*
X252507750Y-109220000D03*
D10*
X249967750Y-114300000D03*
%TD*%
%TO.C,SW60*%
X264255250Y-133350000D03*
D11*
X266795250Y-128270000D03*
X260445250Y-130810000D03*
D12*
X269335250Y-133350000D03*
X259175250Y-133350000D03*
%TD*%
D10*
%TO.C,SW61*%
X245205250Y-38100000D03*
D11*
X247745250Y-33020000D03*
X241395250Y-35560000D03*
D12*
X250285250Y-38100000D03*
X240125250Y-38100000D03*
%TD*%
%TO.C,SW62*%
X240125250Y-57150000D03*
X250285250Y-57150000D03*
D11*
X241395250Y-54610000D03*
X247745250Y-52070000D03*
D10*
X245205250Y-57150000D03*
%TD*%
D12*
%TO.C,SW63*%
X249650250Y-76200000D03*
X259810250Y-76200000D03*
D11*
X250920250Y-73660000D03*
X257270250Y-71120000D03*
D10*
X254730250Y-76200000D03*
%TD*%
D12*
%TO.C,SW64*%
X254412750Y-95250000D03*
X264572750Y-95250000D03*
D11*
X255682750Y-92710000D03*
X262032750Y-90170000D03*
D10*
X259492750Y-95250000D03*
%TD*%
%TO.C,SW65*%
X269017750Y-114300000D03*
D11*
X271557750Y-109220000D03*
X265207750Y-111760000D03*
D12*
X274097750Y-114300000D03*
X263937750Y-114300000D03*
%TD*%
%TO.C,SW66*%
X278225250Y-133350000D03*
X288385250Y-133350000D03*
D11*
X279495250Y-130810000D03*
X285845250Y-128270000D03*
D10*
X283305250Y-133350000D03*
%TD*%
D12*
%TO.C,SW67*%
X259175250Y-38100000D03*
X269335250Y-38100000D03*
D11*
X260445250Y-35560000D03*
X266795250Y-33020000D03*
D10*
X264255250Y-38100000D03*
%TD*%
%TO.C,SW68*%
X264255250Y-57150000D03*
D11*
X266795250Y-52070000D03*
X260445250Y-54610000D03*
D12*
X269335250Y-57150000D03*
X259175250Y-57150000D03*
%TD*%
D10*
%TO.C,SW69*%
X273780250Y-76200000D03*
D11*
X276320250Y-71120000D03*
X269970250Y-73660000D03*
D12*
X278860250Y-76200000D03*
X268700250Y-76200000D03*
%TD*%
%TO.C,SW70*%
X273462750Y-95250000D03*
X283622750Y-95250000D03*
D11*
X274732750Y-92710000D03*
X281082750Y-90170000D03*
D10*
X278542750Y-95250000D03*
%TD*%
%TO.C,SW71*%
X288067750Y-114300000D03*
D11*
X290607750Y-109220000D03*
X284257750Y-111760000D03*
D12*
X293147750Y-114300000D03*
X282987750Y-114300000D03*
%TD*%
D10*
%TO.C,SW72*%
X302355250Y-133350000D03*
D11*
X304895250Y-128270000D03*
X298545250Y-130810000D03*
D12*
X307435250Y-133350000D03*
X297275250Y-133350000D03*
%TD*%
%TO.C,SW73*%
X278225250Y-38100000D03*
X288385250Y-38100000D03*
D11*
X279495250Y-35560000D03*
X285845250Y-33020000D03*
D10*
X283305250Y-38100000D03*
%TD*%
D12*
%TO.C,SW74*%
X278225250Y-57150000D03*
X288385250Y-57150000D03*
D11*
X279495250Y-54610000D03*
X285845250Y-52070000D03*
D10*
X283305250Y-57150000D03*
%TD*%
D12*
%TO.C,SW75*%
X287750250Y-76200000D03*
X297910250Y-76200000D03*
D11*
X289020250Y-73660000D03*
X295370250Y-71120000D03*
D10*
X292830250Y-76200000D03*
%TD*%
%TO.C,SW76*%
X297592750Y-95250000D03*
D11*
X300132750Y-90170000D03*
X293782750Y-92710000D03*
D12*
X302672750Y-95250000D03*
X292512750Y-95250000D03*
%TD*%
%TO.C,SW77*%
X309181500Y-114300000D03*
X319341500Y-114300000D03*
D11*
X310451500Y-111760000D03*
X316801500Y-109220000D03*
D10*
X314261500Y-114300000D03*
%TD*%
D12*
%TO.C,SW78*%
X316325250Y-133350000D03*
X326485250Y-133350000D03*
D11*
X317595250Y-130810000D03*
X323945250Y-128270000D03*
D10*
X321405250Y-133350000D03*
%TD*%
%TO.C,SW79*%
X302355250Y-38100000D03*
D11*
X304895250Y-33020000D03*
X298545250Y-35560000D03*
D12*
X307435250Y-38100000D03*
X297275250Y-38100000D03*
%TD*%
D10*
%TO.C,SW80*%
X302355250Y-57150000D03*
D11*
X304895250Y-52070000D03*
X298545250Y-54610000D03*
D12*
X307435250Y-57150000D03*
X297275250Y-57150000D03*
%TD*%
D10*
%TO.C,SW81*%
X316642750Y-76200000D03*
D11*
X319182750Y-71120000D03*
X312832750Y-73660000D03*
D12*
X321722750Y-76200000D03*
X311562750Y-76200000D03*
%TD*%
%TO.C,SW82*%
X316325250Y-38100000D03*
X326485250Y-38100000D03*
D11*
X317595250Y-35560000D03*
X323945250Y-33020000D03*
D10*
X321405250Y-38100000D03*
%TD*%
D26*
%TO.C,R5*%
X167640000Y-137668000D03*
D25*
X167640000Y-130048000D03*
%TD*%
%TO.C,R6*%
X146304000Y-41402000D03*
D26*
X146304000Y-33782000D03*
%TD*%
M02*
