%TF.GenerationSoftware,KiCad,Pcbnew,(5.1.7)-1*%
%TF.CreationDate,2020-12-27T21:22:25+09:00*%
%TF.ProjectId,skb_i2c_lefthand,736b625f-6932-4635-9f6c-65667468616e,rev?*%
%TF.SameCoordinates,Original*%
%TF.FileFunction,Soldermask,Bot*%
%TF.FilePolarity,Negative*%
%FSLAX46Y46*%
G04 Gerber Fmt 4.6, Leading zero omitted, Abs format (unit mm)*
G04 Created by KiCad (PCBNEW (5.1.7)-1) date 2020-12-27 21:22:25*
%MOMM*%
%LPD*%
G01*
G04 APERTURE LIST*
%ADD10R,2.550000X2.500000*%
%ADD11C,3.980180*%
%ADD12C,2.950000*%
%ADD13C,1.700000*%
%ADD14C,5.000000*%
%ADD15R,1.700000X1.700000*%
%ADD16O,1.700000X1.700000*%
%ADD17C,1.800000*%
%ADD18R,1.800000X1.800000*%
%ADD19R,1.600000X1.600000*%
%ADD20O,1.600000X1.600000*%
%ADD21C,0.100000*%
%ADD22R,1.000000X1.500000*%
%ADD23C,1.600000*%
%ADD24C,1.200000*%
%ADD25O,1.350000X1.350000*%
%ADD26R,1.350000X1.350000*%
%ADD27C,1.400000*%
%ADD28O,1.400000X1.400000*%
G04 APERTURE END LIST*
D10*
%TO.C,SW83*%
X314045250Y-54610000D03*
D11*
X321405250Y-57150000D03*
D12*
X323945250Y-52070000D03*
X317595250Y-54610000D03*
D10*
X327495250Y-52070000D03*
D13*
X326485250Y-57150000D03*
X316325250Y-57150000D03*
%TD*%
D14*
%TO.C,Ref\u002A\u002A*%
X256032000Y-137414000D03*
%TD*%
%TO.C,Ref\u002A\u002A*%
X256794000Y-30988000D03*
%TD*%
%TO.C,Ref\u002A\u002A*%
X90932000Y-137414000D03*
%TD*%
%TO.C,Ref\u002A\u002A*%
X32004000Y-44196000D03*
%TD*%
%TO.C,Ref\u002A\u002A*%
X145288000Y-47498000D03*
%TD*%
%TO.C,Ref\u002A\u002A*%
X327406000Y-137922000D03*
%TD*%
%TO.C,Ref\u002A\u002A*%
X156464000Y-47498000D03*
%TD*%
%TO.C,Ref\u002A\u002A*%
X327406000Y-42418000D03*
%TD*%
%TO.C,Ref\u002A\u002A*%
X32258000Y-139700000D03*
%TD*%
%TO.C,Ref\u002A\u002A*%
X181610000Y-139446000D03*
%TD*%
%TO.C,Ref\u002A\u002A*%
X161798000Y-139446000D03*
%TD*%
D10*
%TO.C,SW2*%
X30740000Y-54610000D03*
D11*
X38100000Y-57150000D03*
D12*
X40640000Y-52070000D03*
X34290000Y-54610000D03*
D10*
X44190000Y-52070000D03*
D13*
X43180000Y-57150000D03*
X33020000Y-57150000D03*
%TD*%
D15*
%TO.C,J10*%
X154432000Y-39624000D03*
D16*
X154432000Y-37084000D03*
X154432000Y-34544000D03*
%TD*%
D15*
%TO.C,J9*%
X175768000Y-137160000D03*
D16*
X175768000Y-134620000D03*
X175768000Y-132080000D03*
%TD*%
%TO.C,J8*%
X149352000Y-34544000D03*
X149352000Y-37084000D03*
D15*
X149352000Y-39624000D03*
%TD*%
D16*
%TO.C,J7*%
X170688000Y-132080000D03*
X170688000Y-134620000D03*
D15*
X170688000Y-137160000D03*
%TD*%
D17*
%TO.C,D85*%
X149352000Y-30480000D03*
D18*
X146812000Y-30480000D03*
%TD*%
D17*
%TO.C,D84*%
X170688000Y-141224000D03*
D18*
X168148000Y-141224000D03*
%TD*%
D15*
%TO.C,J_PIKO4*%
X339344000Y-95885000D03*
D16*
X339344000Y-93345000D03*
X339344000Y-90805000D03*
X339344000Y-88265000D03*
%TD*%
D15*
%TO.C,J_PIKO_4E4*%
X335534000Y-123825000D03*
D16*
X335534000Y-121285000D03*
X335534000Y-118745000D03*
X335534000Y-116205000D03*
%TD*%
D15*
%TO.C,J_PIKO_4E3*%
X339344000Y-67945000D03*
D16*
X339344000Y-65405000D03*
X339344000Y-62865000D03*
X339344000Y-60325000D03*
%TD*%
D15*
%TO.C,J_PIKO_4E2*%
X335534000Y-40640000D03*
D16*
X335534000Y-38100000D03*
X335534000Y-35560000D03*
X335534000Y-33020000D03*
%TD*%
D15*
%TO.C,J_PIKO_4E1*%
X335534000Y-95885000D03*
D16*
X335534000Y-93345000D03*
X335534000Y-90805000D03*
X335534000Y-88265000D03*
%TD*%
D15*
%TO.C,J_PIKO_5*%
X354584000Y-70485000D03*
D16*
X354584000Y-67945000D03*
X354584000Y-65405000D03*
X354584000Y-62865000D03*
X354584000Y-60325000D03*
%TD*%
D15*
%TO.C,J_PIKO_3*%
X354584000Y-126365000D03*
D16*
X354584000Y-123825000D03*
X354584000Y-121285000D03*
X354584000Y-118745000D03*
X354584000Y-116205000D03*
%TD*%
D15*
%TO.C,J_PIKO_2*%
X354584000Y-98425000D03*
D16*
X354584000Y-95885000D03*
X354584000Y-93345000D03*
X354584000Y-90805000D03*
X354584000Y-88265000D03*
%TD*%
D15*
%TO.C,J_PIKO_1*%
X354584000Y-43180000D03*
D16*
X354584000Y-40640000D03*
X354584000Y-38100000D03*
X354584000Y-35560000D03*
X354584000Y-33020000D03*
%TD*%
D15*
%TO.C,J_PIKO3*%
X339344000Y-123825000D03*
D16*
X339344000Y-121285000D03*
X339344000Y-118745000D03*
X339344000Y-116205000D03*
%TD*%
D15*
%TO.C,J_PIKO2*%
X335534000Y-67945000D03*
D16*
X335534000Y-65405000D03*
X335534000Y-62865000D03*
X335534000Y-60325000D03*
%TD*%
D15*
%TO.C,J_PIKO1*%
X339344000Y-40640000D03*
D16*
X339344000Y-38100000D03*
X339344000Y-35560000D03*
X339344000Y-33020000D03*
%TD*%
D19*
%TO.C,SW85*%
X328676000Y-75184000D03*
D20*
X328676000Y-82804000D03*
%TD*%
%TO.C,SW84*%
X31242000Y-83058000D03*
D19*
X31242000Y-75438000D03*
%TD*%
D10*
%TO.C,SW52*%
X214032750Y-92710000D03*
D11*
X221392750Y-95250000D03*
D12*
X223932750Y-90170000D03*
X217582750Y-92710000D03*
D10*
X227482750Y-90170000D03*
D13*
X226472750Y-95250000D03*
X216312750Y-95250000D03*
%TD*%
D10*
%TO.C,SW25*%
X106940000Y-35560000D03*
D11*
X114300000Y-38100000D03*
D12*
X116840000Y-33020000D03*
X110490000Y-35560000D03*
D10*
X120390000Y-33020000D03*
D13*
X119380000Y-38100000D03*
X109220000Y-38100000D03*
%TD*%
D10*
%TO.C,SW11*%
X73602500Y-111760000D03*
D11*
X80962500Y-114300000D03*
D12*
X83502500Y-109220000D03*
X77152500Y-111760000D03*
D10*
X87052500Y-109220000D03*
D13*
X86042500Y-114300000D03*
X75882500Y-114300000D03*
%TD*%
D10*
%TO.C,SW12*%
X54552500Y-130810000D03*
D11*
X61912500Y-133350000D03*
D12*
X64452500Y-128270000D03*
X58102500Y-130810000D03*
D10*
X68002500Y-128270000D03*
D13*
X66992500Y-133350000D03*
X56832500Y-133350000D03*
%TD*%
D20*
%TO.C,D32*%
X140970000Y-66040000D03*
D19*
X133350000Y-66040000D03*
%TD*%
D10*
%TO.C,SW32*%
X125990000Y-54610000D03*
D11*
X133350000Y-57150000D03*
D12*
X135890000Y-52070000D03*
X129540000Y-54610000D03*
D10*
X139440000Y-52070000D03*
D13*
X138430000Y-57150000D03*
X128270000Y-57150000D03*
%TD*%
%TO.C,U1*%
G36*
G01*
X61145000Y-107165000D02*
X61145000Y-107465000D01*
G75*
G02*
X60995000Y-107615000I-150000J0D01*
G01*
X59245000Y-107615000D01*
G75*
G02*
X59095000Y-107465000I0J150000D01*
G01*
X59095000Y-107165000D01*
G75*
G02*
X59245000Y-107015000I150000J0D01*
G01*
X60995000Y-107015000D01*
G75*
G02*
X61145000Y-107165000I0J-150000D01*
G01*
G37*
G36*
G01*
X61145000Y-108435000D02*
X61145000Y-108735000D01*
G75*
G02*
X60995000Y-108885000I-150000J0D01*
G01*
X59245000Y-108885000D01*
G75*
G02*
X59095000Y-108735000I0J150000D01*
G01*
X59095000Y-108435000D01*
G75*
G02*
X59245000Y-108285000I150000J0D01*
G01*
X60995000Y-108285000D01*
G75*
G02*
X61145000Y-108435000I0J-150000D01*
G01*
G37*
G36*
G01*
X61145000Y-109705000D02*
X61145000Y-110005000D01*
G75*
G02*
X60995000Y-110155000I-150000J0D01*
G01*
X59245000Y-110155000D01*
G75*
G02*
X59095000Y-110005000I0J150000D01*
G01*
X59095000Y-109705000D01*
G75*
G02*
X59245000Y-109555000I150000J0D01*
G01*
X60995000Y-109555000D01*
G75*
G02*
X61145000Y-109705000I0J-150000D01*
G01*
G37*
G36*
G01*
X61145000Y-110975000D02*
X61145000Y-111275000D01*
G75*
G02*
X60995000Y-111425000I-150000J0D01*
G01*
X59245000Y-111425000D01*
G75*
G02*
X59095000Y-111275000I0J150000D01*
G01*
X59095000Y-110975000D01*
G75*
G02*
X59245000Y-110825000I150000J0D01*
G01*
X60995000Y-110825000D01*
G75*
G02*
X61145000Y-110975000I0J-150000D01*
G01*
G37*
G36*
G01*
X61145000Y-112245000D02*
X61145000Y-112545000D01*
G75*
G02*
X60995000Y-112695000I-150000J0D01*
G01*
X59245000Y-112695000D01*
G75*
G02*
X59095000Y-112545000I0J150000D01*
G01*
X59095000Y-112245000D01*
G75*
G02*
X59245000Y-112095000I150000J0D01*
G01*
X60995000Y-112095000D01*
G75*
G02*
X61145000Y-112245000I0J-150000D01*
G01*
G37*
G36*
G01*
X61145000Y-113515000D02*
X61145000Y-113815000D01*
G75*
G02*
X60995000Y-113965000I-150000J0D01*
G01*
X59245000Y-113965000D01*
G75*
G02*
X59095000Y-113815000I0J150000D01*
G01*
X59095000Y-113515000D01*
G75*
G02*
X59245000Y-113365000I150000J0D01*
G01*
X60995000Y-113365000D01*
G75*
G02*
X61145000Y-113515000I0J-150000D01*
G01*
G37*
G36*
G01*
X61145000Y-114785000D02*
X61145000Y-115085000D01*
G75*
G02*
X60995000Y-115235000I-150000J0D01*
G01*
X59245000Y-115235000D01*
G75*
G02*
X59095000Y-115085000I0J150000D01*
G01*
X59095000Y-114785000D01*
G75*
G02*
X59245000Y-114635000I150000J0D01*
G01*
X60995000Y-114635000D01*
G75*
G02*
X61145000Y-114785000I0J-150000D01*
G01*
G37*
G36*
G01*
X61145000Y-116055000D02*
X61145000Y-116355000D01*
G75*
G02*
X60995000Y-116505000I-150000J0D01*
G01*
X59245000Y-116505000D01*
G75*
G02*
X59095000Y-116355000I0J150000D01*
G01*
X59095000Y-116055000D01*
G75*
G02*
X59245000Y-115905000I150000J0D01*
G01*
X60995000Y-115905000D01*
G75*
G02*
X61145000Y-116055000I0J-150000D01*
G01*
G37*
G36*
G01*
X61145000Y-117325000D02*
X61145000Y-117625000D01*
G75*
G02*
X60995000Y-117775000I-150000J0D01*
G01*
X59245000Y-117775000D01*
G75*
G02*
X59095000Y-117625000I0J150000D01*
G01*
X59095000Y-117325000D01*
G75*
G02*
X59245000Y-117175000I150000J0D01*
G01*
X60995000Y-117175000D01*
G75*
G02*
X61145000Y-117325000I0J-150000D01*
G01*
G37*
G36*
G01*
X61145000Y-118595000D02*
X61145000Y-118895000D01*
G75*
G02*
X60995000Y-119045000I-150000J0D01*
G01*
X59245000Y-119045000D01*
G75*
G02*
X59095000Y-118895000I0J150000D01*
G01*
X59095000Y-118595000D01*
G75*
G02*
X59245000Y-118445000I150000J0D01*
G01*
X60995000Y-118445000D01*
G75*
G02*
X61145000Y-118595000I0J-150000D01*
G01*
G37*
G36*
G01*
X61145000Y-119865000D02*
X61145000Y-120165000D01*
G75*
G02*
X60995000Y-120315000I-150000J0D01*
G01*
X59245000Y-120315000D01*
G75*
G02*
X59095000Y-120165000I0J150000D01*
G01*
X59095000Y-119865000D01*
G75*
G02*
X59245000Y-119715000I150000J0D01*
G01*
X60995000Y-119715000D01*
G75*
G02*
X61145000Y-119865000I0J-150000D01*
G01*
G37*
G36*
G01*
X61145000Y-121135000D02*
X61145000Y-121435000D01*
G75*
G02*
X60995000Y-121585000I-150000J0D01*
G01*
X59245000Y-121585000D01*
G75*
G02*
X59095000Y-121435000I0J150000D01*
G01*
X59095000Y-121135000D01*
G75*
G02*
X59245000Y-120985000I150000J0D01*
G01*
X60995000Y-120985000D01*
G75*
G02*
X61145000Y-121135000I0J-150000D01*
G01*
G37*
G36*
G01*
X61145000Y-122405000D02*
X61145000Y-122705000D01*
G75*
G02*
X60995000Y-122855000I-150000J0D01*
G01*
X59245000Y-122855000D01*
G75*
G02*
X59095000Y-122705000I0J150000D01*
G01*
X59095000Y-122405000D01*
G75*
G02*
X59245000Y-122255000I150000J0D01*
G01*
X60995000Y-122255000D01*
G75*
G02*
X61145000Y-122405000I0J-150000D01*
G01*
G37*
G36*
G01*
X61145000Y-123675000D02*
X61145000Y-123975000D01*
G75*
G02*
X60995000Y-124125000I-150000J0D01*
G01*
X59245000Y-124125000D01*
G75*
G02*
X59095000Y-123975000I0J150000D01*
G01*
X59095000Y-123675000D01*
G75*
G02*
X59245000Y-123525000I150000J0D01*
G01*
X60995000Y-123525000D01*
G75*
G02*
X61145000Y-123675000I0J-150000D01*
G01*
G37*
G36*
G01*
X70445000Y-123675000D02*
X70445000Y-123975000D01*
G75*
G02*
X70295000Y-124125000I-150000J0D01*
G01*
X68545000Y-124125000D01*
G75*
G02*
X68395000Y-123975000I0J150000D01*
G01*
X68395000Y-123675000D01*
G75*
G02*
X68545000Y-123525000I150000J0D01*
G01*
X70295000Y-123525000D01*
G75*
G02*
X70445000Y-123675000I0J-150000D01*
G01*
G37*
G36*
G01*
X70445000Y-122405000D02*
X70445000Y-122705000D01*
G75*
G02*
X70295000Y-122855000I-150000J0D01*
G01*
X68545000Y-122855000D01*
G75*
G02*
X68395000Y-122705000I0J150000D01*
G01*
X68395000Y-122405000D01*
G75*
G02*
X68545000Y-122255000I150000J0D01*
G01*
X70295000Y-122255000D01*
G75*
G02*
X70445000Y-122405000I0J-150000D01*
G01*
G37*
G36*
G01*
X70445000Y-121135000D02*
X70445000Y-121435000D01*
G75*
G02*
X70295000Y-121585000I-150000J0D01*
G01*
X68545000Y-121585000D01*
G75*
G02*
X68395000Y-121435000I0J150000D01*
G01*
X68395000Y-121135000D01*
G75*
G02*
X68545000Y-120985000I150000J0D01*
G01*
X70295000Y-120985000D01*
G75*
G02*
X70445000Y-121135000I0J-150000D01*
G01*
G37*
G36*
G01*
X70445000Y-119865000D02*
X70445000Y-120165000D01*
G75*
G02*
X70295000Y-120315000I-150000J0D01*
G01*
X68545000Y-120315000D01*
G75*
G02*
X68395000Y-120165000I0J150000D01*
G01*
X68395000Y-119865000D01*
G75*
G02*
X68545000Y-119715000I150000J0D01*
G01*
X70295000Y-119715000D01*
G75*
G02*
X70445000Y-119865000I0J-150000D01*
G01*
G37*
G36*
G01*
X70445000Y-118595000D02*
X70445000Y-118895000D01*
G75*
G02*
X70295000Y-119045000I-150000J0D01*
G01*
X68545000Y-119045000D01*
G75*
G02*
X68395000Y-118895000I0J150000D01*
G01*
X68395000Y-118595000D01*
G75*
G02*
X68545000Y-118445000I150000J0D01*
G01*
X70295000Y-118445000D01*
G75*
G02*
X70445000Y-118595000I0J-150000D01*
G01*
G37*
G36*
G01*
X70445000Y-117325000D02*
X70445000Y-117625000D01*
G75*
G02*
X70295000Y-117775000I-150000J0D01*
G01*
X68545000Y-117775000D01*
G75*
G02*
X68395000Y-117625000I0J150000D01*
G01*
X68395000Y-117325000D01*
G75*
G02*
X68545000Y-117175000I150000J0D01*
G01*
X70295000Y-117175000D01*
G75*
G02*
X70445000Y-117325000I0J-150000D01*
G01*
G37*
G36*
G01*
X70445000Y-116055000D02*
X70445000Y-116355000D01*
G75*
G02*
X70295000Y-116505000I-150000J0D01*
G01*
X68545000Y-116505000D01*
G75*
G02*
X68395000Y-116355000I0J150000D01*
G01*
X68395000Y-116055000D01*
G75*
G02*
X68545000Y-115905000I150000J0D01*
G01*
X70295000Y-115905000D01*
G75*
G02*
X70445000Y-116055000I0J-150000D01*
G01*
G37*
G36*
G01*
X70445000Y-114785000D02*
X70445000Y-115085000D01*
G75*
G02*
X70295000Y-115235000I-150000J0D01*
G01*
X68545000Y-115235000D01*
G75*
G02*
X68395000Y-115085000I0J150000D01*
G01*
X68395000Y-114785000D01*
G75*
G02*
X68545000Y-114635000I150000J0D01*
G01*
X70295000Y-114635000D01*
G75*
G02*
X70445000Y-114785000I0J-150000D01*
G01*
G37*
G36*
G01*
X70445000Y-113515000D02*
X70445000Y-113815000D01*
G75*
G02*
X70295000Y-113965000I-150000J0D01*
G01*
X68545000Y-113965000D01*
G75*
G02*
X68395000Y-113815000I0J150000D01*
G01*
X68395000Y-113515000D01*
G75*
G02*
X68545000Y-113365000I150000J0D01*
G01*
X70295000Y-113365000D01*
G75*
G02*
X70445000Y-113515000I0J-150000D01*
G01*
G37*
G36*
G01*
X70445000Y-112245000D02*
X70445000Y-112545000D01*
G75*
G02*
X70295000Y-112695000I-150000J0D01*
G01*
X68545000Y-112695000D01*
G75*
G02*
X68395000Y-112545000I0J150000D01*
G01*
X68395000Y-112245000D01*
G75*
G02*
X68545000Y-112095000I150000J0D01*
G01*
X70295000Y-112095000D01*
G75*
G02*
X70445000Y-112245000I0J-150000D01*
G01*
G37*
G36*
G01*
X70445000Y-110975000D02*
X70445000Y-111275000D01*
G75*
G02*
X70295000Y-111425000I-150000J0D01*
G01*
X68545000Y-111425000D01*
G75*
G02*
X68395000Y-111275000I0J150000D01*
G01*
X68395000Y-110975000D01*
G75*
G02*
X68545000Y-110825000I150000J0D01*
G01*
X70295000Y-110825000D01*
G75*
G02*
X70445000Y-110975000I0J-150000D01*
G01*
G37*
G36*
G01*
X70445000Y-109705000D02*
X70445000Y-110005000D01*
G75*
G02*
X70295000Y-110155000I-150000J0D01*
G01*
X68545000Y-110155000D01*
G75*
G02*
X68395000Y-110005000I0J150000D01*
G01*
X68395000Y-109705000D01*
G75*
G02*
X68545000Y-109555000I150000J0D01*
G01*
X70295000Y-109555000D01*
G75*
G02*
X70445000Y-109705000I0J-150000D01*
G01*
G37*
G36*
G01*
X70445000Y-108435000D02*
X70445000Y-108735000D01*
G75*
G02*
X70295000Y-108885000I-150000J0D01*
G01*
X68545000Y-108885000D01*
G75*
G02*
X68395000Y-108735000I0J150000D01*
G01*
X68395000Y-108435000D01*
G75*
G02*
X68545000Y-108285000I150000J0D01*
G01*
X70295000Y-108285000D01*
G75*
G02*
X70445000Y-108435000I0J-150000D01*
G01*
G37*
G36*
G01*
X70445000Y-107165000D02*
X70445000Y-107465000D01*
G75*
G02*
X70295000Y-107615000I-150000J0D01*
G01*
X68545000Y-107615000D01*
G75*
G02*
X68395000Y-107465000I0J150000D01*
G01*
X68395000Y-107165000D01*
G75*
G02*
X68545000Y-107015000I150000J0D01*
G01*
X70295000Y-107015000D01*
G75*
G02*
X70445000Y-107165000I0J-150000D01*
G01*
G37*
%TD*%
%TO.C,U2*%
G36*
G01*
X33760000Y-114785000D02*
X33760000Y-115085000D01*
G75*
G02*
X33610000Y-115235000I-150000J0D01*
G01*
X32260000Y-115235000D01*
G75*
G02*
X32110000Y-115085000I0J150000D01*
G01*
X32110000Y-114785000D01*
G75*
G02*
X32260000Y-114635000I150000J0D01*
G01*
X33610000Y-114635000D01*
G75*
G02*
X33760000Y-114785000I0J-150000D01*
G01*
G37*
G36*
G01*
X33760000Y-116055000D02*
X33760000Y-116355000D01*
G75*
G02*
X33610000Y-116505000I-150000J0D01*
G01*
X32260000Y-116505000D01*
G75*
G02*
X32110000Y-116355000I0J150000D01*
G01*
X32110000Y-116055000D01*
G75*
G02*
X32260000Y-115905000I150000J0D01*
G01*
X33610000Y-115905000D01*
G75*
G02*
X33760000Y-116055000I0J-150000D01*
G01*
G37*
G36*
G01*
X33760000Y-117325000D02*
X33760000Y-117625000D01*
G75*
G02*
X33610000Y-117775000I-150000J0D01*
G01*
X32260000Y-117775000D01*
G75*
G02*
X32110000Y-117625000I0J150000D01*
G01*
X32110000Y-117325000D01*
G75*
G02*
X32260000Y-117175000I150000J0D01*
G01*
X33610000Y-117175000D01*
G75*
G02*
X33760000Y-117325000I0J-150000D01*
G01*
G37*
G36*
G01*
X33760000Y-118595000D02*
X33760000Y-118895000D01*
G75*
G02*
X33610000Y-119045000I-150000J0D01*
G01*
X32260000Y-119045000D01*
G75*
G02*
X32110000Y-118895000I0J150000D01*
G01*
X32110000Y-118595000D01*
G75*
G02*
X32260000Y-118445000I150000J0D01*
G01*
X33610000Y-118445000D01*
G75*
G02*
X33760000Y-118595000I0J-150000D01*
G01*
G37*
G36*
G01*
X39010000Y-118595000D02*
X39010000Y-118895000D01*
G75*
G02*
X38860000Y-119045000I-150000J0D01*
G01*
X37510000Y-119045000D01*
G75*
G02*
X37360000Y-118895000I0J150000D01*
G01*
X37360000Y-118595000D01*
G75*
G02*
X37510000Y-118445000I150000J0D01*
G01*
X38860000Y-118445000D01*
G75*
G02*
X39010000Y-118595000I0J-150000D01*
G01*
G37*
G36*
G01*
X39010000Y-117325000D02*
X39010000Y-117625000D01*
G75*
G02*
X38860000Y-117775000I-150000J0D01*
G01*
X37510000Y-117775000D01*
G75*
G02*
X37360000Y-117625000I0J150000D01*
G01*
X37360000Y-117325000D01*
G75*
G02*
X37510000Y-117175000I150000J0D01*
G01*
X38860000Y-117175000D01*
G75*
G02*
X39010000Y-117325000I0J-150000D01*
G01*
G37*
G36*
G01*
X39010000Y-116055000D02*
X39010000Y-116355000D01*
G75*
G02*
X38860000Y-116505000I-150000J0D01*
G01*
X37510000Y-116505000D01*
G75*
G02*
X37360000Y-116355000I0J150000D01*
G01*
X37360000Y-116055000D01*
G75*
G02*
X37510000Y-115905000I150000J0D01*
G01*
X38860000Y-115905000D01*
G75*
G02*
X39010000Y-116055000I0J-150000D01*
G01*
G37*
G36*
G01*
X39010000Y-114785000D02*
X39010000Y-115085000D01*
G75*
G02*
X38860000Y-115235000I-150000J0D01*
G01*
X37510000Y-115235000D01*
G75*
G02*
X37360000Y-115085000I0J150000D01*
G01*
X37360000Y-114785000D01*
G75*
G02*
X37510000Y-114635000I150000J0D01*
G01*
X38860000Y-114635000D01*
G75*
G02*
X39010000Y-114785000I0J-150000D01*
G01*
G37*
%TD*%
D10*
%TO.C,SW36*%
X140277500Y-130810000D03*
D11*
X147637500Y-133350000D03*
D12*
X150177500Y-128270000D03*
X143827500Y-130810000D03*
D10*
X153727500Y-128270000D03*
D13*
X152717500Y-133350000D03*
X142557500Y-133350000D03*
%TD*%
D10*
%TO.C,SW35*%
X149802500Y-111760000D03*
D11*
X157162500Y-114300000D03*
D12*
X159702500Y-109220000D03*
X153352500Y-111760000D03*
D10*
X163252500Y-109220000D03*
D13*
X162242500Y-114300000D03*
X152082500Y-114300000D03*
%TD*%
D10*
%TO.C,SW34*%
X140277500Y-92710000D03*
D11*
X147637500Y-95250000D03*
D12*
X150177500Y-90170000D03*
X143827500Y-92710000D03*
D10*
X153727500Y-90170000D03*
D13*
X152717500Y-95250000D03*
X142557500Y-95250000D03*
%TD*%
D10*
%TO.C,SW33*%
X135515000Y-73660000D03*
D11*
X142875000Y-76200000D03*
D12*
X145415000Y-71120000D03*
X139065000Y-73660000D03*
D10*
X148965000Y-71120000D03*
D13*
X147955000Y-76200000D03*
X137795000Y-76200000D03*
%TD*%
D10*
%TO.C,SW31*%
X129561875Y-35560000D03*
D11*
X136921875Y-38100000D03*
D12*
X139461875Y-33020000D03*
X133111875Y-35560000D03*
D10*
X143011875Y-33020000D03*
D13*
X142001875Y-38100000D03*
X131841875Y-38100000D03*
%TD*%
D10*
%TO.C,SW30*%
X111702500Y-130810000D03*
D11*
X119062500Y-133350000D03*
D12*
X121602500Y-128270000D03*
X115252500Y-130810000D03*
D10*
X125152500Y-128270000D03*
D13*
X124142500Y-133350000D03*
X113982500Y-133350000D03*
%TD*%
D10*
%TO.C,SW29*%
X130752500Y-111760000D03*
D11*
X138112500Y-114300000D03*
D12*
X140652500Y-109220000D03*
X134302500Y-111760000D03*
D10*
X144202500Y-109220000D03*
D13*
X143192500Y-114300000D03*
X133032500Y-114300000D03*
%TD*%
D10*
%TO.C,SW28*%
X121227500Y-92710000D03*
D11*
X128587500Y-95250000D03*
D12*
X131127500Y-90170000D03*
X124777500Y-92710000D03*
D10*
X134677500Y-90170000D03*
D13*
X133667500Y-95250000D03*
X123507500Y-95250000D03*
%TD*%
D10*
%TO.C,SW27*%
X116465000Y-73660000D03*
D11*
X123825000Y-76200000D03*
D12*
X126365000Y-71120000D03*
X120015000Y-73660000D03*
D10*
X129915000Y-71120000D03*
D13*
X128905000Y-76200000D03*
X118745000Y-76200000D03*
%TD*%
D10*
%TO.C,SW26*%
X106940000Y-54610000D03*
D11*
X114300000Y-57150000D03*
D12*
X116840000Y-52070000D03*
X110490000Y-54610000D03*
D10*
X120390000Y-52070000D03*
D13*
X119380000Y-57150000D03*
X109220000Y-57150000D03*
%TD*%
D10*
%TO.C,SW24*%
X92652500Y-130810000D03*
D11*
X100012500Y-133350000D03*
D12*
X102552500Y-128270000D03*
X96202500Y-130810000D03*
D10*
X106102500Y-128270000D03*
D13*
X105092500Y-133350000D03*
X94932500Y-133350000D03*
%TD*%
D10*
%TO.C,SW23*%
X111702500Y-111760000D03*
D11*
X119062500Y-114300000D03*
D12*
X121602500Y-109220000D03*
X115252500Y-111760000D03*
D10*
X125152500Y-109220000D03*
D13*
X124142500Y-114300000D03*
X113982500Y-114300000D03*
%TD*%
D10*
%TO.C,SW22*%
X102177500Y-92710000D03*
D11*
X109537500Y-95250000D03*
D12*
X112077500Y-90170000D03*
X105727500Y-92710000D03*
D10*
X115627500Y-90170000D03*
D13*
X114617500Y-95250000D03*
X104457500Y-95250000D03*
%TD*%
D10*
%TO.C,SW21*%
X97415000Y-73660000D03*
D11*
X104775000Y-76200000D03*
D12*
X107315000Y-71120000D03*
X100965000Y-73660000D03*
D10*
X110865000Y-71120000D03*
D13*
X109855000Y-76200000D03*
X99695000Y-76200000D03*
%TD*%
D10*
%TO.C,SW20*%
X87890000Y-54610000D03*
D11*
X95250000Y-57150000D03*
D12*
X97790000Y-52070000D03*
X91440000Y-54610000D03*
D10*
X101340000Y-52070000D03*
D13*
X100330000Y-57150000D03*
X90170000Y-57150000D03*
%TD*%
D10*
%TO.C,SW19*%
X87890000Y-35560000D03*
D11*
X95250000Y-38100000D03*
D12*
X97790000Y-33020000D03*
X91440000Y-35560000D03*
D10*
X101340000Y-33020000D03*
D13*
X100330000Y-38100000D03*
X90170000Y-38100000D03*
%TD*%
D10*
%TO.C,SW18*%
X73602500Y-130810000D03*
D11*
X80962500Y-133350000D03*
D12*
X83502500Y-128270000D03*
X77152500Y-130810000D03*
D10*
X87052500Y-128270000D03*
D13*
X86042500Y-133350000D03*
X75882500Y-133350000D03*
%TD*%
D10*
%TO.C,SW17*%
X92652500Y-111760000D03*
D11*
X100012500Y-114300000D03*
D12*
X102552500Y-109220000D03*
X96202500Y-111760000D03*
D10*
X106102500Y-109220000D03*
D13*
X105092500Y-114300000D03*
X94932500Y-114300000D03*
%TD*%
D10*
%TO.C,SW16*%
X83127500Y-92710000D03*
D11*
X90487500Y-95250000D03*
D12*
X93027500Y-90170000D03*
X86677500Y-92710000D03*
D10*
X96577500Y-90170000D03*
D13*
X95567500Y-95250000D03*
X85407500Y-95250000D03*
%TD*%
D10*
%TO.C,SW15*%
X78365000Y-73660000D03*
D11*
X85725000Y-76200000D03*
D12*
X88265000Y-71120000D03*
X81915000Y-73660000D03*
D10*
X91815000Y-71120000D03*
D13*
X90805000Y-76200000D03*
X80645000Y-76200000D03*
%TD*%
D10*
%TO.C,SW14*%
X68840000Y-54610000D03*
D11*
X76200000Y-57150000D03*
D12*
X78740000Y-52070000D03*
X72390000Y-54610000D03*
D10*
X82290000Y-52070000D03*
D13*
X81280000Y-57150000D03*
X71120000Y-57150000D03*
%TD*%
D10*
%TO.C,SW13*%
X68840000Y-35560000D03*
D11*
X76200000Y-38100000D03*
D12*
X78740000Y-33020000D03*
X72390000Y-35560000D03*
D10*
X82290000Y-33020000D03*
D13*
X81280000Y-38100000D03*
X71120000Y-38100000D03*
%TD*%
D10*
%TO.C,SW10*%
X64077500Y-92710000D03*
D11*
X71437500Y-95250000D03*
D12*
X73977500Y-90170000D03*
X67627500Y-92710000D03*
D10*
X77527500Y-90170000D03*
D13*
X76517500Y-95250000D03*
X66357500Y-95250000D03*
%TD*%
D10*
%TO.C,SW9*%
X59315000Y-73660000D03*
D11*
X66675000Y-76200000D03*
D12*
X69215000Y-71120000D03*
X62865000Y-73660000D03*
D10*
X72765000Y-71120000D03*
D13*
X71755000Y-76200000D03*
X61595000Y-76200000D03*
%TD*%
D10*
%TO.C,SW8*%
X49790000Y-54610000D03*
D11*
X57150000Y-57150000D03*
D12*
X59690000Y-52070000D03*
X53340000Y-54610000D03*
D10*
X63240000Y-52070000D03*
D13*
X62230000Y-57150000D03*
X52070000Y-57150000D03*
%TD*%
D10*
%TO.C,SW7*%
X49790000Y-35560000D03*
D11*
X57150000Y-38100000D03*
D12*
X59690000Y-33020000D03*
X53340000Y-35560000D03*
D10*
X63240000Y-33020000D03*
D13*
X62230000Y-38100000D03*
X52070000Y-38100000D03*
%TD*%
D10*
%TO.C,SW6*%
X33121250Y-130810000D03*
D11*
X40481250Y-133350000D03*
D12*
X43021250Y-128270000D03*
X36671250Y-130810000D03*
D10*
X46571250Y-128270000D03*
D13*
X45561250Y-133350000D03*
X35401250Y-133350000D03*
%TD*%
D10*
%TO.C,SW5*%
X42646250Y-111760000D03*
D11*
X50006250Y-114300000D03*
D12*
X52546250Y-109220000D03*
X46196250Y-111760000D03*
D10*
X56096250Y-109220000D03*
D13*
X55086250Y-114300000D03*
X44926250Y-114300000D03*
%TD*%
D10*
%TO.C,SW4*%
X38360000Y-92710000D03*
D11*
X45720000Y-95250000D03*
D12*
X48260000Y-90170000D03*
X41910000Y-92710000D03*
D10*
X51810000Y-90170000D03*
D13*
X50800000Y-95250000D03*
X40640000Y-95250000D03*
%TD*%
D10*
%TO.C,SW3*%
X35502500Y-73660000D03*
D11*
X42862500Y-76200000D03*
D12*
X45402500Y-71120000D03*
X39052500Y-73660000D03*
D10*
X48952500Y-71120000D03*
D13*
X47942500Y-76200000D03*
X37782500Y-76200000D03*
%TD*%
D10*
%TO.C,SW1*%
X30740000Y-35560000D03*
D11*
X38100000Y-38100000D03*
D12*
X40640000Y-33020000D03*
X34290000Y-35560000D03*
D10*
X44190000Y-33020000D03*
D13*
X43180000Y-38100000D03*
X33020000Y-38100000D03*
%TD*%
D21*
%TO.C,JP4*%
G36*
X31100000Y-124701398D02*
G01*
X31075466Y-124701398D01*
X31026635Y-124696588D01*
X30978510Y-124687016D01*
X30931555Y-124672772D01*
X30886222Y-124653995D01*
X30842949Y-124630864D01*
X30802150Y-124603604D01*
X30764221Y-124572476D01*
X30729524Y-124537779D01*
X30698396Y-124499850D01*
X30671136Y-124459051D01*
X30648005Y-124415778D01*
X30629228Y-124370445D01*
X30614984Y-124323490D01*
X30605412Y-124275365D01*
X30600602Y-124226534D01*
X30600602Y-124202000D01*
X30600000Y-124202000D01*
X30600000Y-123702000D01*
X30600602Y-123702000D01*
X30600602Y-123677466D01*
X30605412Y-123628635D01*
X30614984Y-123580510D01*
X30629228Y-123533555D01*
X30648005Y-123488222D01*
X30671136Y-123444949D01*
X30698396Y-123404150D01*
X30729524Y-123366221D01*
X30764221Y-123331524D01*
X30802150Y-123300396D01*
X30842949Y-123273136D01*
X30886222Y-123250005D01*
X30931555Y-123231228D01*
X30978510Y-123216984D01*
X31026635Y-123207412D01*
X31075466Y-123202602D01*
X31100000Y-123202602D01*
X31100000Y-123202000D01*
X31600000Y-123202000D01*
X31600000Y-124702000D01*
X31100000Y-124702000D01*
X31100000Y-124701398D01*
G37*
G36*
X31900000Y-123202000D02*
G01*
X32400000Y-123202000D01*
X32400000Y-123202602D01*
X32424534Y-123202602D01*
X32473365Y-123207412D01*
X32521490Y-123216984D01*
X32568445Y-123231228D01*
X32613778Y-123250005D01*
X32657051Y-123273136D01*
X32697850Y-123300396D01*
X32735779Y-123331524D01*
X32770476Y-123366221D01*
X32801604Y-123404150D01*
X32828864Y-123444949D01*
X32851995Y-123488222D01*
X32870772Y-123533555D01*
X32885016Y-123580510D01*
X32894588Y-123628635D01*
X32899398Y-123677466D01*
X32899398Y-123702000D01*
X32900000Y-123702000D01*
X32900000Y-124202000D01*
X32899398Y-124202000D01*
X32899398Y-124226534D01*
X32894588Y-124275365D01*
X32885016Y-124323490D01*
X32870772Y-124370445D01*
X32851995Y-124415778D01*
X32828864Y-124459051D01*
X32801604Y-124499850D01*
X32770476Y-124537779D01*
X32735779Y-124572476D01*
X32697850Y-124603604D01*
X32657051Y-124630864D01*
X32613778Y-124653995D01*
X32568445Y-124672772D01*
X32521490Y-124687016D01*
X32473365Y-124696588D01*
X32424534Y-124701398D01*
X32400000Y-124701398D01*
X32400000Y-124702000D01*
X31900000Y-124702000D01*
X31900000Y-123202000D01*
G37*
%TD*%
D22*
%TO.C,JP3*%
X55880000Y-123190000D03*
D21*
G36*
X54580000Y-123939398D02*
G01*
X54555466Y-123939398D01*
X54506635Y-123934588D01*
X54458510Y-123925016D01*
X54411555Y-123910772D01*
X54366222Y-123891995D01*
X54322949Y-123868864D01*
X54282150Y-123841604D01*
X54244221Y-123810476D01*
X54209524Y-123775779D01*
X54178396Y-123737850D01*
X54151136Y-123697051D01*
X54128005Y-123653778D01*
X54109228Y-123608445D01*
X54094984Y-123561490D01*
X54085412Y-123513365D01*
X54080602Y-123464534D01*
X54080602Y-123440000D01*
X54080000Y-123440000D01*
X54080000Y-122940000D01*
X54080602Y-122940000D01*
X54080602Y-122915466D01*
X54085412Y-122866635D01*
X54094984Y-122818510D01*
X54109228Y-122771555D01*
X54128005Y-122726222D01*
X54151136Y-122682949D01*
X54178396Y-122642150D01*
X54209524Y-122604221D01*
X54244221Y-122569524D01*
X54282150Y-122538396D01*
X54322949Y-122511136D01*
X54366222Y-122488005D01*
X54411555Y-122469228D01*
X54458510Y-122454984D01*
X54506635Y-122445412D01*
X54555466Y-122440602D01*
X54580000Y-122440602D01*
X54580000Y-122440000D01*
X55130000Y-122440000D01*
X55130000Y-123940000D01*
X54580000Y-123940000D01*
X54580000Y-123939398D01*
G37*
G36*
X56630000Y-122440000D02*
G01*
X57180000Y-122440000D01*
X57180000Y-122440602D01*
X57204534Y-122440602D01*
X57253365Y-122445412D01*
X57301490Y-122454984D01*
X57348445Y-122469228D01*
X57393778Y-122488005D01*
X57437051Y-122511136D01*
X57477850Y-122538396D01*
X57515779Y-122569524D01*
X57550476Y-122604221D01*
X57581604Y-122642150D01*
X57608864Y-122682949D01*
X57631995Y-122726222D01*
X57650772Y-122771555D01*
X57665016Y-122818510D01*
X57674588Y-122866635D01*
X57679398Y-122915466D01*
X57679398Y-122940000D01*
X57680000Y-122940000D01*
X57680000Y-123440000D01*
X57679398Y-123440000D01*
X57679398Y-123464534D01*
X57674588Y-123513365D01*
X57665016Y-123561490D01*
X57650772Y-123608445D01*
X57631995Y-123653778D01*
X57608864Y-123697051D01*
X57581604Y-123737850D01*
X57550476Y-123775779D01*
X57515779Y-123810476D01*
X57477850Y-123841604D01*
X57437051Y-123868864D01*
X57393778Y-123891995D01*
X57348445Y-123910772D01*
X57301490Y-123925016D01*
X57253365Y-123934588D01*
X57204534Y-123939398D01*
X57180000Y-123939398D01*
X57180000Y-123940000D01*
X56630000Y-123940000D01*
X56630000Y-122440000D01*
G37*
%TD*%
D22*
%TO.C,JP2*%
X50770000Y-125730000D03*
D21*
G36*
X49470000Y-126479398D02*
G01*
X49445466Y-126479398D01*
X49396635Y-126474588D01*
X49348510Y-126465016D01*
X49301555Y-126450772D01*
X49256222Y-126431995D01*
X49212949Y-126408864D01*
X49172150Y-126381604D01*
X49134221Y-126350476D01*
X49099524Y-126315779D01*
X49068396Y-126277850D01*
X49041136Y-126237051D01*
X49018005Y-126193778D01*
X48999228Y-126148445D01*
X48984984Y-126101490D01*
X48975412Y-126053365D01*
X48970602Y-126004534D01*
X48970602Y-125980000D01*
X48970000Y-125980000D01*
X48970000Y-125480000D01*
X48970602Y-125480000D01*
X48970602Y-125455466D01*
X48975412Y-125406635D01*
X48984984Y-125358510D01*
X48999228Y-125311555D01*
X49018005Y-125266222D01*
X49041136Y-125222949D01*
X49068396Y-125182150D01*
X49099524Y-125144221D01*
X49134221Y-125109524D01*
X49172150Y-125078396D01*
X49212949Y-125051136D01*
X49256222Y-125028005D01*
X49301555Y-125009228D01*
X49348510Y-124994984D01*
X49396635Y-124985412D01*
X49445466Y-124980602D01*
X49470000Y-124980602D01*
X49470000Y-124980000D01*
X50020000Y-124980000D01*
X50020000Y-126480000D01*
X49470000Y-126480000D01*
X49470000Y-126479398D01*
G37*
G36*
X51520000Y-124980000D02*
G01*
X52070000Y-124980000D01*
X52070000Y-124980602D01*
X52094534Y-124980602D01*
X52143365Y-124985412D01*
X52191490Y-124994984D01*
X52238445Y-125009228D01*
X52283778Y-125028005D01*
X52327051Y-125051136D01*
X52367850Y-125078396D01*
X52405779Y-125109524D01*
X52440476Y-125144221D01*
X52471604Y-125182150D01*
X52498864Y-125222949D01*
X52521995Y-125266222D01*
X52540772Y-125311555D01*
X52555016Y-125358510D01*
X52564588Y-125406635D01*
X52569398Y-125455466D01*
X52569398Y-125480000D01*
X52570000Y-125480000D01*
X52570000Y-125980000D01*
X52569398Y-125980000D01*
X52569398Y-126004534D01*
X52564588Y-126053365D01*
X52555016Y-126101490D01*
X52540772Y-126148445D01*
X52521995Y-126193778D01*
X52498864Y-126237051D01*
X52471604Y-126277850D01*
X52440476Y-126315779D01*
X52405779Y-126350476D01*
X52367850Y-126381604D01*
X52327051Y-126408864D01*
X52283778Y-126431995D01*
X52238445Y-126450772D01*
X52191490Y-126465016D01*
X52143365Y-126474588D01*
X52094534Y-126479398D01*
X52070000Y-126479398D01*
X52070000Y-126480000D01*
X51520000Y-126480000D01*
X51520000Y-124980000D01*
G37*
%TD*%
D22*
%TO.C,JP1*%
X50800000Y-128270000D03*
D21*
G36*
X49500000Y-129019398D02*
G01*
X49475466Y-129019398D01*
X49426635Y-129014588D01*
X49378510Y-129005016D01*
X49331555Y-128990772D01*
X49286222Y-128971995D01*
X49242949Y-128948864D01*
X49202150Y-128921604D01*
X49164221Y-128890476D01*
X49129524Y-128855779D01*
X49098396Y-128817850D01*
X49071136Y-128777051D01*
X49048005Y-128733778D01*
X49029228Y-128688445D01*
X49014984Y-128641490D01*
X49005412Y-128593365D01*
X49000602Y-128544534D01*
X49000602Y-128520000D01*
X49000000Y-128520000D01*
X49000000Y-128020000D01*
X49000602Y-128020000D01*
X49000602Y-127995466D01*
X49005412Y-127946635D01*
X49014984Y-127898510D01*
X49029228Y-127851555D01*
X49048005Y-127806222D01*
X49071136Y-127762949D01*
X49098396Y-127722150D01*
X49129524Y-127684221D01*
X49164221Y-127649524D01*
X49202150Y-127618396D01*
X49242949Y-127591136D01*
X49286222Y-127568005D01*
X49331555Y-127549228D01*
X49378510Y-127534984D01*
X49426635Y-127525412D01*
X49475466Y-127520602D01*
X49500000Y-127520602D01*
X49500000Y-127520000D01*
X50050000Y-127520000D01*
X50050000Y-129020000D01*
X49500000Y-129020000D01*
X49500000Y-129019398D01*
G37*
G36*
X51550000Y-127520000D02*
G01*
X52100000Y-127520000D01*
X52100000Y-127520602D01*
X52124534Y-127520602D01*
X52173365Y-127525412D01*
X52221490Y-127534984D01*
X52268445Y-127549228D01*
X52313778Y-127568005D01*
X52357051Y-127591136D01*
X52397850Y-127618396D01*
X52435779Y-127649524D01*
X52470476Y-127684221D01*
X52501604Y-127722150D01*
X52528864Y-127762949D01*
X52551995Y-127806222D01*
X52570772Y-127851555D01*
X52585016Y-127898510D01*
X52594588Y-127946635D01*
X52599398Y-127995466D01*
X52599398Y-128020000D01*
X52600000Y-128020000D01*
X52600000Y-128520000D01*
X52599398Y-128520000D01*
X52599398Y-128544534D01*
X52594588Y-128593365D01*
X52585016Y-128641490D01*
X52570772Y-128688445D01*
X52551995Y-128733778D01*
X52528864Y-128777051D01*
X52501604Y-128817850D01*
X52470476Y-128855779D01*
X52435779Y-128890476D01*
X52397850Y-128921604D01*
X52357051Y-128948864D01*
X52313778Y-128971995D01*
X52268445Y-128990772D01*
X52221490Y-129005016D01*
X52173365Y-129014588D01*
X52124534Y-129019398D01*
X52100000Y-129019398D01*
X52100000Y-129020000D01*
X51550000Y-129020000D01*
X51550000Y-127520000D01*
G37*
%TD*%
D20*
%TO.C,D1*%
X45720000Y-46990000D03*
D19*
X38100000Y-46990000D03*
%TD*%
D20*
%TO.C,D2*%
X45720000Y-66040000D03*
D19*
X38100000Y-66040000D03*
%TD*%
D20*
%TO.C,D3*%
X50800000Y-85090000D03*
D19*
X43180000Y-85090000D03*
%TD*%
D20*
%TO.C,D4*%
X53340000Y-104140000D03*
D19*
X45720000Y-104140000D03*
%TD*%
D20*
%TO.C,D5*%
X52070000Y-123190000D03*
D19*
X44450000Y-123190000D03*
%TD*%
D20*
%TO.C,D6*%
X48260000Y-142240000D03*
D19*
X40640000Y-142240000D03*
%TD*%
D20*
%TO.C,D7*%
X64770000Y-46990000D03*
D19*
X57150000Y-46990000D03*
%TD*%
D20*
%TO.C,D8*%
X64770000Y-66040000D03*
D19*
X57150000Y-66040000D03*
%TD*%
D20*
%TO.C,D9*%
X74930000Y-85090000D03*
D19*
X67310000Y-85090000D03*
%TD*%
D20*
%TO.C,D10*%
X78740000Y-104140000D03*
D19*
X71120000Y-104140000D03*
%TD*%
D20*
%TO.C,D11*%
X90170000Y-123190000D03*
D19*
X82550000Y-123190000D03*
%TD*%
D20*
%TO.C,D12*%
X69850000Y-142240000D03*
D19*
X62230000Y-142240000D03*
%TD*%
D20*
%TO.C,D13*%
X82550000Y-46990000D03*
D19*
X74930000Y-46990000D03*
%TD*%
D20*
%TO.C,D14*%
X83820000Y-66040000D03*
D19*
X76200000Y-66040000D03*
%TD*%
D20*
%TO.C,D15*%
X93980000Y-85090000D03*
D19*
X86360000Y-85090000D03*
%TD*%
D20*
%TO.C,D16*%
X97790000Y-104140000D03*
D19*
X90170000Y-104140000D03*
%TD*%
D20*
%TO.C,D17*%
X107950000Y-123190000D03*
D19*
X100330000Y-123190000D03*
%TD*%
D20*
%TO.C,D18*%
X88900000Y-142240000D03*
D19*
X81280000Y-142240000D03*
%TD*%
D20*
%TO.C,D19*%
X101600000Y-46990000D03*
D19*
X93980000Y-46990000D03*
%TD*%
D20*
%TO.C,D20*%
X102870000Y-66040000D03*
D19*
X95250000Y-66040000D03*
%TD*%
D20*
%TO.C,D21*%
X113030000Y-85090000D03*
D19*
X105410000Y-85090000D03*
%TD*%
D20*
%TO.C,D22*%
X116840000Y-104140000D03*
D19*
X109220000Y-104140000D03*
%TD*%
D20*
%TO.C,D23*%
X127000000Y-123190000D03*
D19*
X119380000Y-123190000D03*
%TD*%
D20*
%TO.C,D24*%
X107950000Y-142240000D03*
D19*
X100330000Y-142240000D03*
%TD*%
D20*
%TO.C,D25*%
X120650000Y-46990000D03*
D19*
X113030000Y-46990000D03*
%TD*%
D20*
%TO.C,D26*%
X121920000Y-66040000D03*
D19*
X114300000Y-66040000D03*
%TD*%
D20*
%TO.C,D27*%
X132080000Y-85090000D03*
D19*
X124460000Y-85090000D03*
%TD*%
D20*
%TO.C,D28*%
X135890000Y-104140000D03*
D19*
X128270000Y-104140000D03*
%TD*%
D20*
%TO.C,D29*%
X146050000Y-123190000D03*
D19*
X138430000Y-123190000D03*
%TD*%
D20*
%TO.C,D30*%
X127000000Y-142240000D03*
D19*
X119380000Y-142240000D03*
%TD*%
D20*
%TO.C,D31*%
X139700000Y-46990000D03*
D19*
X132080000Y-46990000D03*
%TD*%
D20*
%TO.C,D33*%
X151130000Y-85090000D03*
D19*
X143510000Y-85090000D03*
%TD*%
D20*
%TO.C,D34*%
X153670000Y-104140000D03*
D19*
X146050000Y-104140000D03*
%TD*%
D20*
%TO.C,D35*%
X165100000Y-123190000D03*
D19*
X157480000Y-123190000D03*
%TD*%
D20*
%TO.C,D36*%
X154940000Y-142240000D03*
D19*
X147320000Y-142240000D03*
%TD*%
D22*
%TO.C,JP5*%
X35560000Y-112776000D03*
D21*
G36*
X34260000Y-113525398D02*
G01*
X34235466Y-113525398D01*
X34186635Y-113520588D01*
X34138510Y-113511016D01*
X34091555Y-113496772D01*
X34046222Y-113477995D01*
X34002949Y-113454864D01*
X33962150Y-113427604D01*
X33924221Y-113396476D01*
X33889524Y-113361779D01*
X33858396Y-113323850D01*
X33831136Y-113283051D01*
X33808005Y-113239778D01*
X33789228Y-113194445D01*
X33774984Y-113147490D01*
X33765412Y-113099365D01*
X33760602Y-113050534D01*
X33760602Y-113026000D01*
X33760000Y-113026000D01*
X33760000Y-112526000D01*
X33760602Y-112526000D01*
X33760602Y-112501466D01*
X33765412Y-112452635D01*
X33774984Y-112404510D01*
X33789228Y-112357555D01*
X33808005Y-112312222D01*
X33831136Y-112268949D01*
X33858396Y-112228150D01*
X33889524Y-112190221D01*
X33924221Y-112155524D01*
X33962150Y-112124396D01*
X34002949Y-112097136D01*
X34046222Y-112074005D01*
X34091555Y-112055228D01*
X34138510Y-112040984D01*
X34186635Y-112031412D01*
X34235466Y-112026602D01*
X34260000Y-112026602D01*
X34260000Y-112026000D01*
X34810000Y-112026000D01*
X34810000Y-113526000D01*
X34260000Y-113526000D01*
X34260000Y-113525398D01*
G37*
G36*
X36310000Y-112026000D02*
G01*
X36860000Y-112026000D01*
X36860000Y-112026602D01*
X36884534Y-112026602D01*
X36933365Y-112031412D01*
X36981490Y-112040984D01*
X37028445Y-112055228D01*
X37073778Y-112074005D01*
X37117051Y-112097136D01*
X37157850Y-112124396D01*
X37195779Y-112155524D01*
X37230476Y-112190221D01*
X37261604Y-112228150D01*
X37288864Y-112268949D01*
X37311995Y-112312222D01*
X37330772Y-112357555D01*
X37345016Y-112404510D01*
X37354588Y-112452635D01*
X37359398Y-112501466D01*
X37359398Y-112526000D01*
X37360000Y-112526000D01*
X37360000Y-113026000D01*
X37359398Y-113026000D01*
X37359398Y-113050534D01*
X37354588Y-113099365D01*
X37345016Y-113147490D01*
X37330772Y-113194445D01*
X37311995Y-113239778D01*
X37288864Y-113283051D01*
X37261604Y-113323850D01*
X37230476Y-113361779D01*
X37195779Y-113396476D01*
X37157850Y-113427604D01*
X37117051Y-113454864D01*
X37073778Y-113477995D01*
X37028445Y-113496772D01*
X36981490Y-113511016D01*
X36933365Y-113520588D01*
X36884534Y-113525398D01*
X36860000Y-113525398D01*
X36860000Y-113526000D01*
X36310000Y-113526000D01*
X36310000Y-112026000D01*
G37*
%TD*%
%TO.C,JP6*%
G36*
X36310000Y-120662000D02*
G01*
X36860000Y-120662000D01*
X36860000Y-120662602D01*
X36884534Y-120662602D01*
X36933365Y-120667412D01*
X36981490Y-120676984D01*
X37028445Y-120691228D01*
X37073778Y-120710005D01*
X37117051Y-120733136D01*
X37157850Y-120760396D01*
X37195779Y-120791524D01*
X37230476Y-120826221D01*
X37261604Y-120864150D01*
X37288864Y-120904949D01*
X37311995Y-120948222D01*
X37330772Y-120993555D01*
X37345016Y-121040510D01*
X37354588Y-121088635D01*
X37359398Y-121137466D01*
X37359398Y-121162000D01*
X37360000Y-121162000D01*
X37360000Y-121662000D01*
X37359398Y-121662000D01*
X37359398Y-121686534D01*
X37354588Y-121735365D01*
X37345016Y-121783490D01*
X37330772Y-121830445D01*
X37311995Y-121875778D01*
X37288864Y-121919051D01*
X37261604Y-121959850D01*
X37230476Y-121997779D01*
X37195779Y-122032476D01*
X37157850Y-122063604D01*
X37117051Y-122090864D01*
X37073778Y-122113995D01*
X37028445Y-122132772D01*
X36981490Y-122147016D01*
X36933365Y-122156588D01*
X36884534Y-122161398D01*
X36860000Y-122161398D01*
X36860000Y-122162000D01*
X36310000Y-122162000D01*
X36310000Y-120662000D01*
G37*
G36*
X34260000Y-122161398D02*
G01*
X34235466Y-122161398D01*
X34186635Y-122156588D01*
X34138510Y-122147016D01*
X34091555Y-122132772D01*
X34046222Y-122113995D01*
X34002949Y-122090864D01*
X33962150Y-122063604D01*
X33924221Y-122032476D01*
X33889524Y-121997779D01*
X33858396Y-121959850D01*
X33831136Y-121919051D01*
X33808005Y-121875778D01*
X33789228Y-121830445D01*
X33774984Y-121783490D01*
X33765412Y-121735365D01*
X33760602Y-121686534D01*
X33760602Y-121662000D01*
X33760000Y-121662000D01*
X33760000Y-121162000D01*
X33760602Y-121162000D01*
X33760602Y-121137466D01*
X33765412Y-121088635D01*
X33774984Y-121040510D01*
X33789228Y-120993555D01*
X33808005Y-120948222D01*
X33831136Y-120904949D01*
X33858396Y-120864150D01*
X33889524Y-120826221D01*
X33924221Y-120791524D01*
X33962150Y-120760396D01*
X34002949Y-120733136D01*
X34046222Y-120710005D01*
X34091555Y-120691228D01*
X34138510Y-120676984D01*
X34186635Y-120667412D01*
X34235466Y-120662602D01*
X34260000Y-120662602D01*
X34260000Y-120662000D01*
X34810000Y-120662000D01*
X34810000Y-122162000D01*
X34260000Y-122162000D01*
X34260000Y-122161398D01*
G37*
D22*
X35560000Y-121412000D03*
%TD*%
D23*
%TO.C,C1*%
X59055000Y-102830000D03*
D19*
X59055000Y-100330000D03*
%TD*%
D23*
%TO.C,C2*%
X298069000Y-116245000D03*
D19*
X298069000Y-118745000D03*
%TD*%
D20*
%TO.C,D37*%
X172339000Y-46990000D03*
D19*
X164719000Y-46990000D03*
%TD*%
%TO.C,D38*%
X168529000Y-66040000D03*
D20*
X176149000Y-66040000D03*
%TD*%
D19*
%TO.C,D39*%
X178689000Y-85090000D03*
D20*
X186309000Y-85090000D03*
%TD*%
%TO.C,D40*%
X190754000Y-104140000D03*
D19*
X183134000Y-104140000D03*
%TD*%
D20*
%TO.C,D41*%
X200279000Y-123190000D03*
D19*
X192659000Y-123190000D03*
%TD*%
%TO.C,D42*%
X199390000Y-142240000D03*
D20*
X207010000Y-142240000D03*
%TD*%
%TO.C,D43*%
X191389000Y-46990000D03*
D19*
X183769000Y-46990000D03*
%TD*%
D20*
%TO.C,D44*%
X195199000Y-66040000D03*
D19*
X187579000Y-66040000D03*
%TD*%
D20*
%TO.C,D45*%
X205359000Y-85090000D03*
D19*
X197739000Y-85090000D03*
%TD*%
%TO.C,D46*%
X202184000Y-104140000D03*
D20*
X209804000Y-104140000D03*
%TD*%
%TO.C,D47*%
X219329000Y-123190000D03*
D19*
X211709000Y-123190000D03*
%TD*%
D20*
%TO.C,D48*%
X233299000Y-142240000D03*
D19*
X225679000Y-142240000D03*
%TD*%
D20*
%TO.C,D49*%
X211709000Y-46990000D03*
D19*
X204089000Y-46990000D03*
%TD*%
D20*
%TO.C,D50*%
X214249000Y-66040000D03*
D19*
X206629000Y-66040000D03*
%TD*%
D20*
%TO.C,D51*%
X224409000Y-85090000D03*
D19*
X216789000Y-85090000D03*
%TD*%
%TO.C,D52*%
X221234000Y-104140000D03*
D20*
X228854000Y-104140000D03*
%TD*%
%TO.C,D53*%
X238379000Y-123190000D03*
D19*
X230759000Y-123190000D03*
%TD*%
%TO.C,D54*%
X244729000Y-142240000D03*
D20*
X252349000Y-142240000D03*
%TD*%
D19*
%TO.C,D55*%
X225679000Y-46990000D03*
D20*
X233299000Y-46990000D03*
%TD*%
D19*
%TO.C,D56*%
X225679000Y-66040000D03*
D20*
X233299000Y-66040000D03*
%TD*%
D19*
%TO.C,D57*%
X235839000Y-85090000D03*
D20*
X243459000Y-85090000D03*
%TD*%
D19*
%TO.C,D58*%
X240284000Y-104140000D03*
D20*
X247904000Y-104140000D03*
%TD*%
D19*
%TO.C,D59*%
X249809000Y-123190000D03*
D20*
X257429000Y-123190000D03*
%TD*%
D19*
%TO.C,D60*%
X263779000Y-142240000D03*
D20*
X271399000Y-142240000D03*
%TD*%
%TO.C,D61*%
X252349000Y-46990000D03*
D19*
X244729000Y-46990000D03*
%TD*%
%TO.C,D62*%
X244729000Y-66040000D03*
D20*
X252349000Y-66040000D03*
%TD*%
D19*
%TO.C,D63*%
X254889000Y-85090000D03*
D20*
X262509000Y-85090000D03*
%TD*%
%TO.C,D64*%
X266954000Y-104140000D03*
D19*
X259334000Y-104140000D03*
%TD*%
D20*
%TO.C,D65*%
X276479000Y-123190000D03*
D19*
X268859000Y-123190000D03*
%TD*%
D20*
%TO.C,D66*%
X290449000Y-142240000D03*
D19*
X282829000Y-142240000D03*
%TD*%
%TO.C,D67*%
X263779000Y-46990000D03*
D20*
X271399000Y-46990000D03*
%TD*%
%TO.C,D68*%
X271399000Y-66040000D03*
D19*
X263779000Y-66040000D03*
%TD*%
D20*
%TO.C,D69*%
X281559000Y-85090000D03*
D19*
X273939000Y-85090000D03*
%TD*%
%TO.C,D70*%
X278384000Y-104140000D03*
D20*
X286004000Y-104140000D03*
%TD*%
D19*
%TO.C,D71*%
X287909000Y-123190000D03*
D20*
X295529000Y-123190000D03*
%TD*%
D19*
%TO.C,D72*%
X301879000Y-142240000D03*
D20*
X309499000Y-142240000D03*
%TD*%
%TO.C,D73*%
X290449000Y-46990000D03*
D19*
X282829000Y-46990000D03*
%TD*%
%TO.C,D74*%
X282829000Y-66040000D03*
D20*
X290449000Y-66040000D03*
%TD*%
%TO.C,D75*%
X300609000Y-85090000D03*
D19*
X292989000Y-85090000D03*
%TD*%
D20*
%TO.C,D76*%
X304419000Y-104140000D03*
D19*
X296799000Y-104140000D03*
%TD*%
%TO.C,D77*%
X313309000Y-123190000D03*
D20*
X320929000Y-123190000D03*
%TD*%
%TO.C,D78*%
X328549000Y-142240000D03*
D19*
X320929000Y-142240000D03*
%TD*%
%TO.C,D79*%
X301879000Y-46990000D03*
D20*
X309499000Y-46990000D03*
%TD*%
%TO.C,D80*%
X309499000Y-66040000D03*
D19*
X301879000Y-66040000D03*
%TD*%
%TO.C,D81*%
X315849000Y-85090000D03*
D20*
X323469000Y-85090000D03*
%TD*%
%TO.C,D82*%
X328549000Y-46990000D03*
D19*
X320929000Y-46990000D03*
%TD*%
%TO.C,D83*%
X320929000Y-66040000D03*
D20*
X328549000Y-66040000D03*
%TD*%
D24*
%TO.C,J1*%
X125095000Y-29440000D03*
X125095000Y-36440000D03*
%TD*%
D15*
%TO.C,J2*%
X104140000Y-42545000D03*
D16*
X104140000Y-40005000D03*
X104140000Y-37465000D03*
X104140000Y-34925000D03*
X104140000Y-32385000D03*
%TD*%
D25*
%TO.C,J3*%
X110840000Y-41910000D03*
X112840000Y-41910000D03*
X114840000Y-41910000D03*
D26*
X116840000Y-41910000D03*
%TD*%
D15*
%TO.C,J4*%
X55880000Y-97155000D03*
D16*
X55880000Y-94615000D03*
X55880000Y-92075000D03*
X55880000Y-89535000D03*
%TD*%
%TO.C,J5*%
X85090000Y-32385000D03*
X85090000Y-34925000D03*
X85090000Y-37465000D03*
D15*
X85090000Y-40005000D03*
%TD*%
%TO.C,J6*%
X303149000Y-111125000D03*
D16*
X303149000Y-113665000D03*
X303149000Y-116205000D03*
X303149000Y-118745000D03*
%TD*%
D24*
%TO.C,J2_TRRS1*%
X214249000Y-29440000D03*
X214249000Y-36440000D03*
%TD*%
D15*
%TO.C,J3_PIKO_L1*%
X193294000Y-42545000D03*
D16*
X193294000Y-40005000D03*
X193294000Y-37465000D03*
X193294000Y-34925000D03*
X193294000Y-32385000D03*
%TD*%
%TO.C,J3_PIKO_R1*%
X174244000Y-32385000D03*
X174244000Y-34925000D03*
X174244000Y-37465000D03*
D15*
X174244000Y-40005000D03*
%TD*%
D25*
%TO.C,J4_GROVE1*%
X199994000Y-41910000D03*
X201994000Y-41910000D03*
X203994000Y-41910000D03*
D26*
X205994000Y-41910000D03*
%TD*%
D21*
%TO.C,JP_A1*%
G36*
X314694000Y-104660000D02*
G01*
X315244000Y-104660000D01*
X315244000Y-104660602D01*
X315268534Y-104660602D01*
X315317365Y-104665412D01*
X315365490Y-104674984D01*
X315412445Y-104689228D01*
X315457778Y-104708005D01*
X315501051Y-104731136D01*
X315541850Y-104758396D01*
X315579779Y-104789524D01*
X315614476Y-104824221D01*
X315645604Y-104862150D01*
X315672864Y-104902949D01*
X315695995Y-104946222D01*
X315714772Y-104991555D01*
X315729016Y-105038510D01*
X315738588Y-105086635D01*
X315743398Y-105135466D01*
X315743398Y-105160000D01*
X315744000Y-105160000D01*
X315744000Y-105660000D01*
X315743398Y-105660000D01*
X315743398Y-105684534D01*
X315738588Y-105733365D01*
X315729016Y-105781490D01*
X315714772Y-105828445D01*
X315695995Y-105873778D01*
X315672864Y-105917051D01*
X315645604Y-105957850D01*
X315614476Y-105995779D01*
X315579779Y-106030476D01*
X315541850Y-106061604D01*
X315501051Y-106088864D01*
X315457778Y-106111995D01*
X315412445Y-106130772D01*
X315365490Y-106145016D01*
X315317365Y-106154588D01*
X315268534Y-106159398D01*
X315244000Y-106159398D01*
X315244000Y-106160000D01*
X314694000Y-106160000D01*
X314694000Y-104660000D01*
G37*
G36*
X312644000Y-106159398D02*
G01*
X312619466Y-106159398D01*
X312570635Y-106154588D01*
X312522510Y-106145016D01*
X312475555Y-106130772D01*
X312430222Y-106111995D01*
X312386949Y-106088864D01*
X312346150Y-106061604D01*
X312308221Y-106030476D01*
X312273524Y-105995779D01*
X312242396Y-105957850D01*
X312215136Y-105917051D01*
X312192005Y-105873778D01*
X312173228Y-105828445D01*
X312158984Y-105781490D01*
X312149412Y-105733365D01*
X312144602Y-105684534D01*
X312144602Y-105660000D01*
X312144000Y-105660000D01*
X312144000Y-105160000D01*
X312144602Y-105160000D01*
X312144602Y-105135466D01*
X312149412Y-105086635D01*
X312158984Y-105038510D01*
X312173228Y-104991555D01*
X312192005Y-104946222D01*
X312215136Y-104902949D01*
X312242396Y-104862150D01*
X312273524Y-104824221D01*
X312308221Y-104789524D01*
X312346150Y-104758396D01*
X312386949Y-104731136D01*
X312430222Y-104708005D01*
X312475555Y-104689228D01*
X312522510Y-104674984D01*
X312570635Y-104665412D01*
X312619466Y-104660602D01*
X312644000Y-104660602D01*
X312644000Y-104660000D01*
X313194000Y-104660000D01*
X313194000Y-106160000D01*
X312644000Y-106160000D01*
X312644000Y-106159398D01*
G37*
D22*
X313944000Y-105410000D03*
%TD*%
%TO.C,JP_A2*%
X313944000Y-102235000D03*
D21*
G36*
X312644000Y-102984398D02*
G01*
X312619466Y-102984398D01*
X312570635Y-102979588D01*
X312522510Y-102970016D01*
X312475555Y-102955772D01*
X312430222Y-102936995D01*
X312386949Y-102913864D01*
X312346150Y-102886604D01*
X312308221Y-102855476D01*
X312273524Y-102820779D01*
X312242396Y-102782850D01*
X312215136Y-102742051D01*
X312192005Y-102698778D01*
X312173228Y-102653445D01*
X312158984Y-102606490D01*
X312149412Y-102558365D01*
X312144602Y-102509534D01*
X312144602Y-102485000D01*
X312144000Y-102485000D01*
X312144000Y-101985000D01*
X312144602Y-101985000D01*
X312144602Y-101960466D01*
X312149412Y-101911635D01*
X312158984Y-101863510D01*
X312173228Y-101816555D01*
X312192005Y-101771222D01*
X312215136Y-101727949D01*
X312242396Y-101687150D01*
X312273524Y-101649221D01*
X312308221Y-101614524D01*
X312346150Y-101583396D01*
X312386949Y-101556136D01*
X312430222Y-101533005D01*
X312475555Y-101514228D01*
X312522510Y-101499984D01*
X312570635Y-101490412D01*
X312619466Y-101485602D01*
X312644000Y-101485602D01*
X312644000Y-101485000D01*
X313194000Y-101485000D01*
X313194000Y-102985000D01*
X312644000Y-102985000D01*
X312644000Y-102984398D01*
G37*
G36*
X314694000Y-101485000D02*
G01*
X315244000Y-101485000D01*
X315244000Y-101485602D01*
X315268534Y-101485602D01*
X315317365Y-101490412D01*
X315365490Y-101499984D01*
X315412445Y-101514228D01*
X315457778Y-101533005D01*
X315501051Y-101556136D01*
X315541850Y-101583396D01*
X315579779Y-101614524D01*
X315614476Y-101649221D01*
X315645604Y-101687150D01*
X315672864Y-101727949D01*
X315695995Y-101771222D01*
X315714772Y-101816555D01*
X315729016Y-101863510D01*
X315738588Y-101911635D01*
X315743398Y-101960466D01*
X315743398Y-101985000D01*
X315744000Y-101985000D01*
X315744000Y-102485000D01*
X315743398Y-102485000D01*
X315743398Y-102509534D01*
X315738588Y-102558365D01*
X315729016Y-102606490D01*
X315714772Y-102653445D01*
X315695995Y-102698778D01*
X315672864Y-102742051D01*
X315645604Y-102782850D01*
X315614476Y-102820779D01*
X315579779Y-102855476D01*
X315541850Y-102886604D01*
X315501051Y-102913864D01*
X315457778Y-102936995D01*
X315412445Y-102955772D01*
X315365490Y-102970016D01*
X315317365Y-102979588D01*
X315268534Y-102984398D01*
X315244000Y-102984398D01*
X315244000Y-102985000D01*
X314694000Y-102985000D01*
X314694000Y-101485000D01*
G37*
%TD*%
D22*
%TO.C,JP_A3*%
X313944000Y-99060000D03*
D21*
G36*
X312644000Y-99809398D02*
G01*
X312619466Y-99809398D01*
X312570635Y-99804588D01*
X312522510Y-99795016D01*
X312475555Y-99780772D01*
X312430222Y-99761995D01*
X312386949Y-99738864D01*
X312346150Y-99711604D01*
X312308221Y-99680476D01*
X312273524Y-99645779D01*
X312242396Y-99607850D01*
X312215136Y-99567051D01*
X312192005Y-99523778D01*
X312173228Y-99478445D01*
X312158984Y-99431490D01*
X312149412Y-99383365D01*
X312144602Y-99334534D01*
X312144602Y-99310000D01*
X312144000Y-99310000D01*
X312144000Y-98810000D01*
X312144602Y-98810000D01*
X312144602Y-98785466D01*
X312149412Y-98736635D01*
X312158984Y-98688510D01*
X312173228Y-98641555D01*
X312192005Y-98596222D01*
X312215136Y-98552949D01*
X312242396Y-98512150D01*
X312273524Y-98474221D01*
X312308221Y-98439524D01*
X312346150Y-98408396D01*
X312386949Y-98381136D01*
X312430222Y-98358005D01*
X312475555Y-98339228D01*
X312522510Y-98324984D01*
X312570635Y-98315412D01*
X312619466Y-98310602D01*
X312644000Y-98310602D01*
X312644000Y-98310000D01*
X313194000Y-98310000D01*
X313194000Y-99810000D01*
X312644000Y-99810000D01*
X312644000Y-99809398D01*
G37*
G36*
X314694000Y-98310000D02*
G01*
X315244000Y-98310000D01*
X315244000Y-98310602D01*
X315268534Y-98310602D01*
X315317365Y-98315412D01*
X315365490Y-98324984D01*
X315412445Y-98339228D01*
X315457778Y-98358005D01*
X315501051Y-98381136D01*
X315541850Y-98408396D01*
X315579779Y-98439524D01*
X315614476Y-98474221D01*
X315645604Y-98512150D01*
X315672864Y-98552949D01*
X315695995Y-98596222D01*
X315714772Y-98641555D01*
X315729016Y-98688510D01*
X315738588Y-98736635D01*
X315743398Y-98785466D01*
X315743398Y-98810000D01*
X315744000Y-98810000D01*
X315744000Y-99310000D01*
X315743398Y-99310000D01*
X315743398Y-99334534D01*
X315738588Y-99383365D01*
X315729016Y-99431490D01*
X315714772Y-99478445D01*
X315695995Y-99523778D01*
X315672864Y-99567051D01*
X315645604Y-99607850D01*
X315614476Y-99645779D01*
X315579779Y-99680476D01*
X315541850Y-99711604D01*
X315501051Y-99738864D01*
X315457778Y-99761995D01*
X315412445Y-99780772D01*
X315365490Y-99795016D01*
X315317365Y-99804588D01*
X315268534Y-99809398D01*
X315244000Y-99809398D01*
X315244000Y-99810000D01*
X314694000Y-99810000D01*
X314694000Y-98310000D01*
G37*
%TD*%
%TO.C,JP_I2C_EN1*%
G36*
X303769000Y-75679398D02*
G01*
X303744466Y-75679398D01*
X303695635Y-75674588D01*
X303647510Y-75665016D01*
X303600555Y-75650772D01*
X303555222Y-75631995D01*
X303511949Y-75608864D01*
X303471150Y-75581604D01*
X303433221Y-75550476D01*
X303398524Y-75515779D01*
X303367396Y-75477850D01*
X303340136Y-75437051D01*
X303317005Y-75393778D01*
X303298228Y-75348445D01*
X303283984Y-75301490D01*
X303274412Y-75253365D01*
X303269602Y-75204534D01*
X303269602Y-75180000D01*
X303269000Y-75180000D01*
X303269000Y-74680000D01*
X303269602Y-74680000D01*
X303269602Y-74655466D01*
X303274412Y-74606635D01*
X303283984Y-74558510D01*
X303298228Y-74511555D01*
X303317005Y-74466222D01*
X303340136Y-74422949D01*
X303367396Y-74382150D01*
X303398524Y-74344221D01*
X303433221Y-74309524D01*
X303471150Y-74278396D01*
X303511949Y-74251136D01*
X303555222Y-74228005D01*
X303600555Y-74209228D01*
X303647510Y-74194984D01*
X303695635Y-74185412D01*
X303744466Y-74180602D01*
X303769000Y-74180602D01*
X303769000Y-74180000D01*
X304269000Y-74180000D01*
X304269000Y-75680000D01*
X303769000Y-75680000D01*
X303769000Y-75679398D01*
G37*
G36*
X304569000Y-74180000D02*
G01*
X305069000Y-74180000D01*
X305069000Y-74180602D01*
X305093534Y-74180602D01*
X305142365Y-74185412D01*
X305190490Y-74194984D01*
X305237445Y-74209228D01*
X305282778Y-74228005D01*
X305326051Y-74251136D01*
X305366850Y-74278396D01*
X305404779Y-74309524D01*
X305439476Y-74344221D01*
X305470604Y-74382150D01*
X305497864Y-74422949D01*
X305520995Y-74466222D01*
X305539772Y-74511555D01*
X305554016Y-74558510D01*
X305563588Y-74606635D01*
X305568398Y-74655466D01*
X305568398Y-74680000D01*
X305569000Y-74680000D01*
X305569000Y-75180000D01*
X305568398Y-75180000D01*
X305568398Y-75204534D01*
X305563588Y-75253365D01*
X305554016Y-75301490D01*
X305539772Y-75348445D01*
X305520995Y-75393778D01*
X305497864Y-75437051D01*
X305470604Y-75477850D01*
X305439476Y-75515779D01*
X305404779Y-75550476D01*
X305366850Y-75581604D01*
X305326051Y-75608864D01*
X305282778Y-75631995D01*
X305237445Y-75650772D01*
X305190490Y-75665016D01*
X305142365Y-75674588D01*
X305093534Y-75679398D01*
X305069000Y-75679398D01*
X305069000Y-75680000D01*
X304569000Y-75680000D01*
X304569000Y-74180000D01*
G37*
%TD*%
%TO.C,JP_SCL1*%
G36*
X305574000Y-87110000D02*
G01*
X305024000Y-87110000D01*
X305024000Y-87109398D01*
X304999466Y-87109398D01*
X304950635Y-87104588D01*
X304902510Y-87095016D01*
X304855555Y-87080772D01*
X304810222Y-87061995D01*
X304766949Y-87038864D01*
X304726150Y-87011604D01*
X304688221Y-86980476D01*
X304653524Y-86945779D01*
X304622396Y-86907850D01*
X304595136Y-86867051D01*
X304572005Y-86823778D01*
X304553228Y-86778445D01*
X304538984Y-86731490D01*
X304529412Y-86683365D01*
X304524602Y-86634534D01*
X304524602Y-86610000D01*
X304524000Y-86610000D01*
X304524000Y-86110000D01*
X304524602Y-86110000D01*
X304524602Y-86085466D01*
X304529412Y-86036635D01*
X304538984Y-85988510D01*
X304553228Y-85941555D01*
X304572005Y-85896222D01*
X304595136Y-85852949D01*
X304622396Y-85812150D01*
X304653524Y-85774221D01*
X304688221Y-85739524D01*
X304726150Y-85708396D01*
X304766949Y-85681136D01*
X304810222Y-85658005D01*
X304855555Y-85639228D01*
X304902510Y-85624984D01*
X304950635Y-85615412D01*
X304999466Y-85610602D01*
X305024000Y-85610602D01*
X305024000Y-85610000D01*
X305574000Y-85610000D01*
X305574000Y-87110000D01*
G37*
G36*
X307624000Y-85610602D02*
G01*
X307648534Y-85610602D01*
X307697365Y-85615412D01*
X307745490Y-85624984D01*
X307792445Y-85639228D01*
X307837778Y-85658005D01*
X307881051Y-85681136D01*
X307921850Y-85708396D01*
X307959779Y-85739524D01*
X307994476Y-85774221D01*
X308025604Y-85812150D01*
X308052864Y-85852949D01*
X308075995Y-85896222D01*
X308094772Y-85941555D01*
X308109016Y-85988510D01*
X308118588Y-86036635D01*
X308123398Y-86085466D01*
X308123398Y-86110000D01*
X308124000Y-86110000D01*
X308124000Y-86610000D01*
X308123398Y-86610000D01*
X308123398Y-86634534D01*
X308118588Y-86683365D01*
X308109016Y-86731490D01*
X308094772Y-86778445D01*
X308075995Y-86823778D01*
X308052864Y-86867051D01*
X308025604Y-86907850D01*
X307994476Y-86945779D01*
X307959779Y-86980476D01*
X307921850Y-87011604D01*
X307881051Y-87038864D01*
X307837778Y-87061995D01*
X307792445Y-87080772D01*
X307745490Y-87095016D01*
X307697365Y-87104588D01*
X307648534Y-87109398D01*
X307624000Y-87109398D01*
X307624000Y-87110000D01*
X307074000Y-87110000D01*
X307074000Y-85610000D01*
X307624000Y-85610000D01*
X307624000Y-85610602D01*
G37*
D22*
X306324000Y-86360000D03*
%TD*%
%TO.C,JP_SDA1*%
X305689000Y-77470000D03*
D21*
G36*
X306989000Y-76720602D02*
G01*
X307013534Y-76720602D01*
X307062365Y-76725412D01*
X307110490Y-76734984D01*
X307157445Y-76749228D01*
X307202778Y-76768005D01*
X307246051Y-76791136D01*
X307286850Y-76818396D01*
X307324779Y-76849524D01*
X307359476Y-76884221D01*
X307390604Y-76922150D01*
X307417864Y-76962949D01*
X307440995Y-77006222D01*
X307459772Y-77051555D01*
X307474016Y-77098510D01*
X307483588Y-77146635D01*
X307488398Y-77195466D01*
X307488398Y-77220000D01*
X307489000Y-77220000D01*
X307489000Y-77720000D01*
X307488398Y-77720000D01*
X307488398Y-77744534D01*
X307483588Y-77793365D01*
X307474016Y-77841490D01*
X307459772Y-77888445D01*
X307440995Y-77933778D01*
X307417864Y-77977051D01*
X307390604Y-78017850D01*
X307359476Y-78055779D01*
X307324779Y-78090476D01*
X307286850Y-78121604D01*
X307246051Y-78148864D01*
X307202778Y-78171995D01*
X307157445Y-78190772D01*
X307110490Y-78205016D01*
X307062365Y-78214588D01*
X307013534Y-78219398D01*
X306989000Y-78219398D01*
X306989000Y-78220000D01*
X306439000Y-78220000D01*
X306439000Y-76720000D01*
X306989000Y-76720000D01*
X306989000Y-76720602D01*
G37*
G36*
X304939000Y-78220000D02*
G01*
X304389000Y-78220000D01*
X304389000Y-78219398D01*
X304364466Y-78219398D01*
X304315635Y-78214588D01*
X304267510Y-78205016D01*
X304220555Y-78190772D01*
X304175222Y-78171995D01*
X304131949Y-78148864D01*
X304091150Y-78121604D01*
X304053221Y-78090476D01*
X304018524Y-78055779D01*
X303987396Y-78017850D01*
X303960136Y-77977051D01*
X303937005Y-77933778D01*
X303918228Y-77888445D01*
X303903984Y-77841490D01*
X303894412Y-77793365D01*
X303889602Y-77744534D01*
X303889602Y-77720000D01*
X303889000Y-77720000D01*
X303889000Y-77220000D01*
X303889602Y-77220000D01*
X303889602Y-77195466D01*
X303894412Y-77146635D01*
X303903984Y-77098510D01*
X303918228Y-77051555D01*
X303937005Y-77006222D01*
X303960136Y-76962949D01*
X303987396Y-76922150D01*
X304018524Y-76884221D01*
X304053221Y-76849524D01*
X304091150Y-76818396D01*
X304131949Y-76791136D01*
X304175222Y-76768005D01*
X304220555Y-76749228D01*
X304267510Y-76734984D01*
X304315635Y-76725412D01*
X304364466Y-76720602D01*
X304389000Y-76720602D01*
X304389000Y-76720000D01*
X304939000Y-76720000D01*
X304939000Y-78220000D01*
G37*
%TD*%
D27*
%TO.C,R1*%
X29972000Y-101600000D03*
D28*
X29972000Y-109220000D03*
%TD*%
%TO.C,R2*%
X33020000Y-109220000D03*
D27*
X33020000Y-101600000D03*
%TD*%
%TO.C,R3*%
X308864000Y-96520000D03*
D28*
X308864000Y-88900000D03*
%TD*%
%TO.C,R4*%
X306324000Y-88900000D03*
D27*
X306324000Y-96520000D03*
%TD*%
D10*
%TO.C,SW37*%
X157835250Y-35560000D03*
D11*
X165195250Y-38100000D03*
D12*
X167735250Y-33020000D03*
X161385250Y-35560000D03*
D10*
X171285250Y-33020000D03*
D13*
X170275250Y-38100000D03*
X160115250Y-38100000D03*
%TD*%
%TO.C,SW38*%
X163925250Y-57150000D03*
X174085250Y-57150000D03*
D10*
X175095250Y-52070000D03*
D12*
X165195250Y-54610000D03*
X171545250Y-52070000D03*
D11*
X169005250Y-57150000D03*
D10*
X161645250Y-54610000D03*
%TD*%
D13*
%TO.C,SW39*%
X173450250Y-76200000D03*
X183610250Y-76200000D03*
D10*
X184620250Y-71120000D03*
D12*
X174720250Y-73660000D03*
X181070250Y-71120000D03*
D11*
X178530250Y-76200000D03*
D10*
X171170250Y-73660000D03*
%TD*%
%TO.C,SW40*%
X175932750Y-92710000D03*
D11*
X183292750Y-95250000D03*
D12*
X185832750Y-90170000D03*
X179482750Y-92710000D03*
D10*
X189382750Y-90170000D03*
D13*
X188372750Y-95250000D03*
X178212750Y-95250000D03*
%TD*%
%TO.C,SW41*%
X187737750Y-114300000D03*
X197897750Y-114300000D03*
D10*
X198907750Y-109220000D03*
D12*
X189007750Y-111760000D03*
X195357750Y-109220000D03*
D11*
X192817750Y-114300000D03*
D10*
X185457750Y-111760000D03*
%TD*%
%TO.C,SW42*%
X192601500Y-130810000D03*
D11*
X199961500Y-133350000D03*
D12*
X202501500Y-128270000D03*
X196151500Y-130810000D03*
D10*
X206051500Y-128270000D03*
D13*
X205041500Y-133350000D03*
X194881500Y-133350000D03*
%TD*%
D10*
%TO.C,SW43*%
X176885250Y-35560000D03*
D11*
X184245250Y-38100000D03*
D12*
X186785250Y-33020000D03*
X180435250Y-35560000D03*
D10*
X190335250Y-33020000D03*
D13*
X189325250Y-38100000D03*
X179165250Y-38100000D03*
%TD*%
D10*
%TO.C,SW44*%
X180695250Y-54610000D03*
D11*
X188055250Y-57150000D03*
D12*
X190595250Y-52070000D03*
X184245250Y-54610000D03*
D10*
X194145250Y-52070000D03*
D13*
X193135250Y-57150000D03*
X182975250Y-57150000D03*
%TD*%
%TO.C,SW45*%
X192500250Y-76200000D03*
X202660250Y-76200000D03*
D10*
X203670250Y-71120000D03*
D12*
X193770250Y-73660000D03*
X200120250Y-71120000D03*
D11*
X197580250Y-76200000D03*
D10*
X190220250Y-73660000D03*
%TD*%
D13*
%TO.C,SW46*%
X197262750Y-95250000D03*
X207422750Y-95250000D03*
D10*
X208432750Y-90170000D03*
D12*
X198532750Y-92710000D03*
X204882750Y-90170000D03*
D11*
X202342750Y-95250000D03*
D10*
X194982750Y-92710000D03*
%TD*%
%TO.C,SW47*%
X204507750Y-111760000D03*
D11*
X211867750Y-114300000D03*
D12*
X214407750Y-109220000D03*
X208057750Y-111760000D03*
D10*
X217957750Y-109220000D03*
D13*
X216947750Y-114300000D03*
X206787750Y-114300000D03*
%TD*%
%TO.C,SW48*%
X221075250Y-133350000D03*
X231235250Y-133350000D03*
D10*
X232245250Y-128270000D03*
D12*
X222345250Y-130810000D03*
X228695250Y-128270000D03*
D11*
X226155250Y-133350000D03*
D10*
X218795250Y-130810000D03*
%TD*%
%TO.C,SW49*%
X195935250Y-35560000D03*
D11*
X203295250Y-38100000D03*
D12*
X205835250Y-33020000D03*
X199485250Y-35560000D03*
D10*
X209385250Y-33020000D03*
D13*
X208375250Y-38100000D03*
X198215250Y-38100000D03*
%TD*%
D10*
%TO.C,SW50*%
X199745250Y-54610000D03*
D11*
X207105250Y-57150000D03*
D12*
X209645250Y-52070000D03*
X203295250Y-54610000D03*
D10*
X213195250Y-52070000D03*
D13*
X212185250Y-57150000D03*
X202025250Y-57150000D03*
%TD*%
D10*
%TO.C,SW51*%
X209270250Y-73660000D03*
D11*
X216630250Y-76200000D03*
D12*
X219170250Y-71120000D03*
X212820250Y-73660000D03*
D10*
X222720250Y-71120000D03*
D13*
X221710250Y-76200000D03*
X211550250Y-76200000D03*
%TD*%
%TO.C,SW53*%
X225837750Y-114300000D03*
X235997750Y-114300000D03*
D10*
X237007750Y-109220000D03*
D12*
X227107750Y-111760000D03*
X233457750Y-109220000D03*
D11*
X230917750Y-114300000D03*
D10*
X223557750Y-111760000D03*
%TD*%
%TO.C,SW54*%
X237845250Y-130810000D03*
D11*
X245205250Y-133350000D03*
D12*
X247745250Y-128270000D03*
X241395250Y-130810000D03*
D10*
X251295250Y-128270000D03*
D13*
X250285250Y-133350000D03*
X240125250Y-133350000D03*
%TD*%
%TO.C,SW55*%
X221075250Y-38100000D03*
X231235250Y-38100000D03*
D10*
X232245250Y-33020000D03*
D12*
X222345250Y-35560000D03*
X228695250Y-33020000D03*
D11*
X226155250Y-38100000D03*
D10*
X218795250Y-35560000D03*
%TD*%
%TO.C,SW56*%
X218795250Y-54610000D03*
D11*
X226155250Y-57150000D03*
D12*
X228695250Y-52070000D03*
X222345250Y-54610000D03*
D10*
X232245250Y-52070000D03*
D13*
X231235250Y-57150000D03*
X221075250Y-57150000D03*
%TD*%
%TO.C,SW57*%
X230600250Y-76200000D03*
X240760250Y-76200000D03*
D10*
X241770250Y-71120000D03*
D12*
X231870250Y-73660000D03*
X238220250Y-71120000D03*
D11*
X235680250Y-76200000D03*
D10*
X228320250Y-73660000D03*
%TD*%
D13*
%TO.C,SW58*%
X235362750Y-95250000D03*
X245522750Y-95250000D03*
D10*
X246532750Y-90170000D03*
D12*
X236632750Y-92710000D03*
X242982750Y-90170000D03*
D11*
X240442750Y-95250000D03*
D10*
X233082750Y-92710000D03*
%TD*%
D13*
%TO.C,SW59*%
X244887750Y-114300000D03*
X255047750Y-114300000D03*
D10*
X256057750Y-109220000D03*
D12*
X246157750Y-111760000D03*
X252507750Y-109220000D03*
D11*
X249967750Y-114300000D03*
D10*
X242607750Y-111760000D03*
%TD*%
%TO.C,SW60*%
X256895250Y-130810000D03*
D11*
X264255250Y-133350000D03*
D12*
X266795250Y-128270000D03*
X260445250Y-130810000D03*
D10*
X270345250Y-128270000D03*
D13*
X269335250Y-133350000D03*
X259175250Y-133350000D03*
%TD*%
D10*
%TO.C,SW61*%
X237845250Y-35560000D03*
D11*
X245205250Y-38100000D03*
D12*
X247745250Y-33020000D03*
X241395250Y-35560000D03*
D10*
X251295250Y-33020000D03*
D13*
X250285250Y-38100000D03*
X240125250Y-38100000D03*
%TD*%
%TO.C,SW62*%
X240125250Y-57150000D03*
X250285250Y-57150000D03*
D10*
X251295250Y-52070000D03*
D12*
X241395250Y-54610000D03*
X247745250Y-52070000D03*
D11*
X245205250Y-57150000D03*
D10*
X237845250Y-54610000D03*
%TD*%
D13*
%TO.C,SW63*%
X249650250Y-76200000D03*
X259810250Y-76200000D03*
D10*
X260820250Y-71120000D03*
D12*
X250920250Y-73660000D03*
X257270250Y-71120000D03*
D11*
X254730250Y-76200000D03*
D10*
X247370250Y-73660000D03*
%TD*%
D13*
%TO.C,SW64*%
X254412750Y-95250000D03*
X264572750Y-95250000D03*
D10*
X265582750Y-90170000D03*
D12*
X255682750Y-92710000D03*
X262032750Y-90170000D03*
D11*
X259492750Y-95250000D03*
D10*
X252132750Y-92710000D03*
%TD*%
%TO.C,SW65*%
X261657750Y-111760000D03*
D11*
X269017750Y-114300000D03*
D12*
X271557750Y-109220000D03*
X265207750Y-111760000D03*
D10*
X275107750Y-109220000D03*
D13*
X274097750Y-114300000D03*
X263937750Y-114300000D03*
%TD*%
%TO.C,SW66*%
X278225250Y-133350000D03*
X288385250Y-133350000D03*
D10*
X289395250Y-128270000D03*
D12*
X279495250Y-130810000D03*
X285845250Y-128270000D03*
D11*
X283305250Y-133350000D03*
D10*
X275945250Y-130810000D03*
%TD*%
D13*
%TO.C,SW67*%
X259175250Y-38100000D03*
X269335250Y-38100000D03*
D10*
X270345250Y-33020000D03*
D12*
X260445250Y-35560000D03*
X266795250Y-33020000D03*
D11*
X264255250Y-38100000D03*
D10*
X256895250Y-35560000D03*
%TD*%
%TO.C,SW68*%
X256895250Y-54610000D03*
D11*
X264255250Y-57150000D03*
D12*
X266795250Y-52070000D03*
X260445250Y-54610000D03*
D10*
X270345250Y-52070000D03*
D13*
X269335250Y-57150000D03*
X259175250Y-57150000D03*
%TD*%
D10*
%TO.C,SW69*%
X266420250Y-73660000D03*
D11*
X273780250Y-76200000D03*
D12*
X276320250Y-71120000D03*
X269970250Y-73660000D03*
D10*
X279870250Y-71120000D03*
D13*
X278860250Y-76200000D03*
X268700250Y-76200000D03*
%TD*%
%TO.C,SW70*%
X273462750Y-95250000D03*
X283622750Y-95250000D03*
D10*
X284632750Y-90170000D03*
D12*
X274732750Y-92710000D03*
X281082750Y-90170000D03*
D11*
X278542750Y-95250000D03*
D10*
X271182750Y-92710000D03*
%TD*%
%TO.C,SW71*%
X280707750Y-111760000D03*
D11*
X288067750Y-114300000D03*
D12*
X290607750Y-109220000D03*
X284257750Y-111760000D03*
D10*
X294157750Y-109220000D03*
D13*
X293147750Y-114300000D03*
X282987750Y-114300000D03*
%TD*%
D10*
%TO.C,SW72*%
X294995250Y-130810000D03*
D11*
X302355250Y-133350000D03*
D12*
X304895250Y-128270000D03*
X298545250Y-130810000D03*
D10*
X308445250Y-128270000D03*
D13*
X307435250Y-133350000D03*
X297275250Y-133350000D03*
%TD*%
%TO.C,SW73*%
X278225250Y-38100000D03*
X288385250Y-38100000D03*
D10*
X289395250Y-33020000D03*
D12*
X279495250Y-35560000D03*
X285845250Y-33020000D03*
D11*
X283305250Y-38100000D03*
D10*
X275945250Y-35560000D03*
%TD*%
D13*
%TO.C,SW74*%
X278225250Y-57150000D03*
X288385250Y-57150000D03*
D10*
X289395250Y-52070000D03*
D12*
X279495250Y-54610000D03*
X285845250Y-52070000D03*
D11*
X283305250Y-57150000D03*
D10*
X275945250Y-54610000D03*
%TD*%
D13*
%TO.C,SW75*%
X287750250Y-76200000D03*
X297910250Y-76200000D03*
D10*
X298920250Y-71120000D03*
D12*
X289020250Y-73660000D03*
X295370250Y-71120000D03*
D11*
X292830250Y-76200000D03*
D10*
X285470250Y-73660000D03*
%TD*%
%TO.C,SW76*%
X290232750Y-92710000D03*
D11*
X297592750Y-95250000D03*
D12*
X300132750Y-90170000D03*
X293782750Y-92710000D03*
D10*
X303682750Y-90170000D03*
D13*
X302672750Y-95250000D03*
X292512750Y-95250000D03*
%TD*%
%TO.C,SW77*%
X309181500Y-114300000D03*
X319341500Y-114300000D03*
D10*
X320351500Y-109220000D03*
D12*
X310451500Y-111760000D03*
X316801500Y-109220000D03*
D11*
X314261500Y-114300000D03*
D10*
X306901500Y-111760000D03*
%TD*%
D13*
%TO.C,SW78*%
X316325250Y-133350000D03*
X326485250Y-133350000D03*
D10*
X327495250Y-128270000D03*
D12*
X317595250Y-130810000D03*
X323945250Y-128270000D03*
D11*
X321405250Y-133350000D03*
D10*
X314045250Y-130810000D03*
%TD*%
%TO.C,SW79*%
X294995250Y-35560000D03*
D11*
X302355250Y-38100000D03*
D12*
X304895250Y-33020000D03*
X298545250Y-35560000D03*
D10*
X308445250Y-33020000D03*
D13*
X307435250Y-38100000D03*
X297275250Y-38100000D03*
%TD*%
D10*
%TO.C,SW80*%
X294995250Y-54610000D03*
D11*
X302355250Y-57150000D03*
D12*
X304895250Y-52070000D03*
X298545250Y-54610000D03*
D10*
X308445250Y-52070000D03*
D13*
X307435250Y-57150000D03*
X297275250Y-57150000D03*
%TD*%
D10*
%TO.C,SW81*%
X309282750Y-73660000D03*
D11*
X316642750Y-76200000D03*
D12*
X319182750Y-71120000D03*
X312832750Y-73660000D03*
D10*
X322732750Y-71120000D03*
D13*
X321722750Y-76200000D03*
X311562750Y-76200000D03*
%TD*%
%TO.C,SW82*%
X316325250Y-38100000D03*
X326485250Y-38100000D03*
D10*
X327495250Y-33020000D03*
D12*
X317595250Y-35560000D03*
X323945250Y-33020000D03*
D11*
X321405250Y-38100000D03*
D10*
X314045250Y-35560000D03*
%TD*%
%TO.C,U3*%
G36*
G01*
X319209000Y-88115000D02*
X319209000Y-88415000D01*
G75*
G02*
X319059000Y-88565000I-150000J0D01*
G01*
X317309000Y-88565000D01*
G75*
G02*
X317159000Y-88415000I0J150000D01*
G01*
X317159000Y-88115000D01*
G75*
G02*
X317309000Y-87965000I150000J0D01*
G01*
X319059000Y-87965000D01*
G75*
G02*
X319209000Y-88115000I0J-150000D01*
G01*
G37*
G36*
G01*
X319209000Y-89385000D02*
X319209000Y-89685000D01*
G75*
G02*
X319059000Y-89835000I-150000J0D01*
G01*
X317309000Y-89835000D01*
G75*
G02*
X317159000Y-89685000I0J150000D01*
G01*
X317159000Y-89385000D01*
G75*
G02*
X317309000Y-89235000I150000J0D01*
G01*
X319059000Y-89235000D01*
G75*
G02*
X319209000Y-89385000I0J-150000D01*
G01*
G37*
G36*
G01*
X319209000Y-90655000D02*
X319209000Y-90955000D01*
G75*
G02*
X319059000Y-91105000I-150000J0D01*
G01*
X317309000Y-91105000D01*
G75*
G02*
X317159000Y-90955000I0J150000D01*
G01*
X317159000Y-90655000D01*
G75*
G02*
X317309000Y-90505000I150000J0D01*
G01*
X319059000Y-90505000D01*
G75*
G02*
X319209000Y-90655000I0J-150000D01*
G01*
G37*
G36*
G01*
X319209000Y-91925000D02*
X319209000Y-92225000D01*
G75*
G02*
X319059000Y-92375000I-150000J0D01*
G01*
X317309000Y-92375000D01*
G75*
G02*
X317159000Y-92225000I0J150000D01*
G01*
X317159000Y-91925000D01*
G75*
G02*
X317309000Y-91775000I150000J0D01*
G01*
X319059000Y-91775000D01*
G75*
G02*
X319209000Y-91925000I0J-150000D01*
G01*
G37*
G36*
G01*
X319209000Y-93195000D02*
X319209000Y-93495000D01*
G75*
G02*
X319059000Y-93645000I-150000J0D01*
G01*
X317309000Y-93645000D01*
G75*
G02*
X317159000Y-93495000I0J150000D01*
G01*
X317159000Y-93195000D01*
G75*
G02*
X317309000Y-93045000I150000J0D01*
G01*
X319059000Y-93045000D01*
G75*
G02*
X319209000Y-93195000I0J-150000D01*
G01*
G37*
G36*
G01*
X319209000Y-94465000D02*
X319209000Y-94765000D01*
G75*
G02*
X319059000Y-94915000I-150000J0D01*
G01*
X317309000Y-94915000D01*
G75*
G02*
X317159000Y-94765000I0J150000D01*
G01*
X317159000Y-94465000D01*
G75*
G02*
X317309000Y-94315000I150000J0D01*
G01*
X319059000Y-94315000D01*
G75*
G02*
X319209000Y-94465000I0J-150000D01*
G01*
G37*
G36*
G01*
X319209000Y-95735000D02*
X319209000Y-96035000D01*
G75*
G02*
X319059000Y-96185000I-150000J0D01*
G01*
X317309000Y-96185000D01*
G75*
G02*
X317159000Y-96035000I0J150000D01*
G01*
X317159000Y-95735000D01*
G75*
G02*
X317309000Y-95585000I150000J0D01*
G01*
X319059000Y-95585000D01*
G75*
G02*
X319209000Y-95735000I0J-150000D01*
G01*
G37*
G36*
G01*
X319209000Y-97005000D02*
X319209000Y-97305000D01*
G75*
G02*
X319059000Y-97455000I-150000J0D01*
G01*
X317309000Y-97455000D01*
G75*
G02*
X317159000Y-97305000I0J150000D01*
G01*
X317159000Y-97005000D01*
G75*
G02*
X317309000Y-96855000I150000J0D01*
G01*
X319059000Y-96855000D01*
G75*
G02*
X319209000Y-97005000I0J-150000D01*
G01*
G37*
G36*
G01*
X319209000Y-98275000D02*
X319209000Y-98575000D01*
G75*
G02*
X319059000Y-98725000I-150000J0D01*
G01*
X317309000Y-98725000D01*
G75*
G02*
X317159000Y-98575000I0J150000D01*
G01*
X317159000Y-98275000D01*
G75*
G02*
X317309000Y-98125000I150000J0D01*
G01*
X319059000Y-98125000D01*
G75*
G02*
X319209000Y-98275000I0J-150000D01*
G01*
G37*
G36*
G01*
X319209000Y-99545000D02*
X319209000Y-99845000D01*
G75*
G02*
X319059000Y-99995000I-150000J0D01*
G01*
X317309000Y-99995000D01*
G75*
G02*
X317159000Y-99845000I0J150000D01*
G01*
X317159000Y-99545000D01*
G75*
G02*
X317309000Y-99395000I150000J0D01*
G01*
X319059000Y-99395000D01*
G75*
G02*
X319209000Y-99545000I0J-150000D01*
G01*
G37*
G36*
G01*
X319209000Y-100815000D02*
X319209000Y-101115000D01*
G75*
G02*
X319059000Y-101265000I-150000J0D01*
G01*
X317309000Y-101265000D01*
G75*
G02*
X317159000Y-101115000I0J150000D01*
G01*
X317159000Y-100815000D01*
G75*
G02*
X317309000Y-100665000I150000J0D01*
G01*
X319059000Y-100665000D01*
G75*
G02*
X319209000Y-100815000I0J-150000D01*
G01*
G37*
G36*
G01*
X319209000Y-102085000D02*
X319209000Y-102385000D01*
G75*
G02*
X319059000Y-102535000I-150000J0D01*
G01*
X317309000Y-102535000D01*
G75*
G02*
X317159000Y-102385000I0J150000D01*
G01*
X317159000Y-102085000D01*
G75*
G02*
X317309000Y-101935000I150000J0D01*
G01*
X319059000Y-101935000D01*
G75*
G02*
X319209000Y-102085000I0J-150000D01*
G01*
G37*
G36*
G01*
X319209000Y-103355000D02*
X319209000Y-103655000D01*
G75*
G02*
X319059000Y-103805000I-150000J0D01*
G01*
X317309000Y-103805000D01*
G75*
G02*
X317159000Y-103655000I0J150000D01*
G01*
X317159000Y-103355000D01*
G75*
G02*
X317309000Y-103205000I150000J0D01*
G01*
X319059000Y-103205000D01*
G75*
G02*
X319209000Y-103355000I0J-150000D01*
G01*
G37*
G36*
G01*
X319209000Y-104625000D02*
X319209000Y-104925000D01*
G75*
G02*
X319059000Y-105075000I-150000J0D01*
G01*
X317309000Y-105075000D01*
G75*
G02*
X317159000Y-104925000I0J150000D01*
G01*
X317159000Y-104625000D01*
G75*
G02*
X317309000Y-104475000I150000J0D01*
G01*
X319059000Y-104475000D01*
G75*
G02*
X319209000Y-104625000I0J-150000D01*
G01*
G37*
G36*
G01*
X328509000Y-104625000D02*
X328509000Y-104925000D01*
G75*
G02*
X328359000Y-105075000I-150000J0D01*
G01*
X326609000Y-105075000D01*
G75*
G02*
X326459000Y-104925000I0J150000D01*
G01*
X326459000Y-104625000D01*
G75*
G02*
X326609000Y-104475000I150000J0D01*
G01*
X328359000Y-104475000D01*
G75*
G02*
X328509000Y-104625000I0J-150000D01*
G01*
G37*
G36*
G01*
X328509000Y-103355000D02*
X328509000Y-103655000D01*
G75*
G02*
X328359000Y-103805000I-150000J0D01*
G01*
X326609000Y-103805000D01*
G75*
G02*
X326459000Y-103655000I0J150000D01*
G01*
X326459000Y-103355000D01*
G75*
G02*
X326609000Y-103205000I150000J0D01*
G01*
X328359000Y-103205000D01*
G75*
G02*
X328509000Y-103355000I0J-150000D01*
G01*
G37*
G36*
G01*
X328509000Y-102085000D02*
X328509000Y-102385000D01*
G75*
G02*
X328359000Y-102535000I-150000J0D01*
G01*
X326609000Y-102535000D01*
G75*
G02*
X326459000Y-102385000I0J150000D01*
G01*
X326459000Y-102085000D01*
G75*
G02*
X326609000Y-101935000I150000J0D01*
G01*
X328359000Y-101935000D01*
G75*
G02*
X328509000Y-102085000I0J-150000D01*
G01*
G37*
G36*
G01*
X328509000Y-100815000D02*
X328509000Y-101115000D01*
G75*
G02*
X328359000Y-101265000I-150000J0D01*
G01*
X326609000Y-101265000D01*
G75*
G02*
X326459000Y-101115000I0J150000D01*
G01*
X326459000Y-100815000D01*
G75*
G02*
X326609000Y-100665000I150000J0D01*
G01*
X328359000Y-100665000D01*
G75*
G02*
X328509000Y-100815000I0J-150000D01*
G01*
G37*
G36*
G01*
X328509000Y-99545000D02*
X328509000Y-99845000D01*
G75*
G02*
X328359000Y-99995000I-150000J0D01*
G01*
X326609000Y-99995000D01*
G75*
G02*
X326459000Y-99845000I0J150000D01*
G01*
X326459000Y-99545000D01*
G75*
G02*
X326609000Y-99395000I150000J0D01*
G01*
X328359000Y-99395000D01*
G75*
G02*
X328509000Y-99545000I0J-150000D01*
G01*
G37*
G36*
G01*
X328509000Y-98275000D02*
X328509000Y-98575000D01*
G75*
G02*
X328359000Y-98725000I-150000J0D01*
G01*
X326609000Y-98725000D01*
G75*
G02*
X326459000Y-98575000I0J150000D01*
G01*
X326459000Y-98275000D01*
G75*
G02*
X326609000Y-98125000I150000J0D01*
G01*
X328359000Y-98125000D01*
G75*
G02*
X328509000Y-98275000I0J-150000D01*
G01*
G37*
G36*
G01*
X328509000Y-97005000D02*
X328509000Y-97305000D01*
G75*
G02*
X328359000Y-97455000I-150000J0D01*
G01*
X326609000Y-97455000D01*
G75*
G02*
X326459000Y-97305000I0J150000D01*
G01*
X326459000Y-97005000D01*
G75*
G02*
X326609000Y-96855000I150000J0D01*
G01*
X328359000Y-96855000D01*
G75*
G02*
X328509000Y-97005000I0J-150000D01*
G01*
G37*
G36*
G01*
X328509000Y-95735000D02*
X328509000Y-96035000D01*
G75*
G02*
X328359000Y-96185000I-150000J0D01*
G01*
X326609000Y-96185000D01*
G75*
G02*
X326459000Y-96035000I0J150000D01*
G01*
X326459000Y-95735000D01*
G75*
G02*
X326609000Y-95585000I150000J0D01*
G01*
X328359000Y-95585000D01*
G75*
G02*
X328509000Y-95735000I0J-150000D01*
G01*
G37*
G36*
G01*
X328509000Y-94465000D02*
X328509000Y-94765000D01*
G75*
G02*
X328359000Y-94915000I-150000J0D01*
G01*
X326609000Y-94915000D01*
G75*
G02*
X326459000Y-94765000I0J150000D01*
G01*
X326459000Y-94465000D01*
G75*
G02*
X326609000Y-94315000I150000J0D01*
G01*
X328359000Y-94315000D01*
G75*
G02*
X328509000Y-94465000I0J-150000D01*
G01*
G37*
G36*
G01*
X328509000Y-93195000D02*
X328509000Y-93495000D01*
G75*
G02*
X328359000Y-93645000I-150000J0D01*
G01*
X326609000Y-93645000D01*
G75*
G02*
X326459000Y-93495000I0J150000D01*
G01*
X326459000Y-93195000D01*
G75*
G02*
X326609000Y-93045000I150000J0D01*
G01*
X328359000Y-93045000D01*
G75*
G02*
X328509000Y-93195000I0J-150000D01*
G01*
G37*
G36*
G01*
X328509000Y-91925000D02*
X328509000Y-92225000D01*
G75*
G02*
X328359000Y-92375000I-150000J0D01*
G01*
X326609000Y-92375000D01*
G75*
G02*
X326459000Y-92225000I0J150000D01*
G01*
X326459000Y-91925000D01*
G75*
G02*
X326609000Y-91775000I150000J0D01*
G01*
X328359000Y-91775000D01*
G75*
G02*
X328509000Y-91925000I0J-150000D01*
G01*
G37*
G36*
G01*
X328509000Y-90655000D02*
X328509000Y-90955000D01*
G75*
G02*
X328359000Y-91105000I-150000J0D01*
G01*
X326609000Y-91105000D01*
G75*
G02*
X326459000Y-90955000I0J150000D01*
G01*
X326459000Y-90655000D01*
G75*
G02*
X326609000Y-90505000I150000J0D01*
G01*
X328359000Y-90505000D01*
G75*
G02*
X328509000Y-90655000I0J-150000D01*
G01*
G37*
G36*
G01*
X328509000Y-89385000D02*
X328509000Y-89685000D01*
G75*
G02*
X328359000Y-89835000I-150000J0D01*
G01*
X326609000Y-89835000D01*
G75*
G02*
X326459000Y-89685000I0J150000D01*
G01*
X326459000Y-89385000D01*
G75*
G02*
X326609000Y-89235000I150000J0D01*
G01*
X328359000Y-89235000D01*
G75*
G02*
X328509000Y-89385000I0J-150000D01*
G01*
G37*
G36*
G01*
X328509000Y-88115000D02*
X328509000Y-88415000D01*
G75*
G02*
X328359000Y-88565000I-150000J0D01*
G01*
X326609000Y-88565000D01*
G75*
G02*
X326459000Y-88415000I0J150000D01*
G01*
X326459000Y-88115000D01*
G75*
G02*
X326609000Y-87965000I150000J0D01*
G01*
X328359000Y-87965000D01*
G75*
G02*
X328509000Y-88115000I0J-150000D01*
G01*
G37*
%TD*%
%TO.C,U4*%
G36*
G01*
X308124000Y-83970000D02*
X308124000Y-83670000D01*
G75*
G02*
X308274000Y-83520000I150000J0D01*
G01*
X309624000Y-83520000D01*
G75*
G02*
X309774000Y-83670000I0J-150000D01*
G01*
X309774000Y-83970000D01*
G75*
G02*
X309624000Y-84120000I-150000J0D01*
G01*
X308274000Y-84120000D01*
G75*
G02*
X308124000Y-83970000I0J150000D01*
G01*
G37*
G36*
G01*
X308124000Y-82700000D02*
X308124000Y-82400000D01*
G75*
G02*
X308274000Y-82250000I150000J0D01*
G01*
X309624000Y-82250000D01*
G75*
G02*
X309774000Y-82400000I0J-150000D01*
G01*
X309774000Y-82700000D01*
G75*
G02*
X309624000Y-82850000I-150000J0D01*
G01*
X308274000Y-82850000D01*
G75*
G02*
X308124000Y-82700000I0J150000D01*
G01*
G37*
G36*
G01*
X308124000Y-81430000D02*
X308124000Y-81130000D01*
G75*
G02*
X308274000Y-80980000I150000J0D01*
G01*
X309624000Y-80980000D01*
G75*
G02*
X309774000Y-81130000I0J-150000D01*
G01*
X309774000Y-81430000D01*
G75*
G02*
X309624000Y-81580000I-150000J0D01*
G01*
X308274000Y-81580000D01*
G75*
G02*
X308124000Y-81430000I0J150000D01*
G01*
G37*
G36*
G01*
X308124000Y-80160000D02*
X308124000Y-79860000D01*
G75*
G02*
X308274000Y-79710000I150000J0D01*
G01*
X309624000Y-79710000D01*
G75*
G02*
X309774000Y-79860000I0J-150000D01*
G01*
X309774000Y-80160000D01*
G75*
G02*
X309624000Y-80310000I-150000J0D01*
G01*
X308274000Y-80310000D01*
G75*
G02*
X308124000Y-80160000I0J150000D01*
G01*
G37*
G36*
G01*
X302874000Y-80160000D02*
X302874000Y-79860000D01*
G75*
G02*
X303024000Y-79710000I150000J0D01*
G01*
X304374000Y-79710000D01*
G75*
G02*
X304524000Y-79860000I0J-150000D01*
G01*
X304524000Y-80160000D01*
G75*
G02*
X304374000Y-80310000I-150000J0D01*
G01*
X303024000Y-80310000D01*
G75*
G02*
X302874000Y-80160000I0J150000D01*
G01*
G37*
G36*
G01*
X302874000Y-81430000D02*
X302874000Y-81130000D01*
G75*
G02*
X303024000Y-80980000I150000J0D01*
G01*
X304374000Y-80980000D01*
G75*
G02*
X304524000Y-81130000I0J-150000D01*
G01*
X304524000Y-81430000D01*
G75*
G02*
X304374000Y-81580000I-150000J0D01*
G01*
X303024000Y-81580000D01*
G75*
G02*
X302874000Y-81430000I0J150000D01*
G01*
G37*
G36*
G01*
X302874000Y-82700000D02*
X302874000Y-82400000D01*
G75*
G02*
X303024000Y-82250000I150000J0D01*
G01*
X304374000Y-82250000D01*
G75*
G02*
X304524000Y-82400000I0J-150000D01*
G01*
X304524000Y-82700000D01*
G75*
G02*
X304374000Y-82850000I-150000J0D01*
G01*
X303024000Y-82850000D01*
G75*
G02*
X302874000Y-82700000I0J150000D01*
G01*
G37*
G36*
G01*
X302874000Y-83970000D02*
X302874000Y-83670000D01*
G75*
G02*
X303024000Y-83520000I150000J0D01*
G01*
X304374000Y-83520000D01*
G75*
G02*
X304524000Y-83670000I0J-150000D01*
G01*
X304524000Y-83970000D01*
G75*
G02*
X304374000Y-84120000I-150000J0D01*
G01*
X303024000Y-84120000D01*
G75*
G02*
X302874000Y-83970000I0J150000D01*
G01*
G37*
%TD*%
D28*
%TO.C,R5*%
X167640000Y-137668000D03*
D27*
X167640000Y-130048000D03*
%TD*%
%TO.C,R6*%
X146304000Y-41402000D03*
D28*
X146304000Y-33782000D03*
%TD*%
M02*
