M48
; DRILL file {KiCad (5.1.7)-1} date 12/27/20 21:22:38
; FORMAT={-:-/ absolute / inch / decimal}
; #@! TF.CreationDate,2020-12-27T21:22:38+09:00
; #@! TF.GenerationSoftware,Kicad,Pcbnew,(5.1.7)-1
; #@! TF.FileFunction,Plated,1,2,PTH
FMAT,2
INCH
T1C0.0157
T2C0.0276
T3C0.0315
T4C0.0354
T5C0.0394
%
G90
G05
T1
X1.175Y-2.275
X1.2Y-5.0
X1.2Y-5.3
X1.225Y-3.375
X1.3Y-1.2
X1.3Y-2.7
X1.3Y-3.6
X1.3274Y-4.9274
X1.4Y-4.35
X1.4Y-4.65
X1.425Y-4.6
X1.45Y-4.875
X1.5Y-1.7
X1.5Y-2.4
X1.5Y-3.1
X1.5Y-5.5
X1.575Y-4.675
X1.6Y-4.2
X1.675Y-4.6
X1.7Y-5.4
X1.7024Y-4.9274
X1.85Y-2.5
X1.9Y-1.2
X1.9Y-1.6
X1.9Y-1.75
X1.975Y-4.825
X1.975Y-5.125
X2.0Y-5.4
X2.1Y-2.8
X2.1Y-3.1
X2.1Y-4.95
X2.125Y-4.675
X2.2Y-2.4
X2.2Y-3.25
X2.3Y-4.5959
X2.3Y-5.4
X2.4Y-4.925
X2.425Y-3.95
X2.45Y-4.3
X2.45Y-4.55
X2.45Y-4.85
X2.45Y-4.85
X2.45Y-4.975
X2.46Y-4.0
X2.475Y-4.7
X2.5Y-1.6
X2.5Y-3.1
X2.5Y-4.35
X2.5Y-4.5
X2.55Y-4.45
X2.6Y-4.65
X2.65Y-1.675
X2.65Y-4.625
X2.7Y-1.2
X2.7Y-3.9
X2.7Y-5.4
X2.8Y-5.5
X2.825Y-4.65
X2.825Y-4.7
X2.85Y-4.9
X2.8977Y-4.5023
X2.95Y-4.3
X2.95Y-4.9
X3.0Y-2.4
X3.0Y-2.8
X3.0Y-4.65
X3.0051Y-2.6949
X3.1Y-5.4
X3.15Y-4.8
X3.2Y-3.1
X3.2Y-3.525
X3.2Y-3.95
X3.4Y-3.9
X3.4Y-5.4
X3.4125Y-1.7125
X3.55Y-5.05
X3.575Y-4.675
X3.6Y-1.6
X3.61Y-4.84
X3.6477Y-4.675
X3.7Y-2.4
X3.7875Y-1.7125
X3.8Y-2.8
X3.8Y-3.1
X3.8Y-5.4
X3.9Y-3.95
X3.925Y-3.575
X4.2Y-3.9
X4.2Y-5.4
X4.25Y-1.875
X4.25Y-1.925
X4.3Y-4.4
X4.325Y-5.025
X4.3977Y-4.625
X4.4Y-2.4
X4.514Y-2.786
X4.52Y-3.08
X4.525Y-3.4
X4.6Y-4.6
X4.6Y-5.4
X4.675Y-1.6
X4.6989Y-1.6489
X4.7Y-3.55
X4.7Y-3.8
X5.0Y-3.9
X5.0Y-4.2
X5.0Y-4.4
X5.0Y-5.4
X5.06Y-4.88
X5.1Y-2.4
X5.2Y-5.0
X5.3Y-1.6
X5.3Y-2.8
X5.3Y-3.1
X5.3Y-4.6
X5.325Y-4.825
X5.4Y-3.6
X5.4Y-5.4
X5.6Y-3.9
X5.65Y-1.15
X5.7Y-4.15
X5.76Y-1.28
X5.8Y-2.4
X5.8Y-4.4
X5.8Y-5.4
X6.1Y-2.6
X6.1Y-2.9
X6.1Y-3.3
X6.1Y-4.6
X6.2Y-1.2
X6.2Y-5.0
X6.2Y-5.4
X6.3Y-3.4
X6.3Y-3.7
X6.3Y-4.1
X6.525Y-5.575
X6.65Y-1.575
X6.7Y-4.2
X6.7Y-4.6
X6.7Y-5.0
X6.775Y-2.6
X7.0Y-3.2
X7.0Y-5.55
X7.1Y-4.0
X7.1Y-4.4
X7.1Y-4.8
X7.1Y-5.1
X7.3015Y-4.2085
X7.4Y-2.8
X7.4Y-5.4
X7.6Y-3.5
X7.775Y-1.6
X7.8Y-3.9
X7.8Y-5.4
X7.86Y-4.175
X8.0Y-4.6
X8.11Y-3.15
X8.16Y-3.07
X8.2Y-1.375
X8.237Y-1.163
X8.385Y-1.75
X8.425Y-1.35
X8.435Y-1.75
X8.475Y-1.65
X8.475Y-4.1
X8.535Y-1.75
X8.6Y-3.9
X8.6725Y-4.1625
X8.685Y-4.63
X8.8Y-5.4
X8.835Y-3.23
X8.885Y-3.2427
X8.935Y-3.135
X9.085Y-3.515
X9.085Y-3.95
X9.085Y-3.95
X9.1765Y-3.9085
X9.6Y-5.4
X9.675Y-3.0
X9.7Y-4.6
X9.8Y-2.7
X9.8Y-3.5
X9.9265Y-3.8835
X10.4Y-4.6
X10.4Y-5.4
X10.425Y-3.0
X10.5Y-2.7
X10.6Y-3.5
X10.6765Y-3.8585
X11.0Y-5.4
X11.2Y-3.0
X11.2Y-4.6
X11.35Y-3.575
X11.885Y-3.0744
X11.885Y-3.125
X11.885Y-3.2
X11.885Y-3.25
X11.9Y-5.4
X12.06Y-3.225
X12.075Y-4.85
X12.225Y-3.575
X12.235Y-3.775
X12.26Y-3.625
X12.285Y-3.675
X12.325Y-5.025
X12.335Y-3.775
X12.36Y-3.825
X12.36Y-3.975
X12.36Y-4.1
X12.46Y-4.15
X12.5Y-2.6
X12.5Y-5.4
X12.61Y-3.95
X12.61Y-4.05
X12.61Y-4.1
X12.635Y-4.2
X12.675Y-4.675
X12.685Y-3.8
X12.685Y-4.075
X12.735Y-4.075
X12.735Y-4.075
X12.785Y-4.075
X12.834Y-3.416
X12.835Y-4.025
X12.835Y-4.075
X12.9Y-4.9
X12.94Y-4.61
X12.95Y-2.875
X12.95Y-3.125
T2
X1.3Y-4.0
X1.3Y-4.3
X6.6Y-5.12
X6.6Y-5.42
X12.06Y-3.5
X12.06Y-3.8
X5.76Y-1.33
X5.76Y-1.63
X1.18Y-4.0
X1.18Y-4.3
X12.16Y-3.5
X12.16Y-3.8
T3
X5.45Y-4.85
X5.75Y-4.85
X5.75Y-4.1
X6.05Y-4.1
X10.385Y-2.6
X10.685Y-2.6
X4.3Y-4.1
X4.6Y-4.1
X2.95Y-1.85
X3.25Y-1.85
X12.335Y-4.85
X12.635Y-4.85
X2.8Y-4.1
X3.1Y-4.1
X12.635Y-2.6
X12.935Y-2.6
X9.46Y-4.1
X9.76Y-4.1
X8.885Y-1.85
X9.185Y-1.85
X1.7Y-3.35
X2.0Y-3.35
X5.05Y-4.1
X5.35Y-4.1
X12.635Y-1.85
X12.935Y-1.85
X4.7Y-5.6
X5.0Y-5.6
X10.385Y-1.85
X10.685Y-1.85
X4.15Y-3.35
X4.45Y-3.35
X10.035Y-3.35
X10.335Y-3.35
X4.9Y-3.35
X5.2Y-3.35
X10.785Y-3.35
X11.085Y-3.35
X3.95Y-5.6
X4.25Y-5.6
X9.285Y-3.35
X9.585Y-3.35
X12.94Y-2.96
X12.94Y-3.26
X7.785Y-3.35
X8.085Y-3.35
X7.21Y-4.1
X7.51Y-4.1
X10.21Y-4.1
X10.51Y-4.1
X3.4Y-3.35
X3.7Y-3.35
X3.0Y-2.6
X3.3Y-2.6
X11.885Y-5.6
X12.185Y-5.6
X3.95Y-4.85
X4.25Y-4.85
X8.335Y-4.85
X8.635Y-4.85
X9.635Y-5.6
X9.935Y-5.6
X8.885Y-2.6
X9.185Y-2.6
X1.5Y-2.6
X1.8Y-2.6
X2.25Y-1.85
X2.55Y-1.85
X2.325Y-3.95
X2.325Y-4.0484
X6.485Y-1.85
X6.785Y-1.85
X5.2Y-1.85
X5.5Y-1.85
X3.25Y-4.85
X3.55Y-4.85
X4.5Y-2.6
X4.8Y-2.6
X2.45Y-5.6
X2.75Y-5.6
X7.8738Y-1.65
X7.9525Y-1.65
X8.0313Y-1.65
X8.11Y-1.65
X7.96Y-4.1
X8.26Y-4.1
X8.035Y-1.85
X8.335Y-1.85
X8.885Y-5.6
X9.185Y-5.6
X1.5Y-1.85
X1.8Y-1.85
X7.585Y-4.85
X7.885Y-4.85
X12.635Y-5.6
X12.935Y-5.6
X5.8Y-5.6
X6.1Y-5.6
X11.885Y-1.85
X12.185Y-1.85
X3.2Y-5.6
X3.5Y-5.6
X12.435Y-3.35
X12.735Y-3.35
X4.45Y-1.85
X4.75Y-1.85
X10.96Y-4.1
X11.26Y-4.1
X11.685Y-4.1
X11.985Y-4.1
X9.085Y-4.85
X9.385Y-4.85
X7.385Y-2.6
X7.685Y-2.6
X8.535Y-3.35
X8.835Y-3.35
X2.65Y-3.35
X2.95Y-3.35
X1.6Y-5.6
X1.9Y-5.6
X7.85Y-5.6
X8.15Y-5.6
X4.3638Y-1.65
X4.4425Y-1.65
X4.5213Y-1.65
X4.6Y-1.65
X6.635Y-2.6
X6.935Y-2.6
X11.135Y-2.6
X11.435Y-2.6
X7.035Y-3.35
X7.335Y-3.35
X9.635Y-2.6
X9.935Y-2.6
X3.7Y-1.85
X4.0Y-1.85
X11.535Y-3.35
X11.835Y-3.35
X4.7Y-4.85
X5.0Y-4.85
X10.585Y-4.85
X10.885Y-4.85
X11.135Y-1.85
X11.435Y-1.85
X10.385Y-5.6
X10.685Y-5.6
X7.235Y-1.85
X7.535Y-1.85
X1.23Y-2.97
X1.23Y-3.27
X8.135Y-2.6
X8.435Y-2.6
X2.25Y-2.6
X2.55Y-2.6
X1.8Y-4.1
X2.1Y-4.1
X5.65Y-3.35
X5.95Y-3.35
X6.2Y-4.85
X6.5Y-4.85
X11.335Y-4.85
X11.635Y-4.85
X11.735Y-4.5766
X11.735Y-4.675
X11.135Y-5.6
X11.435Y-5.6
X3.55Y-4.1
X3.85Y-4.1
X11.885Y-2.6
X12.185Y-2.6
X3.75Y-2.6
X4.05Y-2.6
X9.635Y-1.85
X9.935Y-1.85
X9.835Y-4.85
X10.135Y-4.85
X5.25Y-2.6
X5.55Y-2.6
X8.71Y-4.1
X9.01Y-4.1
X1.75Y-4.85
X2.05Y-4.85
T4
X5.78Y-1.2
X5.88Y-1.2
X6.62Y-5.56
X6.72Y-5.56
T5
X6.86Y-1.275
X6.86Y-1.375
X6.86Y-1.475
X6.86Y-1.575
X4.1Y-1.275
X4.1Y-1.375
X4.1Y-1.475
X4.1Y-1.575
X4.1Y-1.675
X13.36Y-3.475
X13.36Y-3.575
X13.36Y-3.675
X13.36Y-3.775
X6.92Y-5.2
X6.92Y-5.3
X6.92Y-5.4
X13.96Y-1.3
X13.96Y-1.4
X13.96Y-1.5
X13.96Y-1.6
X13.96Y-1.7
X13.21Y-2.375
X13.21Y-2.475
X13.21Y-2.575
X13.21Y-2.675
X6.72Y-5.2
X6.72Y-5.3
X6.72Y-5.4
X13.96Y-4.575
X13.96Y-4.675
X13.96Y-4.775
X13.96Y-4.875
X13.96Y-4.975
X7.61Y-1.275
X7.61Y-1.375
X7.61Y-1.475
X7.61Y-1.575
X7.61Y-1.675
X13.36Y-1.3
X13.36Y-1.4
X13.36Y-1.5
X13.36Y-1.6
X6.08Y-1.36
X6.08Y-1.46
X6.08Y-1.56
X13.36Y-2.375
X13.36Y-2.475
X13.36Y-2.575
X13.36Y-2.675
X13.36Y-4.575
X13.36Y-4.675
X13.36Y-4.775
X13.36Y-4.875
X13.96Y-3.475
X13.96Y-3.575
X13.96Y-3.675
X13.96Y-3.775
X13.96Y-3.875
X13.96Y-2.375
X13.96Y-2.475
X13.96Y-2.575
X13.96Y-2.675
X13.96Y-2.775
X11.935Y-4.375
X11.935Y-4.475
X11.935Y-4.575
X11.935Y-4.675
X13.21Y-3.475
X13.21Y-3.575
X13.21Y-3.675
X13.21Y-3.775
X13.21Y-1.3
X13.21Y-1.4
X13.21Y-1.5
X13.21Y-1.6
X3.35Y-1.275
X3.35Y-1.375
X3.35Y-1.475
X3.35Y-1.575
X5.88Y-1.36
X5.88Y-1.46
X5.88Y-1.56
X13.21Y-4.575
X13.21Y-4.675
X13.21Y-4.775
X13.21Y-4.875
X2.2Y-3.525
X2.2Y-3.625
X2.2Y-3.725
X2.2Y-3.825
T5
G00X8.3523Y-1.2398
M15
G01X8.3523Y-1.2201
M16
G05
G00X8.3523Y-1.3579
M15
G01X8.3523Y-1.3382
M16
G05
G00X8.3523Y-1.5154
M15
G01X8.3523Y-1.4957
M16
G05
G00X8.5177Y-1.5744
M15
G01X8.5177Y-1.5547
M16
G05
G00X4.8423Y-1.2398
M15
G01X4.8423Y-1.2201
M16
G05
G00X4.8423Y-1.3579
M15
G01X4.8423Y-1.3382
M16
G05
G00X4.8423Y-1.5154
M15
G01X4.8423Y-1.4957
M16
G05
G00X5.0077Y-1.5744
M15
G01X5.0077Y-1.5547
M16
G05
T0
M30
